<svg xmlns="http://www.w3.org/2000/svg" viewBox="0 0 961.752 345.3"><defs><style>.a{opacity:0.157;}.b{fill:#007aff;}.c{fill:#fff;}</style></defs><g transform="translate(-216.016 -106.7)"><g class="a" transform="translate(216.016 106.7)"><circle class="b" cx="4.874" cy="4.874" r="4.874" transform="translate(227.177 198.695)"/><path class="b" d="M544.308,472.234h-1.06a3.921,3.921,0,0,1-1.1,2.713,3.845,3.845,0,0,1-2.713,1.1,3.921,3.921,0,0,1-2.713-1.1,3.845,3.845,0,0,1-1.1-2.713,3.921,3.921,0,0,1,1.1-2.713,3.844,3.844,0,0,1,2.713-1.1,3.921,3.921,0,0,1,2.713,1.1,3.845,3.845,0,0,1,1.1,2.713h2.119a5.934,5.934,0,1,0-5.934,5.934,5.951,5.951,0,0,0,5.934-5.934Z" transform="translate(-307.383 -268.665)"/><circle class="b" cx="4.874" cy="4.874" r="4.874" transform="translate(172.841 205.815)"/><path class="b" d="M416.108,489.034h-1.06a3.921,3.921,0,0,1-1.1,2.713,3.845,3.845,0,0,1-2.713,1.1,3.921,3.921,0,0,1-2.713-1.1,3.845,3.845,0,0,1-1.1-2.713,3.921,3.921,0,0,1,1.1-2.713,3.845,3.845,0,0,1,2.713-1.1,3.921,3.921,0,0,1,2.713,1.1,3.845,3.845,0,0,1,1.1,2.713h2.119a5.934,5.934,0,1,0-5.934,5.934,5.951,5.951,0,0,0,5.934-5.934Z" transform="translate(-233.519 -278.344)"/><path class="b" d="M506.917,289.909A6.909,6.909,0,1,1,500.009,283,6.91,6.91,0,0,1,506.917,289.909Z" transform="translate(-284.106 -163.054)"/><path class="b" d="M505.477,288.468h-1.06a5.862,5.862,0,0,1-1.7,4.154,5.789,5.789,0,0,1-4.154,1.7,5.863,5.863,0,0,1-4.154-1.7,5.79,5.79,0,0,1-1.7-4.154,5.863,5.863,0,0,1,1.7-4.154,5.789,5.789,0,0,1,4.154-1.7,5.862,5.862,0,0,1,4.154,1.7,5.789,5.789,0,0,1,1.7,4.154h2.119a7.968,7.968,0,1,0-7.968,7.968,7.959,7.959,0,0,0,7.968-7.968Z" transform="translate(-282.666 -161.614)"/><path class="b" d="M198.817,272.409a6.909,6.909,0,1,1-6.909-6.909A6.91,6.91,0,0,1,198.817,272.409Z" transform="translate(-106.59 -152.971)"/><path class="b" d="M197.377,270.968h-1.06a5.863,5.863,0,0,1-1.7,4.154,5.789,5.789,0,0,1-4.154,1.7,5.863,5.863,0,0,1-4.154-1.7,5.789,5.789,0,0,1-1.7-4.154,5.863,5.863,0,0,1,1.7-4.154,5.789,5.789,0,0,1,4.154-1.7,5.863,5.863,0,0,1,4.154,1.7,5.789,5.789,0,0,1,1.7,4.154h2.119a7.968,7.968,0,1,0-7.968,7.968,7.959,7.959,0,0,0,7.968-7.968Z" transform="translate(-105.15 -151.531)"/><path class="b" d="M369.517,588.708a6.909,6.909,0,1,1-6.909-6.908A6.91,6.91,0,0,1,369.517,588.708Z" transform="translate(-204.941 -335.212)"/><path class="b" d="M368.077,587.268h-1.06a5.862,5.862,0,0,1-1.7,4.154,5.789,5.789,0,0,1-4.154,1.7,5.862,5.862,0,0,1-4.154-1.7,5.789,5.789,0,0,1-1.7-4.154,5.862,5.862,0,0,1,1.7-4.154,5.789,5.789,0,0,1,4.154-1.7,5.863,5.863,0,0,1,4.154,1.7,5.789,5.789,0,0,1,1.7,4.154h2.119a7.968,7.968,0,1,0-7.968,7.968,7.959,7.959,0,0,0,7.968-7.968Z" transform="translate(-203.501 -333.771)"/><path class="b" d="M518.239,579.739l-.763-.763a57.165,57.165,0,0,1-12.673,9.706,32.585,32.585,0,0,1-5.849,2.585,16.388,16.388,0,0,1-4.959.89,8.364,8.364,0,0,1-2.628-.381,4.624,4.624,0,0,1-1.865-1.144,4.931,4.931,0,0,1-1.144-1.865,8.179,8.179,0,0,1-.381-2.628,16.39,16.39,0,0,1,.89-4.959,36.689,36.689,0,0,1,4.45-8.985,60.167,60.167,0,0,1,7.841-9.536,57.163,57.163,0,0,1,12.673-9.706,32.593,32.593,0,0,1,5.849-2.585,16.392,16.392,0,0,1,4.959-.89,8.365,8.365,0,0,1,2.628.381A4.625,4.625,0,0,1,529.131,551a4.933,4.933,0,0,1,1.144,1.865,8.178,8.178,0,0,1,.381,2.628,16.39,16.39,0,0,1-.89,4.959,36.692,36.692,0,0,1-4.45,8.985,60.171,60.171,0,0,1-7.841,9.536l.763.763.763.763a59.577,59.577,0,0,0,10.087-13.139,35.55,35.55,0,0,0,2.755-6.23,18.517,18.517,0,0,0,.975-5.595,10.394,10.394,0,0,0-.509-3.306,6.459,6.459,0,0,0-1.653-2.67,6.744,6.744,0,0,0-2.67-1.653,10.394,10.394,0,0,0-3.306-.509,18.517,18.517,0,0,0-5.595.975,38.65,38.65,0,0,0-9.494,4.7,62.332,62.332,0,0,0-9.875,8.1,59.574,59.574,0,0,0-10.087,13.139,35.55,35.55,0,0,0-2.755,6.23,18.519,18.519,0,0,0-.975,5.595,10.392,10.392,0,0,0,.509,3.306,6.46,6.46,0,0,0,1.653,2.67,6.744,6.744,0,0,0,2.67,1.653,10.392,10.392,0,0,0,3.306.509,18.518,18.518,0,0,0,5.595-.975,38.65,38.65,0,0,0,9.494-4.7A62.33,62.33,0,0,0,519,580.5Z" transform="translate(-279.958 -315.392)"/><path class="c" d="M387.126,636.854s-47.894-16.4-78.367,3.052-18.946,66.966-18.946,66.966l-7.883.17s-11.7-55.819,26.829-72.561c31.11-13.563,71.12,5.51,71.12,5.51Z" transform="translate(-161.476 -362.758)"/><path class="b" d="M385.709,635.35l.339-1.017a121.187,121.187,0,0,0-12.249-3.264,137.531,137.531,0,0,0-28.567-3.264,89.922,89.922,0,0,0-19.751,2.077,57.65,57.65,0,0,0-18.734,7.629,42.151,42.151,0,0,0-10.893,10.045,51.129,51.129,0,0,0-8.562,18.606,78.267,78.267,0,0,0-2.119,18.776,98.514,98.514,0,0,0,2.162,20.683l1.017-.254-.042-1.06-7.883.169.042,1.06,1.017-.212h0a100.656,100.656,0,0,1-1.653-18.522c0-8.816,1.144-19.539,5.171-29.245a46.21,46.21,0,0,1,8.477-13.52,41.4,41.4,0,0,1,14.2-10.045,62.713,62.713,0,0,1,25.049-4.789,109.641,109.641,0,0,1,31.491,5.128c4.2,1.272,7.629,2.585,10,3.518,1.187.466,2.119.89,2.755,1.144.3.127.551.254.721.339.085.042.127.085.17.085h.042a1.084,1.084,0,0,0,.89,0l7.29-3.094a1,1,0,0,0,.636-1.017,1.087,1.087,0,0,0-.721-.975l-.3,1.017-.424-.975L378,637.469l.424.975.466-.975a118.171,118.171,0,0,0-13.987-5.256A111.068,111.068,0,0,0,332.814,627a64.549,64.549,0,0,0-25.9,4.959A43.609,43.609,0,0,0,292,642.512c-5.849,6.358-9.367,14.071-11.486,21.828a87.555,87.555,0,0,0-2.713,22.379,102.529,102.529,0,0,0,1.7,18.988,1.051,1.051,0,0,0,1.06.848l7.883-.17a1.046,1.046,0,0,0,.975-1.314h0a93.586,93.586,0,0,1-2.119-20.132,70.871,70.871,0,0,1,3.984-24.5,46.113,46.113,0,0,1,6.273-11.613,39.349,39.349,0,0,1,10.342-9.536,56.112,56.112,0,0,1,18.1-7.332,87.723,87.723,0,0,1,19.285-2.034,134.376,134.376,0,0,1,28.1,3.221c3.687.805,6.7,1.611,8.773,2.2,1.06.3,1.865.551,2.416.721.254.085.466.17.636.212a.32.32,0,0,0,.17.042h.042l.3-.975-.424-.975Z" transform="translate(-160.058 -361.254)"/><path class="c" d="M394.357,569.985s-52.047-51.75-95.957-42.723v7.926C298.442,535.188,341.165,525.355,394.357,569.985Z" transform="translate(-171.927 -303.18)"/><path class="b" d="M392.974,568.6l.763-.763a205.088,205.088,0,0,0-27.337-22,155.4,155.4,0,0,0-27.549-15.131c-10-4.154-20.641-6.908-31.11-6.908a55.485,55.485,0,0,0-10.893,1.06,1.039,1.039,0,0,0-.848,1.017V533.8a1.067,1.067,0,0,0,.381.848.991.991,0,0,0,.89.212h0a54,54,0,0,1,10.85-.89c15.852,0,47.47,4.662,84.174,35.433a1.066,1.066,0,0,0,1.483-.085,1.025,1.025,0,0,0-.042-1.483l-.763.763.678-.805c-37.086-31.11-69.255-35.941-85.53-35.941a57.52,57.52,0,0,0-11.316.932l.254,1.017h1.06v-7.926h-1.06l.212,1.017a50.981,50.981,0,0,1,10.469-1.017c10.13,0,20.471,2.67,30.3,6.739,14.749,6.1,28.312,15.3,38.188,22.93,4.917,3.815,8.943,7.29,11.7,9.748,1.4,1.229,2.458,2.246,3.179,2.924.381.339.636.593.848.805l.212.212.085.085.721-.72.678-.805Z" transform="translate(-170.544 -301.794)"/><path class="b" d="M313.959,510.5c-.085-.17-6.23-10.511-27.549-24.032-21.361-13.52-57.938-30.22-118.971-43.1a1.064,1.064,0,0,0-.466,2.077c60.821,12.842,97.143,29.457,118.251,42.85,10.554,6.7,17.293,12.546,21.361,16.742a54.786,54.786,0,0,1,4.281,4.874c.424.551.721,1.017.932,1.272a3.911,3.911,0,0,1,.212.339l.042.085h0a1.046,1.046,0,0,0,1.441.381,1.063,1.063,0,0,0,.466-1.483Z" transform="translate(-95.725 -255.437)"/><path class="c" d="M2.5,388.764,56.878,357.4v41.833L2.5,430.639Z" transform="translate(-1.44 -205.921)"/><path class="b" d="M1.06,387.3l.509.932L54.336,357.76v39.417L2.119,427.312V387.3H1.06l.509.932L1.06,387.3H0v41.833a1.165,1.165,0,0,0,.509.932,1.167,1.167,0,0,0,1.06,0L55.946,398.7a1.017,1.017,0,0,0,.509-.932V355.937a1.165,1.165,0,0,0-.509-.932,1.052,1.052,0,0,0-1.06,0L.509,386.369A1.017,1.017,0,0,0,0,387.3Z" transform="translate(0 -204.458)"/><path class="c" d="M23.9,401.106,78.236,369.7v41.875L23.9,442.939Z" transform="translate(-13.77 -213.007)"/><path class="b" d="M22.46,399.7l.509.932L75.736,370.16v39.417L23.519,439.712V399.7H22.46l.509.932-.509-.932H21.4v41.833a1.039,1.039,0,0,0,1.568.932L77.346,411.1a1.017,1.017,0,0,0,.509-.932V368.337a1.165,1.165,0,0,0-.509-.932,1.052,1.052,0,0,0-1.06,0L21.909,398.769a1.017,1.017,0,0,0-.509.932Z" transform="translate(-12.33 -211.603)"/><path class="c" d="M48.6,427.927,82,408.6v20.98L48.6,448.865Z" transform="translate(-28.002 -235.42)"/><path class="b" d="M47.16,426.522l.509.932L79.5,409.1v18.522L48.219,445.679V426.564H47.16l.509.932-.509-.975H46.1V447.46a1.039,1.039,0,0,0,1.568.932l33.4-19.285a1.017,1.017,0,0,0,.509-.932V407.237a1.165,1.165,0,0,0-.509-.932,1.052,1.052,0,0,0-1.06,0l-33.4,19.285a1.017,1.017,0,0,0-.509.932Z" transform="translate(-26.561 -234.015)"/><path class="c" d="M56.878,357.4l9.028,5.213L11.57,394.02,2.5,388.764Z" transform="translate(-1.44 -205.921)"/><path class="b" d="M55.438,355.96l-.551.932,7.46,4.323L10.13,391.35l-6.951-4.026,52.768-30.431-.509-.932-.551.932.551-.932-.509-.932L.551,386.391a1.144,1.144,0,0,0-.551.932,1.165,1.165,0,0,0,.509.932l9.07,5.213a1.167,1.167,0,0,0,1.06,0l54.378-31.364a1.144,1.144,0,0,0,.551-.932,1.165,1.165,0,0,0-.509-.932l-9.113-5.213a1.168,1.168,0,0,0-1.06,0Z" transform="translate(0 -204.48)"/><path class="c" d="M11.57,478.488,2.5,473.275V431.4l9.07,5.256Z" transform="translate(-1.44 -248.557)"/><path class="b" d="M10.187,477.106l.509-.932-8.519-4.917V431.84l6.951,4.026v41.239h1.06l.509-.932-.509.932h1.06V435.273a1.165,1.165,0,0,0-.509-.932l-9.07-5.213a1.168,1.168,0,0,0-1.06,0,1.017,1.017,0,0,0-.509.932v41.833a1.165,1.165,0,0,0,.509.932l9.07,5.213a1.167,1.167,0,0,0,1.06,0,1.017,1.017,0,0,0,.509-.932Z" transform="translate(-0.058 -247.174)"/><path class="c" d="M87.593,437.83c0,6.993-3.009,12.63-6.7,12.63s-6.7-5.679-6.7-12.63,3.009-12.63,6.7-12.63S87.593,430.837,87.593,437.83Z" transform="translate(-42.751 -244.985)"/><path class="b" d="M86.153,436.332h-1.06a18.558,18.558,0,0,1-1.822,8.434,6.926,6.926,0,0,1-1.865,2.373,2.873,2.873,0,0,1-3.9,0,9.188,9.188,0,0,1-2.628-4.111,20.146,20.146,0,0,1-1.1-6.7A18.559,18.559,0,0,1,75.6,427.9a6.927,6.927,0,0,1,1.865-2.373,2.873,2.873,0,0,1,3.9,0,9.188,9.188,0,0,1,2.628,4.111,20.146,20.146,0,0,1,1.1,6.7h2.119a20.62,20.62,0,0,0-2.077-9.452,9.76,9.76,0,0,0-2.416-3.052,4.947,4.947,0,0,0-6.527,0,11.534,11.534,0,0,0-3.306,5.044A22.5,22.5,0,0,0,71.7,436.29a20.621,20.621,0,0,0,2.077,9.452,9.76,9.76,0,0,0,2.416,3.052,4.947,4.947,0,0,0,6.527,0,11.533,11.533,0,0,0,3.306-5.044,22.5,22.5,0,0,0,1.187-7.417Z" transform="translate(-41.311 -243.486)"/><path class="c" d="M456.1,167.512l2.8.975c4.366,1.526,8.858-2.119,9.96-8.18s-1.568-12.207-5.934-13.732l-2.8-.975" transform="translate(-262.788 -83.889)"/><path class="b" d="M454.281,167.053l2.8.975a7.565,7.565,0,0,0,2.373.424,7.2,7.2,0,0,0,3.094-.721,9.359,9.359,0,0,0,3.73-3.348,13.987,13.987,0,0,0,2.119-5.34,17.533,17.533,0,0,0,.254-2.967,15.257,15.257,0,0,0-1.823-7.417,11.743,11.743,0,0,0-2.162-2.8,8.857,8.857,0,0,0-2.882-1.78l-2.8-.975a1.059,1.059,0,1,0-.721,1.992l2.8.975a6.447,6.447,0,0,1,2.162,1.314,9.968,9.968,0,0,1,2.416,3.645,13.908,13.908,0,0,1,.636,7.544,11.142,11.142,0,0,1-2.67,5.637,6.574,6.574,0,0,1-2.034,1.483,5.08,5.08,0,0,1-2.2.509,4.544,4.544,0,0,1-1.653-.3l-2.8-.975a1.052,1.052,0,0,0-1.356.636,1.264,1.264,0,0,0,.72,1.483Z" transform="translate(-261.308 -82.413)"/><line class="c" x2="5.298" transform="translate(197.084 64.466)"/><path class="b" d="M463.56,151.719h5.3a1.06,1.06,0,0,0,0-2.119h-5.3a1.049,1.049,0,0,0-1.06,1.06,1.077,1.077,0,0,0,1.06,1.06" transform="translate(-266.475 -86.194)"/><line class="c" x2="7.671" transform="translate(197.084 68.916)"/><path class="b" d="M463.56,162.219h7.671a1.06,1.06,0,0,0,0-2.119H463.56a1.06,1.06,0,1,0,0,2.119" transform="translate(-266.475 -92.244)"/><line class="c" x2="7.671" transform="translate(197.084 73.366)"/><path class="b" d="M463.56,172.719h7.671a1.06,1.06,0,0,0,0-2.119H463.56a1.06,1.06,0,1,0,0,2.119" transform="translate(-266.475 -98.293)"/><line class="c" x2="7.671" transform="translate(197.084 77.816)"/><path class="b" d="M463.56,183.219h7.671a1.06,1.06,0,0,0,0-2.119H463.56a1.06,1.06,0,1,0,0,2.119" transform="translate(-266.475 -104.343)"/><line class="c" x2="6.824" transform="translate(195.558 82.267)"/><path class="b" d="M459.96,193.719h6.824a1.06,1.06,0,0,0,0-2.119H459.96a1.06,1.06,0,0,0,0,2.119" transform="translate(-264.401 -110.393)"/><path class="c" d="M454.056,157.66c-1.1,6.061-5.552,9.706-9.96,8.18-4.365-1.526-7.036-7.671-5.934-13.732s5.552-9.706,9.96-8.18C452.531,145.5,455.158,151.642,454.056,157.66Z" transform="translate(-252.31 -82.726)"/><path class="b" d="M452.723,156.116l-1.06-.212a11.142,11.142,0,0,1-2.67,5.637,6.576,6.576,0,0,1-2.034,1.483,5.08,5.08,0,0,1-2.2.509,4.545,4.545,0,0,1-1.653-.3,6.446,6.446,0,0,1-2.162-1.314,9.969,9.969,0,0,1-2.416-3.645,13.91,13.91,0,0,1-.636-7.544h0a11.142,11.142,0,0,1,2.67-5.637,6.573,6.573,0,0,1,2.034-1.483,5.08,5.08,0,0,1,2.2-.509,4.545,4.545,0,0,1,1.653.3,6.447,6.447,0,0,1,2.162,1.314,9.969,9.969,0,0,1,2.416,3.645,13.908,13.908,0,0,1,.636,7.544l1.06.212,1.06.17a17.527,17.527,0,0,0,.254-2.967,15.258,15.258,0,0,0-1.823-7.417,11.745,11.745,0,0,0-2.162-2.8,8.857,8.857,0,0,0-2.882-1.78,7.565,7.565,0,0,0-2.374-.424,7.2,7.2,0,0,0-3.094.721,9.358,9.358,0,0,0-3.73,3.348,13.987,13.987,0,0,0-2.119,5.34h0a17.533,17.533,0,0,0-.254,2.967,15.258,15.258,0,0,0,1.822,7.417,11.744,11.744,0,0,0,2.162,2.8,8.856,8.856,0,0,0,2.882,1.78,7.565,7.565,0,0,0,2.373.424,7.2,7.2,0,0,0,3.094-.721,9.358,9.358,0,0,0,3.73-3.348,13.987,13.987,0,0,0,2.119-5.34Z" transform="translate(-250.977 -81.181)"/><path class="c" d="M337.82,26.412l-2.8.975c-4.366,1.526-8.858-2.119-9.96-8.18S326.631,7,331,5.475l2.8-.975" transform="translate(-187.146 -2.593)"/><path class="b" d="M336.09,23.977l-2.8.975a4.545,4.545,0,0,1-1.653.3,5.08,5.08,0,0,1-2.2-.509,7.314,7.314,0,0,1-2.882-2.628,11.823,11.823,0,0,1-1.78-4.535,13.366,13.366,0,0,1-.254-2.585,13.19,13.19,0,0,1,1.568-6.358,9.568,9.568,0,0,1,1.738-2.246,6.447,6.447,0,0,1,2.162-1.314l2.8-.975a1.059,1.059,0,0,0-.721-1.992l-2.8.975a8.193,8.193,0,0,0-2.882,1.78,11.984,11.984,0,0,0-2.924,4.45,15.786,15.786,0,0,0-1.06,5.722A17.527,17.527,0,0,0,322.654,18a13.4,13.4,0,0,0,3.221,6.739,9,9,0,0,0,2.67,1.95,7.2,7.2,0,0,0,3.094.721,6.856,6.856,0,0,0,2.374-.424l2.8-.975a1.052,1.052,0,0,0,.636-1.356,1.112,1.112,0,0,0-1.356-.678Z" transform="translate(-185.755 -1.174)"/><line class="c" x1="5.34" transform="translate(141.604 4.62)"/><path class="b" d="M338.058,8.4h-5.3a1.06,1.06,0,1,0,0,2.119h5.3a1.049,1.049,0,0,0,1.06-1.06,1.107,1.107,0,0,0-1.06-1.06" transform="translate(-191.113 -4.84)"/><line class="c" x1="7.714" transform="translate(139.23 9.07)"/><path class="b" d="M334.831,18.9H327.16a1.06,1.06,0,1,0,0,2.119h7.671a1.049,1.049,0,0,0,1.06-1.06,1.107,1.107,0,0,0-1.06-1.06" transform="translate(-187.887 -10.889)"/><line class="c" x1="7.714" transform="translate(139.23 13.563)"/><path class="b" d="M334.831,29.5H327.16a1.06,1.06,0,1,0,0,2.119h7.671a1.049,1.049,0,0,0,1.06-1.06,1.077,1.077,0,0,0-1.06-1.06" transform="translate(-187.887 -16.997)"/><line class="c" x1="7.714" transform="translate(139.23 18.013)"/><path class="b" d="M334.831,40H327.16a1.06,1.06,0,1,0,0,2.119h7.671a1.049,1.049,0,0,0,1.06-1.06,1.077,1.077,0,0,0-1.06-1.06" transform="translate(-187.887 -23.047)"/><line class="c" x1="6.824" transform="translate(141.604 22.463)"/><path class="b" d="M339.483,50.5H332.66a1.06,1.06,0,0,0,0,2.119h6.824a1.06,1.06,0,0,0,0-2.119" transform="translate(-191.056 -29.096)"/><path class="c" d="M335.262,16.564c1.1,6.061,5.552,9.706,9.96,8.18s7.036-7.671,5.934-13.732c-1.1-6.018-5.552-9.706-9.96-8.18C336.831,4.357,334.16,10.5,335.262,16.564Z" transform="translate(-193.023 -1.433)"/><path class="b" d="M333.814,15.131l-1.06.212a13.4,13.4,0,0,0,3.221,6.739,9,9,0,0,0,2.67,1.95,7.2,7.2,0,0,0,3.094.721,6.856,6.856,0,0,0,2.374-.424h0A8.192,8.192,0,0,0,347,22.548a11.983,11.983,0,0,0,2.924-4.45,15.787,15.787,0,0,0,1.06-5.722,17.533,17.533,0,0,0-.254-2.967A13.4,13.4,0,0,0,347.5,2.67a9,9,0,0,0-2.67-1.95A7.2,7.2,0,0,0,341.74,0a6.687,6.687,0,0,0-2.373.424h0a8.193,8.193,0,0,0-2.882,1.78,11.984,11.984,0,0,0-2.924,4.45,15.787,15.787,0,0,0-1.06,5.722,17.527,17.527,0,0,0,.254,2.967h0l1.06-.212,1.06-.212a13.557,13.557,0,0,1,1.314-8.943,9.568,9.568,0,0,1,1.738-2.246,6.447,6.447,0,0,1,2.162-1.314h0a4.545,4.545,0,0,1,1.653-.3,5.08,5.08,0,0,1,2.2.509,7.314,7.314,0,0,1,2.882,2.628,11.823,11.823,0,0,1,1.78,4.535,13.556,13.556,0,0,1-1.314,8.943,9.568,9.568,0,0,1-1.738,2.246,6.447,6.447,0,0,1-2.162,1.314h0a4.545,4.545,0,0,1-1.653.3,5.08,5.08,0,0,1-2.2-.509,7.515,7.515,0,0,1-2.882-2.585,11.824,11.824,0,0,1-1.78-4.535h0Z" transform="translate(-191.574 0)"/><path class="c" d="M359.3,424.519l3.56,1.229c5.552,1.95,11.189-2.713,12.588-10.342,1.4-7.671-1.95-15.428-7.5-17.377l-3.56-1.229" transform="translate(-207.015 -228.621)"/><path class="b" d="M357.413,424.075l3.56,1.229a8.8,8.8,0,0,0,2.882.509,8.543,8.543,0,0,0,3.815-.89,11.843,11.843,0,0,0,4.62-4.111,17,17,0,0,0,2.628-6.654,22.1,22.1,0,0,0,.339-3.687,19.132,19.132,0,0,0-2.289-9.24,12.654,12.654,0,0,0-2.67-3.433,10.309,10.309,0,0,0-3.56-2.162l-3.56-1.229a1.059,1.059,0,1,0-.721,1.992l3.56,1.229a7.687,7.687,0,0,1,2.84,1.738,12.658,12.658,0,0,1,3.094,4.747,17.93,17.93,0,0,1,.89,9.663,14.006,14.006,0,0,1-3.475,7.29,8.644,8.644,0,0,1-2.628,1.95,7,7,0,0,1-2.882.678,6.892,6.892,0,0,1-2.2-.381l-3.56-1.229a1.052,1.052,0,0,0-1.356.636,1.075,1.075,0,0,0,.678,1.356Z" transform="translate(-205.51 -227.203)"/><line class="c" x2="6.697" transform="translate(157.667 171.612)"/><path class="b" d="M370.56,404.519H377.3a1.06,1.06,0,0,0,0-2.119H370.56a1.06,1.06,0,1,0,0,2.119" transform="translate(-212.892 -231.848)"/><line class="c" x2="8.646" transform="translate(157.667 175.384)"/><path class="b" d="M370.56,413.419h8.646a1.06,1.06,0,1,0,0-2.119H370.56a1.049,1.049,0,0,0-1.06,1.06,1.077,1.077,0,0,0,1.06,1.06" transform="translate(-212.892 -236.976)"/><line class="c" x2="9.706" transform="translate(157.667 179.113)"/><path class="b" d="M370.56,422.219h9.706a1.06,1.06,0,1,0,0-2.119H370.56a1.06,1.06,0,1,0,0,2.119" transform="translate(-212.892 -242.046)"/><line class="c" x2="9.706" transform="translate(157.667 182.886)"/><path class="b" d="M370.56,431.119h9.706a1.06,1.06,0,1,0,0-2.119H370.56a1.06,1.06,0,1,0,0,2.119" transform="translate(-212.892 -247.174)"/><line class="c" x2="9.706" transform="translate(157.667 186.658)"/><path class="b" d="M370.56,440.019h9.706a1.06,1.06,0,1,0,0-2.119H370.56a1.06,1.06,0,1,0,0,2.119" transform="translate(-212.892 -252.302)"/><line class="c" x2="9.706" transform="translate(157.667 190.388)"/><path class="b" d="M370.56,448.819h9.706a1.06,1.06,0,1,0,0-2.119H370.56a1.06,1.06,0,1,0,0,2.119" transform="translate(-212.892 -257.372)"/><line class="c" x2="8.604" transform="translate(155.76 194.16)"/><path class="b" d="M366.06,457.719h8.646a1.06,1.06,0,1,0,0-2.119H366.06a1.06,1.06,0,1,0,0,2.119" transform="translate(-210.299 -262.5)"/><path class="c" d="M361.258,413.471c-1.4,7.671-7.036,12.291-12.588,10.342s-8.9-9.706-7.5-17.377,7.036-12.291,12.588-10.342S362.657,405.842,361.258,413.471Z" transform="translate(-196.385 -227.957)"/><path class="b" d="M359.9,412.061l-1.06-.212a14.007,14.007,0,0,1-3.475,7.29,8.644,8.644,0,0,1-2.628,1.95,7,7,0,0,1-2.882.678,6.892,6.892,0,0,1-2.2-.381,7.686,7.686,0,0,1-2.84-1.738,12.657,12.657,0,0,1-3.094-4.747,17.929,17.929,0,0,1-.89-9.663h0a14.006,14.006,0,0,1,3.475-7.29,8.644,8.644,0,0,1,2.628-1.95,7,7,0,0,1,2.882-.678,6.893,6.893,0,0,1,2.2.381,7.687,7.687,0,0,1,2.84,1.738,12.658,12.658,0,0,1,3.094,4.747,17.929,17.929,0,0,1,.89,9.664h0l1.06.212,1.06.17a22.1,22.1,0,0,0,.339-3.687,19.132,19.132,0,0,0-2.289-9.24,12.657,12.657,0,0,0-2.67-3.433,10.309,10.309,0,0,0-3.56-2.162,8.8,8.8,0,0,0-2.882-.509,8.543,8.543,0,0,0-3.815.89,11.843,11.843,0,0,0-4.62,4.111,17,17,0,0,0-2.628,6.654h0a22.1,22.1,0,0,0-.339,3.687,19.133,19.133,0,0,0,2.289,9.24,12.654,12.654,0,0,0,2.67,3.433,10.308,10.308,0,0,0,3.56,2.162,8.8,8.8,0,0,0,2.882.509,8.543,8.543,0,0,0,3.815-.89,11.843,11.843,0,0,0,4.62-4.111,17,17,0,0,0,2.628-6.654h0Z" transform="translate(-195.031 -226.547)"/><path class="c" d="M233.4,534.263l5,1.738c7.841,2.755,15.809-3.815,17.8-14.622s-2.755-21.785-10.6-24.54l-5-1.738" transform="translate(-134.476 -285.258)"/><path class="b" d="M231.565,533.919l5,1.738a11.686,11.686,0,0,0,3.942.678,12.34,12.34,0,0,0,5.213-1.187,16.507,16.507,0,0,0,6.358-5.679,24.451,24.451,0,0,0,3.687-9.24,30.856,30.856,0,0,0,.466-5.171,26.4,26.4,0,0,0-3.179-12.8,18.738,18.738,0,0,0-3.687-4.747,13.854,13.854,0,0,0-4.874-2.967l-5-1.738a1.059,1.059,0,1,0-.721,1.992l5,1.738a11.471,11.471,0,0,1,4.154,2.543,18.44,18.44,0,0,1,4.493,6.866,25.667,25.667,0,0,1,1.7,9.155,26.46,26.46,0,0,1-.424,4.789,20.534,20.534,0,0,1-5,10.511,14.323,14.323,0,0,1-3.857,2.882,9.909,9.909,0,0,1-7.544.424l-5-1.738a1.039,1.039,0,1,0-.721,1.95Z" transform="translate(-133.023 -283.897)"/><line class="c" x2="9.536" transform="translate(106.51 214.716)"/><path class="b" d="M249.86,506.219h9.494a1.06,1.06,0,1,0,0-2.119H249.86a1.049,1.049,0,0,0-1.06,1.06,1.077,1.077,0,0,0,1.06,1.06" transform="translate(-143.349 -290.444)"/><line class="c" x2="12.207" transform="translate(106.51 220.014)"/><path class="b" d="M249.86,518.719h12.206a1.06,1.06,0,1,0,0-2.119H249.86a1.049,1.049,0,0,0-1.06,1.06,1.077,1.077,0,0,0,1.06,1.06" transform="translate(-143.349 -297.646)"/><line class="c" x2="13.775" transform="translate(106.51 225.312)"/><path class="b" d="M249.86,531.219h13.732a1.06,1.06,0,1,0,0-2.119H249.86a1.049,1.049,0,0,0-1.06,1.06,1.076,1.076,0,0,0,1.06,1.06" transform="translate(-143.349 -304.848)"/><line class="c" x2="13.775" transform="translate(106.51 230.652)"/><path class="b" d="M249.86,543.819h13.732a1.06,1.06,0,1,0,0-2.119H249.86a1.049,1.049,0,0,0-1.06,1.06,1.077,1.077,0,0,0,1.06,1.06" transform="translate(-143.349 -312.108)"/><line class="c" x2="13.775" transform="translate(106.51 235.95)"/><path class="b" d="M249.86,556.319h13.732a1.06,1.06,0,1,0,0-2.119H249.86a1.049,1.049,0,0,0-1.06,1.06,1.077,1.077,0,0,0,1.06,1.06" transform="translate(-143.349 -319.31)"/><line class="c" x2="13.775" transform="translate(106.51 241.29)"/><path class="b" d="M249.86,568.919h13.732a1.06,1.06,0,1,0,0-2.119H249.86a1.049,1.049,0,0,0-1.06,1.06,1.107,1.107,0,0,0,1.06,1.06" transform="translate(-143.349 -326.569)"/><line class="c" x2="12.207" transform="translate(103.84 246.588)"/><path class="b" d="M243.56,581.419h12.207a1.06,1.06,0,1,0,0-2.119H243.56a1.06,1.06,0,1,0,0,2.119" transform="translate(-139.72 -333.771)"/><path class="c" d="M236.08,518.786c-1.992,10.808-9.96,17.377-17.8,14.622s-12.588-13.732-10.6-24.54,9.96-17.377,17.8-14.622S238.072,507.979,236.08,518.786Z" transform="translate(-119.397 -284.405)"/><path class="b" d="M234.738,517.393l-1.06-.212a20.534,20.534,0,0,1-5,10.511,14.322,14.322,0,0,1-3.857,2.882,9.91,9.91,0,0,1-7.544.424,11.471,11.471,0,0,1-4.154-2.543,18.44,18.44,0,0,1-4.493-6.866,25.668,25.668,0,0,1-1.7-9.155,26.46,26.46,0,0,1,.424-4.789h0a20.534,20.534,0,0,1,5-10.511,14.324,14.324,0,0,1,3.857-2.882,9.91,9.91,0,0,1,7.544-.424,11.471,11.471,0,0,1,4.154,2.543,18.44,18.44,0,0,1,4.493,6.866,25.667,25.667,0,0,1,1.7,9.155,26.459,26.459,0,0,1-.424,4.789l1.06.212,1.06.17a30.855,30.855,0,0,0,.466-5.171,26.4,26.4,0,0,0-3.179-12.8,18.738,18.738,0,0,0-3.687-4.747,13.854,13.854,0,0,0-4.874-2.967,11.688,11.688,0,0,0-3.942-.678,12.339,12.339,0,0,0-5.213,1.187,16.5,16.5,0,0,0-6.358,5.679,23.741,23.741,0,0,0-3.645,9.24h0a26.969,26.969,0,0,0-.466,5.171,26.4,26.4,0,0,0,3.179,12.8,18.738,18.738,0,0,0,3.687,4.747,13.656,13.656,0,0,0,4.917,2.967,11.689,11.689,0,0,0,3.942.678,12.339,12.339,0,0,0,5.213-1.187A16.505,16.505,0,0,0,232.2,526.8a24.451,24.451,0,0,0,3.687-9.24Z" transform="translate(-118.056 -283.011)"/><path class="c" d="M345.436,215.606,291.1,184.2v41.875l54.336,31.364Z" transform="translate(-167.721 -106.129)"/><path class="b" d="M343.938,214.224l.509-.932-54.378-31.364a1.167,1.167,0,0,0-1.06,0,1.017,1.017,0,0,0-.509.932v41.833a1.165,1.165,0,0,0,.509.932l54.378,31.364a1.167,1.167,0,0,0,1.06,0,1.017,1.017,0,0,0,.509-.932V214.224a1.165,1.165,0,0,0-.509-.932l-.509.932h-1.06v40.01l-52.259-30.177V184.64l52.768,30.474.551-.89h0Z" transform="translate(-166.223 -104.746)"/><path class="c" d="M324.078,227.964,269.7,196.6v41.833l54.378,31.406Z" transform="translate(-155.391 -113.274)"/><path class="b" d="M322.638,226.524l.509-.932-54.378-31.364a1.167,1.167,0,0,0-1.06,0,1.017,1.017,0,0,0-.509.932v41.833a1.165,1.165,0,0,0,.509.932l54.378,31.364a1.167,1.167,0,0,0,1.06,0,1.017,1.017,0,0,0,.509-.932V226.524a1.165,1.165,0,0,0-.509-.932l-.509.932h-1.06v40.01l-52.259-30.177V196.94l52.768,30.474.551-.89h0Z" transform="translate(-153.951 -111.833)"/><path class="c" d="M327.841,254.785,294.4,235.5v20.938l33.441,19.327Z" transform="translate(-169.622 -135.686)"/><path class="b" d="M326.458,253.344l.509-.932-33.4-19.285a1.167,1.167,0,0,0-1.06,0,1.017,1.017,0,0,0-.509.932V255a1.165,1.165,0,0,0,.509.932l33.4,19.285a1.167,1.167,0,0,0,1.06,0,1.017,1.017,0,0,0,.509-.932V253.344a1.165,1.165,0,0,0-.509-.932l-.509.932H325.4v19.115L294.119,254.4V235.882l31.83,18.352.509-.89h0Z" transform="translate(-168.24 -134.246)"/><path class="c" d="M278.77,184.2l-9.07,5.256,54.378,31.364,9.028-5.213Z" transform="translate(-155.391 -106.129)"/><path class="b" d="M277.33,182.76l-.509-.932-9.07,5.213a1.144,1.144,0,0,0-.551.932,1.165,1.165,0,0,0,.509.932l54.378,31.364a1.167,1.167,0,0,0,1.06,0l9.07-5.213a1.017,1.017,0,0,0,.509-.932,1.165,1.165,0,0,0-.509-.932l-54.378-31.364a1.167,1.167,0,0,0-1.06,0l.551.932-.509.932,52.768,30.474-6.951,4.026-52.259-30.177,7.46-4.323-.509-.932-.509.932Z" transform="translate(-153.951 -104.689)"/><path class="c" d="M398,305.388l9.028-5.256V258.3L398,263.513Z" transform="translate(-229.313 -148.823)"/><path class="b" d="M396.56,303.983l.509.932,9.07-5.213a1.017,1.017,0,0,0,.509-.932V256.937a1.165,1.165,0,0,0-.509-.932,1.052,1.052,0,0,0-1.06,0l-9.07,5.213a1.017,1.017,0,0,0-.509.932v41.833a1.039,1.039,0,0,0,1.568.932l-.509-.932h1.06V262.744l6.951-4.026v39.417l-8.519,4.917.509.932h0Z" transform="translate(-227.872 -147.418)"/><path class="c" d="M316.1,264.63c0,6.993,3.009,12.63,6.7,12.63s6.7-5.679,6.7-12.63c0-6.993-3.009-12.63-6.7-12.63C319.067,252,316.1,257.679,316.1,264.63Z" transform="translate(-182.125 -145.193)"/><path class="b" d="M314.66,263.19H313.6a20.621,20.621,0,0,0,2.077,9.452,9.76,9.76,0,0,0,2.416,3.052,4.947,4.947,0,0,0,6.527,0,11.533,11.533,0,0,0,3.306-5.044,22.5,22.5,0,0,0,1.187-7.417,20.621,20.621,0,0,0-2.077-9.452,9.76,9.76,0,0,0-2.416-3.052,4.947,4.947,0,0,0-6.527,0,11.533,11.533,0,0,0-3.306,5.044,22.5,22.5,0,0,0-1.187,7.417h2.119a18.559,18.559,0,0,1,1.822-8.434,6.927,6.927,0,0,1,1.865-2.374,2.873,2.873,0,0,1,3.9,0,9.189,9.189,0,0,1,2.628,4.111,20.146,20.146,0,0,1,1.1,6.7,18.559,18.559,0,0,1-1.822,8.434A6.927,6.927,0,0,1,323.348,274a2.873,2.873,0,0,1-3.9,0,9.188,9.188,0,0,1-2.628-4.111,20.146,20.146,0,0,1-1.1-6.7h-1.06Z" transform="translate(-180.685 -143.753)"/><path class="c" d="M534.389,393.9,519.3,402.589v17.462l15.089-8.731Z" transform="translate(-299.201 -226.951)"/><path class="b" d="M532.948,392.437l-.551-.932-15.089,8.731a1.017,1.017,0,0,0-.509.932v17.42a1.1,1.1,0,0,0,.551.932,1.053,1.053,0,0,0,1.06,0L533.5,410.79a1.017,1.017,0,0,0,.509-.932v-17.42a1.1,1.1,0,0,0-.551-.932,1.053,1.053,0,0,0-1.06,0l.551.932h-1.06v16.826l-12.969,7.5v-15l14.58-8.392-.551-.932h0Z" transform="translate(-297.761 -225.488)"/><path class="c" d="M513.877,382.031,498.789,373.3,483.7,382.031l15.089,8.689Z" transform="translate(-278.69 -215.082)"/><path class="b" d="M512.437,380.591l.509-.932-15.089-8.731a1.168,1.168,0,0,0-1.06,0l-15.089,8.731a1.017,1.017,0,0,0-.509.932,1.165,1.165,0,0,0,.509.932l15.089,8.731a1.167,1.167,0,0,0,1.06,0l15.089-8.731a1.017,1.017,0,0,0,.509-.932,1.165,1.165,0,0,0-.509-.932l-.509.932-.509-.932-14.58,8.392-12.969-7.5,12.969-7.5,14.58,8.392.509-.848-.509-.932Z" transform="translate(-277.25 -213.641)"/><path class="c" d="M498.789,420.051V402.589L483.7,393.9v17.42Z" transform="translate(-278.69 -226.951)"/><path class="b" d="M497.406,418.61h1.06v-17.42a1.165,1.165,0,0,0-.509-.932l-15.089-8.731a1.167,1.167,0,0,0-1.06,0,1.017,1.017,0,0,0-.509.932v17.42a1.165,1.165,0,0,0,.509.932l15.089,8.731a1.167,1.167,0,0,0,1.06,0,1.017,1.017,0,0,0,.509-.932h-1.06l.509-.932-14.58-8.392v-15l12.969,7.5V418.61h1.1l.509-.932Z" transform="translate(-277.307 -225.51)"/><path class="c" d="M260.43,388.6l-12.63,7.29v14.58l12.63-7.29Z" transform="translate(-142.773 -223.897)"/><path class="b" d="M258.99,387.137l-.551-.932-12.63,7.29a1.017,1.017,0,0,0-.509.932v14.58a1.1,1.1,0,0,0,.551.932,1.053,1.053,0,0,0,1.06,0l12.63-7.29a1.017,1.017,0,0,0,.509-.932v-14.58a1.1,1.1,0,0,0-.551-.932,1.053,1.053,0,0,0-1.06,0l.551.932h-1.06v13.987l-10.511,6.061V395.063L259.5,388.07l-.509-.932h0Z" transform="translate(-141.333 -222.434)"/><path class="c" d="M243.261,378.69l-12.63-7.29L218,378.69l12.63,7.29Z" transform="translate(-125.604 -213.987)"/><path class="b" d="M241.82,377.307l.509-.932-12.63-7.248a1.168,1.168,0,0,0-1.06,0l-12.63,7.29a1.017,1.017,0,0,0-.509.932,1.165,1.165,0,0,0,.509.932l12.63,7.29a1.167,1.167,0,0,0,1.06,0l12.63-7.29a1.017,1.017,0,0,0,.509-.932,1.165,1.165,0,0,0-.509-.932l-.509.89-.509-.932-12.079,6.993-10.554-6.061,10.511-6.061,12.079,6.993.551-.932-.509-.932Z" transform="translate(-124.163 -212.604)"/><path class="c" d="M230.63,410.47V395.89L218,388.6v14.58Z" transform="translate(-125.604 -223.897)"/><path class="b" d="M229.248,409.03h1.06V394.45a1.165,1.165,0,0,0-.509-.932l-12.63-7.29a1.167,1.167,0,0,0-1.06,0,1.017,1.017,0,0,0-.509.932v14.58a1.165,1.165,0,0,0,.509.932l12.63,7.29a1.168,1.168,0,0,0,1.06,0,1.017,1.017,0,0,0,.509-.932h-1.06l.509-.932L217.677,401.1V388.982l10.511,6.061V409.03h1.06l.509-.932Z" transform="translate(-124.221 -222.457)"/><path class="c" d="M124.189,249.2,109.1,257.931v17.42l15.089-8.731Z" transform="translate(-62.859 -143.58)"/><path class="b" d="M122.748,247.737l-.551-.932-15.089,8.731a1.017,1.017,0,0,0-.509.932v17.42a1.1,1.1,0,0,0,.551.932,1.053,1.053,0,0,0,1.06,0L123.3,266.09a1.017,1.017,0,0,0,.509-.932v-17.42a1.1,1.1,0,0,0-.551-.932,1.053,1.053,0,0,0-1.06,0l.551.932h-1.06v16.826l-12.969,7.5v-15l14.58-8.392-.551-.932h0Z" transform="translate(-61.419 -142.117)"/><path class="c" d="M103.62,237.331,88.531,228.6,73.4,237.331l15.131,8.731Z" transform="translate(-42.29 -131.711)"/><path class="b" d="M102.237,235.891l.509-.932-15.089-8.731a1.167,1.167,0,0,0-1.06,0l-15.089,8.731a1.017,1.017,0,0,0-.509.932,1.165,1.165,0,0,0,.509.932L86.6,245.554a1.167,1.167,0,0,0,1.06,0l15.089-8.731a1.017,1.017,0,0,0,.509-.932,1.165,1.165,0,0,0-.509-.932l-.509.932-.551-.932-14.58,8.392-12.969-7.5,12.969-7.5,14.58,8.392.551-.848-.551-.932Z" transform="translate(-40.908 -130.27)"/><path class="c" d="M88.531,275.351v-17.42L73.4,249.2v17.42Z" transform="translate(-42.29 -143.58)"/><path class="b" d="M87.148,273.91h1.06v-17.42a1.165,1.165,0,0,0-.509-.932l-15.131-8.731a1.167,1.167,0,0,0-1.06,0,1.017,1.017,0,0,0-.509.932v17.42a1.165,1.165,0,0,0,.509.932L86.6,274.843a1.167,1.167,0,0,0,1.06,0,1.017,1.017,0,0,0,.509-.932H87.148l.509-.932-14.58-8.392v-15l12.969,7.5V273.91h1.1l.509-.932Z" transform="translate(-40.908 -142.139)"/><path class="c" d="M376.331,109.4,361.2,118.089v17.462l15.131-8.731Z" transform="translate(-208.11 -63.032)"/><path class="b" d="M374.948,107.937,374.4,107l-15.089,8.731a1.017,1.017,0,0,0-.509.932v17.42a1.1,1.1,0,0,0,.551.932,1.053,1.053,0,0,0,1.06,0L375.5,126.29a1.017,1.017,0,0,0,.509-.932v-17.42a1.1,1.1,0,0,0-.551-.932,1.053,1.053,0,0,0-1.06,0l.551.932h-1.06v16.826l-12.969,7.5v-15l14.58-8.392-.551-.932h0Z" transform="translate(-206.727 -61.57)"/><path class="c" d="M355.82,97.531,340.689,88.8,325.6,97.531l15.089,8.689Z" transform="translate(-187.599 -51.163)"/><path class="b" d="M354.437,96.091l.509-.932-15.089-8.731a1.167,1.167,0,0,0-1.06,0l-15.089,8.731a1.017,1.017,0,0,0-.509.932,1.165,1.165,0,0,0,.509.932l15.089,8.731a1.167,1.167,0,0,0,1.06,0l15.089-8.731a1.017,1.017,0,0,0,.509-.932,1.165,1.165,0,0,0-.509-.932l-.509.932-.551-.932-14.58,8.392-12.969-7.5,12.969-7.5,14.58,8.392.551-.848-.551-.932Z" transform="translate(-186.216 -49.723)"/><path class="c" d="M340.689,135.551V118.089L325.6,109.4v17.42Z" transform="translate(-187.599 -63.032)"/><path class="b" d="M339.306,134.11h1.06v-17.42a1.165,1.165,0,0,0-.509-.932l-15.089-8.731a1.167,1.167,0,0,0-1.06,0,1.017,1.017,0,0,0-.509.932v17.42a1.165,1.165,0,0,0,.509.932l15.089,8.731a1.167,1.167,0,0,0,1.06,0,1.017,1.017,0,0,0,.509-.932h-1.06l.509-.932-14.58-8.392v-15l12.969,7.5V134.11h1.1l.509-.932Z" transform="translate(-186.216 -61.592)"/><path class="c" d="M372.846,584.573a6.273,6.273,0,1,1-6.273-6.273A6.259,6.259,0,0,1,372.846,584.573Z" transform="translate(-207.592 -333.195)"/><path class="b" d="M371.405,583.132h-1.06a5.209,5.209,0,1,1-1.526-3.687,5.222,5.222,0,0,1,1.526,3.687h2.119a7.332,7.332,0,1,0-7.332,7.332,7.335,7.335,0,0,0,7.332-7.332Z" transform="translate(-206.151 -331.755)"/><circle class="c" cx="4.874" cy="4.874" r="4.874" transform="translate(225.905 197.423)"/><path class="b" d="M541.308,469.234h-1.06a3.921,3.921,0,0,1-1.1,2.713,3.845,3.845,0,0,1-2.713,1.1,3.921,3.921,0,0,1-2.713-1.1,3.845,3.845,0,0,1-1.1-2.713,3.921,3.921,0,0,1,1.1-2.713,3.845,3.845,0,0,1,2.713-1.1,3.921,3.921,0,0,1,2.713,1.1,3.845,3.845,0,0,1,1.1,2.713h2.119a5.934,5.934,0,1,0-5.934,5.934,5.951,5.951,0,0,0,5.934-5.934Z" transform="translate(-305.654 -266.936)"/><circle class="c" cx="4.874" cy="4.874" r="4.874" transform="translate(171.569 204.968)"/><path class="b" d="M413.108,487.034h-1.06a3.921,3.921,0,0,1-1.1,2.713,3.845,3.845,0,0,1-2.713,1.1,3.921,3.921,0,0,1-2.713-1.1,3.845,3.845,0,0,1-1.1-2.713,3.921,3.921,0,0,1,1.1-2.713,3.845,3.845,0,0,1,2.713-1.1,3.921,3.921,0,0,1,2.713,1.1,3.845,3.845,0,0,1,1.1,2.713h2.119a5.934,5.934,0,1,0-5.934,5.934,5.951,5.951,0,0,0,5.934-5.934Z" transform="translate(-231.79 -277.192)"/><path class="c" d="M206.117,267.409a6.909,6.909,0,1,1-6.909-6.909A6.91,6.91,0,0,1,206.117,267.409Z" transform="translate(-110.796 -150.09)"/><path class="b" d="M204.677,265.968h-1.06a5.862,5.862,0,0,1-1.7,4.154,5.789,5.789,0,0,1-4.154,1.7,5.862,5.862,0,0,1-4.154-1.7,5.789,5.789,0,0,1-1.7-4.154,5.862,5.862,0,0,1,1.7-4.154,5.789,5.789,0,0,1,4.154-1.7,5.863,5.863,0,0,1,4.154,1.7,5.789,5.789,0,0,1,1.7,4.154h2.119a7.968,7.968,0,1,0-7.968,7.968,7.959,7.959,0,0,0,7.968-7.968Z" transform="translate(-109.356 -148.65)"/><path class="c" d="M499.617,283.709a6.909,6.909,0,1,1-6.909-6.909A6.91,6.91,0,0,1,499.617,283.709Z" transform="translate(-279.9 -159.482)"/><path class="b" d="M498.177,282.268h-1.06a5.863,5.863,0,0,1-1.7,4.154,5.789,5.789,0,0,1-4.154,1.7,5.863,5.863,0,0,1-4.154-1.7,5.789,5.789,0,0,1-1.7-4.154,5.862,5.862,0,0,1,1.7-4.154,5.789,5.789,0,0,1,4.154-1.7,5.863,5.863,0,0,1,4.154,1.7,5.789,5.789,0,0,1,1.7,4.154h2.119a7.968,7.968,0,1,0-7.968,7.968,7.959,7.959,0,0,0,7.968-7.968Z" transform="translate(-278.46 -158.042)"/><path class="b" d="M554.5,256.547l.127,1.06,9.536-1.1-2.8,11.147a1.06,1.06,0,0,0,.593,1.229l5.891,2.543-5.34,16.7L562.34,276a1.042,1.042,0,0,0-.593-.932l-8.223-3.9,2.034-14.453-1.06-.169.127,1.06-.127-1.06-1.06-.17-2.162,15.216a1.025,1.025,0,0,0,.593,1.1l8.35,3.942.254,17.928a1.012,1.012,0,0,0,.89,1.017,1.068,1.068,0,0,0,1.187-.721l7.629-23.82a1.094,1.094,0,0,0-.593-1.314l-5.934-2.585,2.967-11.74a1.165,1.165,0,0,0-.212-.975,1.078,1.078,0,0,0-.932-.339l-11.062,1.272a1.078,1.078,0,0,0-.932.89Z" transform="translate(-317.617 -146.392)"/><path class="b" d="M127,605.763l1.06.17,1.7-9.452,9.833,5.891a1.091,1.091,0,0,0,1.356-.212l4.154-4.917,14.453,9.918-11.656-3.348a1,1,0,0,0-1.06.3l-6.1,6.781-13.266-6.146L127,605.763l1.06.17-1.06-.17-.466.975,13.944,6.442a1.035,1.035,0,0,0,1.229-.254l6.188-6.866,17.25,4.959a1.112,1.112,0,0,0,1.271-.551,1.056,1.056,0,0,0-.339-1.314L145.474,595a1.09,1.09,0,0,0-1.4.17l-4.154,4.959-10.384-6.23a1.058,1.058,0,0,0-1.568.721l-1.992,10.977a1.081,1.081,0,0,0,.593,1.144Z" transform="translate(-72.574 -342.094)"/><path class="c" d="M573.827,417s-5.51-19.5-1.4-37.594c4.62-20.3,17-31.7,17-31.7l5.34,7.205s-11.02,8.477-16.021,25.3C573.742,397.077,573.827,417,573.827,417Z" transform="translate(-328.934 -200.332)"/><path class="b" d="M572.384,415.488l1.017-.3v-.042a92.048,92.048,0,0,1-2.882-22.591,65.492,65.492,0,0,1,1.526-14.453,66.654,66.654,0,0,1,14.75-29.118c.593-.678,1.1-1.187,1.441-1.526l.381-.381L588.7,347h.042l-.721-.763-.848.636,5.34,7.205.848-.636-.636-.848a40.839,40.839,0,0,0-6.315,6.527,57.374,57.374,0,0,0-10.087,19.327A129.679,129.679,0,0,0,572,402.858c-.636,7.078-.636,12.164-.636,12.673v.127l1.017-.17,1.017-.3-1.017.3,1.06-.085-.551.042h.551V415.4l-.551.042h.551c0-.424,0-5.51.636-12.461A130.237,130.237,0,0,1,578.318,379a54.352,54.352,0,0,1,9.706-18.606,47.045,47.045,0,0,1,4.238-4.662q.827-.763,1.271-1.144a2.757,2.757,0,0,0,.339-.3l.085-.085h0l-.127-.17.127.17h0l-.127-.17.127.17a1.071,1.071,0,0,0,.212-1.483l-5.34-7.205a1.074,1.074,0,0,0-.763-.424,1.087,1.087,0,0,0-.805.254,52.376,52.376,0,0,0-6.909,8.392,69.793,69.793,0,0,0-10.384,23.82,67.673,67.673,0,0,0-1.568,14.919,94.763,94.763,0,0,0,2.967,23.184,1.073,1.073,0,0,0,1.187.763,1.093,1.093,0,0,0,.89-1.1Z" transform="translate(-327.491 -198.823)"/><path class="c" d="M179.2,166.79l12.63-7.29-.932,14.071Z" transform="translate(-103.248 -91.898)"/><path class="b" d="M177.817,165.422l.509.932,10.893-6.273-.678,10.384-10.214-5.934-.509.89.509.932-.509-.932-.551.932,11.7,6.781a1.063,1.063,0,0,0,1.568-.848l.89-14.029a1.045,1.045,0,0,0-.509-.975,1.034,1.034,0,0,0-1.1,0l-12.5,7.205a1.017,1.017,0,0,0-.509.932,1.165,1.165,0,0,0,.509.932Z" transform="translate(-101.866 -90.53)"/><path class="b" d="M116.531,164.2l4.959,13.69-13.69-3.348Z" transform="translate(-62.11 -94.606)"/><path class="b" d="M115.094,162.787l-1.017.381,4.281,11.825-10.087-2.458,7.629-9.028-.805-.721-1.017.381,1.017-.381-.805-.678-8.731,10.342a1.12,1.12,0,0,0-.212,1.017,1.178,1.178,0,0,0,.763.721l13.69,3.348a1.133,1.133,0,0,0,1.06-.339,1,1,0,0,0,.212-1.06l-4.959-13.69a1.019,1.019,0,0,0-.805-.678,1.127,1.127,0,0,0-1.017.339Z" transform="translate(-60.674 -93.193)"/><path class="b" d="M185,338.9l14.241,2.924-9.96,9.918Z" transform="translate(-106.59 -195.262)"/><path class="b" d="M183.538,337.425l-.212,1.017,12.334,2.5-7.375,7.332-3.73-11.232-1.017.381-.212,1.017.212-1.017-1.017.339,4.281,12.842a1.034,1.034,0,0,0,.763.678.961.961,0,0,0,.975-.3l10-9.918a1,1,0,0,0,.254-1.06,1.07,1.07,0,0,0-.805-.721l-14.241-2.924a1.028,1.028,0,0,0-1.017.339,1.013,1.013,0,0,0-.212,1.017Z" transform="translate(-105.128 -193.786)"/><path class="b" d="M173.5,490.063l14.538-.763-7.205,12.122Z" transform="translate(-99.964 -281.917)"/><path class="b" d="M172.009,488.673l.042,1.06L184.6,489.1l-5.3,8.943-6.4-9.918-.89.551.042,1.06-.042-1.06-.89.593,7.332,11.359a1,1,0,0,0,.89.466,1.033,1.033,0,0,0,.89-.509l7.205-12.079a1.035,1.035,0,0,0,0-1.1,1.006,1.006,0,0,0-.975-.509l-14.538.721a1.029,1.029,0,0,0-.89.593,1.055,1.055,0,0,0,.042,1.06Z" transform="translate(-98.473 -280.526)"/><path class="c" d="M450.4,63.1l14.41,2.246L455.274,75.73Z" transform="translate(-259.504 -36.356)"/><path class="b" d="M448.98,61.649l-.17,1.06,12.418,1.907-7.036,7.671-4.238-11.02-.975.381-.17,1.06.17-1.06-.975.381,4.874,12.63a1.1,1.1,0,0,0,.805.678A.959.959,0,0,0,454.66,75l9.494-10.426a1.069,1.069,0,0,0,.212-1.06,1.006,1.006,0,0,0-.848-.678L449.15,60.589a1.038,1.038,0,0,0-.975.381,1.057,1.057,0,0,0-.17,1.06Z" transform="translate(-258.084 -34.905)"/><path class="c" d="M426,659.7l14.368,2.246-9.494,10.384Z" transform="translate(-245.446 -380.095)"/><path class="b" d="M424.58,658.307l-.17,1.06,12.418,1.907-7.036,7.672-4.238-11.02-.975.382-.17,1.06.17-1.06-.975.381,4.874,12.63a1.1,1.1,0,0,0,.805.678.959.959,0,0,0,.975-.339l9.494-10.384a1.069,1.069,0,0,0,.212-1.06,1.007,1.007,0,0,0-.848-.678l-14.368-2.246a1.038,1.038,0,0,0-.975.381,1.057,1.057,0,0,0-.17,1.06Z" transform="translate(-244.026 -378.701)"/><path class="c" d="M17.2,617.642,24.066,604.8l6.654,12.418Z" transform="translate(-9.91 -348.463)"/><path class="b" d="M15.766,616.26l.932.509,5.934-11.1,4.917,9.155-11.825.381.042,1.06.932.509-.932-.509.042,1.06,13.52-.424a1.033,1.033,0,0,0,.89-.509,1.08,1.08,0,0,0,0-1.017l-6.654-12.418a1.064,1.064,0,0,0-1.865,0l-6.866,12.8a1.076,1.076,0,0,0,.975,1.568Z" transform="translate(-8.476 -347.081)"/><path class="b" d="M516.678,466.659A85.387,85.387,0,0,0,516,477.3a68.681,68.681,0,0,0,7.8,32.212c4.45,8.731,10.087,15.682,14.665,21.743a1.06,1.06,0,1,0,1.7-1.271c-4.62-6.1-10.087-12.969-14.453-21.446a66.49,66.49,0,0,1-7.544-31.237,81.326,81.326,0,0,1,.678-10.342,1.055,1.055,0,0,0-.932-1.187,1.016,1.016,0,0,0-1.229.89Z" transform="translate(-297.3 -268.346)"/><path class="b" d="M470.026,457.98l.763-.721h0a126.321,126.321,0,0,1-14.5-20.387c-6.993-12.122-13.817-28.482-13.817-45.986a65.139,65.139,0,0,1,1.229-12.673L442.689,378v1.06h7.841V378l-.975-.466c-.042.127-2.458,5.256-2.458,15.555,0,13.224,3.984,34.967,22,65.4l.932-.509.763-.721-.763.721.932-.551c-17.844-30.177-21.7-51.5-21.7-64.338a50.419,50.419,0,0,1,1.144-11.1c.3-1.229.551-2.119.763-2.713a2.421,2.421,0,0,1,.254-.636c.042-.085.042-.127.085-.17v-.042h0l-.339-.17.339.17h0l-.339-.17.339.17a1.078,1.078,0,0,0-.042-1.017,1.152,1.152,0,0,0-.89-.509h-7.841a1.085,1.085,0,0,0-1.06.848,65.906,65.906,0,0,0-1.272,13.1,82.059,82.059,0,0,0,4.535,26.066,123.318,123.318,0,0,0,15.216,29.923,113.387,113.387,0,0,0,9.155,11.825,1.046,1.046,0,0,0,1.4.127,1.117,1.117,0,0,0,.3-1.4Z" transform="translate(-253.742 -217.156)"/><path class="b" d="M526.523,163.974l1.017-.3v-.042a103.5,103.5,0,0,1-3.136-24.583,62.366,62.366,0,0,1,2.458-18.225,33.264,33.264,0,0,1,9.494-15.47l-.721-.805-.551.932,4.366,2.543L540,107.1l-.721-.805c-.085.085-3.645,3.264-7.163,10.893s-6.993,19.751-6.993,37.679c0,2.924.085,5.976.3,9.2l1.1-.085,1.017-.3-1.017.3,1.06-.085c-.212-3.179-.3-6.188-.3-9.07,0-17.674,3.433-29.457,6.781-36.789a43.367,43.367,0,0,1,4.62-7.883c.636-.805,1.144-1.4,1.483-1.78.17-.17.3-.339.382-.424l.085-.085h0l-.3-.339.3.339h0l-.3-.339.3.339a1,1,0,0,0,.339-.89,1.047,1.047,0,0,0-.509-.805L536.1,103.62a1.093,1.093,0,0,0-1.229.127,35.813,35.813,0,0,0-10.13,16.445,64.41,64.41,0,0,0-2.543,18.861,105.034,105.034,0,0,0,3.221,25.176,1.073,1.073,0,0,0,1.187.763,1.028,1.028,0,0,0,.89-1.1Z" transform="translate(-300.872 -59.626)"/><path class="c" d="M573.407,511l-11.147.509,5.128,11.995-6.188,3.942,11.274,22.294-2.713-18.394,8.18-5.637Z" transform="translate(-323.343 -294.419)"/><path class="b" d="M571.921,509.56l-.042-1.06-11.147.509a1.018,1.018,0,0,0-.848.509,1.135,1.135,0,0,0-.085.975l4.789,11.147-5.468,3.476a1.033,1.033,0,0,0-.381,1.356l11.316,22.294a1.112,1.112,0,0,0,1.271.551,1.021,1.021,0,0,0,.721-1.144l-2.628-17.759,7.629-5.256a1.088,1.088,0,0,0,.424-1.187l-4.535-14.707a1.094,1.094,0,0,0-1.06-.763l.042,1.06-1.017.3,4.323,13.944-7.544,5.213a1.078,1.078,0,0,0-.466,1.017L569,542.026l-7.926-15.64,5.425-3.433a1.146,1.146,0,0,0,.424-1.314l-4.535-10.554,9.621-.424-.085-1.1-1.017.3Z" transform="translate(-321.857 -292.979)"/><path class="c" d="M551.389,583.7,536.3,592.431v17.42l15.131-8.689Z" transform="translate(-308.996 -336.306)"/><path class="b" d="M549.948,582.237l-.551-.932-15.089,8.731a1.017,1.017,0,0,0-.509.932v17.42a1.1,1.1,0,0,0,.551.932,1.053,1.053,0,0,0,1.06,0L550.5,600.59a1.016,1.016,0,0,0,.509-.932v-17.42a1.1,1.1,0,0,0-.551-.932,1.053,1.053,0,0,0-1.06,0l.551.932h-1.06v16.826l-12.969,7.5v-15l14.58-8.392-.551-.932h0Z" transform="translate(-307.556 -334.844)"/><path class="c" d="M530.92,571.889,515.789,563.2,500.7,571.889l15.089,8.731Z" transform="translate(-288.485 -324.495)"/><path class="b" d="M529.537,570.448l.509-.932-15.089-8.689a1.167,1.167,0,0,0-1.06,0l-15.089,8.731a1.017,1.017,0,0,0-.509.932,1.165,1.165,0,0,0,.509.932l15.089,8.731a1.167,1.167,0,0,0,1.06,0l15.089-8.731a1.017,1.017,0,0,0,.509-.932,1.165,1.165,0,0,0-.509-.932l-.509.89-.551-.932-14.58,8.392-12.969-7.5,12.969-7.5,14.58,8.392.551-.848-.551-.932Z" transform="translate(-287.102 -323.055)"/><path class="c" d="M515.789,609.851v-17.42L500.7,583.7v17.462Z" transform="translate(-288.485 -336.306)"/><path class="b" d="M514.406,608.41h1.06v-17.42a1.165,1.165,0,0,0-.509-.932l-15.089-8.731a1.167,1.167,0,0,0-1.06,0,1.017,1.017,0,0,0-.509.932v17.42a1.165,1.165,0,0,0,.509.932l15.089,8.731a1.167,1.167,0,0,0,1.06,0,1.017,1.017,0,0,0,.509-.932h-1.06l.509-.932-14.58-8.392v-15l12.969,7.5V608.41h1.1l.509-.932Z" transform="translate(-287.102 -334.866)"/><path class="c" d="M572.145,633.7l-31.279-70.1c.763,6.273-4.365,16.445-13.393,25.473s-19.2,14.114-25.473,13.393Z" transform="translate(-289.234 -324.726)"/><path class="b" d="M570.775,632.276l.975-.424-31.279-70.1a1.084,1.084,0,0,0-1.229-.593,1.026,1.026,0,0,0-.763,1.144,9.023,9.023,0,0,1,.085,1.144,17.622,17.622,0,0,1-.848,4.959,36.689,36.689,0,0,1-4.45,8.985,60.174,60.174,0,0,1-7.841,9.536,57.166,57.166,0,0,1-12.673,9.706,32.585,32.585,0,0,1-5.849,2.585,16.222,16.222,0,0,1-4.959.848,10.4,10.4,0,0,1-1.144-.085,1.043,1.043,0,0,0-.551,1.992l70.1,31.279a1.111,1.111,0,0,0,1.187-.212,1.1,1.1,0,0,0,.212-1.187l-.975.424.424-.975-70.1-31.237-.424.975-.127,1.06c.466.042.89.085,1.356.085a18.519,18.519,0,0,0,5.595-.975,38.651,38.651,0,0,0,9.494-4.7,62.328,62.328,0,0,0,9.875-8.1,59.578,59.578,0,0,0,10.087-13.139,32.343,32.343,0,0,0,2.713-6.23,18.519,18.519,0,0,0,.975-5.595c0-.466-.042-.932-.085-1.4l-1.06.127-.975.424L569.8,632.7l.975-.424.424-.975Z" transform="translate(-287.864 -323.298)"/><path class="b" d="M629.512,682.112l-2.924-6.612a45.74,45.74,0,0,1-5.68,6.909A43.745,43.745,0,0,1,614,688.088l6.612,2.924a27.412,27.412,0,0,0,4.917-3.984A28.977,28.977,0,0,0,629.512,682.112Z" transform="translate(-353.764 -389.198)"/><path class="b" d="M628.121,680.664l.975-.424-2.924-6.612a1.162,1.162,0,0,0-.89-.636,1.1,1.1,0,0,0-.975.466,45.822,45.822,0,0,1-5.51,6.739,40.967,40.967,0,0,1-6.739,5.51,1.011,1.011,0,0,0-.466.975,1.073,1.073,0,0,0,.636.89l6.612,2.925a1,1,0,0,0,.975-.085,31.136,31.136,0,0,0,5.128-4.111,27.976,27.976,0,0,0,4.111-5.128,1.135,1.135,0,0,0,.085-.975l-1.017.466-.89-.551a28.811,28.811,0,0,1-3.814,4.747,26.759,26.759,0,0,1-4.747,3.815l.551.89.424-.975-6.612-2.924-.424.975.593.89a47.905,47.905,0,0,0,7.078-5.807,45.814,45.814,0,0,0,5.807-7.078l-.89-.593-.975.424,2.924,6.612.975-.424-.89-.551Z" transform="translate(-352.373 -387.75)"/><path class="b" d="M597.078,640.368l-3.56-7.968a57.98,57.98,0,0,1-9.875,12.842,59.288,59.288,0,0,1-12.842,9.875l7.968,3.56a39.576,39.576,0,0,0,10.511-7.756A40.378,40.378,0,0,0,597.078,640.368Z" transform="translate(-328.874 -364.366)"/><path class="b" d="M595.7,638.928l.975-.424-3.56-7.968a1.082,1.082,0,0,0-.932-.636,1.175,1.175,0,0,0-.975.551A60.892,60.892,0,0,1,568.951,652.7a1.121,1.121,0,0,0-.551.975,1.058,1.058,0,0,0,.636.932L577,658.17a1.086,1.086,0,0,0,.89,0A40.167,40.167,0,0,0,588.7,650.2a42.069,42.069,0,0,0,7.968-10.808,1.086,1.086,0,0,0,0-.89l-.975.424-.932-.466a42.262,42.262,0,0,1-17.8,17.8l.466.932.424-.975-7.968-3.56-.424.975.509.932a60.12,60.12,0,0,0,13.1-10.045,59.131,59.131,0,0,0,10.045-13.1l-.932-.509-.975.424,3.56,7.968.932-.381-.932-.466Z" transform="translate(-327.491 -362.925)"/><path class="b" d="M534.735,596.235c6.23-6.23,10.6-12.969,12.461-18.649l-6.23-13.987c.763,6.273-4.366,16.445-13.393,25.473s-19.2,14.114-25.473,13.393l13.987,6.23C521.766,606.831,528.547,602.466,534.735,596.235Z" transform="translate(-289.292 -324.726)"/><path class="b" d="M533.308,594.808l.763.763a60.734,60.734,0,0,0,7.968-9.706,39.543,39.543,0,0,0,4.7-9.367.959.959,0,0,0-.042-.763l-6.23-13.987a1.084,1.084,0,0,0-1.229-.593,1.026,1.026,0,0,0-.763,1.144,9.035,9.035,0,0,1,.085,1.144,17.624,17.624,0,0,1-.848,4.959,36.69,36.69,0,0,1-4.45,8.985,60.171,60.171,0,0,1-7.841,9.536,57.167,57.167,0,0,1-12.673,9.706,32.588,32.588,0,0,1-5.849,2.585,16.221,16.221,0,0,1-4.959.848,10.4,10.4,0,0,1-1.144-.085,1.043,1.043,0,0,0-.551,1.992l13.987,6.23a.96.96,0,0,0,.763.042,41.213,41.213,0,0,0,9.367-4.7,67.429,67.429,0,0,0,9.706-7.968l-.763-.763-.763-.763a60.5,60.5,0,0,1-9.367,7.714,36.845,36.845,0,0,1-8.858,4.45l.339,1.017.424-.975-13.987-6.23-.424.975-.127,1.06c.466.042.89.085,1.356.085a18.519,18.519,0,0,0,5.595-.975,38.652,38.652,0,0,0,9.494-4.7,62.326,62.326,0,0,0,9.875-8.1,59.578,59.578,0,0,0,10.087-13.139,32.339,32.339,0,0,0,2.713-6.23,18.517,18.517,0,0,0,.975-5.595c0-.466-.042-.932-.085-1.4l-1.06.127-.975.424,6.23,13.987.975-.424-1.017-.339a38.479,38.479,0,0,1-4.45,8.858A63.035,63.035,0,0,1,532.545,594Z" transform="translate(-287.864 -323.298)"/><path class="b" d="M650.14,706.4a30.016,30.016,0,0,1-2.5,2.84,30.779,30.779,0,0,1-2.84,2.5l9.579,4.281Z" transform="translate(-371.51 -407.002)"/><path class="b" d="M648.728,705.008l-.848-.636a28.451,28.451,0,0,1-2.416,2.713,34.705,34.705,0,0,1-2.713,2.416.954.954,0,0,0-.381.975,1.194,1.194,0,0,0,.636.848l9.579,4.281a1.111,1.111,0,0,0,1.187-.212,1.1,1.1,0,0,0,.212-1.187l-4.281-9.579a1.1,1.1,0,0,0-.848-.636,1.193,1.193,0,0,0-.975.381l.848.636-.975.424,3.136,7.078-7.078-3.136-.424.975.636.848a31.768,31.768,0,0,0,5.51-5.51l-.805-.678-.975.424Z" transform="translate(-370.097 -405.61)"/><path class="c" d="M509.4,520.3l14.368,2.162-9.452,10.426Z" transform="translate(-293.497 -299.778)"/><path class="b" d="M507.98,518.849l-.17,1.06,12.418,1.865-6.993,7.671-4.281-11.02-.975.424-.17,1.06.17-1.06-.975.381,4.917,12.588a.972.972,0,0,0,.805.636.958.958,0,0,0,.975-.339l9.452-10.426a1.069,1.069,0,0,0,.212-1.06,1.007,1.007,0,0,0-.848-.678l-14.368-2.162a1.038,1.038,0,0,0-.975.381,1.057,1.057,0,0,0-.17,1.06Z" transform="translate(-292.078 -298.327)"/><path class="b" d="M459.864,209.768c-.042.085-3.264,9.112-3.264,22.845a89.508,89.508,0,0,0,13.181,46.622,1.054,1.054,0,0,0,1.823-1.06,87.556,87.556,0,0,1-12.885-45.52,84.067,84.067,0,0,1,1.568-16.148c.381-1.95.763-3.433,1.06-4.45.127-.509.254-.89.339-1.144a1.078,1.078,0,0,0,.085-.3l.042-.085h0a1.052,1.052,0,0,0-.636-1.356.957.957,0,0,0-1.314.593Z" transform="translate(-263.076 -120.466)"/><path class="c" d="M230,295s34.373,32.551,44.5,42.68" transform="translate(-132.518 -169.968)"/><path class="b" d="M227.846,294.344l.381.381c1.907,1.822,10.554,10,19.92,18.945s19.454,18.606,24.2,23.353a1.049,1.049,0,1,0,1.483-1.483c-5.086-5.086-16.233-15.767-26.066-25.176-9.875-9.409-18.437-17.547-18.437-17.547a1.062,1.062,0,0,0-1.483.042.991.991,0,0,0,0,1.483Z" transform="translate(-131.084 -168.549)"/></g><g class="a" transform="translate(894.004 107)"><circle class="b" cx="4.87" cy="4.87" r="4.87" transform="translate(47.003 198.522)"/><path class="b" d="M109.559,472.229h1.059a3.918,3.918,0,0,0,1.1,2.71,3.841,3.841,0,0,0,2.71,1.1,3.918,3.918,0,0,0,2.71-1.1,3.841,3.841,0,0,0,1.1-2.71,3.918,3.918,0,0,0-1.1-2.71,3.841,3.841,0,0,0-2.71-1.1,3.918,3.918,0,0,0-2.71,1.1,3.841,3.841,0,0,0-1.1,2.71H108.5a5.929,5.929,0,1,1,5.929,5.929,5.946,5.946,0,0,1-5.929-5.929Z" transform="translate(-62.556 -268.836)"/><circle class="b" cx="4.87" cy="4.87" r="4.87" transform="translate(101.334 205.636)"/><path class="b" d="M237.759,489.029h1.059a3.918,3.918,0,0,0,1.1,2.71,3.841,3.841,0,0,0,2.71,1.1,3.918,3.918,0,0,0,2.71-1.1,3.841,3.841,0,0,0,1.1-2.71,3.918,3.918,0,0,0-1.1-2.71,3.841,3.841,0,0,0-2.71-1.1,3.918,3.918,0,0,0-2.71,1.1,3.841,3.841,0,0,0-1.1,2.71H236.7a5.929,5.929,0,1,1,5.929,5.929,5.946,5.946,0,0,1-5.929-5.929Z" transform="translate(-136.467 -278.522)"/><path class="b" d="M144.3,289.9a6.9,6.9,0,1,0,6.9-6.9A6.9,6.9,0,0,0,144.3,289.9Z" transform="translate(-83.196 -163.158)"/><path class="b" d="M142.859,288.461h1.059a5.858,5.858,0,0,0,1.694,4.15,5.784,5.784,0,0,0,4.15,1.694,5.858,5.858,0,0,0,4.15-1.694,5.784,5.784,0,0,0,1.694-4.15,5.857,5.857,0,0,0-1.694-4.15,5.784,5.784,0,0,0-4.15-1.694,5.857,5.857,0,0,0-4.15,1.694,5.784,5.784,0,0,0-1.694,4.15H141.8a7.961,7.961,0,1,1,7.961,7.961,7.952,7.952,0,0,1-7.961-7.961Z" transform="translate(-81.754 -161.717)"/><path class="b" d="M452.4,272.4a6.9,6.9,0,1,0,6.9-6.9A6.9,6.9,0,0,0,452.4,272.4Z" transform="translate(-260.825 -153.069)"/><path class="b" d="M450.959,270.961h1.059a5.857,5.857,0,0,0,1.694,4.15,5.784,5.784,0,0,0,4.15,1.694,5.857,5.857,0,0,0,4.15-1.694,5.784,5.784,0,0,0,1.694-4.15,5.857,5.857,0,0,0-1.694-4.15,5.784,5.784,0,0,0-4.15-1.694,5.857,5.857,0,0,0-4.15,1.694,5.784,5.784,0,0,0-1.694,4.15H449.9a7.961,7.961,0,1,1,7.961,7.961,7.952,7.952,0,0,1-7.961-7.961Z" transform="translate(-259.384 -151.628)"/><path class="b" d="M281.7,588.7a6.9,6.9,0,1,0,6.9-6.9A6.9,6.9,0,0,0,281.7,588.7Z" transform="translate(-162.411 -335.426)"/><path class="b" d="M280.259,587.261h1.059a5.857,5.857,0,0,0,1.694,4.15,5.784,5.784,0,0,0,4.15,1.694,5.858,5.858,0,0,0,4.15-1.694,5.784,5.784,0,0,0,1.694-4.15,5.858,5.858,0,0,0-1.694-4.15,5.784,5.784,0,0,0-4.15-1.694,5.857,5.857,0,0,0-4.15,1.694,5.784,5.784,0,0,0-1.694,4.15H279.2a7.961,7.961,0,1,1,7.961,7.961,7.952,7.952,0,0,1-7.961-7.961Z" transform="translate(-160.97 -333.985)"/><path class="b" d="M87.967,579.711l.762-.762a57.116,57.116,0,0,0,12.662,9.7,32.561,32.561,0,0,0,5.844,2.583,16.375,16.375,0,0,0,4.955.889,8.357,8.357,0,0,0,2.626-.381,4.62,4.62,0,0,0,1.863-1.143,4.927,4.927,0,0,0,1.143-1.863,8.172,8.172,0,0,0,.381-2.626,16.377,16.377,0,0,0-.889-4.955,36.66,36.66,0,0,0-4.446-8.978,60.115,60.115,0,0,0-7.834-9.528,57.116,57.116,0,0,0-12.662-9.7,32.56,32.56,0,0,0-5.844-2.583,16.375,16.375,0,0,0-4.955-.889,8.357,8.357,0,0,0-2.626.381A4.62,4.62,0,0,0,77.084,551a4.927,4.927,0,0,0-1.143,1.863,8.173,8.173,0,0,0-.381,2.626,16.377,16.377,0,0,0,.889,4.955A36.661,36.661,0,0,0,80.9,569.42a60.116,60.116,0,0,0,7.834,9.528l-.762.762-.762.762a59.523,59.523,0,0,1-10.079-13.128,35.518,35.518,0,0,1-2.753-6.225,18.5,18.5,0,0,1-.974-5.59,10.385,10.385,0,0,1,.508-3.3,6.455,6.455,0,0,1,1.652-2.668,6.738,6.738,0,0,1,2.668-1.652,10.384,10.384,0,0,1,3.3-.508,18.5,18.5,0,0,1,5.59.974,38.62,38.62,0,0,1,9.486,4.7,62.275,62.275,0,0,1,9.867,8.088,59.525,59.525,0,0,1,10.079,13.128,35.519,35.519,0,0,1,2.753,6.225,18.5,18.5,0,0,1,.974,5.59,10.385,10.385,0,0,1-.508,3.3,6.455,6.455,0,0,1-1.652,2.668,6.738,6.738,0,0,1-2.668,1.651,10.384,10.384,0,0,1-3.3.508,18.5,18.5,0,0,1-5.59-.974,38.617,38.617,0,0,1-9.486-4.7,62.274,62.274,0,0,1-9.867-8.088Z" transform="translate(-42.32 -315.593)"/><path class="c" d="M137.7,636.847s47.852-16.388,78.3,3.049S234.928,706.8,234.928,706.8l7.877.169S254.493,651.2,216,634.476c-31.083-13.551-71.058,5.505-71.058,5.505Z" transform="translate(-79.391 -362.99)"/><path class="b" d="M136.31,635.342l-.339-1.016a121.072,121.072,0,0,1,12.238-3.261,137.407,137.407,0,0,1,28.542-3.261,89.84,89.84,0,0,1,19.734,2.075A57.6,57.6,0,0,1,215.2,637.5a42.116,42.116,0,0,1,10.883,10.036,51.086,51.086,0,0,1,8.554,18.59,78.2,78.2,0,0,1,2.117,18.76,98.429,98.429,0,0,1-2.16,20.665l-1.016-.254.042-1.059,7.877.169-.042,1.059-1.016-.212h0a100.563,100.563,0,0,0,1.652-18.506c0-8.808-1.143-19.522-5.166-29.219a46.169,46.169,0,0,0-8.469-13.509,41.363,41.363,0,0,0-14.186-10.036,62.658,62.658,0,0,0-25.027-4.785,109.544,109.544,0,0,0-31.464,5.124c-4.192,1.27-7.622,2.583-9.994,3.515-1.186.466-2.117.889-2.753,1.143-.3.127-.551.254-.72.339-.085.042-.127.085-.169.085H144.1a1.084,1.084,0,0,1-.889,0l-7.284-3.091a1,1,0,0,1-.635-1.016,1.086,1.086,0,0,1,.72-.974l.3,1.016.423-.974,7.284,3.091-.423.974-.466-.974a118.082,118.082,0,0,1,13.974-5.251A110.971,110.971,0,0,1,189.159,627a64.493,64.493,0,0,1,25.874,4.955A43.572,43.572,0,0,1,229.939,642.5c5.844,6.352,9.359,14.059,11.476,21.809a87.48,87.48,0,0,1,2.71,22.359,102.442,102.442,0,0,1-1.694,18.971,1.05,1.05,0,0,1-1.059.847l-7.877-.169a1.045,1.045,0,0,1-.974-1.313h0a93.5,93.5,0,0,0,2.117-20.115,70.81,70.81,0,0,0-3.981-24.476,46.073,46.073,0,0,0-6.267-11.6,39.315,39.315,0,0,0-10.333-9.528,56.065,56.065,0,0,0-18.082-7.326,87.652,87.652,0,0,0-19.268-2.033,134.26,134.26,0,0,0-28.076,3.218c-3.684.8-6.691,1.609-8.766,2.2-1.059.3-1.863.55-2.414.72-.254.085-.466.169-.635.212a.32.32,0,0,1-.169.042h-.042l-.3-.974.423-.974Z" transform="translate(-78.001 -361.485)"/><path class="c" d="M145.2,569.947s52-51.706,95.873-42.686v7.919S198.345,525.356,145.2,569.947Z" transform="translate(-83.715 -303.374)"/><path class="b" d="M143.7,568.561l-.762-.762a204.905,204.905,0,0,1,27.314-21.978A155.243,155.243,0,0,1,197.777,530.7c9.994-4.15,20.623-6.9,31.083-6.9a55.44,55.44,0,0,1,10.883,1.059,1.038,1.038,0,0,1,.847,1.016v7.919a1.066,1.066,0,0,1-.381.847.99.99,0,0,1-.889.212h0a53.949,53.949,0,0,0-10.841-.889c-15.838,0-47.428,4.658-84.1,35.4a1.065,1.065,0,0,1-1.482-.085,1.024,1.024,0,0,1,.042-1.482l.762.762-.678-.8c37.054-31.083,69.195-35.91,85.456-35.91a57.472,57.472,0,0,1,11.307.932l-.254,1.016h-1.059v-7.919h1.059l-.212,1.016a50.927,50.927,0,0,0-10.46-1.016c-10.121,0-20.454,2.668-30.278,6.733-14.737,6.1-28.288,15.287-38.155,22.91-4.912,3.811-8.935,7.284-11.688,9.74-1.4,1.228-2.456,2.244-3.176,2.922-.381.339-.635.593-.847.8l-.212.212-.085.085-.72-.72-.678-.8Z" transform="translate(-82.214 -301.987)"/><path class="b" d="M155.005,510.444c.085-.169,6.225-10.5,27.525-24.011,21.343-13.509,57.888-30.193,118.868-43.067a1.063,1.063,0,1,1,.466,2.075c-60.768,12.831-97.059,29.431-118.148,42.813-10.544,6.691-17.278,12.535-21.343,16.727a54.742,54.742,0,0,0-4.277,4.87c-.423.55-.72,1.016-.932,1.27a3.9,3.9,0,0,0-.212.339l-.042.085h0a1.045,1.045,0,0,1-1.44.381,1.062,1.062,0,0,1-.466-1.482Z" transform="translate(-89.285 -255.601)"/><path class="c" d="M593.589,388.737,539.3,357.4v41.8l54.289,31.379Z" transform="translate(-310.926 -206.052)"/><path class="b" d="M592.147,387.273l-.508.932-52.722-30.447V397.14l52.171,30.109V387.273h1.059l-.508.932.508-.932h1.059v41.8a1.038,1.038,0,0,1-1.567.932l-54.331-31.337a1.016,1.016,0,0,1-.508-.932v-41.8a1.164,1.164,0,0,1,.508-.932,1.051,1.051,0,0,1,1.059,0L592.7,386.341a1.016,1.016,0,0,1,.508.932h-1.059Z" transform="translate(-309.484 -204.589)"/><path class="c" d="M572.189,401.079,517.9,369.7v41.839l54.289,31.337Z" transform="translate(-298.588 -213.144)"/><path class="b" d="M570.747,399.673l-.508.932-52.722-30.447V409.54l52.214,30.151V399.715h1.016l-.508.932.508-.974h1.059v41.8a1.038,1.038,0,0,1-1.567.932l-54.331-31.337a1.016,1.016,0,0,1-.508-.932v-41.8a1.164,1.164,0,0,1,.508-.932,1.051,1.051,0,0,1,1.059,0L571.3,398.742a1.016,1.016,0,0,1,.508.932Z" transform="translate(-297.146 -211.738)"/><path class="c" d="M575.969,427.91,542.6,408.6v20.962l33.369,19.268Z" transform="translate(-312.828 -235.571)"/><path class="b" d="M574.586,426.5l-.508.932-31.8-18.379v18.506l31.252,18.04V426.5h1.059l-.508.932.508-.932h1.059v20.919a1.038,1.038,0,0,1-1.567.932l-33.369-19.268a1.016,1.016,0,0,1-.508-.932V407.236a1.164,1.164,0,0,1,.508-.932,1.051,1.051,0,0,1,1.059,0l33.369,19.268a1.016,1.016,0,0,1,.508.932Z" transform="translate(-311.444 -234.165)"/><path class="c" d="M526.962,357.4l-9.062,5.209,54.289,31.379,9.062-5.251Z" transform="translate(-298.588 -206.052)"/><path class="b" d="M525.521,355.959l.551.932-7.453,4.319,52.214,30.151,6.945-4.023L524.97,356.89l.55-.932.551.932-.551-.932.508-.932,54.331,31.337a1.143,1.143,0,0,1,.55.932,1.164,1.164,0,0,1-.508.932l-9.062,5.209a1.166,1.166,0,0,1-1.059,0L515.95,362.1a1.143,1.143,0,0,1-.55-.932,1.164,1.164,0,0,1,.508-.932l9.062-5.209a1.166,1.166,0,0,1,1.059,0Z" transform="translate(-297.146 -204.611)"/><path class="c" d="M646.1,478.447l9.062-5.209V431.4l-9.062,5.251Z" transform="translate(-372.499 -248.716)"/><path class="b" d="M644.659,477.064l-.508-.932,8.512-4.912V431.837l-6.945,4.023v41.2h-1.059l-.508-.932.508.932H643.6v-41.8a1.164,1.164,0,0,1,.508-.932l9.062-5.209a1.166,1.166,0,0,1,1.059,0,1.016,1.016,0,0,1,.508.932v41.8a1.164,1.164,0,0,1-.508.932L645.167,478a1.166,1.166,0,0,1-1.059,0,1.016,1.016,0,0,1-.508-.932Z" transform="translate(-371.058 -247.332)"/><path class="c" d="M564.2,437.819c0,6.987,3.007,12.619,6.691,12.619s6.691-5.674,6.691-12.619-3.007-12.619-6.691-12.619S564.2,430.832,564.2,437.819Z" transform="translate(-325.281 -245.141)"/><path class="b" d="M562.759,436.32h1.059a18.542,18.542,0,0,0,1.821,8.427,6.92,6.92,0,0,0,1.863,2.371,2.87,2.87,0,0,0,3.9,0,9.18,9.18,0,0,0,2.625-4.108,20.128,20.128,0,0,0,1.1-6.691,18.542,18.542,0,0,0-1.821-8.427,6.92,6.92,0,0,0-1.863-2.371,2.87,2.87,0,0,0-3.9,0,9.18,9.18,0,0,0-2.626,4.108,20.13,20.13,0,0,0-1.1,6.691H561.7a20.6,20.6,0,0,1,2.075-9.443,9.752,9.752,0,0,1,2.414-3.049,4.943,4.943,0,0,1,6.521,0,11.523,11.523,0,0,1,3.3,5.039,22.479,22.479,0,0,1,1.186,7.411,20.6,20.6,0,0,1-2.075,9.443,9.751,9.751,0,0,1-2.414,3.049,4.943,4.943,0,0,1-6.521,0,11.523,11.523,0,0,1-3.3-5.039,22.478,22.478,0,0,1-1.186-7.411Z" transform="translate(-323.84 -243.642)"/><path class="c" d="M196.209,167.493l-2.795.974c-4.362,1.524-8.85-2.117-9.952-8.173s1.567-12.2,5.929-13.72l2.795-.974" transform="translate(-105.631 -83.943)"/><path class="b" d="M195.156,167.033l-2.795.974a7.558,7.558,0,0,1-2.371.423,7.19,7.19,0,0,1-3.091-.72,9.351,9.351,0,0,1-3.727-3.345,13.975,13.975,0,0,1-2.117-5.336,17.516,17.516,0,0,1-.254-2.964,15.244,15.244,0,0,1,1.821-7.411,11.735,11.735,0,0,1,2.16-2.795,8.849,8.849,0,0,1,2.88-1.779l2.795-.974a1.058,1.058,0,0,1,.72,1.99l-2.795.974a6.441,6.441,0,0,0-2.16,1.313,9.96,9.96,0,0,0-2.414,3.642,13.9,13.9,0,0,0-.635,7.538,11.132,11.132,0,0,0,2.668,5.632,6.569,6.569,0,0,0,2.033,1.482,5.076,5.076,0,0,0,2.2.508,4.541,4.541,0,0,0,1.652-.3l2.795-.974a1.052,1.052,0,0,1,1.355.635,1.263,1.263,0,0,1-.72,1.482Z" transform="translate(-104.239 -82.466)"/><line class="c" x1="5.293" transform="translate(81.516 64.41)"/><path class="b" d="M196.352,151.717h-5.293a1.059,1.059,0,1,1,0-2.117h5.293a1.048,1.048,0,0,1,1.059,1.059,1.076,1.076,0,0,1-1.059,1.059" transform="translate(-109.543 -86.249)"/><line class="c" x1="7.665" transform="translate(79.144 68.856)"/><path class="b" d="M193.123,162.217h-7.665a1.059,1.059,0,0,1,0-2.117h7.665a1.059,1.059,0,1,1,0,2.117" transform="translate(-106.315 -92.303)"/><line class="c" x1="7.665" transform="translate(79.144 73.302)"/><path class="b" d="M193.123,172.717h-7.665a1.059,1.059,0,1,1,0-2.117h7.665a1.059,1.059,0,1,1,0,2.117" transform="translate(-106.315 -98.356)"/><line class="c" x1="7.665" transform="translate(79.144 77.749)"/><path class="b" d="M193.123,183.217h-7.665a1.059,1.059,0,1,1,0-2.117h7.665a1.059,1.059,0,1,1,0,2.117" transform="translate(-106.315 -104.41)"/><line class="c" x1="6.818" transform="translate(81.516 82.195)"/><path class="b" d="M197.877,193.717h-6.818a1.059,1.059,0,1,1,0-2.117h6.818a1.059,1.059,0,1,1,0,2.117" transform="translate(-109.543 -110.463)"/><path class="c" d="M193.662,157.648c1.1,6.056,5.547,9.7,9.952,8.173,4.362-1.524,7.03-7.665,5.929-13.72s-5.547-9.7-9.952-8.173C195.229,145.495,192.561,151.635,193.662,157.648Z" transform="translate(-111.511 -82.779)"/><path class="b" d="M192.213,156.1l1.059-.212a11.132,11.132,0,0,0,2.668,5.632,6.569,6.569,0,0,0,2.033,1.482,5.076,5.076,0,0,0,2.2.508,4.541,4.541,0,0,0,1.652-.3,6.441,6.441,0,0,0,2.16-1.313,9.96,9.96,0,0,0,2.414-3.642,13.9,13.9,0,0,0,.635-7.538h0a11.132,11.132,0,0,0-2.668-5.632,6.569,6.569,0,0,0-2.033-1.482,5.076,5.076,0,0,0-2.2-.508,4.541,4.541,0,0,0-1.652.3,6.441,6.441,0,0,0-2.16,1.313,9.96,9.96,0,0,0-2.414,3.642,13.9,13.9,0,0,0-.635,7.538l-1.059.212-1.059.169a17.514,17.514,0,0,1-.254-2.964,15.244,15.244,0,0,1,1.821-7.411,11.733,11.733,0,0,1,2.16-2.795,8.849,8.849,0,0,1,2.88-1.779,7.558,7.558,0,0,1,2.371-.423,7.19,7.19,0,0,1,3.091.72,9.351,9.351,0,0,1,3.727,3.345,13.974,13.974,0,0,1,2.117,5.336h0a17.514,17.514,0,0,1,.254,2.964,15.244,15.244,0,0,1-1.821,7.411,11.734,11.734,0,0,1-2.16,2.795,8.849,8.849,0,0,1-2.88,1.779,7.558,7.558,0,0,1-2.371.423,7.19,7.19,0,0,1-3.091-.72,9.351,9.351,0,0,1-3.727-3.345,13.974,13.974,0,0,1-2.117-5.336Z" transform="translate(-110.062 -81.233)"/><path class="c" d="M314.5,26.393l2.795.974c4.362,1.524,8.85-2.117,9.952-8.173S325.68,7,321.318,5.474L318.523,4.5" transform="translate(-181.321 -2.594)"/><path class="b" d="M313.362,23.958l2.795.974a4.541,4.541,0,0,0,1.652.3,5.076,5.076,0,0,0,2.2-.508,7.308,7.308,0,0,0,2.88-2.626,11.813,11.813,0,0,0,1.779-4.531,13.355,13.355,0,0,0,.254-2.583,13.178,13.178,0,0,0-1.567-6.352,9.559,9.559,0,0,0-1.736-2.244,6.441,6.441,0,0,0-2.16-1.313L316.665,4.1a1.058,1.058,0,0,1,.72-1.99l2.795.974a8.185,8.185,0,0,1,2.88,1.779,11.973,11.973,0,0,1,2.922,4.446,15.773,15.773,0,0,1,1.059,5.717,17.512,17.512,0,0,1-.254,2.964,13.383,13.383,0,0,1-3.218,6.733,9,9,0,0,1-2.668,1.948,7.19,7.19,0,0,1-3.091.72,6.85,6.85,0,0,1-2.371-.423l-2.795-.974a1.052,1.052,0,0,1-.635-1.355,1.111,1.111,0,0,1,1.355-.678Z" transform="translate(-179.844 -1.175)"/><line class="c" x2="5.293" transform="translate(136.948 4.616)"/><path class="b" d="M321.959,8.4h5.293a1.059,1.059,0,1,1,0,2.117h-5.293A1.048,1.048,0,0,1,320.9,9.459,1.076,1.076,0,0,1,321.959,8.4" transform="translate(-185.011 -4.843)"/><line class="c" x2="7.665" transform="translate(136.948 9.062)"/><path class="b" d="M321.959,18.9h7.665a1.059,1.059,0,0,1,0,2.117h-7.665a1.048,1.048,0,0,1-1.059-1.059,1.076,1.076,0,0,1,1.059-1.059" transform="translate(-185.011 -10.896)"/><line class="c" x2="7.665" transform="translate(136.948 13.551)"/><path class="b" d="M321.959,29.5h7.665a1.059,1.059,0,0,1,0,2.117h-7.665a1.059,1.059,0,1,1,0-2.117" transform="translate(-185.011 -17.008)"/><line class="c" x2="7.665" transform="translate(136.948 17.997)"/><path class="b" d="M321.959,40h7.665a1.059,1.059,0,0,1,0,2.117h-7.665a1.059,1.059,0,1,1,0-2.117" transform="translate(-185.011 -23.061)"/><line class="c" x2="6.818" transform="translate(135.423 22.444)"/><path class="b" d="M318.359,50.5h6.818a1.059,1.059,0,0,1,0,2.117h-6.818a1.059,1.059,0,1,1,0-2.117" transform="translate(-182.936 -29.115)"/><path class="c" d="M312.439,16.548c-1.1,6.056-5.547,9.7-9.952,8.173s-7.03-7.665-5.929-13.72,5.547-9.7,9.952-8.173C310.872,4.352,313.54,10.493,312.439,16.548Z" transform="translate(-170.833 -1.43)"/><path class="b" d="M311.051,15.118l1.059.212a13.383,13.383,0,0,1-3.218,6.733,8.995,8.995,0,0,1-2.668,1.948,7.19,7.19,0,0,1-3.091.72,6.85,6.85,0,0,1-2.371-.423h0a8.186,8.186,0,0,1-2.88-1.779,11.974,11.974,0,0,1-2.922-4.446,15.773,15.773,0,0,1-1.059-5.717,17.516,17.516,0,0,1,.254-2.964,13.383,13.383,0,0,1,3.218-6.733A8.995,8.995,0,0,1,300.04.72,7.19,7.19,0,0,1,303.132,0,6.682,6.682,0,0,1,305.5.423h0a8.185,8.185,0,0,1,2.88,1.779A11.973,11.973,0,0,1,311.3,6.648a15.773,15.773,0,0,1,1.059,5.717,17.515,17.515,0,0,1-.254,2.964h0l-1.059-.212-1.059-.212a13.545,13.545,0,0,0-1.313-8.935,9.559,9.559,0,0,0-1.736-2.244,6.441,6.441,0,0,0-2.16-1.313h0a4.541,4.541,0,0,0-1.652-.3,5.076,5.076,0,0,0-2.2.508,7.308,7.308,0,0,0-2.88,2.626,11.813,11.813,0,0,0-1.779,4.531,13.545,13.545,0,0,0,1.313,8.935,9.56,9.56,0,0,0,1.736,2.244,6.441,6.441,0,0,0,2.16,1.313h0a4.541,4.541,0,0,0,1.652.3,5.076,5.076,0,0,0,2.2-.508,7.509,7.509,0,0,0,2.88-2.583,11.813,11.813,0,0,0,1.779-4.531h0Z" transform="translate(-169.445)"/><path class="c" d="M288.4,424.495l-3.557,1.228c-5.547,1.948-11.18-2.71-12.577-10.333-1.4-7.665,1.948-15.414,7.5-17.362l3.557-1.228" transform="translate(-156.79 -228.768)"/><path class="b" d="M287.328,424.049l-3.557,1.228a8.792,8.792,0,0,1-2.88.508,8.535,8.535,0,0,1-3.811-.889,11.833,11.833,0,0,1-4.616-4.108,16.981,16.981,0,0,1-2.626-6.648,22.081,22.081,0,0,1-.339-3.684,19.116,19.116,0,0,1,2.287-9.232,12.644,12.644,0,0,1,2.668-3.43,10.3,10.3,0,0,1,3.557-2.16l3.557-1.228a1.058,1.058,0,1,1,.72,1.99l-3.557,1.228a7.68,7.68,0,0,0-2.837,1.736A12.646,12.646,0,0,0,272.8,404.1a17.913,17.913,0,0,0-.889,9.655,13.994,13.994,0,0,0,3.472,7.284,8.636,8.636,0,0,0,2.626,1.948,6.992,6.992,0,0,0,2.88.678,6.887,6.887,0,0,0,2.2-.381l3.557-1.228a1.052,1.052,0,0,1,1.355.635,1.074,1.074,0,0,1-.678,1.355Z" transform="translate(-155.377 -227.348)"/><line class="c" x1="6.691" transform="translate(119.501 171.463)"/><path class="b" d="M287.392,404.517h-6.733a1.059,1.059,0,1,1,0-2.117h6.733a1.059,1.059,0,0,1,0,2.117" transform="translate(-161.2 -231.996)"/><line class="c" x1="8.596" transform="translate(117.595 175.231)"/><path class="b" d="M284.8,413.417h-8.639a1.059,1.059,0,1,1,0-2.117H284.8a1.048,1.048,0,0,1,1.059,1.059,1.076,1.076,0,0,1-1.059,1.059" transform="translate(-158.606 -237.127)"/><line class="c" x1="9.697" transform="translate(116.494 178.958)"/><path class="b" d="M283.356,422.217h-9.7a1.059,1.059,0,1,1,0-2.117h9.7a1.059,1.059,0,1,1,0,2.117" transform="translate(-157.165 -242.201)"/><line class="c" x1="9.697" transform="translate(116.494 182.727)"/><path class="b" d="M283.356,431.117h-9.7a1.059,1.059,0,1,1,0-2.117h9.7a1.059,1.059,0,1,1,0,2.117" transform="translate(-157.165 -247.332)"/><line class="c" x1="9.697" transform="translate(116.494 186.496)"/><path class="b" d="M283.356,440.017h-9.7a1.059,1.059,0,1,1,0-2.117h9.7a1.059,1.059,0,1,1,0,2.117" transform="translate(-157.165 -252.463)"/><line class="c" x1="9.697" transform="translate(116.494 190.222)"/><path class="b" d="M283.356,448.817h-9.7a1.059,1.059,0,1,1,0-2.117h9.7a1.059,1.059,0,1,1,0,2.117" transform="translate(-157.165 -257.536)"/><line class="c" x1="8.639" transform="translate(119.501 193.991)"/><path class="b" d="M289.4,457.717h-8.639a1.059,1.059,0,1,1,0-2.117H289.4a1.048,1.048,0,0,1,1.059,1.059,1.076,1.076,0,0,1-1.059,1.059" transform="translate(-161.258 -262.668)"/><path class="c" d="M280.649,413.455c1.4,7.665,7.03,12.281,12.577,10.333s8.893-9.7,7.5-17.362-7.03-12.281-12.577-10.333S279.209,405.833,280.649,413.455Z" transform="translate(-161.614 -228.103)"/><path class="b" d="M279.2,412.044l1.059-.212a13.994,13.994,0,0,0,3.472,7.284,8.637,8.637,0,0,0,2.626,1.948,6.992,6.992,0,0,0,2.88.678,6.887,6.887,0,0,0,2.2-.381,7.68,7.68,0,0,0,2.837-1.736,12.646,12.646,0,0,0,3.091-4.743,17.913,17.913,0,0,0,.889-9.655h0a13.994,13.994,0,0,0-3.472-7.284,8.637,8.637,0,0,0-2.626-1.948,6.992,6.992,0,0,0-2.88-.678,6.888,6.888,0,0,0-2.2.381,7.68,7.68,0,0,0-2.837,1.736,12.646,12.646,0,0,0-3.091,4.743,17.914,17.914,0,0,0-.889,9.655h0l-1.059.212-1.059.169a22.081,22.081,0,0,1-.339-3.684,19.116,19.116,0,0,1,2.287-9.232,12.644,12.644,0,0,1,2.668-3.43,10.3,10.3,0,0,1,3.557-2.16,8.791,8.791,0,0,1,2.88-.508,8.535,8.535,0,0,1,3.811.889,11.833,11.833,0,0,1,4.616,4.108,16.982,16.982,0,0,1,2.626,6.648h0a22.081,22.081,0,0,1,.339,3.684,19.116,19.116,0,0,1-2.287,9.232,12.645,12.645,0,0,1-2.668,3.43,10.3,10.3,0,0,1-3.557,2.16,8.791,8.791,0,0,1-2.88.508,8.535,8.535,0,0,1-3.811-.889,11.833,11.833,0,0,1-4.616-4.108,16.981,16.981,0,0,1-2.626-6.648h0Z" transform="translate(-160.163 -226.692)"/><path class="c" d="M404.965,534.229l-5,1.736c-7.834,2.753-15.8-3.811-17.786-14.61s2.753-21.766,10.587-24.519l5-1.736" transform="translate(-220.081 -285.441)"/><path class="b" d="M403.946,533.883l-5,1.736a11.679,11.679,0,0,1-3.938.678,12.329,12.329,0,0,1-5.209-1.186,16.492,16.492,0,0,1-6.352-5.674,24.43,24.43,0,0,1-3.684-9.232,30.83,30.83,0,0,1-.466-5.166,26.374,26.374,0,0,1,3.176-12.789,18.721,18.721,0,0,1,3.684-4.743,13.842,13.842,0,0,1,4.87-2.964l5-1.736a1.058,1.058,0,1,1,.72,1.99l-5,1.736a11.461,11.461,0,0,0-4.15,2.541,18.424,18.424,0,0,0-4.489,6.86,25.645,25.645,0,0,0-1.694,9.147,26.437,26.437,0,0,0,.423,4.785,20.516,20.516,0,0,0,5,10.5,14.31,14.31,0,0,0,3.854,2.88,9.9,9.9,0,0,0,7.538.423l5-1.736a1.052,1.052,0,0,1,1.355.635,1.022,1.022,0,0,1-.635,1.313Z" transform="translate(-218.681 -284.079)"/><line class="c" x1="9.486" transform="translate(167.818 214.529)"/><path class="b" d="M404.344,506.217h-9.486a1.059,1.059,0,1,1,0-2.117h9.486a1.059,1.059,0,1,1,0,2.117" transform="translate(-227.04 -290.629)"/><line class="c" x1="12.196" transform="translate(165.108 219.823)"/><path class="b" d="M400.655,518.717h-12.2a1.059,1.059,0,0,1,0-2.117h12.2a1.059,1.059,0,1,1,0,2.117" transform="translate(-223.35 -297.836)"/><line class="c" x1="13.72" transform="translate(163.584 225.116)"/><path class="b" d="M398.579,531.217h-13.72a1.059,1.059,0,1,1,0-2.117h13.72a1.059,1.059,0,0,1,0,2.117" transform="translate(-221.275 -305.043)"/><line class="c" x1="13.72" transform="translate(163.584 230.452)"/><path class="b" d="M398.579,543.817h-13.72a1.059,1.059,0,1,1,0-2.117h13.72a1.059,1.059,0,0,1,0,2.117" transform="translate(-221.275 -312.307)"/><line class="c" x1="13.72" transform="translate(163.584 235.745)"/><path class="b" d="M398.579,556.317h-13.72a1.059,1.059,0,1,1,0-2.117h13.72a1.059,1.059,0,0,1,0,2.117" transform="translate(-221.275 -319.514)"/><line class="c" x1="13.72" transform="translate(163.584 241.081)"/><path class="b" d="M398.579,568.917h-13.72a1.059,1.059,0,1,1,0-2.117h13.72a1.048,1.048,0,0,1,1.059,1.059,1.076,1.076,0,0,1-1.059,1.059" transform="translate(-221.275 -326.778)"/><line class="c" x1="12.196" transform="translate(167.818 246.374)"/><path class="b" d="M407.055,581.417h-12.2a1.059,1.059,0,1,1,0-2.117h12.2a1.048,1.048,0,0,1,1.059,1.059,1.076,1.076,0,0,1-1.059,1.059" transform="translate(-227.04 -333.985)"/><path class="c" d="M394.082,518.765c1.99,10.8,9.952,17.362,17.786,14.61s12.577-13.72,10.587-24.519-9.952-17.362-17.786-14.61S392.092,507.966,394.082,518.765Z" transform="translate(-226.941 -284.586)"/><path class="b" d="M392.625,517.37l1.059-.212a20.516,20.516,0,0,0,5,10.5,14.31,14.31,0,0,0,3.854,2.88,9.9,9.9,0,0,0,7.538.423,11.46,11.46,0,0,0,4.15-2.541,18.424,18.424,0,0,0,4.489-6.86,25.645,25.645,0,0,0,1.694-9.147,26.439,26.439,0,0,0-.423-4.785h0a20.517,20.517,0,0,0-5-10.5,14.312,14.312,0,0,0-3.854-2.88,9.9,9.9,0,0,0-7.538-.423,11.461,11.461,0,0,0-4.15,2.541,18.424,18.424,0,0,0-4.489,6.86,25.645,25.645,0,0,0-1.694,9.147,26.436,26.436,0,0,0,.423,4.785l-1.059.212-1.059.169a30.829,30.829,0,0,1-.466-5.166,26.374,26.374,0,0,1,3.176-12.789,18.722,18.722,0,0,1,3.684-4.743,13.842,13.842,0,0,1,4.87-2.964,11.679,11.679,0,0,1,3.938-.678,12.328,12.328,0,0,1,5.209,1.186,16.491,16.491,0,0,1,6.352,5.674,23.72,23.72,0,0,1,3.642,9.232h0a26.948,26.948,0,0,1,.466,5.166,26.374,26.374,0,0,1-3.176,12.789,18.722,18.722,0,0,1-3.684,4.743,13.643,13.643,0,0,1-4.912,2.964,11.678,11.678,0,0,1-3.938.678,12.328,12.328,0,0,1-5.209-1.186,16.491,16.491,0,0,1-6.352-5.674,24.429,24.429,0,0,1-3.684-9.232Z" transform="translate(-225.484 -283.192)"/><path class="c" d="M250.7,215.579,304.989,184.2v41.839L250.7,257.375Z" transform="translate(-144.539 -106.197)"/><path class="b" d="M249.316,214.2l-.508-.932,54.331-31.337a1.166,1.166,0,0,1,1.059,0,1.016,1.016,0,0,1,.508.932v41.8a1.164,1.164,0,0,1-.508.932l-54.331,31.337a1.166,1.166,0,0,1-1.059,0,1.016,1.016,0,0,1-.508-.932V214.2a1.164,1.164,0,0,1,.508-.932l.508.932h1.059v39.975l52.214-30.151V184.637l-52.722,30.447-.551-.889h0Z" transform="translate(-143.155 -104.813)"/><path class="c" d="M272.1,227.937,326.389,196.6v41.8L272.1,269.775Z" transform="translate(-156.876 -113.346)"/><path class="b" d="M270.716,226.5l-.508-.932,54.331-31.337a1.166,1.166,0,0,1,1.059,0,1.016,1.016,0,0,1,.508.932v41.8a1.164,1.164,0,0,1-.508.932l-54.331,31.337a1.166,1.166,0,0,1-1.059,0,1.016,1.016,0,0,1-.508-.932V226.5a1.164,1.164,0,0,1,.508-.932l.508.932h1.059v39.975l52.214-30.151V196.937l-52.722,30.447-.551-.889h0Z" transform="translate(-155.493 -111.905)"/><path class="c" d="M296.8,254.768,330.169,235.5v20.919L296.8,275.73Z" transform="translate(-171.117 -135.773)"/><path class="b" d="M295.359,253.327l-.508-.932,33.369-19.268a1.166,1.166,0,0,1,1.059,0,1.016,1.016,0,0,1,.508.932v20.919a1.164,1.164,0,0,1-.508.932l-33.412,19.268a1.166,1.166,0,0,1-1.059,0,1.016,1.016,0,0,1-.508-.932V253.327a1.164,1.164,0,0,1,.508-.932l.55.932h1.059v19.1l31.252-18.04V235.88l-31.8,18.379-.508-.932h0Z" transform="translate(-169.675 -134.332)"/><path class="c" d="M304.989,184.2l9.062,5.251-54.289,31.337-9.062-5.209Z" transform="translate(-144.539 -106.197)"/><path class="b" d="M303.547,182.759l.508-.932,9.062,5.209a1.143,1.143,0,0,1,.551.932,1.164,1.164,0,0,1-.508.932l-54.331,31.337a1.166,1.166,0,0,1-1.059,0l-9.062-5.209a1.016,1.016,0,0,1-.508-.932,1.164,1.164,0,0,1,.508-.932l54.331-31.337a1.166,1.166,0,0,1,1.059,0l-.551.932.508.932-52.722,30.447,6.945,4.023,52.214-30.151-7.453-4.319.508-.932.508.932Z" transform="translate(-143.097 -104.756)"/><path class="c" d="M259.762,305.347,250.7,300.1V258.3l9.062,5.209Z" transform="translate(-144.539 -148.918)"/><path class="b" d="M258.379,303.941l-.508.932-9.062-5.209a1.016,1.016,0,0,1-.508-.932v-41.8a1.164,1.164,0,0,1,.508-.932,1.051,1.051,0,0,1,1.059,0l9.062,5.209a1.016,1.016,0,0,1,.508.932v41.8a1.038,1.038,0,0,1-1.567.932l.508-.932H257.32v-41.2l-6.945-4.023V298.1l8.512,4.912-.508.932h0Z" transform="translate(-143.155 -147.512)"/><path class="c" d="M335.782,264.619c0,6.987-3.007,12.619-6.691,12.619s-6.691-5.674-6.691-12.619c0-6.987,3.007-12.619,6.691-12.619S335.782,257.674,335.782,264.619Z" transform="translate(-185.876 -145.286)"/><path class="b" d="M334.34,263.178H335.4a20.6,20.6,0,0,1-2.075,9.443,9.752,9.752,0,0,1-2.414,3.049,4.943,4.943,0,0,1-6.521,0,11.524,11.524,0,0,1-3.3-5.039,22.479,22.479,0,0,1-1.186-7.411,20.6,20.6,0,0,1,2.075-9.443,9.752,9.752,0,0,1,2.414-3.049,4.943,4.943,0,0,1,6.521,0,11.524,11.524,0,0,1,3.3,5.039,22.479,22.479,0,0,1,1.186,7.411h-2.117a18.542,18.542,0,0,0-1.821-8.427,6.92,6.92,0,0,0-1.863-2.371,2.87,2.87,0,0,0-3.9,0,9.18,9.18,0,0,0-2.626,4.108,20.128,20.128,0,0,0-1.1,6.691,18.542,18.542,0,0,0,1.821,8.427,6.921,6.921,0,0,0,1.863,2.371,2.87,2.87,0,0,0,3.9,0,9.18,9.18,0,0,0,2.626-4.108,20.128,20.128,0,0,0,1.1-6.691Z" transform="translate(-184.435 -143.845)"/><path class="c" d="M115.1,393.9l15.075,8.681v17.447L115.1,411.3Z" transform="translate(-66.361 -227.096)"/><path class="b" d="M113.659,392.436l.551-.932,15.075,8.723a1.016,1.016,0,0,1,.508.932v17.4a1.1,1.1,0,0,1-.551.932,1.052,1.052,0,0,1-1.059,0l-15.076-8.723a1.016,1.016,0,0,1-.508-.932v-17.4a1.1,1.1,0,0,1,.551-.932,1.052,1.052,0,0,1,1.059,0l-.551.932h1.059v16.812l12.958,7.5V401.753l-14.525-8.427.508-.889h0Z" transform="translate(-64.92 -225.632)"/><path class="c" d="M115.1,382.023l15.075-8.723,15.118,8.723L130.175,390.7Z" transform="translate(-66.361 -215.219)"/><path class="b" d="M113.716,380.582l-.508-.932,15.076-8.723a1.166,1.166,0,0,1,1.059,0l15.076,8.723a1.016,1.016,0,0,1,.508.932,1.164,1.164,0,0,1-.508.932l-15.076,8.681a1.166,1.166,0,0,1-1.059,0l-15.076-8.723a1.016,1.016,0,0,1-.508-.932,1.164,1.164,0,0,1,.508-.932l.508.974.508-.932,14.567,8.385,12.958-7.5-12.958-7.5-14.525,8.427-.551-.889.508-.932Z" transform="translate(-64.977 -213.778)"/><path class="c" d="M150.7,420.028V402.581l15.118-8.681v17.4Z" transform="translate(-86.885 -227.096)"/><path class="b" d="M149.259,418.587H148.2v-17.4a1.164,1.164,0,0,1,.508-.932l15.076-8.723a1.166,1.166,0,0,1,1.059,0,1.016,1.016,0,0,1,.508.932v17.4a1.164,1.164,0,0,1-.508.932l-15.033,8.681a1.166,1.166,0,0,1-1.059,0,1.016,1.016,0,0,1-.508-.932h1.016l-.508-.932,14.567-8.385V394.237l-12.958,7.5v16.812h-1.1l-.508-.932Z" transform="translate(-85.444 -225.654)"/><path class="c" d="M392.5,388.6l12.619,7.284v14.567L392.5,403.167Z" transform="translate(-226.291 -224.04)"/><path class="b" d="M391.059,387.136l.551-.932,12.619,7.284a1.016,1.016,0,0,1,.508.932v14.567a1.1,1.1,0,0,1-.55.932,1.052,1.052,0,0,1-1.059,0l-12.619-7.284A1.016,1.016,0,0,1,390,401.7V387.136a1.1,1.1,0,0,1,.551-.932,1.052,1.052,0,0,1,1.059,0l-.551.932h1.059v13.974l10.5,6.056V395.055l-12.069-6.987.508-.932h0Z" transform="translate(-224.849 -222.576)"/><path class="c" d="M392.5,378.684l12.619-7.284,12.619,7.284-12.619,7.284Z" transform="translate(-226.291 -214.124)"/><path class="b" d="M391.059,377.242l-.508-.932,12.619-7.284a1.166,1.166,0,0,1,1.059,0l12.619,7.284a1.016,1.016,0,0,1,.508.932,1.164,1.164,0,0,1-.508.932l-12.662,7.284a1.166,1.166,0,0,1-1.059,0l-12.619-7.284a1.016,1.016,0,0,1-.508-.932,1.164,1.164,0,0,1,.508-.932l.55.932.508-.932,12.069,6.987,10.5-6.056-10.5-6.056-12.069,6.987-.508-.932.508-.932Z" transform="translate(-224.849 -212.682)"/><path class="c" d="M422.3,410.451V395.884l12.619-7.284v14.567Z" transform="translate(-243.471 -224.04)"/><path class="b" d="M420.859,409.01H419.8V394.442a1.164,1.164,0,0,1,.508-.932l12.619-7.284a1.166,1.166,0,0,1,1.059,0,1.016,1.016,0,0,1,.508.932v14.567a1.164,1.164,0,0,1-.508.932l-12.619,7.284a1.166,1.166,0,0,1-1.059,0,1.016,1.016,0,0,1-.508-.932h1.059l-.508-.932,12.069-6.987V388.98l-10.5,6.056V409.01h-1.059l-.508-.932Z" transform="translate(-242.03 -222.599)"/><path class="c" d="M525.3,249.2l15.118,8.723v17.4L525.3,266.6Z" transform="translate(-302.854 -143.672)"/><path class="b" d="M523.859,247.736l.551-.932,15.075,8.723a1.016,1.016,0,0,1,.508.932v17.4a1.1,1.1,0,0,1-.551.932,1.052,1.052,0,0,1-1.059,0l-15.076-8.723a1.016,1.016,0,0,1-.508-.932v-17.4a1.1,1.1,0,0,1,.55-.932,1.052,1.052,0,0,1,1.059,0l-.551.932h1.059v16.812l12.958,7.5V257.053l-14.567-8.385.551-.932h0Z" transform="translate(-301.413 -142.208)"/><path class="c" d="M525.3,237.323l15.118-8.723,15.075,8.723-15.075,8.723Z" transform="translate(-302.854 -131.795)"/><path class="b" d="M523.916,235.882l-.508-.932,15.076-8.723a1.166,1.166,0,0,1,1.059,0l15.075,8.723a1.016,1.016,0,0,1,.508.932,1.164,1.164,0,0,1-.508.932l-15.075,8.723a1.166,1.166,0,0,1-1.059,0l-15.076-8.723a1.016,1.016,0,0,1-.508-.932,1.164,1.164,0,0,1,.508-.932l.508.932.551-.932,14.567,8.385,12.958-7.5-12.958-7.453-14.567,8.385-.551-.889.551-.932Z" transform="translate(-301.47 -130.354)"/><path class="c" d="M561,275.328v-17.4l15.075-8.723v17.4Z" transform="translate(-323.436 -143.672)"/><path class="b" d="M559.559,273.887H558.5v-17.4a1.164,1.164,0,0,1,.508-.932l15.075-8.723a1.166,1.166,0,0,1,1.059,0,1.016,1.016,0,0,1,.508.932v17.4a1.164,1.164,0,0,1-.508.932l-15.076,8.723a1.166,1.166,0,0,1-1.059,0,1.016,1.016,0,0,1-.508-.932h1.059l-.508-.932,14.567-8.385V249.58l-12.958,7.5v16.812h-1.1l-.508-.932Z" transform="translate(-321.995 -142.23)"/><path class="c" d="M273.2,109.4l15.076,8.681v17.447L273.2,126.8Z" transform="translate(-157.511 -63.073)"/><path class="b" d="M271.759,107.936l.551-.932,15.075,8.723a1.016,1.016,0,0,1,.508.932v17.4a1.1,1.1,0,0,1-.551.932,1.052,1.052,0,0,1-1.059,0l-15.076-8.723a1.016,1.016,0,0,1-.508-.932v-17.4a1.1,1.1,0,0,1,.551-.932,1.052,1.052,0,0,1,1.059,0l-.551.932h1.059v16.812l12.958,7.5V117.253l-14.567-8.385.55-.932h0Z" transform="translate(-156.069 -61.609)"/><path class="c" d="M273.2,97.523,288.276,88.8l15.075,8.723L288.276,106.2Z" transform="translate(-157.511 -51.196)"/><path class="b" d="M271.759,96.082l-.508-.932,15.076-8.723a1.166,1.166,0,0,1,1.059,0l15.076,8.723a1.016,1.016,0,0,1,.508.932,1.164,1.164,0,0,1-.508.932l-15.118,8.681a1.166,1.166,0,0,1-1.059,0l-15.075-8.723a1.016,1.016,0,0,1-.508-.932,1.164,1.164,0,0,1,.508-.932l.551.974.551-.932,14.567,8.385,12.958-7.5-12.958-7.5-14.567,8.385-.551-.847.551-.932Z" transform="translate(-156.069 -49.755)"/><path class="c" d="M308.8,135.528V118.081l15.076-8.681v17.4Z" transform="translate(-178.035 -63.073)"/><path class="b" d="M307.359,134.087H306.3v-17.4a1.164,1.164,0,0,1,.508-.932l15.076-8.723a1.166,1.166,0,0,1,1.059,0,1.016,1.016,0,0,1,.508.932v17.4a1.164,1.164,0,0,1-.508.932l-15.076,8.681a1.166,1.166,0,0,1-1.059,0,1.016,1.016,0,0,1-.508-.932h1.059l-.508-.932,14.567-8.385V109.737l-12.958,7.5v16.812h-1.1l-.508-.932Z" transform="translate(-176.594 -61.631)"/><path class="c" d="M280.1,584.567a6.267,6.267,0,1,0,6.267-6.267A6.253,6.253,0,0,0,280.1,584.567Z" transform="translate(-161.489 -333.408)"/><path class="b" d="M278.659,583.126h1.059a5.2,5.2,0,1,0,1.524-3.684,5.218,5.218,0,0,0-1.524,3.684H277.6a7.326,7.326,0,1,1,7.326,7.326,7.328,7.328,0,0,1-7.326-7.326Z" transform="translate(-160.047 -331.967)"/><circle class="c" cx="4.87" cy="4.87" r="4.87" transform="translate(48.273 197.252)"/><path class="b" d="M112.559,469.229h1.059a3.918,3.918,0,0,0,1.1,2.71,3.841,3.841,0,0,0,2.71,1.1,3.918,3.918,0,0,0,2.71-1.1,3.841,3.841,0,0,0,1.1-2.71,3.918,3.918,0,0,0-1.1-2.71,3.841,3.841,0,0,0-2.71-1.1,3.918,3.918,0,0,0-2.71,1.1,3.841,3.841,0,0,0-1.1,2.71H111.5a5.929,5.929,0,1,1,5.929,5.929,5.946,5.946,0,0,1-5.929-5.929Z" transform="translate(-64.285 -267.107)"/><circle class="c" cx="4.87" cy="4.87" r="4.87" transform="translate(102.604 204.79)"/><path class="b" d="M240.759,487.029h1.059a3.918,3.918,0,0,0,1.1,2.71,3.841,3.841,0,0,0,2.71,1.1,3.918,3.918,0,0,0,2.71-1.1,3.841,3.841,0,0,0,1.1-2.71,3.918,3.918,0,0,0-1.1-2.71,3.841,3.841,0,0,0-2.71-1.1,3.918,3.918,0,0,0-2.71,1.1,3.841,3.841,0,0,0-1.1,2.71H239.7a5.929,5.929,0,1,1,5.929,5.929,5.946,5.946,0,0,1-5.929-5.929Z" transform="translate(-138.197 -277.369)"/><path class="c" d="M445.1,267.4a6.9,6.9,0,1,0,6.9-6.9A6.9,6.9,0,0,0,445.1,267.4Z" transform="translate(-256.616 -150.186)"/><path class="b" d="M443.659,265.961h1.059a5.857,5.857,0,0,0,1.694,4.15,5.784,5.784,0,0,0,4.15,1.694,5.857,5.857,0,0,0,4.15-1.694,5.784,5.784,0,0,0,1.694-4.15,5.857,5.857,0,0,0-1.694-4.15,5.784,5.784,0,0,0-4.15-1.694,5.858,5.858,0,0,0-4.15,1.694,5.784,5.784,0,0,0-1.694,4.15H442.6a7.961,7.961,0,1,1,7.961,7.961,7.952,7.952,0,0,1-7.961-7.961Z" transform="translate(-255.175 -148.745)"/><path class="c" d="M151.6,283.7a6.9,6.9,0,1,0,6.9-6.9A6.9,6.9,0,0,0,151.6,283.7Z" transform="translate(-87.404 -159.584)"/><path class="b" d="M150.159,282.261h1.059a5.857,5.857,0,0,0,1.694,4.15,5.784,5.784,0,0,0,4.15,1.694,5.857,5.857,0,0,0,4.15-1.694,5.784,5.784,0,0,0,1.694-4.15,5.857,5.857,0,0,0-1.694-4.15,5.784,5.784,0,0,0-4.15-1.694,5.857,5.857,0,0,0-4.15,1.694,5.784,5.784,0,0,0-1.694,4.15H149.1a7.961,7.961,0,1,1,7.961,7.961,7.952,7.952,0,0,1-7.961-7.961Z" transform="translate(-85.963 -158.143)"/><path class="b" d="M89.7,256.66l-.127,1.059-9.528-1.1,2.795,11.137a1.06,1.06,0,0,1-.593,1.228l-5.886,2.541,5.336,16.685.169-12.111a1.042,1.042,0,0,1,.593-.932l8.215-3.9-2.033-14.44,1.059-.169-.127,1.059.127-1.059,1.059-.169,2.16,15.2a1.024,1.024,0,0,1-.593,1.1l-8.342,3.938-.254,18a1.011,1.011,0,0,1-.889,1.016,1.068,1.068,0,0,1-1.186-.72l-7.622-23.8a1.093,1.093,0,0,1,.593-1.313l5.929-2.583L77.586,255.6a1.165,1.165,0,0,1,.212-.974,1.078,1.078,0,0,1,.932-.339l11.053,1.27a1.078,1.078,0,0,1,.932.889Z" transform="translate(-42.652 -146.601)"/><path class="b" d="M487.846,605.753l-1.059.169-1.694-9.443-9.824,5.886a1.09,1.09,0,0,1-1.355-.212l-4.15-4.912-14.44,9.909,11.645-3.345a.994.994,0,0,1,1.059.3l6.1,6.776,13.255-6.14.466,1.016-1.059.169,1.059-.169.466.974-13.932,6.437a1.034,1.034,0,0,1-1.228-.254l-6.183-6.86L449.733,611a1.112,1.112,0,0,1-1.27-.55,1.055,1.055,0,0,1,.339-1.313L469.382,595a1.089,1.089,0,0,1,1.4.169l4.15,4.955L485.3,593.9a1.058,1.058,0,0,1,1.567.72l1.99,10.968a1.08,1.08,0,0,1-.593,1.143Z" transform="translate(-258.497 -342.313)"/><path class="c" d="M63.719,416.937s5.505-19.48,1.4-37.562C60.5,359.091,48.136,347.7,48.136,347.7L42.8,354.9s11.01,8.469,16.007,25.281C63.8,397.034,63.719,416.937,63.719,416.937Z" transform="translate(-24.678 -200.46)"/><path class="b" d="M62.286,415.427l-1.016-.3v-.042a91.97,91.97,0,0,0,2.88-22.571,65.437,65.437,0,0,0-1.524-14.44A68.269,68.269,0,0,0,52.546,355a68.657,68.657,0,0,0-4.658-6.013c-.593-.678-1.1-1.186-1.44-1.525l-.381-.381-.085-.085H45.94l.72-.762.847.635-5.336,7.2-.847-.635.635-.847a40.794,40.794,0,0,1,6.31,6.521,57.324,57.324,0,0,1,10.079,19.31,129.568,129.568,0,0,1,4.319,24.392c.635,7.072.635,12.154.635,12.662v.127l-1.016-.169-1.016-.3,1.016.3-1.059-.085.551.042h-.551v-.042l.551.042h-.551c0-.423,0-5.505-.635-12.45a130.119,130.119,0,0,0-4.235-23.968,54.3,54.3,0,0,0-9.7-18.59,47.008,47.008,0,0,0-4.235-4.658q-.826-.762-1.27-1.143a2.763,2.763,0,0,1-.339-.3l-.085-.085h0l.127-.169-.127.169h0l.127-.169-.127.169a1.07,1.07,0,0,1-.212-1.482l5.336-7.2a1.073,1.073,0,0,1,.762-.423,1.086,1.086,0,0,1,.8.254,52.326,52.326,0,0,1,6.9,8.385,69.732,69.732,0,0,1,10.375,23.8,67.614,67.614,0,0,1,1.567,14.906A94.684,94.684,0,0,1,63.3,415.6a1.072,1.072,0,0,1-1.186.762,1.092,1.092,0,0,1-.889-1.1Z" transform="translate(-23.244 -198.95)"/><path class="c" d="M473.677,166.784,461.1,159.5l.889,14.059Z" transform="translate(-265.841 -91.957)"/><path class="b" d="M472.286,165.414l-.508.932-10.883-6.31.678,10.375,10.206-5.929.508.932-.508.932.508-.932.551.932-11.688,6.775a1.062,1.062,0,0,1-1.567-.847l-.889-14.017a1.044,1.044,0,0,1,.508-.974,1.034,1.034,0,0,1,1.1,0l12.577,7.284a1.016,1.016,0,0,1,.508.932,1.164,1.164,0,0,1-.508.932Z" transform="translate(-264.45 -90.587)"/><path class="b" d="M534.855,164.2,529.9,177.878l13.678-3.345Z" transform="translate(-305.506 -94.666)"/><path class="b" d="M533.379,162.786l1.016.381-4.277,11.815,10.078-2.456-7.622-9.02.8-.72,1.016.381-1.016-.381.8-.678,8.723,10.333a1.119,1.119,0,0,1,.212,1.016,1.176,1.176,0,0,1-.762.72l-13.678,3.345a1.132,1.132,0,0,1-1.059-.339,1,1,0,0,1-.212-1.059l4.955-13.678a1.018,1.018,0,0,1,.8-.678,1.126,1.126,0,0,1,1.016.339Z" transform="translate(-304.03 -93.253)"/><path class="b" d="M465.629,338.9,451.4,341.822l9.994,9.909Z" transform="translate(-260.248 -195.386)"/><path class="b" d="M464.167,337.424l.212,1.016-12.323,2.5,7.368,7.326,3.727-11.222,1.016.381.212,1.016-.212-1.016,1.016.339-4.277,12.831a1.034,1.034,0,0,1-.762.678.96.96,0,0,1-.974-.3l-9.994-9.909a1,1,0,0,1-.254-1.059,1.069,1.069,0,0,1,.8-.72l14.229-2.922a1.028,1.028,0,0,1,1.016.339,1.012,1.012,0,0,1,.212,1.016Z" transform="translate(-258.787 -193.91)"/><path class="b" d="M476.725,490.062,462.2,489.3l7.2,12.111Z" transform="translate(-266.475 -282.097)"/><path class="b" d="M475.3,488.671l-.042,1.059-12.535-.635,5.293,8.935,6.394-9.909.889.55-.042,1.059.042-1.059.889.593-7.326,11.349a1,1,0,0,1-.889.466,1.032,1.032,0,0,1-.889-.508l-7.2-12.069a1.034,1.034,0,0,1,0-1.1,1,1,0,0,1,.974-.508l14.525.72a1.028,1.028,0,0,1,.889.593,1.054,1.054,0,0,1-.042,1.059Z" transform="translate(-265.048 -280.706)"/><path class="c" d="M200.056,63.1,185.7,65.344l9.486,10.375Z" transform="translate(-107.064 -36.379)"/><path class="b" d="M198.592,61.648l.169,1.059-12.408,1.906,7.03,7.665,4.235-11.01.974.381.169,1.059-.169-1.059.974.381L194.7,74.648a1.1,1.1,0,0,1-.8.678.958.958,0,0,1-.974-.339L183.432,64.57a1.069,1.069,0,0,1-.212-1.059,1.006,1.006,0,0,1,.847-.678l14.356-2.244a1.037,1.037,0,0,1,.974.381,1.056,1.056,0,0,1,.169,1.059Z" transform="translate(-105.601 -34.927)"/><path class="c" d="M224.456,659.7,210.1,661.944l9.486,10.375Z" transform="translate(-121.131 -380.338)"/><path class="b" d="M222.992,658.306l.169,1.059-12.408,1.906,7.03,7.665,4.235-11.01.974.381.169,1.059-.169-1.059.974.381-4.87,12.619a1.1,1.1,0,0,1-.8.678.958.958,0,0,1-.974-.339l-9.486-10.375a1.069,1.069,0,0,1-.212-1.059,1.006,1.006,0,0,1,.847-.678l14.356-2.244a1.037,1.037,0,0,1,.974.381,1.056,1.056,0,0,1,.169,1.059Z" transform="translate(-119.668 -378.943)"/><path class="c" d="M634.409,617.631l-6.86-12.831L620.9,617.208Z" transform="translate(-357.97 -348.686)"/><path class="b" d="M632.967,616.247l-.932.508-5.929-11.095-4.912,9.147,11.815.381-.042,1.059-.932.508.932-.508-.042,1.059-13.509-.423a1.032,1.032,0,0,1-.889-.508,1.079,1.079,0,0,1,0-1.016l6.648-12.408a1.064,1.064,0,0,1,1.863,0l6.86,12.831a1.075,1.075,0,0,1-.974,1.567Z" transform="translate(-356.529 -347.302)"/><path class="b" d="M120.18,466.659a85.318,85.318,0,0,1,.678,10.629,68.622,68.622,0,0,1-7.792,32.184c-4.446,8.723-10.079,15.668-14.652,21.724a1.059,1.059,0,0,1-1.694-1.27c4.616-6.1,10.079-12.958,14.44-21.428a66.432,66.432,0,0,0,7.538-31.21,81.261,81.261,0,0,0-.678-10.333,1.054,1.054,0,0,1,.932-1.186,1.016,1.016,0,0,1,1.228.889Z" transform="translate(-55.645 -268.517)"/><path class="b" d="M158.2,457.91l-.762-.72h0a126.205,126.205,0,0,0,14.483-20.369c6.987-12.111,13.805-28.457,13.805-45.946a65.082,65.082,0,0,0-1.228-12.662L185.51,378v1.059h-7.834V378l.974-.466c.042.127,2.456,5.251,2.456,15.541,0,13.212-3.981,34.936-21.978,65.341l-.932-.508-.762-.72.762.72-.932-.551c17.828-30.151,21.682-51.451,21.682-64.283a50.378,50.378,0,0,0-1.143-11.095c-.3-1.228-.551-2.117-.762-2.71a2.419,2.419,0,0,0-.254-.635c-.042-.085-.042-.127-.085-.169v-.042h0l.339-.169-.339.169h0l.339-.169-.339.169a1.077,1.077,0,0,1,.042-1.016,1.151,1.151,0,0,1,.889-.508h7.834a1.084,1.084,0,0,1,1.059.847,65.856,65.856,0,0,1,1.27,13.085,81.988,81.988,0,0,1-4.531,26.043,123.21,123.21,0,0,1-15.2,29.9,113.31,113.31,0,0,1-9.147,11.815,1.046,1.046,0,0,1-1.4.127,1.116,1.116,0,0,1-.3-1.4Z" transform="translate(-90.571 -217.295)"/><path class="b" d="M118.029,163.922l-1.016-.3v-.042a103.411,103.411,0,0,0,3.134-24.561,62.311,62.311,0,0,0-2.456-18.209,33.235,33.235,0,0,0-9.486-15.457l.72-.8.551.932-4.362,2.541-.551-.932.72-.8c.085.085,3.642,3.261,7.157,10.883s6.987,19.734,6.987,37.646c0,2.922-.085,5.971-.3,9.189l-1.1-.085-1.016-.3,1.016.3-1.059-.085c.212-3.176.3-6.183.3-9.062,0-17.659-3.43-29.431-6.775-36.757a43.331,43.331,0,0,0-4.616-7.877c-.635-.8-1.143-1.4-1.482-1.779-.169-.169-.3-.339-.381-.423l-.085-.085h0l.3-.339-.3.339h0l.3-.339-.3.339a1,1,0,0,1-.339-.889,1.046,1.046,0,0,1,.508-.8l4.362-2.541a1.092,1.092,0,0,1,1.228.127,35.782,35.782,0,0,1,10.121,16.431,64.354,64.354,0,0,1,2.541,18.844,104.942,104.942,0,0,1-3.218,25.154,1.072,1.072,0,0,1-1.186.762,1.027,1.027,0,0,1-.889-1.1Z" transform="translate(-59.72 -59.664)"/><path class="c" d="M73.873,511l11.095.508-5.124,11.984,6.225,3.938L74.763,549.705l2.71-18.379L69.3,525.694Z" transform="translate(-39.956 -294.607)"/><path class="b" d="M72.491,509.559l.042-1.059,11.137.508a1.017,1.017,0,0,1,.847.508,1.134,1.134,0,0,1,.085.974l-4.785,11.137,5.463,3.472a1.032,1.032,0,0,1,.381,1.355L74.354,548.729a1.112,1.112,0,0,1-1.27.551,1.02,1.02,0,0,1-.72-1.143l2.626-17.743-7.622-5.251a1.087,1.087,0,0,1-.423-1.186l4.531-14.694a1.093,1.093,0,0,1,1.059-.762l-.042,1.059,1.016.3-4.319,13.932,7.5,5.209a1.077,1.077,0,0,1,.466,1.016L75.37,542l7.919-15.626-5.42-3.43a1.145,1.145,0,0,1-.423-1.313l4.531-10.544-9.613-.423.127-1.1,1.016.3Z" transform="translate(-38.573 -293.166)"/><path class="c" d="M98.1,583.7l15.075,8.723v17.4L98.1,601.147Z" transform="translate(-56.56 -336.521)"/><path class="b" d="M96.659,582.236l.551-.932,15.075,8.723a1.016,1.016,0,0,1,.508.932v17.4a1.1,1.1,0,0,1-.551.932,1.052,1.052,0,0,1-1.059,0l-15.075-8.723a1.016,1.016,0,0,1-.508-.932v-17.4a1.1,1.1,0,0,1,.551-.932,1.052,1.052,0,0,1,1.059,0l-.551.932h1.059v16.812l12.958,7.5V591.553l-14.567-8.385.551-.932h0Z" transform="translate(-55.119 -335.058)"/><path class="c" d="M98.1,571.881l15.075-8.681,15.075,8.681L113.175,580.6Z" transform="translate(-56.56 -324.702)"/><path class="b" d="M96.716,570.382l-.508-.932,15.075-8.723a1.166,1.166,0,0,1,1.059,0l15.075,8.723a1.016,1.016,0,0,1,.508.932,1.164,1.164,0,0,1-.508.932l-15.075,8.724a1.166,1.166,0,0,1-1.059,0l-15.075-8.724a1.016,1.016,0,0,1-.508-.932,1.164,1.164,0,0,1,.508-.932l.508.932.551-.932,14.567,8.385,12.958-7.5-13-7.453-14.567,8.385-.508-.889.551-.932Z" transform="translate(-55.176 -323.203)"/><path class="c" d="M133.7,609.828v-17.4l15.075-8.723v17.447Z" transform="translate(-77.084 -336.521)"/><path class="b" d="M132.259,608.387H131.2v-17.4a1.164,1.164,0,0,1,.508-.932l15.076-8.723a1.166,1.166,0,0,1,1.059,0,1.016,1.016,0,0,1,.508.932v17.4a1.164,1.164,0,0,1-.508.932l-15.075,8.723a1.166,1.166,0,0,1-1.059,0,1.016,1.016,0,0,1-.508-.932h1.059l-.508-.932,14.567-8.385V584.08l-12.958,7.5v16.812h-1.1l-.508-.932Z" transform="translate(-75.643 -335.08)"/><path class="c" d="M2.5,633.642,33.752,563.6c-.762,6.267,4.362,16.431,13.382,25.45s19.183,14.1,25.45,13.382Z" transform="translate(-1.444 -324.933)"/><path class="b" d="M1.056,632.214l-.974-.423,31.252-70.042a1.083,1.083,0,0,1,1.228-.593,1.025,1.025,0,0,1,.762,1.143,9.02,9.02,0,0,0-.085,1.143,17.608,17.608,0,0,0,.847,4.955,36.66,36.66,0,0,0,4.446,8.978,60.116,60.116,0,0,0,7.834,9.528,57.115,57.115,0,0,0,12.662,9.7,32.565,32.565,0,0,0,5.844,2.583,16.206,16.206,0,0,0,4.955.847,10.38,10.38,0,0,0,1.143-.085,1.042,1.042,0,0,1,.551,1.99L1.48,633.188a1.11,1.11,0,0,1-1.186-.212,1.125,1.125,0,0,1-.212-1.186l.974.423-.423-.974,70.042-31.21L71.1,601l.127,1.059c-.466.042-.889.085-1.355.085a18.5,18.5,0,0,1-5.59-.974,38.619,38.619,0,0,1-9.486-4.7,62.274,62.274,0,0,1-9.867-8.088,59.525,59.525,0,0,1-10.079-13.128,32.311,32.311,0,0,1-2.71-6.225,18.5,18.5,0,0,1-.974-5.59c0-.466.042-.932.085-1.4l1.059.127.974.423L2.03,632.637l-.974-.424-.423-.974Z" transform="translate(0 -323.505)"/><path class="b" d="M19.4,682.106l2.922-6.606A45.7,45.7,0,0,0,28,682.4a43.705,43.705,0,0,0,6.9,5.674L28.293,691a27.4,27.4,0,0,1-4.912-3.981A28.957,28.957,0,0,1,19.4,682.106Z" transform="translate(-11.187 -389.447)"/><path class="b" d="M17.916,680.657l-.974-.423,2.922-6.606a1.161,1.161,0,0,1,.889-.635,1.1,1.1,0,0,1,.974.466,45.784,45.784,0,0,0,5.505,6.733,40.927,40.927,0,0,0,6.733,5.505,1.01,1.01,0,0,1,.466.974,1.073,1.073,0,0,1-.635.889l-6.606,2.922a1,1,0,0,1-.974-.085,31.114,31.114,0,0,1-5.124-4.108,27.949,27.949,0,0,1-4.108-5.124,1.134,1.134,0,0,1-.085-.974l1.016.466.889-.55a28.785,28.785,0,0,0,3.811,4.743,26.732,26.732,0,0,0,4.743,3.811l-.551.889-.423-.974,6.606-2.922.423.974-.593.889a47.854,47.854,0,0,1-7.072-5.8,45.769,45.769,0,0,1-5.8-7.072l.889-.593.974.423-2.922,6.606-.974-.423.889-.55Z" transform="translate(-9.703 -387.998)"/><path class="b" d="M37.2,640.361l3.557-7.961a57.927,57.927,0,0,0,9.867,12.831A59.239,59.239,0,0,0,63.455,655.1l-7.961,3.557a39.542,39.542,0,0,1-10.5-7.749A40.342,40.342,0,0,1,37.2,640.361Z" transform="translate(-21.449 -364.598)"/><path class="b" d="M35.744,638.92l-.974-.423,3.557-7.961a1.081,1.081,0,0,1,.932-.635,1.174,1.174,0,0,1,.974.551,60.838,60.838,0,0,0,22.232,22.232,1.12,1.12,0,0,1,.551.974,1.057,1.057,0,0,1-.635.932l-7.961,3.557a1.085,1.085,0,0,1-.889,0,40.134,40.134,0,0,1-10.8-7.961,42.034,42.034,0,0,1-7.961-10.8,1.085,1.085,0,0,1,0-.889l.974.423.932-.466A38.84,38.84,0,0,0,44.214,648.7a38.84,38.84,0,0,0,10.248,7.538l-.466.932-.423-.974,7.961-3.557.423.974-.508.932A62.841,62.841,0,0,1,38.37,631.467l.932-.508.974.423-3.557,7.961-.974-.423.932-.466Z" transform="translate(-19.993 -363.157)"/><path class="b" d="M73.95,596.207c-6.225-6.225-10.587-12.958-12.45-18.633L67.725,563.6c-.762,6.267,4.362,16.431,13.382,25.45s19.183,14.1,25.45,13.382l-13.974,6.225C86.908,606.794,80.175,602.432,73.95,596.207Z" transform="translate(-35.459 -324.933)"/><path class="b" d="M72.544,594.779l-.762.762a60.683,60.683,0,0,1-7.961-9.7,39.5,39.5,0,0,1-4.7-9.359.959.959,0,0,1,.042-.762l6.225-13.974a1.083,1.083,0,0,1,1.228-.593,1.025,1.025,0,0,1,.762,1.143,9.019,9.019,0,0,0-.085,1.143,17.608,17.608,0,0,0,.847,4.955,36.66,36.66,0,0,0,4.446,8.978A60.116,60.116,0,0,0,80.42,586.9a57.115,57.115,0,0,0,12.662,9.7,32.564,32.564,0,0,0,5.844,2.583,16.206,16.206,0,0,0,4.955.847,10.38,10.38,0,0,0,1.143-.085,1.042,1.042,0,0,1,.551,1.99L91.6,608.161a.958.958,0,0,1-.762.042,41.179,41.179,0,0,1-9.359-4.7,67.371,67.371,0,0,1-9.7-7.961l.762-.762.762-.762a60.44,60.44,0,0,0,9.359,7.707,36.812,36.812,0,0,0,8.85,4.446l-.339,1.016-.423-.974,13.974-6.225.423.974.127,1.059c-.466.042-.889.085-1.355.085a18.5,18.5,0,0,1-5.59-.974,38.618,38.618,0,0,1-9.486-4.7,62.278,62.278,0,0,1-9.867-8.088A59.526,59.526,0,0,1,68.9,575.215a32.311,32.311,0,0,1-2.71-6.225,18.5,18.5,0,0,1-.974-5.59c0-.466.042-.932.085-1.4l1.059.127.974.423L61.11,576.528l-.974-.423,1.016-.339a38.446,38.446,0,0,0,4.446,8.851,62.976,62.976,0,0,0,7.707,9.359Z" transform="translate(-34.053 -323.505)"/><path class="b" d="M6.777,706.4a29.988,29.988,0,0,0,2.5,2.837,30.728,30.728,0,0,0,2.837,2.5L2.5,715.97Z" transform="translate(-1.444 -407.262)"/><path class="b" d="M5.333,704.95l.847-.635a28.416,28.416,0,0,0,2.414,2.71,34.717,34.717,0,0,0,2.71,2.414.953.953,0,0,1,.381.974,1.193,1.193,0,0,1-.635.847l-9.57,4.235a1.11,1.11,0,0,1-1.186-.212A1.124,1.124,0,0,1,.082,714.1l4.277-9.57a1.094,1.094,0,0,1,.847-.635,1.191,1.191,0,0,1,.974.381l-.847.677.974.423-3.134,7.072,7.072-3.134.423.974-.635.847a31.752,31.752,0,0,1-5.505-5.505l.8-.678.974.423Z" transform="translate(0 -405.812)"/><path class="c" d="M141.056,520.3,126.7,522.46l9.443,10.417Z" transform="translate(-73.049 -299.969)"/><path class="b" d="M139.592,518.848l.169,1.059-12.408,1.863,6.987,7.665,4.277-11.01.974.423.169,1.059-.169-1.059.974.381-4.912,12.577a.971.971,0,0,1-.8.635.958.958,0,0,1-.974-.339l-9.443-10.417a1.069,1.069,0,0,1-.212-1.059,1.006,1.006,0,0,1,.847-.678l14.356-2.16a1.037,1.037,0,0,1,.974.381,1.056,1.056,0,0,1,.169,1.059Z" transform="translate(-71.586 -298.517)"/><path class="b" d="M189.632,209.768c.042.085,3.261,9.1,3.261,22.825a89.431,89.431,0,0,1-13.17,46.582,1.053,1.053,0,1,1-1.821-1.059,87.48,87.48,0,0,0,12.873-45.481,84,84,0,0,0-1.567-16.134c-.381-1.948-.762-3.43-1.059-4.446-.127-.508-.254-.889-.339-1.143a1.077,1.077,0,0,1-.085-.3l-.042-.085h0a1.052,1.052,0,0,1,.635-1.355.968.968,0,0,1,1.313.593Z" transform="translate(-102.484 -120.543)"/><path class="c" d="M379.464,295S345.121,327.522,335,337.643" transform="translate(-193.14 -170.077)"/><path class="b" d="M378.714,294.342l-.381.381c-1.906,1.821-10.544,9.994-19.9,18.929s-19.437,18.59-24.18,23.333a1.048,1.048,0,0,1-1.482-1.482c5.082-5.082,16.219-15.753,26.043-25.154,9.867-9.4,18.421-17.532,18.421-17.532a1.061,1.061,0,0,1,1.482.042.99.99,0,0,1,0,1.482Z" transform="translate(-191.67 -168.657)"/></g></g></svg>