<svg xmlns="http://www.w3.org/2000/svg" viewBox="0 0 165.436 177.342"><defs><style>.a{fill:#cc143c;}.b{fill:#007aff;}</style></defs><path class="a" d="M292.708,250.5,272.8,259.439v17.879l39,24.085,19.909-8.939V274.585Zm34.938,24.866L311.8,281.924l-34.9-21.7,15.849-6.6Zm-52.114-12.8,34.9,21.7v13.155l-34.9-21.7Zm37.631,34.9V284.306l15.849-6.6v13.155Z" transform="translate(-166.309 -152.714)"/><path class="a" d="M329.012,332.212v13.155l-15.849,6.6v-12.8l-1.366.625-1.366-.859v13.038l-34.9-21.743V317.379L272.8,315.7v16.122l39,24.085,19.948-8.939V330.807" transform="translate(-166.309 -192.462)"/><path class="a" d="M329.012,367.812v13.155l-15.849,6.6v-12.8l-1.366.625-1.366-.859v13.038l-34.9-21.743V352.978L272.8,351.3v16.122l39,24.085,19.948-8.978V366.407" transform="translate(-166.309 -214.165)"/><path class="a" d="M338.784,335.267,326.8,327.85V325l11.984,7.378Z" transform="translate(-199.229 -198.132)"/><path class="a" d="M288.8,300.447c0,1.171-.547,2.147-1.249,2.147s-1.249-.937-1.249-2.147c0-1.171.546-2.147,1.249-2.147.664,0,1.249.976,1.249,2.147" transform="translate(-174.539 -181.854)"/><path class="a" d="M338.784,374.967,326.8,367.55V364.7l11.984,7.417Z" transform="translate(-199.229 -222.334)"/><path class="a" d="M288.8,340.247c0,1.171-.547,2.147-1.249,2.147s-1.249-.937-1.249-2.147c0-1.171.546-2.147,1.249-2.147.664,0,1.249.937,1.249,2.147" transform="translate(-174.539 -206.118)"/><path class="a" d="M338.784,411.867,326.8,404.45V401.6l11.984,7.378Z" transform="translate(-199.229 -244.83)"/><path class="a" d="M288.8,377.047c0,1.171-.547,2.147-1.249,2.147s-1.249-.937-1.249-2.147c0-1.171.546-2.147,1.249-2.147.664,0,1.249.976,1.249,2.147" transform="translate(-174.539 -228.553)"/><path class="a" d="M284.881,256.331,250.1,235.876l1.522-2.576,36.187,21.236Z" transform="translate(-152.47 -142.228)"/><path class="a" d="M213.019,200.258l-6.519-3.9,1.483-2.654,6.675,3.865Z" transform="translate(-125.89 -118.086)"/><path class="a" d="M200.219,222.058l-6.519-3.865,1.444-2.693,6.675,3.9Z" transform="translate(-118.086 -131.377)"/><path class="a" d="M249.619,220.058l-6.519-3.865,1.483-2.694,6.675,3.9Z" transform="translate(-148.203 -130.157)"/><path class="a" d="M236.919,241.958l-6.519-3.9,1.483-2.654,6.6,3.826Z" transform="translate(-140.46 -143.508)"/><rect class="a" width="12.96" height="3.045" transform="translate(75.523 86.77) rotate(-59.471)"/><rect class="a" width="12.96" height="3.045" transform="translate(93.858 96.885) rotate(-59.471)"/><path class="a" d="M274.848,199.147a1.317,1.317,0,0,1-.351-.859,1.4,1.4,0,0,1,1.327-1.483l7.339-.507a1.407,1.407,0,0,1,.156,2.811l-7.339.507a1.423,1.423,0,0,1-1.132-.468" transform="translate(-167.342 -119.669)"/><path class="a" d="M257.572,158.733a1.33,1.33,0,0,1-.859-.273,1.422,1.422,0,0,1-.312-1.952l4.372-5.895a1.4,1.4,0,1,1,2.264,1.64l-4.372,5.934a1.368,1.368,0,0,1-1.093.547" transform="translate(-156.156 -91.473)"/><path class="a" d="M238.022,150.573a1.33,1.33,0,0,1-.859.273A1.376,1.376,0,0,1,235.8,149.4l.117-7.339a1.406,1.406,0,1,1,2.811.078l-.117,7.378a1.53,1.53,0,0,1-.586,1.054" transform="translate(-143.749 -85.773)"/><path class="a" d="M270.691,177.051a1.467,1.467,0,0,1-.7-.586,1.446,1.446,0,0,1,.468-1.952l6.285-3.826a1.419,1.419,0,0,1,1.483,2.42l-6.285,3.826a1.422,1.422,0,0,1-1.249.117" transform="translate(-164.473 -103.936)"/><path class="a" d="M209.537,158.468a1.39,1.39,0,0,1-1.288-.859l-2.928-6.753a1.4,1.4,0,1,1,2.576-1.093l2.928,6.753a1.391,1.391,0,0,1-.742,1.835,1.532,1.532,0,0,1-.547.117" transform="translate(-125.101 -90.779)"/><path class="a" d="M166.776,235.759a1.33,1.33,0,0,1,.273.859,1.426,1.426,0,0,1-1.444,1.366l-7.339-.273a1.406,1.406,0,1,1,.078-2.811l7.339.273a1.521,1.521,0,0,1,1.093.586" transform="translate(-95.652 -143.204)"/><path class="a" d="M184.386,269.891a1.831,1.831,0,0,1,.859.351,1.379,1.379,0,0,1,.078,1.991l-4.958,5.426a1.409,1.409,0,0,1-2.069-1.913l4.958-5.426a1.437,1.437,0,0,1,1.132-.429" transform="translate(-108.46 -164.532)"/><path class="a" d="M170.222,253.471a1.164,1.164,0,0,1,.625.664,1.383,1.383,0,0,1-.664,1.874l-6.636,3.162a1.406,1.406,0,1,1-1.21-2.537l6.636-3.162a1.405,1.405,0,0,1,1.249,0" transform="translate(-98.474 -154.436)"/><path class="a" d="M212.063,275.6h.2a1.381,1.381,0,0,1,1.288,1.522L213,284.461a1.41,1.41,0,1,1-2.811-.234l.546-7.339a1.422,1.422,0,0,1,1.327-1.288" transform="translate(-128.135 -168.016)"/><path class="a" d="M235.483,273.275a1.424,1.424,0,0,1,1.21.976l2.186,7.027a1.408,1.408,0,0,1-2.694.82L234,275.07a1.407,1.407,0,0,1,.937-1.757,1.343,1.343,0,0,1,.547-.039" transform="translate(-142.616 -166.588)"/><path class="b" d="M49.825,95.86a1.591,1.591,0,0,1-.7-.2L33.664,86.491A1.327,1.327,0,0,1,33,85.32V48.2a1.317,1.317,0,0,1,.7-1.171,1.416,1.416,0,0,1,1.366,0L50.527,56.2a1.327,1.327,0,0,1,.664,1.171V94.533a1.317,1.317,0,0,1-.7,1.171,1.283,1.283,0,0,1-.664.156M35.733,84.54l12.726,7.573V58.151L35.733,50.617Z" transform="translate(-20.118 -28.561)"/><path class="b" d="M12.96,212.9,1.6,220.356v32.83l26.271,15.38,11.36-6.636V229.1Zm23.5,16.747-8.627,5.036L4.333,220.9l8.627-5.855ZM3.435,222.464l23.5,13.819V265.95l-23.5-13.819ZM28.769,265.95V236.283l8.627-5.036v29.668Z" transform="translate(-0.975 -129.792)"/><path class="b" d="M26.857,268.149l-.312-.2L0,252.379V218.846L11.984,211l26.857,16.59v33.532ZM1.21,251.676,26.857,266.7l10.774-6.285V228.254L11.984,212.405,1.21,219.51Zm25.335,14.17L1.835,251.325V220.252l24.71,14.522Zm-23.5-15.224,22.29,13.116V235.476L3.045,222.36Zm24.124,15.224V234.773l9.837-5.738v31.073Zm1.21-30.37v28.262l7.417-4.333V231.143Zm-1.522-1.249L2.225,219.783l9.759-6.636,24.71,15.38ZM4.489,219.705,26.857,232.86l7.456-4.372-22.329-13.9Z" transform="translate(0 -128.633)"/><path class="b" d="M71.245,213.457,68.2,211.7v3.123l3.045,1.757Z" transform="translate(-41.577 -129.06)"/><path class="b" d="M68.2,238.145a1.522,1.522,0,0,0,3.045,0v-8.588L68.2,227.8Z" transform="translate(-41.577 -138.875)"/><path class="b" d="M46.616,183.908a9.408,9.408,0,0,0-18.816,0v14.561a1.522,1.522,0,0,0,3.045,0V183.908a6.4,6.4,0,0,1,12.8,0v1.952l3.045,1.757v-3.708Z" transform="translate(-16.948 -106.382)"/><path class="b" d="M61.8,3.147V2.6l8.159,4.723v3.162L61.8,5.762Z" transform="translate(-37.676 -1.585)"/><path class="b" d="M45.451,5.738V8.9L57.4,15.771l-9.8,3.552L25.7,6.714l9.8-3.552,1.8,1.015V1.015L35.5,0,21.6,5.934V73.545a12.464,12.464,0,0,1,2.733-4.528V9.056L46.232,21.7V86.349l-16.161-9.33a2.226,2.226,0,0,0-.039.507V80.1L47.6,90.252l13.858-5.934V14.99ZM58.763,82.8l-9.8,3.552V21.7l9.8-3.552Z" transform="translate(-13.168)"/><path class="a" d="M161.7,179.805l-29-17.605v3.552l27.4,16.629Z" transform="translate(-80.899 -98.883)"/></svg>