<svg xmlns="http://www.w3.org/2000/svg" viewBox="0 0 74.271 196.441"><defs><style>.a{fill:#007aff;}.b{fill:none;}</style></defs><g transform="translate(0)"><path class="a" d="M76.1,212.9v27.982l1.411.806,1.411-.806V212.9Z" transform="translate(-45.416 -127.058)"/><path class="a" d="M76.1,262.1v3.266l2.822,1.613v-3.266Z" transform="translate(-45.416 -156.42)"/><path class="a" d="M53.576,261.427v3.266l12.338,7.137L55.794,275.5l-22.66-13.064,10.12-3.669,1.855,1.048v-3.266L43.254,255.5,28.9,261.629V333.4l26.894,15.523,14.354-6.129v-71.77Zm.806,83.383-22.66-13.064V264.854l22.66,13.064Zm12.943-3.669L57.2,344.81V277.918l10.12-3.669Z" transform="translate(-17.247 -152.481)"/><path class="a" d="M57.678,356.258a1.643,1.643,0,0,1-.726-.2l-15.967-9.475a1.37,1.37,0,0,1-.685-1.21v-41.53a1.361,1.361,0,0,1,.726-1.21,1.463,1.463,0,0,1,1.411,0l16.007,9.516a1.37,1.37,0,0,1,.685,1.21v41.53a1.361,1.361,0,0,1-.726,1.21,1.582,1.582,0,0,1-.726.161M43.122,344.565l13.185,7.822V314.123L43.122,306.3Z" transform="translate(-24.051 -180.501)"/><path class="a" d="M62.536,434.918c.121,2.9-1.129,5.282-2.822,5.363-1.653.081-3.1-2.218-3.226-5.121s1.129-5.282,2.822-5.363c1.653-.081,3.1,2.218,3.226,5.121" transform="translate(-33.707 -256.5)"/><path class="b" d="M49.457,94.628a1.805,1.805,0,1,1,1.774-3.145l3.83,2.177V68.9L9.782,42.735h0A14.194,14.194,0,0,1,7,40.8V78.54a9.583,9.583,0,0,0,4.8,8.306l43.3,25V97.853Z" transform="translate(-4.178 -24.349)"/><path class="b" d="M32.761,21.171a9.878,9.878,0,0,0-2.621-1.008,14.126,14.126,0,0,0-3.226-.363,13.634,13.634,0,0,0-3.629.484,8.631,8.631,0,0,0-2.419,1.048,2.391,2.391,0,0,0-.726.685.125.125,0,0,0-.04.081,2.388,2.388,0,0,1,.161.242,4.711,4.711,0,0,0,1.21.847h.04l.081.04h.04L70.259,51.371h0a.087.087,0,0,1,.081.081l.04.04h0a1.464,1.464,0,0,1,.524.887h0v.2h0V79.837l1.25-.081L72.073,50.04,29.212,26.05a1.424,1.424,0,0,1-.726-1.25,1.361,1.361,0,0,1,.726-1.21l1.129-.6a1.385,1.385,0,0,1,1.371,0L75.379,47.339a1.409,1.409,0,0,1,.726,1.21l.081,30.926,2.1-.161V47.46L32.761,21.171Z" transform="translate(-11.996 -11.817)"/><path class="b" d="M171.4,129.472l2.3-1.21V85.2l-2.3,1.29Z" transform="translate(-102.291 -50.847)"/><path class="a" d="M151.3,198.7l.564.847V198.9Z" transform="translate(-90.295 -118.583)"/><path class="a" d="M152.7,200.2h1.411v-.121l-.766-.282Z" transform="translate(-91.131 -119.24)"/><path class="a" d="M45.661,33.1l-.161.282.685.363.323-.161Z" transform="translate(-27.154 -19.754)"/><path class="a" d="M45,32.623l-.6-.323.685,1.25.444-.282-.685-.363Z" transform="translate(-26.498 -19.276)"/><path class="a" d="M45.287,29.321l-.2-.121L44.4,30.45l1.129-.6Z" transform="translate(-26.498 -17.426)"/><path class="a" d="M89.288,52.47a1.189,1.189,0,0,1,.524.564h.04v.04a1.69,1.69,0,0,1,.161.645l.081,30.361L91.344,84l-.081-30.966a1.361,1.361,0,0,0-.726-1.21L46.871,27.431a1.385,1.385,0,0,0-1.371,0l.4.726Z" transform="translate(-27.154 -16.263)"/><path class="a" d="M90.509,54.378a1.757,1.757,0,0,0-.524-.564L46.6,29.5l.282.524Z" transform="translate(-27.811 -17.605)"/><path class="a" d="M155.5,91.3l.081,31.006h.161l-.081-30.361A1.1,1.1,0,0,0,155.5,91.3Z" transform="translate(-92.802 -54.487)"/><path class="a" d="M89.617,57.887,47.523,34.3l-.323.161L89.456,58.049l.081,30.321H89.7Z" transform="translate(-28.169 -20.47)"/><path class="a" d="M85.7,54.11,43.44,30.522l-.484.242-.685-1.25.685-1.21.2.121-.4-.726-1.129.6a1.409,1.409,0,0,0-.726,1.21,1.424,1.424,0,0,0,.726,1.25L84.446,54.8l.081,29.716,1.25-.081Z" transform="translate(-24.409 -16.531)"/><path class="a" d="M152.022,199.01h-1.411l-.564-.887-.847-.323v1.21a1.424,1.424,0,0,0,.726,1.25,1.444,1.444,0,0,0,1.452-.081l1.25-.806a.486.486,0,0,0,.2-.2l-.806-.323Z" transform="translate(-89.042 -118.046)"/><path class="a" d="M155.7,176.406l.2.121-.04-8.427-.161.04Z" transform="translate(-92.921 -100.321)"/><path class="a" d="M151.566,197.121l-.242-.121-.524.363.2.323.564.2Z" transform="translate(-89.997 -117.569)"/><path class="a" d="M149.845,196.348l.524-.363L149.2,195.3v1.048l.847.323Z" transform="translate(-89.042 -116.554)"/><path class="a" d="M157.208,199.864,156.2,199.3v.484l.806.323C157.087,200.026,157.127,199.945,157.208,199.864Z" transform="translate(-93.219 -118.941)"/><path class="a" d="M152.2,168.4v7.379l.2.081-.04-7.459Z" transform="translate(-90.832 -100.5)"/><path class="a" d="M150.35,175.779V168.4l-1.25.081.04,6.572Z" transform="translate(-88.982 -100.5)"/><path class="a" d="M154.3,199.323l.766.282v-.484l-.282-.121Z" transform="translate(-92.086 -118.762)"/><path class="a" d="M156.1,167.981l.04,8.427,1.21.685V167.9Z" transform="translate(-93.16 -100.202)"/><path class="a" d="M156.2,193.093l1.008.564a1.327,1.327,0,0,0,.242-.766v-3.266l-1.25-.726Z" transform="translate(-93.219 -112.735)"/><path class="a" d="M155.581,188.7l.04,4.072-.121.081.282.121v-4.153Z" transform="translate(-92.802 -112.615)"/><path class="a" d="M150.41,185.626l-1.21-.726v4.193l1.169.685.081-.04Z" transform="translate(-89.042 -110.347)"/><path class="a" d="M152.342,186.781l-.2-.081.04,4.113-.081.04.242.121Z" transform="translate(-90.773 -111.422)"/><path class="a" d="M47.885,32.01l-.363.2L89.617,55.8,89.7,86.241l1.25-.081-.081-31.006a.039.039,0,0,0-.04-.04L47.2,30.8Z" transform="translate(-28.169 -18.381)"/><path class="a" d="M152.7,199.2v.645l.645-.4Z" transform="translate(-91.131 -118.882)"/><path class="a" d="M45.529,30.8l-1.129.6.6.323Z" transform="translate(-26.498 -18.381)"/><path class="a" d="M46.424,30.8l-.524.927.847.484.363-.2Z" transform="translate(-27.393 -18.381)"/><path class="a" d="M155.5,91.2Z" transform="translate(-92.802 -54.428)"/><path class="a" d="M152.6,168.281l.04,7.459,1.21.726V168.2Z" transform="translate(-91.071 -100.381)"/><path class="a" d="M152.7,198.066l.645.242.484-.323L152.7,197.3Z" transform="translate(-91.131 -117.748)"/><path class="a" d="M152.7,191.093l1.129.685.121-.081-.04-4.072-1.21-.726Z" transform="translate(-91.131 -111.541)"/><path class="a" d="M129.94,226.5h0Z" transform="translate(-77.524 -135.174)"/><path class="a" d="M130.64,226.4h0Z" transform="translate(-77.941 -135.115)"/><path class="a" d="M128.64,226.3h0Z" transform="translate(-76.748 -135.055)"/><path class="a" d="M129.34,226.5h0Z" transform="translate(-77.166 -135.174)"/><path class="a" d="M131.24,226.1a.039.039,0,0,0-.04.04A.039.039,0,0,0,131.24,226.1Z" transform="translate(-78.3 -134.935)"/><path class="a" d="M76.116,43.839l-45-25.966A13.476,13.476,0,0,0,24.506,16.3c-5,0-8.306,2.218-8.306,3.709,0,.766.806,1.613,2.177,2.339l.081.04L65.714,49.726l.726-.4a1.463,1.463,0,0,1,1.411,0h0L19.224,21.179h-.04l-.081-.04h-.04a4.076,4.076,0,0,1-1.21-.847c-.081-.081-.161-.161-.161-.242a.125.125,0,0,0-.04.081h-.04l-.242-.081h.081l.2-.04h0v.04a.039.039,0,0,0,.04.04c0-.04.04-.04.04-.081a4.1,4.1,0,0,1,.726-.685,7.6,7.6,0,0,1,2.419-1.048,13.872,13.872,0,0,1,3.629-.484,14.126,14.126,0,0,1,3.226.363,9.877,9.877,0,0,1,2.621,1.008h0L75.874,45.452v-.887A3.06,3.06,0,0,1,76.116,43.839Z" transform="translate(-9.668 -9.728)"/><path class="a" d="M19.442,25.3l-.242.081h.242Z" transform="translate(-11.458 -15.099)"/><path class="a" d="M19.7,25.6h0l.04.04Z" transform="translate(-11.757 -15.278)"/><path class="a" d="M19.8,25.3h0v.121h0a.125.125,0,0,1,.04-.081c-.04.04-.04,0-.04-.04Z" transform="translate(-11.817 -15.099)"/><path class="a" d="M19.7,25.6l.04.04h0Z" transform="translate(-11.757 -15.278)"/><path class="a" d="M14.585,42.6,13.9,43.81a.039.039,0,0,1,.04.04Z" transform="translate(-8.295 -25.423)"/><path class="a" d="M19.382,25.581V25.5H19.1l.242.081h.04Z" transform="translate(-11.399 -15.218)"/><path class="a" d="M171.4,86.371l2.3-1.29V85l-2.3,1.331Z" transform="translate(-102.291 -50.728)"/><path class="a" d="M145.224,99.387a1.273,1.273,0,0,0-.524-.887A1.464,1.464,0,0,1,145.224,99.387Z" transform="translate(-86.356 -58.784)"/><path class="a" d="M146,100.8v0Z" transform="translate(-87.132 -60.157)"/><path class="a" d="M144.5,98.4l.04.04C144.54,98.4,144.54,98.4,144.5,98.4Z" transform="translate(-86.237 -58.725)"/><path class="a" d="M97.057,90.317a1.359,1.359,0,0,1,.2-.685L77.3,78.1,97.017,91.043v-.726Z" transform="translate(-46.132 -46.61)"/><path class="a" d="M5.19,11.645a5.623,5.623,0,0,1,.766-2.016A9.179,9.179,0,0,1,10.19,6.282a17.681,17.681,0,0,1,7.016-1.371,19.135,19.135,0,0,1,4.6.564,14.637,14.637,0,0,1,3.871,1.532h0l46.57,26.974,1.411-.806L26.4,5.8a18.6,18.6,0,0,0-9.193-2.3C10.392,3.5,4.868,6.685,3.9,10.959a1.534,1.534,0,0,1,.6.2Z" transform="translate(-2.328 -2.089)"/><path class="a" d="M20.9,31.864l.323-.564Z" transform="translate(-12.473 -18.68)"/><path class="a" d="M31.988,39.162,67.107,59.484l1.411-.806L21.3,31.34l-.081-.04-.323.564Z" transform="translate(-12.473 -18.68)"/><path class="a" d="M74.711,41.186l.645-.363L29.875,14.574h0a13.18,13.18,0,0,0-3.387-1.331,17.89,17.89,0,0,0-3.911-.444,14.783,14.783,0,0,0-6.653,1.452,7.518,7.518,0,0,0-2.056,1.492,4.19,4.19,0,0,0-.685.968,2.963,2.963,0,0,0-.282,1.21,3.145,3.145,0,0,0,.161.887l3.1,2.056.323-.564c-1.371-.726-2.177-1.572-2.177-2.339,0-1.492,3.306-3.709,8.306-3.709a14.173,14.173,0,0,1,6.613,1.572l45,25.966A.823.823,0,0,1,74.711,41.186Z" transform="translate(-7.699 -7.639)"/><path class="a" d="M24.757,2.46h0A18.277,18.277,0,0,0,20.12.6,22.469,22.469,0,0,0,14.878,0,19.067,19.067,0,0,0,4.516,2.782,11.324,11.324,0,0,0,1.25,6.008,8.009,8.009,0,0,0,0,10.282V54.15A12.4,12.4,0,0,0,6.209,64.876l45.4,26.249h.04a.039.039,0,0,1-.04-.04,1.459,1.459,0,0,1-.685-1.21V87.5l-43.3-25a9.648,9.648,0,0,1-4.8-8.346V16.41A12.661,12.661,0,0,0,5.6,18.346l.685-1.21-.645,1.29a.039.039,0,0,1-.04-.04h0l45.32,26.128v-.04L31.168,31.49,10.766,18.1l-3.75-2.177-.04-.04a9.75,9.75,0,0,1-2.782-2.137l-.363-.484a4.765,4.765,0,0,1-1.008-2.984,4.382,4.382,0,0,1,.04-.726l-.685-.444a1.2,1.2,0,0,0-.6-.2c.968-4.314,6.492-7.5,13.306-7.5a18.714,18.714,0,0,1,9.193,2.3l47.3,27.378.806-.444a1.475,1.475,0,0,1,1.008-.121Z"/><path class="a" d="M20,33.345h0l.081.04,11.37,6.572L20.363,32.7,20,33.345Z" transform="translate(-11.936 -19.515)"/><path class="a" d="M20.055,33.445l.363-.645h0l-.363.645Z" transform="translate(-11.951 -19.575)"/><path class="a" d="M67.585,69.254l.685-.4L26.7,44.9,47.1,58.286,67.02,69.778A1.783,1.783,0,0,1,67.585,69.254Z" transform="translate(-15.934 -26.796)"/><path class="a" d="M14.41,29.293A8.4,8.4,0,0,0,15.942,30.3l.363-.645L13.2,27.6a2.778,2.778,0,0,0,.121.323A4.55,4.55,0,0,0,14.41,29.293Z" transform="translate(-7.878 -16.472)"/><path class="a" d="M128.3,226.181c-.081-.04-.121-.04-.2-.081C128.14,226.14,128.221,226.14,128.3,226.181Z" transform="translate(-76.45 -134.935)"/><path class="a" d="M146,100.7Z" transform="translate(-87.132 -60.097)"/><path class="a" d="M135.756,203.887l-3.911,2.056a1.389,1.389,0,0,1-.04,1.371,1.616,1.616,0,0,1-.6.564h.04l5.161-2.7a1.461,1.461,0,0,0,.766-1.25v-7.9l-1.411-.524Z" transform="translate(-78.3 -116.674)"/><path class="a" d="M144.7,98.5Z" transform="translate(-86.356 -58.784)"/><path class="a" d="M144.3,98.2h0a.087.087,0,0,1,.081.081C144.381,98.24,144.34,98.24,144.3,98.2Z" transform="translate(-86.118 -58.605)"/><path class="a" d="M130.242,226.4c-.081,0-.161.04-.242.04C130.081,226.44,130.161,226.4,130.242,226.4Z" transform="translate(-77.583 -135.115)"/><path class="a" d="M142.5,104.663l.685-.363Z" transform="translate(-85.043 -62.246)"/><path class="a" d="M146,101.081v0Z" transform="translate(-87.132 -60.276)"/><path class="a" d="M143.185,102.51l-.685.4v25.724l1.411-.081V101.3A1.409,1.409,0,0,1,143.185,102.51Z" transform="translate(-85.043 -60.455)"/><path class="a" d="M129.6,226.5h0Z" transform="translate(-77.225 -135.174)"/><path class="a" d="M127.771,111a.511.511,0,0,1-.242-.04h-.04a.308.308,0,0,1-.2-.081h-.04c-.04-.04-.121-.04-.161-.081l-.685-.4v24.757l1.411.806V111Z" transform="translate(-75.435 -65.886)"/><path class="a" d="M130.9,226.2c-.081.04-.121.04-.2.081C130.781,226.24,130.861,226.24,130.9,226.2Z" transform="translate(-78.001 -134.995)"/><path class="a" d="M128.942,226.44c-.081,0-.161-.04-.242-.04A.511.511,0,0,1,128.942,226.44Z" transform="translate(-76.808 -135.115)"/><path class="a" d="M126.3,182.2v14.032l1.411.806V183.006Z" transform="translate(-75.375 -108.736)"/><path class="a" d="M126.3,171.9v4.153l1.411.806v-4.153Z" transform="translate(-75.375 -102.589)"/><path class="a" d="M142.5,173.8l1.411.806V168.8l-1.411.121Z" transform="translate(-85.043 -100.739)"/><path class="a" d="M142.5,191.5v1.572l1.411.524v-1.29Z" transform="translate(-85.043 -114.286)"/><path class="a" d="M142.5,181.2v4.153l1.411.806v-4.153Z" transform="translate(-85.043 -108.139)"/><path class="a" d="M128.921,220.145a1.5,1.5,0,0,0,.04-1.371l-1.25.645v-1.613L126.3,217v2.46a1.37,1.37,0,0,0,.685,1.21.039.039,0,0,1,.04.04c.081.04.121.081.2.081h.04a.511.511,0,0,0,.242.04h.282a.511.511,0,0,0,.242-.04h.04c.081,0,.121-.04.2-.081a.039.039,0,0,0,.04-.04A1.507,1.507,0,0,0,128.921,220.145Z" transform="translate(-75.375 -129.505)"/><path class="a" d="M129.14,111.8h0Z" transform="translate(-77.046 -66.722)"/><path class="a" d="M128.5,111.673Z" transform="translate(-76.688 -66.636)"/><path class="a" d="M129.9,102.45l2.258-1.25h0Z" transform="translate(-77.524 -60.396)"/><path class="a" d="M129.8,104.34h0l.04-.04h0Z" transform="translate(-77.464 -62.246)"/><path class="a" d="M129.2,111.8c.081,0,.161.04.242.04h0A.511.511,0,0,1,129.2,111.8Z" transform="translate(-77.106 -66.722)"/><path class="a" d="M142.231,100.451a1.408,1.408,0,0,0,.726-1.21v-.2h0a1.273,1.273,0,0,0-.524-.887h0l-.04-.04c-.04-.04-.081-.04-.081-.081a1.463,1.463,0,0,0-1.411,0l.685,1.21Z" transform="translate(-84.088 -58.396)"/><path class="a" d="M128.8,111.681a.308.308,0,0,1-.2-.081A.308.308,0,0,0,128.8,111.681Z" transform="translate(-76.748 -66.602)"/><path class="a" d="M139.726,98.2l-.726.4,1.411.806Z" transform="translate(-82.955 -58.605)"/><path class="a" d="M143.185,102.45l-.685-1.25v1.613Z" transform="translate(-85.043 -60.396)"/><path class="a" d="M127.187,110.824l-.242-.121-.645-.4v.04l.685.4C127.066,110.784,127.106,110.824,127.187,110.824Z" transform="translate(-75.375 -65.827)"/><path class="a" d="M127.711,107.385l-1.21-.685a1.359,1.359,0,0,0-.2.685v.766l.645.4.242.121h.04c.081.04.121.04.2.081h.282v-1.371Z" transform="translate(-75.375 -63.678)"/><path class="a" d="M139,101.2v.806l1.411-.806Z" transform="translate(-82.955 -60.396)"/><path class="a" d="M132.158,100.006l-2.258,1.25.726.484a1.026,1.026,0,0,1,.444.484l2.5-1.411v-.806h1.411l-1.411-.806-1.411.806Z" transform="translate(-77.524 -59.202)"/><path class="a" d="M130.485,104.744l-.685,1.21,1.21-.685a1.282,1.282,0,0,0-.444-.484l-.726-.484-.04.04Z" transform="translate(-77.464 -62.246)"/><path class="a" d="M129.471,104.8l-.685-.4-.685.363.685,1.25Z" transform="translate(-76.45 -62.305)"/><path class="a" d="M128.785,104.4l-.685.363Z" transform="translate(-76.45 -62.305)"/><path class="a" d="M127.324,105.3a1.311,1.311,0,0,0-.524.524l1.21.685Z" transform="translate(-75.674 -62.843)"/><path class="a" d="M139,106.006h0l1.411-.806h0Z" transform="translate(-82.955 -62.783)"/><path class="a" d="M133.45,196.3l-2.339,1.21v-12.5L129.7,184.2v14.032l.685.4a1.189,1.189,0,0,1,.524.564l3.911-2.056v-8.427l-1.411-.524v8.1Z" transform="translate(-77.404 -109.93)"/><path class="a" d="M133.45,107.2h0l-3.064,1.693a.148.148,0,0,1-.121.04h-.04c-.081.04-.161.04-.242.081h-.04a1.746,1.746,0,0,0-.2.04h-.04v25l1.411.806V108.49Z" transform="translate(-77.404 -63.976)"/><path class="a" d="M139,131.045l1.411-.081V105.2l-1.411.806Z" transform="translate(-82.955 -62.783)"/><path class="a" d="M129.8,173.9v4.153l1.411.806v-4.153Z" transform="translate(-77.464 -103.783)"/><path class="a" d="M139,191.355l1.411.524v-1.573L139,189.5Z" transform="translate(-82.955 -113.093)"/><path class="a" d="M139,169.181v3.992l1.411.806V169.1Z" transform="translate(-82.955 -100.918)"/><path class="a" d="M139,179.2v4.153l1.411.806v-4.153Z" transform="translate(-82.955 -106.946)"/><path class="a" d="M130.485,219.4l-.685-.4v1.613l1.25-.645A1.274,1.274,0,0,0,130.485,219.4Z" transform="translate(-77.464 -130.698)"/><path class="a" d="M130.44,111.8h0Z" transform="translate(-77.822 -66.722)"/><path class="a" d="M131.14,111.6h0Z" transform="translate(-78.24 -66.602)"/><path class="a" d="M129.855,111.9Z" transform="translate(-77.479 -66.781)"/><path class="a" d="M130.742,111.6c-.081.04-.161.04-.242.081A.573.573,0,0,0,130.742,111.6Z" transform="translate(-77.882 -66.602)"/><path class="a" d="M140.411,102.813V101.2l-1.411.806v1.613Z" transform="translate(-82.955 -60.396)"/><path class="a" d="M129.8,111.9Z" transform="translate(-77.464 -66.781)"/><path class="a" d="M130.1,111.8a1.746,1.746,0,0,0-.2.04A.438.438,0,0,0,130.1,111.8Z" transform="translate(-77.524 -66.722)"/><path class="a" d="M131.321,111.4h0c-.04,0-.081.04-.121.04A.148.148,0,0,0,131.321,111.4Z" transform="translate(-78.3 -66.483)"/><path class="a" d="M131.984,106.063a1.026,1.026,0,0,1-.484.444h0l3.064-1.693V103.2l-2.5,1.411A1.549,1.549,0,0,1,131.984,106.063Z" transform="translate(-78.479 -61.589)"/><path class="a" d="M129.8,109.871h0a.437.437,0,0,0,.242-.04h.04a.573.573,0,0,0,.242-.081h.04c.04,0,.081-.04.121-.04l-.685-1.21v1.371Z" transform="translate(-77.464 -64.752)"/><path class="a" d="M130.485,108.6a1.282,1.282,0,0,0,.484-.444,1.44,1.44,0,0,0,.04-1.452l-1.21.685Z" transform="translate(-77.464 -63.678)"/><path class="a" d="M171.658,80.51l-2.1,1.169v43.062l-2.339,1.21V82.969l-.726.4a1.463,1.463,0,0,1-1.411,0l-.685-.4v31.893h.242v10.685l2.056,1.169a1.828,1.828,0,0,1,.766,2.3l4.153-2.177a1.461,1.461,0,0,0,.766-1.25V79.3A1.5,1.5,0,0,1,171.658,80.51Z" transform="translate(-98.113 -47.326)"/><path class="a" d="M181.863,75.761a1.433,1.433,0,0,0-.363-.161l.363.2a1.294,1.294,0,0,1,.685,1.21v-.081A1.4,1.4,0,0,0,181.863,75.761Z" transform="translate(-108.318 -45.118)"/><path class="a" d="M167.056,195.169,165,194v3.548a1.548,1.548,0,0,0,.444.444,1.389,1.389,0,0,0,1.371.04l1.008-.524A1.864,1.864,0,0,0,167.056,195.169Z" transform="translate(-98.471 -115.778)"/><path class="a" d="M164.642,178.185V167.5l-.242.04v10.524Z" transform="translate(-98.113 -99.963)"/><path class="a" d="M164.4,196.563a1.241,1.241,0,0,0,.242.766v-3.508l-.242-.121Z" transform="translate(-98.113 -115.599)"/><path class="a" d="M167.84,80.431l2.3-1.29-.081-.04L167.8,80.39Z" transform="translate(-100.142 -47.207)"/><path class="a" d="M179.3,75.842l-.363-.2a1.448,1.448,0,0,0-1.008.121l.685,1.21.685,1.21-2.1,1.169v.081l2.1-1.169a1.409,1.409,0,0,0,.726-1.21A1.5,1.5,0,0,0,179.3,75.842Z" transform="translate(-105.752 -45.118)"/><path class="a" d="M178.331,77.25h.121L177.766,76l-.766.444Z" transform="translate(-105.633 -45.356)"/><path class="a" d="M178.511,79.14l-1.411.806v1.532l2.137-1.169-.726-1.21h-.121Z" transform="translate(-105.692 -47.207)"/><path class="a" d="M165.811,83.3l-1.25-.726a1.183,1.183,0,0,0-.161.645V84.1l.685.4a1.463,1.463,0,0,0,1.411,0l.726-.4v-.081l2.339-1.29V81.2Z" transform="translate(-98.113 -48.46)"/><path class="a" d="M168.348,77.947l-2.3,1.29-.04-.04-.645.363a1.274,1.274,0,0,0-.564.564l1.25.726,3.75-2.1v-.847h1.29l-1.371-.806-1.411.806Z" transform="translate(-98.352 -46.013)"/><path class="a" d="M177.1,79.947l1.411-.806-.121-.04H177.1Z" transform="translate(-105.692 -47.207)"/></g></svg>