<svg xmlns="http://www.w3.org/2000/svg" viewBox="0 0 238.867 194.603"><defs><style>.a{fill:#007aff;}</style></defs><g transform="translate(0)"><g transform="translate(119.367)"><path class="a" d="M285.351,0,269.4,7.178V21.49l31.238,19.274,15.951-7.178V19.274ZM313.31,19.939l-12.672,5.273L272.679,7.8l12.672-5.273ZM271.571,9.7,299.53,27.117V37.662L271.571,20.249ZM301.7,37.618V27.073L314.417,21.8V32.345Z" transform="translate(-269.4)"/><path class="a" d="M314.417,59.248V69.794L301.7,75.066V64.787l-1.063.532-1.108-.709V75.066L271.571,57.653V47.374L269.4,46V58.938l31.238,19.274,15.951-7.178V58.141" transform="translate(-269.4 -25.618)"/><path class="a" d="M314.417,84.348V94.894L301.7,100.166V89.931l-1.063.487-1.108-.709v10.457L271.571,82.753V72.474L269.4,71.1V84.038l31.238,19.274,15.951-7.178V83.241" transform="translate(-269.4 -39.597)"/><path class="a" d="M317.071,60.8,307.5,54.86V52.6l9.571,5.937Z" transform="translate(-290.618 -29.294)"/><path class="a" d="M280.838,35.484c0,.93-.443,1.684-1.019,1.684s-1.019-.753-1.019-1.684.443-1.684,1.019-1.684,1.019.753,1.019,1.684" transform="translate(-274.635 -18.824)"/><path class="a" d="M317.071,88.841,307.5,82.9V80.6l9.571,5.937Z" transform="translate(-290.618 -44.887)"/><path class="a" d="M280.838,63.584c0,.93-.443,1.684-1.019,1.684s-1.019-.753-1.019-1.684.443-1.684,1.019-1.684,1.019.753,1.019,1.684" transform="translate(-274.635 -34.473)"/><path class="a" d="M317.071,114.841,307.5,108.9v-2.3l9.571,5.937Z" transform="translate(-290.618 -59.367)"/><path class="a" d="M280.838,89.582c0,.93-.443,1.684-1.019,1.684s-1.019-.753-1.019-1.684.443-1.684,1.019-1.684c.576-.044,1.019.753,1.019,1.684" transform="translate(-274.635 -48.951)"/></g><g transform="translate(191.679 130.887)"><path class="a" d="M448.551,295.4,432.6,302.578V316.89l31.237,19.274,15.951-7.178V314.674Zm27.959,19.895-12.672,5.273L435.879,303.2l12.672-5.273Zm-41.739-10.235,27.959,17.413v10.545L434.771,315.6Zm30.174,27.959V322.473l12.672-5.273v10.545Z" transform="translate(-432.6 -295.4)"/><path class="a" d="M477.617,354.648v10.545l-12.672,5.273v-10.28l-1.108.487-1.108-.665v10.457l-27.959-17.413V342.729L432.6,341.4v12.894l31.237,19.319,15.951-7.178V353.541" transform="translate(-432.6 -321.018)"/><path class="a" d="M477.617,379.748v10.545l-12.672,5.273v-10.28l-1.108.487-1.108-.665v10.457l-27.959-17.413v-10.28L432.6,366.5v12.938l31.237,19.274,15.951-7.178V378.641" transform="translate(-432.6 -334.997)"/><path class="a" d="M480.271,356.2,470.7,350.26V348l9.571,5.937Z" transform="translate(-453.818 -324.694)"/><path class="a" d="M444.038,330.884c0,.93-.443,1.684-1.019,1.684S442,331.814,442,330.884s.443-1.684,1.019-1.684,1.019.753,1.019,1.684" transform="translate(-437.835 -314.224)"/><path class="a" d="M480.271,384.241,470.7,378.3V376l9.571,5.937Z" transform="translate(-453.818 -340.287)"/><path class="a" d="M444.038,358.982c0,.931-.443,1.684-1.019,1.684S442,359.912,442,358.982s.443-1.684,1.019-1.684c.576-.044,1.019.753,1.019,1.684" transform="translate(-437.835 -329.871)"/><path class="a" d="M480.271,410.241,470.7,404.3V402l9.571,5.937Z" transform="translate(-453.818 -354.767)"/><path class="a" d="M444.038,384.981c0,.93-.443,1.684-1.019,1.684S442,385.912,442,384.981s.443-1.684,1.019-1.684c.576-.044,1.019.709,1.019,1.684" transform="translate(-437.835 -344.35)"/></g><g transform="translate(156.188 65.444)"><path class="a" d="M368.451,147.7,352.5,154.878V169.19l31.238,19.274,15.951-7.178V166.974Zm27.959,19.895-12.672,5.273-27.959-17.413,12.672-5.273Zm-41.739-10.235,27.959,17.413v10.545L354.671,167.9Zm30.13,27.959V174.773l12.672-5.273v10.545Z" transform="translate(-352.5 -147.7)"/><path class="a" d="M397.473,206.948v10.545L384.8,222.766v-10.28l-1.108.487-1.063-.665v10.457l-27.959-17.413v-10.28L352.5,193.7v12.938l31.193,19.274,16-7.178V205.841" transform="translate(-352.5 -173.318)"/><path class="a" d="M397.473,232.048v10.545L384.8,247.866V237.631l-1.108.487-1.063-.709v10.457l-27.959-17.413v-10.28L352.5,218.8v12.938l31.193,19.274,16-7.178V230.941" transform="translate(-352.5 -187.297)"/><path class="a" d="M400.171,208.5,390.6,202.56V200.3l9.571,5.937Z" transform="translate(-373.718 -176.994)"/><path class="a" d="M363.938,183.184c0,.93-.443,1.684-1.019,1.684s-1.019-.753-1.019-1.684.443-1.684,1.019-1.684c.532,0,1.019.753,1.019,1.684" transform="translate(-357.735 -166.524)"/><path class="a" d="M400.171,236.541,390.6,230.6v-2.3l9.571,5.937Z" transform="translate(-373.718 -192.587)"/><path class="a" d="M363.938,211.281c0,.93-.443,1.684-1.019,1.684s-1.019-.753-1.019-1.684.443-1.684,1.019-1.684c.532-.044,1.019.753,1.019,1.684" transform="translate(-357.735 -182.171)"/><path class="a" d="M400.171,262.541,390.6,256.6v-2.3l9.571,5.937Z" transform="translate(-373.718 -207.067)"/><path class="a" d="M363.938,237.281c0,.93-.443,1.684-1.019,1.684s-1.019-.753-1.019-1.684.443-1.684,1.019-1.684c.532-.044,1.019.753,1.019,1.684" transform="translate(-357.735 -196.651)"/></g><g transform="translate(56.981)"><path class="a" d="M144.551,0,128.6,7.178V21.49l31.238,19.274,15.951-7.178V19.274ZM172.51,19.939l-12.672,5.273L131.879,7.8l12.672-5.273ZM130.771,9.7,158.73,27.117V37.662L130.771,20.249Zm30.174,27.914V27.073L173.617,21.8V32.345Z" transform="translate(-128.6)"/><path class="a" d="M173.617,59.248V69.794l-12.672,5.273V64.787l-1.108.532-1.063-.709V75.066l-28-17.413V47.374L128.6,46V58.938l31.238,19.274,15.951-7.178V58.141" transform="translate(-128.6 -25.618)"/><path class="a" d="M173.617,84.348V94.894l-12.672,5.273V89.931l-1.108.487-1.063-.709v10.457l-28-17.413V72.474L128.6,71.1V84.038l31.238,19.274,15.951-7.178V83.241" transform="translate(-128.6 -39.597)"/><path class="a" d="M176.371,60.8,166.8,54.86V52.6l9.571,5.937Z" transform="translate(-149.874 -29.294)"/><path class="a" d="M140.038,35.484c0,.93-.443,1.684-1.019,1.684S138,36.414,138,35.484s.443-1.684,1.019-1.684,1.019.753,1.019,1.684" transform="translate(-133.835 -18.824)"/><path class="a" d="M176.371,88.841,166.8,82.9V80.6l9.571,5.937Z" transform="translate(-149.874 -44.887)"/><path class="a" d="M140.038,63.584c0,.93-.443,1.684-1.019,1.684S138,64.514,138,63.584s.443-1.684,1.019-1.684,1.019.753,1.019,1.684" transform="translate(-133.835 -34.473)"/><path class="a" d="M176.371,114.841,166.8,108.9v-2.3l9.571,5.937Z" transform="translate(-149.874 -59.367)"/><path class="a" d="M140.038,89.582c0,.93-.443,1.684-1.019,1.684S138,90.512,138,89.582s.443-1.684,1.019-1.684c.576-.044,1.019.753,1.019,1.684" transform="translate(-133.835 -48.951)"/></g><g transform="translate(129.292 130.887)"><path class="a" d="M307.851,295.4,291.9,302.578V316.89l31.237,19.274,15.951-7.178V314.674Zm27.959,19.895-12.672,5.273-28-17.369,12.672-5.273Zm-41.739-10.235,27.959,17.413v10.545L294.071,315.6Zm30.13,27.959V322.473l12.672-5.273v10.545Z" transform="translate(-291.856 -295.4)"/><path class="a" d="M336.817,354.648v10.545l-12.672,5.273v-10.28l-1.108.487-1.063-.665v10.457l-27.959-17.413V342.729L291.8,341.4v12.894l31.238,19.319,16-7.178V353.541" transform="translate(-291.8 -321.018)"/><path class="a" d="M336.817,379.748v10.545l-12.672,5.273v-10.28l-1.108.487-1.063-.665v10.457l-27.959-17.413v-10.28L291.8,366.5v12.938l31.238,19.274,16-7.178V378.641" transform="translate(-291.8 -334.997)"/><path class="a" d="M339.571,356.2,330,350.26V348l9.571,5.937Z" transform="translate(-313.074 -324.694)"/><path class="a" d="M303.238,330.884c0,.93-.443,1.684-1.019,1.684s-1.019-.753-1.019-1.684.443-1.684,1.019-1.684,1.019.753,1.019,1.684" transform="translate(-297.035 -314.224)"/><path class="a" d="M339.571,384.241,330,378.3V376l9.571,5.937Z" transform="translate(-313.074 -340.287)"/><path class="a" d="M303.238,358.982c0,.931-.443,1.684-1.019,1.684s-1.019-.753-1.019-1.684.443-1.684,1.019-1.684c.576-.044,1.019.753,1.019,1.684" transform="translate(-297.035 -329.871)"/><path class="a" d="M339.571,410.241,330,404.3V402l9.571,5.937Z" transform="translate(-313.074 -354.767)"/><path class="a" d="M303.238,384.981c0,.93-.443,1.684-1.019,1.684s-1.019-.753-1.019-1.684.443-1.684,1.019-1.684c.576-.044,1.019.709,1.019,1.684" transform="translate(-297.035 -344.35)"/></g><g transform="translate(65.798 130.887)"><path class="a" d="M164.451,295.4,148.5,302.578V316.89l31.238,19.274,15.951-7.178V314.674Zm28,19.895-12.717,5.273L151.779,303.2l12.672-5.273Zm-41.739-10.235,27.959,17.413v10.545L150.715,315.6Zm30.13,27.959V322.473l12.672-5.273v10.545Z" transform="translate(-148.5 -295.4)"/><path class="a" d="M193.517,354.648v10.545l-12.672,5.273v-10.28l-1.108.487-1.063-.665v10.457l-27.959-17.413V342.729L148.5,341.4v12.894l31.238,19.319,15.951-7.178V353.541" transform="translate(-148.5 -321.018)"/><path class="a" d="M193.517,379.748v10.545l-12.672,5.273v-10.28l-1.108.487-1.063-.665v10.457l-27.959-17.413v-10.28L148.5,366.5v12.938l31.238,19.274,15.951-7.178V378.641" transform="translate(-148.5 -334.997)"/><path class="a" d="M196.271,356.2,186.7,350.26V348l9.571,5.937Z" transform="translate(-169.774 -324.694)"/><path class="a" d="M159.938,330.884c0,.93-.443,1.684-1.019,1.684s-1.019-.753-1.019-1.684.443-1.684,1.019-1.684,1.019.753,1.019,1.684" transform="translate(-153.735 -314.224)"/><path class="a" d="M196.271,384.241,186.7,378.3V376l9.571,5.937Z" transform="translate(-169.774 -340.287)"/><path class="a" d="M159.938,358.982c0,.931-.443,1.684-1.019,1.684s-1.019-.753-1.019-1.684.443-1.684,1.019-1.684c.576-.044,1.019.753,1.019,1.684" transform="translate(-153.735 -329.871)"/><path class="a" d="M196.271,410.241,186.7,404.3V402l9.571,5.937Z" transform="translate(-169.774 -354.767)"/><path class="a" d="M159.938,384.981c0,.93-.443,1.684-1.019,1.684s-1.019-.753-1.019-1.684.443-1.684,1.019-1.684c.576-.044,1.019.709,1.019,1.684" transform="translate(-153.735 -344.35)"/></g><g transform="translate(30.307 65.444)"><path class="a" d="M84.351,147.7,68.4,154.878V169.19l31.238,19.274,15.951-7.178V166.974Zm27.959,19.895-12.672,5.273L71.679,155.454l12.672-5.273ZM70.571,157.359,98.53,174.773v10.545L70.571,167.9Zm30.13,27.959V174.773l12.672-5.273v10.545Z" transform="translate(-68.4 -147.7)"/><path class="a" d="M113.417,206.948v10.545L100.7,222.766v-10.28l-1.063.487-1.108-.665v10.457L70.571,205.353v-10.28L68.4,193.7v12.938l31.238,19.274,15.951-7.178V205.841" transform="translate(-68.4 -173.318)"/><path class="a" d="M113.417,232.048v10.545L100.7,247.866V237.631l-1.063.487-1.108-.709v10.457L70.571,230.453v-10.28L68.4,218.8v12.938l31.238,19.274,15.951-7.178V230.941" transform="translate(-68.4 -187.297)"/><path class="a" d="M116.071,208.5,106.5,202.56V200.3l9.571,5.937Z" transform="translate(-89.618 -176.994)"/><path class="a" d="M79.838,183.184c0,.93-.443,1.684-1.019,1.684s-1.019-.753-1.019-1.684.443-1.684,1.019-1.684,1.019.753,1.019,1.684" transform="translate(-73.635 -166.524)"/><path class="a" d="M116.071,236.541,106.5,230.6v-2.3l9.571,5.937Z" transform="translate(-89.618 -192.587)"/><path class="a" d="M79.838,211.281c0,.93-.443,1.684-1.019,1.684s-1.019-.753-1.019-1.684.443-1.684,1.019-1.684c.576-.044,1.019.753,1.019,1.684" transform="translate(-73.635 -182.171)"/><path class="a" d="M116.071,262.541,106.5,256.6v-2.3l9.571,5.937Z" transform="translate(-89.618 -207.067)"/><path class="a" d="M79.838,237.281c0,.93-.443,1.684-1.019,1.684s-1.019-.753-1.019-1.684.443-1.684,1.019-1.684c.576-.044,1.019.753,1.019,1.684" transform="translate(-73.635 -196.651)"/></g><g transform="translate(0 130.887)"><path class="a" d="M15.951,295.4,0,302.578V316.89l31.238,19.274,15.951-7.178V314.674ZM43.91,315.295l-12.672,5.273L3.279,303.2l12.672-5.273ZM2.171,305.059,30.13,322.473v10.545L2.171,315.6Zm30.174,27.959V322.473L45.017,317.2v10.545Z" transform="translate(0 -295.4)"/><path class="a" d="M45.017,354.648v10.545l-12.672,5.273v-10.28l-1.108.487-1.108-.665v10.457L2.171,353.053V342.729L0,341.4v12.894l31.238,19.319,15.951-7.178V353.541" transform="translate(0 -321.018)"/><path class="a" d="M45.017,379.748v10.545l-12.672,5.273v-10.28l-1.108.487-1.108-.665v10.457L2.171,378.153v-10.28L0,366.5v12.938l31.238,19.274,15.951-7.178V378.641" transform="translate(0 -334.997)"/><path class="a" d="M47.671,356.2,38.1,350.26V348l9.571,5.937Z" transform="translate(-21.218 -324.694)"/><path class="a" d="M11.438,330.884c0,.93-.443,1.684-1.019,1.684S9.4,331.814,9.4,330.884s.443-1.684,1.019-1.684,1.019.753,1.019,1.684" transform="translate(-5.235 -314.224)"/><path class="a" d="M47.671,384.241,38.1,378.3V376l9.571,5.937Z" transform="translate(-21.218 -340.287)"/><path class="a" d="M11.438,358.982c0,.931-.443,1.684-1.019,1.684S9.4,359.912,9.4,358.982s.443-1.684,1.019-1.684c.576-.044,1.019.753,1.019,1.684" transform="translate(-5.235 -329.871)"/><path class="a" d="M47.671,410.241,38.1,404.3V402l9.571,5.937Z" transform="translate(-21.218 -354.767)"/><path class="a" d="M11.438,384.981c0,.93-.443,1.684-1.019,1.684S9.4,385.912,9.4,384.981s.443-1.684,1.019-1.684c.576-.044,1.019.709,1.019,1.684" transform="translate(-5.235 -344.35)"/></g><g transform="translate(87.155 66.729)"><path class="a" d="M226.918,211.037a30.218,30.218,0,1,1,30.218-30.218,30.256,30.256,0,0,1-30.218,30.218m0-56.538a26.319,26.319,0,1,0,26.319,26.319A26.351,26.351,0,0,0,226.918,154.5" transform="translate(-196.7 -150.6)"/><path class="a" d="M236.609,168a22.509,22.509,0,1,0,22.509,22.509A22.512,22.512,0,0,0,236.609,168Zm14.267,15.021-20.6,20.6-7.665-7.665a1.629,1.629,0,0,1,2.3-2.3l5.406,5.406,18.3-18.3a1.659,1.659,0,0,1,2.3,0A1.566,1.566,0,0,1,250.876,183.021Z" transform="translate(-206.39 -160.29)"/></g></g></svg>