<svg xmlns="http://www.w3.org/2000/svg" viewBox="0 0 108.508 182.244"><defs><style>.a{fill:none;}.b{fill:#007aff;}.c{fill:#fff;}</style></defs><path class="a" d="M136.6,415.213l8.966-5.27V375.8l-8.966,5.233Z" transform="translate(-86.611 -238.275)"/><path class="a" d="M52.9,380.98l26.934,15.846v-34.18L52.9,346.8Z" transform="translate(-33.541 -219.888)"/><path class="a" d="M68.908,330.241a1.83,1.83,0,0,1-3.66,0V323.8L57.6,329l27.044,15.882,9-5.27L88.011,336.1v2.818a1.83,1.83,0,1,1-3.66,0v-5.087L68.908,324.2v6.038Z" transform="translate(-36.521 -205.305)"/><path class="a" d="M275.8,201.776l4.282-2.269V135.1l-4.282,2.415Z" transform="translate(-174.87 -85.66)"/><path class="a" d="M96.807,304.571,92.16,301.9v.805c0,2.379-1.537,2.232-3.66,2.049v1.281l15.443,9.551v-3.074l-7.173-4.135v-3.806Z" transform="translate(-56.113 -191.419)"/><path class="b" d="M75.5,53.837l10.576,5.892L75.5,53.8Z" transform="translate(-47.871 -34.112)"/><path class="b" d="M86.818,55,75.4,48.6l.037.037Z" transform="translate(-47.807 -30.815)"/><path class="b" d="M134.833,80.343l-64.3-35.9a1.607,1.607,0,0,0-1.574,0l.769,1.391,11.381,6.4L134.065,81.77l.146,63.932-.183.11v1.061h-1.647l-.915-1.391.915-.586-.146-62.175L80.306,53.665,69.73,47.773l-.915.476-.769-1.464.805-1.427.878.476-.768-1.391-1.683.915a1.781,1.781,0,0,0-.878,1.427,1.721,1.721,0,0,0,.842,1.464l63.31,35.5.146,63.163a1.658,1.658,0,0,0,2.562,1.391l1.83-1.208a1.625,1.625,0,0,0,.732-1.391l-.146-63.932A1.662,1.662,0,0,0,134.833,80.343Z" transform="translate(-42.101 -28.048)"/><path class="b" d="M70.9,48.727l1.683-.915-.037-.037-.842-.476Z" transform="translate(-44.954 -29.99)"/><path class="b" d="M73.3,52.6v.037l.805.439v-.037Z" transform="translate(-46.476 -33.351)"/><path class="b" d="M244.2,319.986l.878,1.391V319.4Z" transform="translate(-154.835 -202.515)"/><path class="b" d="M71.778,51.712,70.9,51.2l.769,1.464.915-.476-.805-.439Z" transform="translate(-44.954 -32.463)"/><path class="b" d="M248.247,322.9v-1.1l-1.647,1.1Z" transform="translate(-156.356 -204.037)"/><path class="b" d="M72.583,48.7l-1.683.915.878.512Z" transform="translate(-44.954 -30.878)"/><path class="b" d="M74.105,50.566l.769-.4L74.105,48.7,73.3,50.127Z" transform="translate(-46.476 -30.878)"/><path class="b" d="M76.269,50.164l-.769.4,10.576,5.928,52.075,29.057.146,62.065-.183.11V149.7l1.647-1.061-.146-63.054a1.662,1.662,0,0,0-.842-1.427L86.881,55.068,75.5,48.7Z" transform="translate(-47.871 -30.878)"/><path class="b" d="M156.475,99.093,104.4,70l51.892,29.093.146,62.175.183-.11Z" transform="translate(-66.195 -44.383)"/><path class="b" d="M159.334,96.62l.146,63.054.183-.11-.146-63.932L106.6,66.1l51.892,29.093A1.662,1.662,0,0,1,159.334,96.62Z" transform="translate(-67.59 -41.911)"/><path class="b" d="M98.5,296.7v1.9l4.648,2.671v-1.9Z" transform="translate(-62.454 -188.122)"/><path class="b" d="M9.734,118.843a16.167,16.167,0,0,1-8.088-14.016V46.055A11.508,11.508,0,0,1,0,40.2v64.627A17.829,17.829,0,0,0,8.929,120.27L25.4,129.785a13.7,13.7,0,0,1,.439-1.647Z" transform="translate(0 -25.489)"/><path class="b" d="M103.148,294.235,98.573,291.6a4.032,4.032,0,0,0-.073.659v1.208l4.648,2.671Z" transform="translate(-62.454 -184.888)"/><path class="b" d="M13.429,127.5a14.5,14.5,0,0,1-7.282-12.589V58.3c-.4-.439-.768-.915-1.134-1.391A6.018,6.018,0,0,1,4.5,56.1v58.808a16.167,16.167,0,0,0,8.088,14.016l16.065,9.3a9.631,9.631,0,0,1,.622-1.537Z" transform="translate(-2.853 -35.57)"/><path class="b" d="M97.9,9.8Z" transform="translate(-62.073 -6.214)"/><path class="b" d="M275.8,137.325l4.282-2.415v-.11l-4.282,2.415Z" transform="translate(-174.87 -85.47)"/><path class="b" d="M234.6,162.5v0Z" transform="translate(-148.748 -103.033)"/><path class="b" d="M29.6,40.2h0Z" transform="translate(-18.768 -25.489)"/><path class="b" d="M233.4,160.534a1.688,1.688,0,0,0-.7-1.134A1.688,1.688,0,0,1,233.4,160.534Z" transform="translate(-147.543 -101.067)"/><path class="b" d="M113.86,66,47.221,27.542a20,20,0,0,0-9.7-2.342c-7.356,0-12.223,3.294-12.223,5.453,0,1.1,1.208,2.415,3.22,3.44l.146.073,69.97,40.511.842-.476a1.654,1.654,0,0,1,1.647,0h0L29.472,32.775l-.037-.037-.146-.073h-.037a6.722,6.722,0,0,1-1.9-1.354,5.762,5.762,0,0,1-.366-.476.283.283,0,0,1-.037-.11h0a.566.566,0,0,1,.11-.22,4.026,4.026,0,0,1,1.061-1.061,12.441,12.441,0,0,1,3.7-1.757,20.328,20.328,0,0,1,5.709-.769,21.348,21.348,0,0,1,4.867.586,14.874,14.874,0,0,1,3.989,1.537h0L113.641,67.87V66.809A2.6,2.6,0,0,1,113.86,66Z" transform="translate(-16.041 -15.978)"/><path class="b" d="M29.8,40.2Z" transform="translate(-18.895 -25.489)"/><path class="b" d="M29.5,40.2h0Z" transform="translate(-18.704 -25.489)"/><path class="b" d="M.878,13.247a1.712,1.712,0,0,1,.951-.183C3,6.551,11.2,1.647,21.481,1.647a27.8,27.8,0,0,1,13.54,3.367l70.116,40.621.951-.512a1.787,1.787,0,0,1,1.134-.183L35.827,3.586A25.879,25.879,0,0,0,29.13.915,33.142,33.142,0,0,0,21.481,0a27.5,27.5,0,0,0-15,4.062A15.343,15.343,0,0,0,1.793,8.71a11.2,11.2,0,0,0-1.793,6A1.637,1.637,0,0,1,.878,13.247Z" transform="translate(0)"/><path class="b" d="M65.814,92.748,22.742,67.9l-.768,1.464c-.037,0-.037-.037-.073-.037h0l66.969,38.645V107.9Z" transform="translate(-13.886 -43.052)"/><path class="b" d="M22.805,67.9,22,69.327c.037,0,.037.037.073.037Z" transform="translate(-13.949 -43.052)"/><path class="b" d="M13.757,61.021l.805-1.427A14.537,14.537,0,0,1,9,54.8v2.671A17.754,17.754,0,0,0,13.757,61.021Z" transform="translate(-5.706 -34.746)"/><path class="b" d="M1.647,37.331a12.511,12.511,0,0,1,.146-1.647,1.712,1.712,0,0,0-.951.183A1.676,1.676,0,0,0,0,37.331a11.408,11.408,0,0,0,1.647,5.855Z" transform="translate(0 -22.619)"/><path class="b" d="M6.147,48.151V45.479A9.793,9.793,0,0,1,4.5,40.1v5.855c.146.256.329.549.512.805C5.378,47.236,5.744,47.712,6.147,48.151Z" transform="translate(-2.853 -25.425)"/><path class="b" d="M164.955,150.036a1.475,1.475,0,0,1,.22-.805L141.9,135.8l23.055,15.15Z" transform="translate(-89.971 -86.104)"/><path class="b" d="M32.2,50.844l.659-1.244L32.2,50.808Z" transform="translate(-20.416 -31.449)"/><path class="b" d="M111.666,62.455l.732-.4L45.209,23.262h0a18.248,18.248,0,0,0-4.9-1.9A23.988,23.988,0,0,0,34.67,20.7a21.682,21.682,0,0,0-9.625,2.086,10.245,10.245,0,0,0-2.928,2.123,5.324,5.324,0,0,0-.915,1.317,3.852,3.852,0,0,0-.4,1.574,3.244,3.244,0,0,0,.4,1.574,4.423,4.423,0,0,0,.732,1.1l3.074,2.013.659-1.244c-2.013-1.025-3.22-2.342-3.22-3.44,0-2.159,4.867-5.453,12.223-5.453a20,20,0,0,1,9.7,2.342l66.64,38.462A1.979,1.979,0,0,1,111.666,62.455Z" transform="translate(-13.188 -13.125)"/><path class="b" d="M35.75,53.15l65.579,37.986L97.12,93.478h0l5.855-3.294L33.005,49.673l-.146-.073L32.2,50.844Z" transform="translate(-20.416 -31.449)"/><path class="b" d="M6.437,16.686a8.66,8.66,0,0,1,1.208-3.4A14.8,14.8,0,0,1,14.085,8.2a26.463,26.463,0,0,1,10.5-2.049,28.042,28.042,0,0,1,6.843.842,22.729,22.729,0,0,1,5.855,2.305h0L106.562,49.4l1.683-.951L38.128,7.867A27.692,27.692,0,0,0,24.588,4.5C14.3,4.5,6.108,9.4,4.9,15.918a1.754,1.754,0,0,1,.732.256Z" transform="translate(-3.107 -2.853)"/><path class="b" d="M14.562,55.6,57.635,80.448,33.812,64.785,15.4,54.172l-.073-.037a13.61,13.61,0,0,1-4.794-3.952,8.714,8.714,0,0,1-.659-1.1L9,48.5v2.305A14.816,14.816,0,0,0,14.562,55.6Z" transform="translate(-5.706 -30.751)"/><path class="b" d="M24.569,48.269a10.918,10.918,0,0,0,2.2,1.464l.11-.22L23.8,47.5A7.608,7.608,0,0,0,24.569,48.269Z" transform="translate(-15.09 -30.117)"/><path class="b" d="M31.8,53.183h0l.146.073,3.55,2.049L31.946,53l-.146.183C31.837,53.22,31.837,53.183,31.8,53.183Z" transform="translate(-20.163 -33.605)"/><path class="b" d="M31.9,53.22l.11-.22h-.037l-.073.22Z" transform="translate(-20.226 -33.605)"/><path class="b" d="M208.042,169.6h0l-.842.439Z" transform="translate(-131.375 -107.535)"/><path class="b" d="M167.318,146.2l.805-.476L144.3,132l22.469,14.748A1.96,1.96,0,0,1,167.318,146.2Z" transform="translate(-91.493 -83.694)"/><path class="b" d="M6.21,37.347c0-.293.037-.586.037-.842l-.768-.549a1.754,1.754,0,0,0-.732-.256A8.352,8.352,0,0,0,4.6,37.347l1.72,1.134A5.957,5.957,0,0,1,6.21,37.347Z" transform="translate(-2.917 -22.636)"/><path class="b" d="M209.5,169.537l.037-.037h0Z" transform="translate(-132.833 -107.471)"/><path class="b" d="M6.147,43.237l.878.586a8.989,8.989,0,0,1-.805-2.488L4.5,40.2a9.793,9.793,0,0,0,1.647,5.379Z" transform="translate(-2.853 -25.489)"/><path class="b" d="M100.623,108.663l23.275,13.43c0-.037.037-.037.037-.073L101.5,107.272,76.8,93Z" transform="translate(-48.695 -58.966)"/><path class="c" d="M213.9,173.215l4.282-2.415h0Z" transform="translate(-135.623 -108.295)"/><path class="b" d="M234.6,162.5Z" transform="translate(-148.748 -103.033)"/><path class="b" d="M208.61,365.2h0Z" transform="translate(-132.199 -231.554)"/><path class="b" d="M207.51,364.837c-.037,0-.073-.037-.11-.037C207.437,364.8,207.473,364.837,207.51,364.837Z" transform="translate(-131.502 -231.301)"/><path class="b" d="M210.31,365.1a.134.134,0,0,0-.11.037A.134.134,0,0,0,210.31,365.1Z" transform="translate(-133.277 -231.491)"/><path class="b" d="M209.71,365.2h0Z" transform="translate(-132.896 -231.554)"/><path class="b" d="M209.21,365.272h-.11C209.137,365.235,209.173,365.272,209.21,365.272Z" transform="translate(-132.579 -231.59)"/><path class="b" d="M218.985,164.527l-.805.439v66.457l-6.111,3.22a1.608,1.608,0,0,1-.037,1.574,1.807,1.807,0,0,1-.732.659c.037,0,.037,0,.073-.037l7.575-3.989a1.637,1.637,0,0,0,.878-1.464V163.1A1.55,1.55,0,0,1,218.985,164.527Z" transform="translate(-133.974 -103.413)"/><path class="b" d="M234.6,162.91v0Z" transform="translate(-148.748 -103.223)"/><path class="b" d="M232.4,159.2h0c.037,0,.037.037.073.073C232.473,159.237,232.437,159.237,232.4,159.2Z" transform="translate(-147.353 -100.94)"/><path class="b" d="M208.01,365.037c-.037,0-.073-.037-.11-.037C207.937,365,207.973,365.037,208.01,365.037Z" transform="translate(-131.819 -231.427)"/><path class="b" d="M210.91,365c-.037,0-.073.037-.11.037A.134.134,0,0,1,210.91,365Z" transform="translate(-133.657 -231.427)"/><path class="b" d="M206.227,178.059h-.073a.679.679,0,0,1-.256-.073h-.037l-.22-.11-.842-.476v64.261l1.647.951V178.059Z" transform="translate(-129.853 -112.48)"/><path class="b" d="M207.737,178.952H207.7C207.737,178.916,207.737,178.916,207.737,178.952Z" transform="translate(-131.692 -113.447)"/><path class="b" d="M208.573,179.2h0Z" transform="translate(-132.199 -113.621)"/><path class="b" d="M227.9,158.811l.805,1.427.805,1.427a1.662,1.662,0,0,0,.842-1.427v-.256a1.774,1.774,0,0,0-.7-1.134c-.037-.037-.073-.037-.073-.073A1.822,1.822,0,0,0,227.9,158.811Z" transform="translate(-144.5 -100.552)"/><path class="b" d="M230.905,164.527,230.1,163.1V165Z" transform="translate(-145.894 -103.413)"/><path class="b" d="M226.442,159.2l-.842.476,1.647.951Z" transform="translate(-143.041 -100.94)"/><path class="b" d="M230.1,167.476l.805-.476Z" transform="translate(-145.894 -105.886)"/><path class="b" d="M204.9,177.2v.073l.842.476.22.11a1.1,1.1,0,0,1-.293-.146Z" transform="translate(-129.916 -112.353)"/><path class="b" d="M208.056,178.973a.679.679,0,0,1-.256-.073A.931.931,0,0,0,208.056,178.973Z" transform="translate(-131.755 -113.431)"/><path class="b" d="M208.7,179.2c.073,0,.183.037.256.037h0A.623.623,0,0,0,208.7,179.2Z" transform="translate(-132.326 -113.621)"/><path class="b" d="M204.9,173.242v.878l.732.476a1.1,1.1,0,0,0,.293.146h.037a2.329,2.329,0,0,0,.256.073h.073c.073,0,.183.037.256.037v-1.647l-1.427-.805A1.805,1.805,0,0,0,204.9,173.242Z" transform="translate(-129.916 -109.31)"/><path class="b" d="M225.6,164.015l1.647-.915H225.6Z" transform="translate(-143.041 -103.413)"/><path class="b" d="M210.442,164.406a1.566,1.566,0,0,1,.512.586l4.5-2.525v-.915H217.1l-1.647-.951-5.855,3.294Z" transform="translate(-132.896 -101.828)"/><path class="b" d="M205.7,171.412l1.391.915-.805-1.427A1.332,1.332,0,0,0,205.7,171.412Z" transform="translate(-130.424 -108.359)"/><path class="b" d="M208.005,171.466l.842-1.427-.805-.439-.842.439Z" transform="translate(-131.375 -107.535)"/><path class="b" d="M210.305,169.912l-.805,1.427,1.427-.805a1.567,1.567,0,0,0-.512-.586l-.842-.549-.073.037Z" transform="translate(-132.833 -107.408)"/><path class="b" d="M205.5,172.31l1.427.805-1.391-.915C205.537,172.273,205.537,172.273,205.5,172.31Z" transform="translate(-130.297 -109.183)"/><path class="b" d="M215.328,233.732,211.047,236V171.63l-.842.476c-.037.037-.11.037-.146.073a.036.036,0,0,0-.037.037.678.678,0,0,1-.256.073h-.073c-.073,0-.183.037-.256.037H209.4v64.517l.842.476a1.539,1.539,0,0,1,.622.659l6.111-3.22V168.3l-1.647.915Z" transform="translate(-132.77 -106.71)"/><path class="b" d="M211.237,178.9a.036.036,0,0,0-.037.037C211.2,178.9,211.2,178.9,211.237,178.9Z" transform="translate(-133.911 -113.431)"/><path class="b" d="M210.273,179.1H210.2A.051.051,0,0,0,210.273,179.1Z" transform="translate(-133.277 -113.558)"/><path class="b" d="M209.5,179.2Z" transform="translate(-132.833 -113.621)"/><path class="b" d="M225.6,169.215h0l1.647-.915h0Z" transform="translate(-143.041 -106.71)"/><path class="b" d="M212.186,169.782a1.566,1.566,0,0,1-.586.512h0l.842-.476h0l4.282-2.415v-1.9l-4.5,2.525A1.766,1.766,0,0,1,212.186,169.782Z" transform="translate(-134.165 -104.935)"/><path class="b" d="M211.3,178.773c.037-.037.11-.037.146-.073h0A.19.19,0,0,0,211.3,178.773Z" transform="translate(-133.974 -113.304)"/><path class="b" d="M210.656,178.9a.679.679,0,0,1-.256.073A.529.529,0,0,0,210.656,178.9Z" transform="translate(-133.404 -113.431)"/><path class="b" d="M225.6,165.918l1.647-.915v-1.9l-1.647.915Z" transform="translate(-143.041 -103.413)"/><path class="b" d="M209.856,179.2c-.073,0-.183.037-.256.037A.542.542,0,0,1,209.856,179.2Z" transform="translate(-132.896 -113.621)"/><path class="b" d="M209.4,179.2Z" transform="translate(-132.77 -113.621)"/><path class="b" d="M210.205,174.832a1.567,1.567,0,0,0,.586-.512,1.621,1.621,0,0,0,.037-1.72l-1.427.805Z" transform="translate(-132.77 -109.437)"/><path class="b" d="M209.4,174.7v1.647h.037a.623.623,0,0,0,.256-.037h.073c.073-.037.183-.037.256-.073a.036.036,0,0,0,.037-.037c.037-.037.073-.037.146-.073Z" transform="translate(-132.77 -110.768)"/><path class="b" d="M293.412,122.983a1.229,1.229,0,0,0-.512-.183l.512.293a1.556,1.556,0,0,1,.805,1.427v-.11A1.661,1.661,0,0,0,293.412,122.983Z" transform="translate(-185.713 -77.861)"/><path class="b" d="M276.827,128.827l-2.452,1.391v64.408l-4.282,2.269V132.633l-.842.476a1.654,1.654,0,0,1-1.647,0l-.805-.476v67.006a1.672,1.672,0,0,0,.805,1.427,1.507,1.507,0,0,0,1.61.037l7.575-3.989a1.637,1.637,0,0,0,.878-1.464V127.4A1.618,1.618,0,0,1,276.827,128.827Z" transform="translate(-169.164 -80.778)"/><path class="b" d="M271.173,129.652l4.245-2.379-.073-.073-4.245,2.379Z" transform="translate(-171.89 -80.651)"/><path class="b" d="M289.988,122.933l-.512-.293a1.548,1.548,0,0,0-1.134.183l.805,1.427.805,1.427-2.452,1.391v.11l2.452-1.391a1.662,1.662,0,0,0,.842-1.427A1.627,1.627,0,0,0,289.988,122.933Z" transform="translate(-182.289 -77.738)"/><path class="b" d="M269.252,134.694l.842-.476v-.11l4.282-2.415V129.9l-5.928,3.33-1.464-.842a1.666,1.666,0,0,0-.183.732v1.061l.805.476A1.751,1.751,0,0,0,269.252,134.694Z" transform="translate(-169.164 -82.363)"/><path class="b" d="M288.774,124.627h.183l-.805-1.427-.951.549Z" transform="translate(-182.099 -78.115)"/><path class="b" d="M289.147,127.21l-1.647.915v1.793l2.452-1.354-.805-1.464h-.183Z" transform="translate(-182.289 -80.587)"/><path class="b" d="M276.093,125.515l-1.574-.915-1.683.951.073.037-4.245,2.379-.073-.037-.732.4a1.517,1.517,0,0,0-.659.7l1.464.842,5.928-3.33v-1.025h1.5Z" transform="translate(-169.418 -79.002)"/><path class="b" d="M288.964,127.1H287.5v1.025l1.647-.915Z" transform="translate(-182.289 -80.587)"/><path class="b" d="M89.653,335.144,77.8,342.06,48.008,324.568,58.4,317.542V316.7l-11.6,7.612v38.864l31,18.188,13.028-7.575v-38.9l-9.661-5.965v.951ZM77.43,380.266,47.568,362.7V325.19L77.43,342.756Zm12.662-6.953L78.2,380.266V342.719l11.893-6.953Z" transform="translate(-29.673 -200.803)"/><path class="b" d="M103.943,328.366v-.915L88.5,317.9v.842Z" transform="translate(-56.113 -201.564)"/><path class="b" d="M145.03,372.3l-10.43,6.111v35.863l10.43-6.111Zm-.732,35.424-8.966,5.233V378.814l8.966-5.233Z" transform="translate(-85.343 -236.056)"/><path class="b" d="M103.943,333.066v-.878L88.5,322.6v.842Z" transform="translate(-56.113 -204.544)"/><path class="b" d="M88.5,314.042l15.443,9.551v-.842L88.5,313.2Z" transform="translate(-56.113 -198.584)"/><path class="b" d="M79.3,360.087,50.9,343.4v35.863l28.4,16.687Zm-.732,34.582L51.632,378.824V344.681l26.934,15.846Z" transform="translate(-32.273 -217.732)"/><path class="b" d="M91.337,338.087l-9.039,5.27L55.254,327.475l7.648-5.2V321.4l-9,6.111L82.3,344.2l10.43-6.075L85.665,333.7v.878Z" transform="translate(-34.175 -203.783)"/><path class="b" d="M89.02,331.442v39.706l-13.76,8.014L43.532,360.535V320.866l12.333-8.088V311.9L42.8,320.463v40.511l32.094,18.81.366.22,14.492-8.453V331.039l-11.125-6.88v.878Z" transform="translate(-27.137 -197.76)"/><path class="b" d="M103.943,330.666v-.842L88.5,320.2v.878Z" transform="translate(-56.113 -203.022)"/><path class="b" d="M132.6,413.3l11.893-6.953V368.8L132.6,375.753Zm.732-37.108,10.43-6.111v35.863l-10.43,6.111Z" transform="translate(-84.075 -233.837)"/><path class="b" d="M79.952,343.519,91.809,336.6l-8.49-5.27v.842l7.063,4.428-10.43,6.075-28.4-16.687,9-6.111V319L50.2,326.026Z" transform="translate(-31.829 -202.261)"/><path class="b" d="M48.9,377.383l29.862,17.566V357.366L48.9,339.8Zm.732-36.266L78.03,357.8v35.863l-28.4-16.687Z" transform="translate(-31.005 -215.449)"/><path class="b" d="M88.5,316.378l15.443,9.551v-.878L88.5,315.5Z" transform="translate(-56.113 -200.042)"/><path class="b" d="M89.556,333.366V372.23l-13.028,7.612-31-18.188v-38.9l11.6-7.575V314.3L44.8,322.388v39.669l31.728,18.627,13.76-8.014V332.964l-10.393-6.4v.842Z" transform="translate(-28.405 -199.281)"/><path class="b" d="M82.16,310.22v-1.281c-.586-.037-1.171-.11-1.83-.11a5.072,5.072,0,0,1-1.83-.329v1.244l1.391-.915Z" transform="translate(-49.773 -195.604)"/><path class="b" d="M132.53,358.116a1.812,1.812,0,0,0,1.83-1.83v-2.818L130.7,351.2v5.087A1.859,1.859,0,0,0,132.53,358.116Z" transform="translate(-82.87 -222.678)"/><path class="b" d="M130.7,333.974l3.66,2.232v-3.184L130.7,330.9Z" transform="translate(-82.87 -209.806)"/><path class="b" d="M80.33,330.359a1.812,1.812,0,0,0,1.83-1.83v-6.038L79.927,321.1l-1.427.988v6.441A1.835,1.835,0,0,0,80.33,330.359Z" transform="translate(-49.773 -203.593)"/><path class="b" d="M130.7,295.679l3.66,2.123v-4.5H130.7Z" transform="translate(-82.87 -185.966)"/><path class="b" d="M134.36,347.184v-.951L130.7,344v.915Z" transform="translate(-82.87 -218.112)"/><path class="b" d="M78.5,315.051v.842l1.391-.951,2.269,1.391v-.842L79.927,314.1Z" transform="translate(-49.773 -199.154)"/><path class="b" d="M130.7,349.678l3.66,2.269v-.878L130.7,348.8Z" transform="translate(-82.87 -221.156)"/><path class="b" d="M79.927,319.578l2.232,1.391v-.842L79.927,318.7l-1.427.988v.878Z" transform="translate(-49.773 -202.071)"/><path class="b" d="M79.927,310.242l2.232,1.391v-.842L79.927,309.4l-1.427.915v.878Z" transform="translate(-49.773 -196.174)"/><path class="b" d="M130.7,340.142l3.66,2.269v-.878L130.7,339.3Z" transform="translate(-82.87 -215.132)"/><path class="b" d="M79.927,312.578l2.232,1.391v-.878L79.927,311.7l-1.427.951v.878Z" transform="translate(-49.773 -197.633)"/><path class="b" d="M79.927,317.242l2.232,1.427v-.878L79.891,316.4l-1.391.951v.878Z" transform="translate(-49.773 -200.613)"/><path class="b" d="M134.36,344.711v-.842L130.7,341.6v.878Z" transform="translate(-82.87 -216.591)"/><path class="b" d="M134.36,349.611v-.842L130.7,346.5v.842Z" transform="translate(-82.87 -219.698)"/><path class="b" d="M82.16,297.426v-4.94L78.537,290.4a10.285,10.285,0,0,0-.037,1.061v5.563a5.073,5.073,0,0,0,1.83.329C80.988,297.353,81.574,297.39,82.16,297.426Z" transform="translate(-49.773 -184.128)"/><path class="b" d="M91.4,265.86a7.747,7.747,0,0,1,7.722,7.722h3.66A11.383,11.383,0,0,0,80.9,269.19l3.22,1.866A7.763,7.763,0,0,1,91.4,265.86Z" transform="translate(-51.294 -166.247)"/><path class="b" d="M82.36,287.64l-3.367-1.94a8.893,8.893,0,0,0-.293,1.72l3.623,2.086v-1.025A3.25,3.25,0,0,1,82.36,287.64Z" transform="translate(-49.9 -181.147)"/><path class="b" d="M83.169,283.166l-3.22-1.866a11.911,11.911,0,0,0-.549,1.61l3.367,1.94A8.684,8.684,0,0,1,83.169,283.166Z" transform="translate(-50.343 -178.358)"/><path class="b" d="M164.194,335.628v-.951L140.7,321.1V323l19.212,11.088c.037,0,.037.037.073.037l5.05,2.928c.037,0,.037.037.073.037-.037,0-.073-.037-.11-.037A1.811,1.811,0,0,1,164.194,335.628Z" transform="translate(-89.211 -203.593)"/><path class="b" d="M211.21,364.8c-.037,0-.073.037-.11.037A.134.134,0,0,0,211.21,364.8Z" transform="translate(-133.848 -231.301)"/><path class="b" d="M210.01,365.2h0Z" transform="translate(-133.087 -231.554)"/><path class="b" d="M210.61,365c-.037,0-.073.037-.11.037A.134.134,0,0,0,210.61,365Z" transform="translate(-133.467 -231.427)"/><path class="b" d="M111.2,305.9l7.136,4.135v-1.9L111.2,304Z" transform="translate(-70.506 -192.751)"/><path class="b" d="M208.31,365.137a.134.134,0,0,1-.11-.037A.134.134,0,0,1,208.31,365.137Z" transform="translate(-132.009 -231.491)"/><path class="b" d="M207.81,364.937c-.037,0-.073-.037-.11-.037C207.737,364.9,207.773,364.937,207.81,364.937Z" transform="translate(-131.692 -231.364)"/><path class="b" d="M209.4,365.3h0Z" transform="translate(-132.77 -231.618)"/><path class="b" d="M208.91,365.2h0Z" transform="translate(-132.389 -231.554)"/><path class="b" d="M161.01,327.674c-.11-.037-.183-.073-.293-.11L140.7,316v1.866l23.494,13.577v-1.9Z" transform="translate(-89.211 -200.359)"/><path class="b" d="M113.652,300.227,111.2,298.8v1.9l7.136,4.135v-1.866l-4.684-2.708Z" transform="translate(-70.506 -189.454)"/><path class="b" d="M207.974,359.957a1.609,1.609,0,0,0,.037-1.574l-1.464.768L204.9,358.2v.951a1.672,1.672,0,0,0,.805,1.427.134.134,0,0,0,.11.037c.037,0,.073.037.11.037s.073.037.11.037.073.037.11.037a.134.134,0,0,1,.11.037h.659a.134.134,0,0,0,.11-.037c.037,0,.073-.037.11-.037s.073-.037.11-.037.073-.037.11-.037A1.805,1.805,0,0,0,207.974,359.957Z" transform="translate(-129.916 -227.116)"/><path class="b" d="M204.9,353v1.9l1.647.951v-1.9Z" transform="translate(-129.916 -223.819)"/><path class="b" d="M210.242,356.076l-.842-.476v1.9l1.464-.768A1.55,1.55,0,0,0,210.242,356.076Z" transform="translate(-132.77 -225.467)"/><path class="b" d="M130.7,317.2l3.66,2.123v-1.9L130.7,315.3Z" transform="translate(-82.87 -199.915)"/><path class="b" d="M130.7,310.2v1.866l3.66,2.123v-1.866Z" transform="translate(-82.87 -196.682)"/></svg>