<svg xmlns="http://www.w3.org/2000/svg" viewBox="0 0 157.923 158.335"><defs><style>.a{fill:#007aff;}</style></defs><path class="a" d="M23.213,0,0,13.4V40.211l23.213,13.4,23.213-13.4V13.4ZM41.372,14.377,23.213,24.86,5.054,14.377,23.213,3.894Zm-38,2.92L21.528,27.781V48.747L3.37,38.264ZM24.9,48.747V27.781L43.056,17.3V38.264Z"/><path class="a" d="M321.013,0,297.8,13.4V40.211l23.213,13.4,23.213-13.4V13.4Zm18.159,14.377L321.013,24.86,302.854,14.377,321.013,3.894Zm-38,2.92,18.159,10.483V48.747L301.17,38.264ZM322.7,48.747V27.781L340.856,17.3V38.264Z" transform="translate(-186.303)"/><g transform="translate(32.311 29.99)"><path class="a" d="M175.146,83.47H87.985a1.685,1.685,0,0,1,0-3.37h87.2a1.678,1.678,0,0,1,1.685,1.685A1.71,1.71,0,0,1,175.146,83.47Z" transform="translate(-86.3 -80.1)"/></g><g transform="translate(32.311 134.935)"><path class="a" d="M175.146,363.77H87.985a1.685,1.685,0,0,1,0-3.37h87.2a1.678,1.678,0,0,1,1.685,1.685A1.71,1.71,0,0,1,175.146,363.77Z" transform="translate(-86.3 -360.4)"/></g><path class="a" d="M57.5,150.5v63.574l1.685.973,1.685-.973V150.5l-1.685.973Z" transform="translate(-35.972 -94.152)"/><g transform="translate(0 104.721)"><path class="a" d="M57.5,284.567l1.685-.973,1.685.973v-3.894l-1.685-.973-1.685.973Z" transform="translate(-35.972 -279.7)"/><path class="a" d="M28.267,287.5v3.894l13.1,7.563L23.213,309.44,5.054,298.957l13.1-7.563V287.5L0,297.983v26.807l23.213,13.4,23.213-13.4V297.983Zm-6.739,45.827L3.37,322.844V301.877L21.528,312.36Zm21.528-10.483L24.9,333.327V312.36l18.159-10.483Z" transform="translate(0 -284.58)"/></g><path class="a" d="M355.3,150.5v63.574l1.685.973,1.685-.973V150.5l-1.685.973Z" transform="translate(-222.274 -94.152)"/><g transform="translate(111.497 104.721)"><path class="a" d="M355.3,284.567l1.685-.973,1.685.973v-3.894l-1.685-.973-1.685.973Z" transform="translate(-333.772 -279.7)"/><path class="a" d="M326.067,287.5v3.894l13.1,7.563L321.013,309.44l-18.159-10.483,13.1-7.563V287.5L297.8,297.983v26.807l23.213,13.4,23.213-13.4V297.983Zm-6.739,45.827L301.17,322.844V301.877l18.159,10.483Zm21.528-10.483L322.7,333.327V312.36l18.159-10.483Z" transform="translate(-297.8 -284.58)"/></g><g transform="translate(52.828 58.033)"><path class="a" d="M167.233,207.267a26.133,26.133,0,1,1,26.133-26.133A26.157,26.157,0,0,1,167.233,207.267Zm0-48.935A22.764,22.764,0,1,0,190,181.1,22.8,22.8,0,0,0,167.233,158.332Z" transform="translate(-141.1 -155)"/></g><g transform="translate(63.892 73.477)"><path class="a" d="M179.13,220.567l-7.975-7.975a1.694,1.694,0,0,1,2.4-2.4l5.616,5.616,19.057-19.057a1.694,1.694,0,1,1,2.4,2.4Z" transform="translate(-170.65 -196.25)"/></g></svg>