<svg xmlns="http://www.w3.org/2000/svg" viewBox="0 0 216.2 215.631"><defs><style>.a{fill:#007aff;}.b{fill:none;}</style></defs><path class="a" d="M97.9,274v29.9l1.507.87,1.507-.87V274Z" transform="translate(-65.125 -182.271)"/><path class="a" d="M97.9,337.4v3.482l3.013,1.707v-3.448Z" transform="translate(-65.125 -224.446)"/><path class="a" d="M63.547,335.161v3.482l13.19,7.633-10.813,3.917L41.72,336.2l10.813-3.917,1.975,1.138v-3.482L52.533,328.8,37.2,335.328v76.7l28.724,16.6L81.257,422.1V345.372Zm.87,89.118-24.2-13.994V338.81l24.2,13.994Zm13.826-3.95-10.813,3.95V352.8l10.813-3.95Z" transform="translate(-24.746 -218.725)"/><path class="a" d="M70.48,446.748a1.555,1.555,0,0,1-.77-.2L52.637,436.4A1.489,1.489,0,0,1,51.9,435.1V390.707a1.523,1.523,0,0,1,2.276-1.306L71.25,399.545a1.489,1.489,0,0,1,.737,1.306v44.392a1.528,1.528,0,0,1-1.507,1.507m-15.6-12.521L68.94,442.6V401.721L54.88,393.351Z" transform="translate(-34.525 -258.904)"/><path class="a" d="M79.143,558.654c.134,3.08-1.205,5.658-3.013,5.725-1.774.067-3.314-2.377-3.448-5.457s1.205-5.658,3.013-5.725c1.774-.067,3.314,2.377,3.448,5.457" transform="translate(-48.343 -367.998)"/><path class="a" d="M473.128,381.3,451.1,391.176v19.785l43.119,26.615,22.028-9.876V407.915Zm38.633,27.485-17.509,7.3-38.6-24.037,17.509-7.3Zm-57.649-14.128,38.6,24.037v14.563l-38.6-24.037Zm41.613,38.6V418.695l17.509-7.3v14.563Z" transform="translate(-300.081 -253.649)"/><path class="a" d="M513.268,483.645v14.563l-17.542,7.3V491.345l-1.507.67-1.507-.937v14.429l-38.6-24.037V467.241L451.1,465.4v17.81l43.119,26.648,22.062-9.909v-17.81" transform="translate(-300.081 -309.594)"/><path class="a" d="M513.268,529.545v14.563l-17.542,7.3V537.245l-1.507.67-1.507-.937v14.429l-38.6-24.037V513.141L451.1,511.3v17.81l43.119,26.648,22.062-9.909v-17.81" transform="translate(-300.081 -340.128)"/><path class="a" d="M534.024,488.749l-13.224-8.2V477.4l13.224,8.169Z" transform="translate(-346.447 -317.577)"/><path class="a" d="M471.112,445.442c0,1.306-.636,2.343-1.406,2.343s-1.406-1.038-1.406-2.343.636-2.343,1.406-2.343c.8-.034,1.406,1.038,1.406,2.343" transform="translate(-311.523 -294.758)"/><path class="a" d="M534.024,539.949,520.8,531.78V528.6l13.224,8.2Z" transform="translate(-346.447 -351.636)"/><path class="a" d="M471.112,496.643c0,1.306-.636,2.343-1.406,2.343s-1.406-1.038-1.406-2.343.636-2.343,1.406-2.343c.8,0,1.406,1.071,1.406,2.343" transform="translate(-311.523 -328.819)"/><path class="a" d="M534.024,587.449,520.8,579.28V576.1l13.224,8.2Z" transform="translate(-346.447 -383.234)"/><path class="a" d="M471.112,544.143c0,1.306-.636,2.344-1.406,2.344s-1.406-1.038-1.406-2.344.636-2.343,1.406-2.343c.8,0,1.406,1.038,1.406,2.343" transform="translate(-311.523 -360.417)"/><path class="a" d="M460.266,384.61,421.8,361.979l1.707-2.879,39.973,23.5Z" transform="translate(-280.59 -238.881)"/><rect class="a" width="3.348" height="38.433" transform="matrix(0.518, -0.855, 0.855, 0.518, 87.983, 91.953)"/><path class="a" d="M372.831,315.265,365.6,310.98l1.64-2.98,7.365,4.319Z" transform="translate(-243.205 -204.888)"/><path class="a" d="M356.3,343.465l-7.2-4.285,1.64-2.98,7.365,4.319Z" transform="translate(-232.229 -223.647)"/><path class="a" d="M420.031,340.865,412.8,336.58l1.64-2.98,7.365,4.319Z" transform="translate(-274.603 -221.918)"/><path class="a" d="M403.631,369.065,396.4,364.78l1.64-2.98,7.3,4.252Z" transform="translate(-263.694 -240.677)"/><rect class="a" width="14.362" height="3.348" transform="matrix(0.508, -0.861, 0.861, 0.508, 116.732, 115.485)"/><rect class="a" width="14.362" height="3.348" transform="matrix(0.508, -0.861, 0.861, 0.508, 137.034, 126.69)"/><path class="a" d="M453.693,314.571a1.5,1.5,0,0,1-.4-.937,1.57,1.57,0,0,1,1.44-1.674l8.135-.569a1.57,1.57,0,0,1,1.674,1.44,1.591,1.591,0,0,1-1.44,1.674l-8.135.569a1.575,1.575,0,0,1-1.272-.5" transform="translate(-301.536 -207.141)"/><path class="a" d="M431.106,261.341a1.744,1.744,0,0,1-.971-.3,1.552,1.552,0,0,1-.335-2.176l4.854-6.528a1.557,1.557,0,0,1,2.511,1.841l-4.854,6.528a1.463,1.463,0,0,1-1.205.636" transform="translate(-285.712 -167.436)"/><path class="a" d="M448.336,285.463a1.591,1.591,0,0,1-.77-.636,1.571,1.571,0,0,1,.536-2.143l6.963-4.218a1.562,1.562,0,0,1,1.607,2.678l-6.963,4.218a1.666,1.666,0,0,1-1.373.1" transform="translate(-297.585 -185.096)"/><path class="a" d="M403.24,253.613c-.067,0-.134.033-.2.033a1.544,1.544,0,0,1-1.607-1.507L401.2,244a1.558,1.558,0,1,1,3.113-.1l.234,8.135a1.552,1.552,0,0,1-1.306,1.573" transform="translate(-266.884 -161.247)"/><path class="a" d="M368.707,260.9a1.615,1.615,0,0,1-1.44-.937l-3.214-7.466a1.552,1.552,0,0,1,2.846-1.239l3.214,7.466a1.563,1.563,0,0,1-.8,2.042,1.226,1.226,0,0,1-.6.134" transform="translate(-242.094 -166.525)"/><path class="a" d="M312.545,362.235a1.6,1.6,0,0,1,.3.971,1.544,1.544,0,0,1-1.607,1.507l-8.135-.3a1.558,1.558,0,1,1,.1-3.113l8.135.3a1.5,1.5,0,0,1,1.205.636" transform="translate(-200.628 -240.342)"/><path class="a" d="M335.961,406.292a1.683,1.683,0,0,1,.937.4,1.577,1.577,0,0,1,.1,2.21l-5.49,5.993a1.564,1.564,0,1,1-2.31-2.109l5.49-5.993a1.554,1.554,0,0,1,1.272-.5" transform="translate(-218.722 -270.271)"/><path class="a" d="M317.276,385.1a1.378,1.378,0,0,1,.7.737,1.566,1.566,0,0,1-.737,2.076l-7.365,3.482a1.557,1.557,0,1,1-1.339-2.812L315.9,385.1a1.639,1.639,0,0,1,1.373,0" transform="translate(-204.657 -256.077)"/><path class="a" d="M372.466,413.7h.2a1.548,1.548,0,0,1,1.44,1.674l-.6,8.1a1.561,1.561,0,0,1-3.113-.234l.6-8.1a1.552,1.552,0,0,1,1.473-1.44" transform="translate(-246.388 -275.202)"/><path class="a" d="M402.857,410.674a1.59,1.59,0,0,1,1.339,1.071l2.444,7.767a1.546,1.546,0,0,1-2.946.937l-2.444-7.767a1.541,1.541,0,0,1,1-1.942,1.158,1.158,0,0,1,.6-.067" transform="translate(-266.87 -273.18)"/><path class="b" d="M171.5,185.4l2.511-1.306V138l-2.511,1.406Z" transform="translate(-114.085 -91.801)"/><path class="b" d="M11.98,54.576A14.242,14.242,0,0,1,9,52.5V92.841a10.248,10.248,0,0,0,5.122,8.872l46.266,26.749V82.5L11.98,54.576Z" transform="translate(-5.987 -34.924)"/><path class="a" d="M57.1,38.939l1.239-.67-.3-.536-.2-.134Z" transform="translate(-37.984 -25.012)"/><path class="a" d="M106.836,64.548a1.946,1.946,0,0,0-.569-.6L59.9,38l.3.536Z" transform="translate(-39.847 -25.278)"/><path class="a" d="M58.767,42.7l-.167.268.737.4.335-.167Z" transform="translate(-38.982 -28.405)"/><path class="a" d="M196.5,164.7h1.507l-.134-46.534a1.524,1.524,0,0,0-.167-.67l.1,46.333Z" transform="translate(-130.716 -78.164)"/><path class="a" d="M57.77,41.968,57.1,41.6l.737,1.306.5-.268-.737-.4Z" transform="translate(-37.984 -27.673)"/><path class="a" d="M61.135,44.2l-.335.167,45.162,25.209.1,44.693-.636.4.8,1.272-.1-46.534Z" transform="translate(-40.445 -29.403)"/><path class="a" d="M102.75,61.338,56.082,35.325a1.47,1.47,0,0,0-1.44,0l.435.77,46.367,25.979a1.418,1.418,0,0,1,.569.6h.033v.033a1.524,1.524,0,0,1,.167.67l.134,46.534h-1.507L100,108.642l.636-.435-.134-44.659L55.345,38.338l-.5.268-.7-1.339.737-1.306.2.1-.435-.77-1.239.67a1.629,1.629,0,0,0-.8,1.306,1.575,1.575,0,0,0,.77,1.339L99.134,64.284l.1,45.664a1.517,1.517,0,0,0,2.343,1.272l1.339-.87a1.486,1.486,0,0,0,.67-1.272l-.1-46.367A1.458,1.458,0,0,0,102.75,61.338Z" transform="translate(-34.991 -23.374)"/><path class="a" d="M60,41.14l.368-.2-.7-1.339L59.1,40.638Z" transform="translate(-39.315 -26.343)"/><path class="a" d="M58.339,39.6l-1.239.67.67.368Z" transform="translate(-37.984 -26.343)"/><path class="a" d="M200.17,117.4Z" transform="translate(-133.148 -78.097)"/><path class="a" d="M61.5,40.939l-.4.2L106.1,66.349l.134,46.534,1.339-.87-.1-46.333a.033.033,0,0,0-.033-.033L60.8,39.6Z" transform="translate(-40.445 -26.343)"/><path class="a" d="M168.867,291.1c-.033,0-.033,0-.067.033A.1.1,0,0,1,168.867,291.1Z" transform="translate(-112.289 -193.646)"/><path class="a" d="M165.567,291.233c-.033,0-.033,0-.067-.033C165.533,291.233,165.533,291.233,165.567,291.233Z" transform="translate(-110.094 -193.712)"/><path class="a" d="M54.4,117.9v-2.611L8.135,88.574A10.248,10.248,0,0,1,3.013,79.7V39.362A10.053,10.053,0,0,1,1.64,37.788,8.4,8.4,0,0,1,0,32.8V79.7A13.257,13.257,0,0,0,6.629,91.185L55.172,119.24H55.2c-.033,0-.033,0-.067-.033A1.562,1.562,0,0,1,54.4,117.9Z" transform="translate(0 -21.819)"/><path class="a" d="M166.467,291.5h0Z" transform="translate(-110.693 -193.912)"/><path class="a" d="M168.167,291.4h0Z" transform="translate(-111.824 -193.846)"/><path class="a" d="M167.267,291.5h0Z" transform="translate(-111.225 -193.912)"/><path class="a" d="M24.8,32.667h.234V32.6Z" transform="translate(-16.497 -21.686)"/><path class="a" d="M17.933,56.139l.7-1.339L17.9,56.106A.033.033,0,0,1,17.933,56.139Z" transform="translate(-11.907 -36.454)"/><path class="a" d="M186,126.6c.033.033.067.033.1.067A.414.414,0,0,1,186,126.6Z" transform="translate(-123.731 -84.217)"/><path class="a" d="M24.8,32.867V32.8h-.3l.234.067H24.8Z" transform="translate(-16.298 -21.819)"/><path class="a" d="M186.769,127.671a1.615,1.615,0,0,0-.569-.971A1.716,1.716,0,0,1,186.769,127.671Z" transform="translate(-123.864 -84.284)"/><path class="a" d="M187.9,129.7v0Z" transform="translate(-124.995 -86.279)"/><path class="a" d="M25.4,32.6h0v.134h0a.1.1,0,0,1,.033-.067A.1.1,0,0,0,25.4,32.6Z" transform="translate(-16.897 -21.686)"/><path class="a" d="M45.151,70.133,18.57,54.8l-.7,1.339c-.033,0-.033-.033-.067-.033h0L66.209,84.026v-.067Z" transform="translate(-11.841 -36.454)"/><path class="a" d="M25.3,33Z" transform="translate(-16.83 -21.952)"/><path class="a" d="M12.716,48.813A11.024,11.024,0,0,1,9,45.8v2.243a13.094,13.094,0,0,0,2.98,2.076Z" transform="translate(-5.987 -30.467)"/><path class="a" d="M78.606,32.842,26.481,2.645A19.159,19.159,0,0,0,21.526.67,24.165,24.165,0,0,0,15.9,0,20.4,20.4,0,0,0,4.854,2.98,12.02,12.02,0,0,0,1.339,6.461,8.3,8.3,0,0,0,0,10.981,1.5,1.5,0,0,1,.8,9.642a1.566,1.566,0,0,1,.87-.167C2.745,4.921,8.6,1.507,15.9,1.507A20.086,20.086,0,0,1,25.711,3.95l52.125,30.2-5.49,3.08L22.932,8.7A14.461,14.461,0,0,0,15.9,7c-5.356.033-8.872,2.41-8.872,3.984,0,.8.87,1.741,2.31,2.511l.1.067L59.892,42.751l.77-.435a1.513,1.513,0,0,1,1.507,0h0l-51.958-30.1-.033-.033-.1-.067h-.033a5.328,5.328,0,0,1-1.306-.9,1.068,1.068,0,0,1-.2-.234.1.1,0,0,0-.033.067H8.47l-.234-.067H8.3l.234-.067h0v.033a.033.033,0,0,0,.033.033c0-.033.033-.067.067-.1a3.657,3.657,0,0,1,.8-.7,8.926,8.926,0,0,1,2.578-1.138,14.778,14.778,0,0,1,3.883-.5,15.009,15.009,0,0,1,3.482.4A10.5,10.5,0,0,1,22.2,10.01h0L71.609,38.533a1.513,1.513,0,0,0,1.507,0l5.49-3.08a1.52,1.52,0,0,0,.77-1.306A1.6,1.6,0,0,0,78.606,32.842Z"/><path class="a" d="M25.3,33h0Z" transform="translate(-16.83 -21.952)"/><path class="a" d="M120.591,114.426v-.8a1.35,1.35,0,0,1,.2-.737L99.5,100.6Z" transform="translate(-66.19 -66.921)"/><path class="a" d="M3.013,36.351V34.108A7.2,7.2,0,0,1,1.507,29.79a7.691,7.691,0,0,1,.167-1.507,1.566,1.566,0,0,0-.87.167A1.5,1.5,0,0,0,0,29.79a8.4,8.4,0,0,0,1.64,4.988A8.737,8.737,0,0,0,3.013,36.351Z" transform="translate(0 -18.809)"/><path class="a" d="M6.406,13.2a5.5,5.5,0,0,1,.837-2.143,10.075,10.075,0,0,1,4.52-3.582,18.091,18.091,0,0,1,7.466-1.473,19.551,19.551,0,0,1,4.888.6,16.036,16.036,0,0,1,4.151,1.64h0L78.116,37.107,75.672,38.48,27.028,10.392h0a12.542,12.542,0,0,0-3.649-1.406,17.258,17.258,0,0,0-4.185-.5,16.074,16.074,0,0,0-7.131,1.54,7.534,7.534,0,0,0-2.21,1.607,4.31,4.31,0,0,0-.737,1,2.7,2.7,0,0,0-.335,1.306,2.9,2.9,0,0,0,.167.937l3.314,2.176.335-.636c-1.373-.7-2.243-1.64-2.243-2.444,0-1.573,3.515-3.95,8.872-3.95a14.367,14.367,0,0,1,7.03,1.707L75.672,40.254l5.49-3.08L29.037,6.944A20.086,20.086,0,0,0,19.228,4.5C11.93,4.5,6.071,7.915,5,12.468a1.6,1.6,0,0,1,.67.234Z" transform="translate(-3.326 -2.993)"/><path class="a" d="M38.751,48.669,76.28,70.4l-2.41,1.373h0l3.917-2.21L27.335,40.333l-.1-.033-.335.6Z" transform="translate(-17.894 -26.808)"/><path class="a" d="M26.9,40.9l.335-.6Z" transform="translate(-17.894 -26.808)"/><path class="a" d="M12.716,45.686,39.3,61.019,17.5,46.691l-4.017-2.31-.067-.033a10.272,10.272,0,0,1-2.98-2.276L9,41.1v1.54A11.027,11.027,0,0,0,12.716,45.686Z" transform="translate(-5.987 -27.341)"/><path class="a" d="M25.7,42.8h0l.1.033,12.152,7.03L26.1,42.1l-.4.7Z" transform="translate(-17.096 -28.006)"/><path class="a" d="M167.1,134.3h0Z" transform="translate(-111.159 -89.339)"/><path class="a" d="M6.007,34.125v-1.54l1.473.971-.4-.5a5.324,5.324,0,0,1-1.071-3.247,5.5,5.5,0,0,1,.067-.77l-.737-.5a1.6,1.6,0,0,0-.67-.234A7.158,7.158,0,0,0,4.5,29.807,7.054,7.054,0,0,0,6.007,34.125Z" transform="translate(-2.993 -18.826)"/><path class="a" d="M165.57,134.3h0l-.77.435Z" transform="translate(-109.628 -89.339)"/><path class="a" d="M78.055,83.846l.737-.435L34.4,57.8,56.194,72.129,77.486,84.415A1.547,1.547,0,0,1,78.055,83.846Z" transform="translate(-22.884 -38.45)"/><path class="a" d="M18.272,37.374a8.763,8.763,0,0,0,1.64,1.1l.368-.7L17,35.6a3.473,3.473,0,0,0,.134.335A4.344,4.344,0,0,0,18.272,37.374Z" transform="translate(-11.309 -23.682)"/><path class="a" d="M25.8,42.8l.368-.7h0l-.368.7Z" transform="translate(-17.163 -28.006)"/><path class="a" d="M165.934,291.367a.621.621,0,0,1-.234-.067A.621.621,0,0,0,165.934,291.367Z" transform="translate(-110.227 -193.779)"/><path class="a" d="M166.734,291.5h0Z" transform="translate(-110.759 -193.912)"/><path class="a" d="M167.634,291.4a.57.57,0,0,1-.234.033A.57.57,0,0,0,167.634,291.4Z" transform="translate(-111.358 -193.846)"/><path class="a" d="M185.7,126.4h0a.072.072,0,0,1,.067.067C185.767,126.433,185.733,126.433,185.7,126.4Z" transform="translate(-123.532 -84.084)"/><path class="a" d="M186.2,126.7Z" transform="translate(-123.864 -84.284)"/><path class="a" d="M168.5,291.1a.476.476,0,0,1-.2.067A.476.476,0,0,0,168.5,291.1Z" transform="translate(-111.957 -193.646)"/><path class="a" d="M187.97,130.1V130c-.033.033,0,.067,0,.1Z" transform="translate(-125.032 -86.479)"/><path class="a" d="M187.9,129.6Z" transform="translate(-124.995 -86.213)"/><path class="a" d="M179,135.472l2.243-1.272Z" transform="translate(-119.075 -89.273)"/><path class="a" d="M170.2,131.606l-2.243,1.272v46.1l-2.477,1.306v-46l2.477-1.406h0l-3.247,1.841c-.033.033-.1.033-.134.067a.033.033,0,0,0-.033.033.621.621,0,0,1-.234.067h-.067c-.067,0-.167.033-.234.033h-.033a.737.737,0,0,1-.268-.033h-.067a.621.621,0,0,1-.234-.067h-.033l-.2-.1-.77-.435v45.9l2.276,1.306h0a1.455,1.455,0,0,1,.536,2.042,1.57,1.57,0,0,1-.636.6h.033l5.49-2.913a1.5,1.5,0,0,0,.8-1.339V130.3A1.4,1.4,0,0,1,170.2,131.606Z" transform="translate(-108.032 -86.678)"/><path class="a" d="M165.034,291.1a1.629,1.629,0,0,0-.234-.1A1.632,1.632,0,0,1,165.034,291.1Z" transform="translate(-109.628 -193.579)"/><path class="a" d="M165.312,282.648a1.5,1.5,0,0,0-.536-2.042h0L162.5,279.3v2.611a1.529,1.529,0,0,0,.737,1.306.117.117,0,0,0,.067.033,1.632,1.632,0,0,0,.234.1c.033,0,.033,0,.067.033.067.033.167.033.234.067h.368c.1,0,.167-.033.234-.033h.067c.067-.033.134-.033.2-.067.033,0,.033,0,.067-.033A3.615,3.615,0,0,0,165.312,282.648Z" transform="translate(-108.098 -185.796)"/><path class="a" d="M166.167,143.95H166.1C166.133,143.917,166.133,143.917,166.167,143.95Z" transform="translate(-110.493 -95.742)"/><path class="a" d="M167.1,144Z" transform="translate(-111.159 -95.792)"/><path class="a" d="M168.733,143.6a.033.033,0,0,0-.033.033A.033.033,0,0,0,168.733,143.6Z" transform="translate(-112.223 -95.526)"/><path class="a" d="M167.867,143.9h0Z" transform="translate(-111.624 -95.725)"/><path class="a" d="M165.333,143.7h0Z" transform="translate(-109.961 -95.592)"/><path class="a" d="M179,132.878l2.243-1.272-.737-1.306-1.507.837Z" transform="translate(-119.075 -86.678)"/><path class="a" d="M162.5,141.9v.067l.77.435.2.1a1,1,0,0,1-.268-.134Z" transform="translate(-108.098 -94.395)"/><path class="a" d="M181.2,125.992l.737,1.306.737,1.306a1.52,1.52,0,0,0,.77-1.306v-.234a1.615,1.615,0,0,0-.569-.971h0c-.033-.033-.067-.033-.1-.067s-.067-.033-.067-.067A1.6,1.6,0,0,0,181.2,125.992Z" transform="translate(-120.538 -83.676)"/><path class="a" d="M169.769,134.24a1.559,1.559,0,0,1-.033,1.573,1.433,1.433,0,0,1-.536.469h0l3.247-1.841V132.7Z" transform="translate(-112.555 -88.275)"/><path class="a" d="M168.8,143.467c.033-.033.1-.033.134-.067h0A.174.174,0,0,1,168.8,143.467Z" transform="translate(-112.289 -95.393)"/><path class="a" d="M168.234,143.7a.621.621,0,0,1-.234.067A.484.484,0,0,0,168.234,143.7Z" transform="translate(-111.757 -95.592)"/><path class="a" d="M179.67,126.4l-.77.435,1.54.87Z" transform="translate(-119.008 -84.084)"/><path class="a" d="M166.568,143.933a.737.737,0,0,1-.268-.033A.653.653,0,0,0,166.568,143.933Z" transform="translate(-110.626 -95.725)"/><path class="a" d="M165.634,143.767a.621.621,0,0,1-.234-.067A.852.852,0,0,0,165.634,143.767Z" transform="translate(-110.028 -95.592)"/><path class="a" d="M167.334,143.9c-.067,0-.167.033-.234.033A.5.5,0,0,0,167.334,143.9Z" transform="translate(-111.159 -95.725)"/><path class="a" d="M164.007,138.037,162.7,137.3a1.434,1.434,0,0,0-.2.737v.8l.67.435a1,1,0,0,0,.268.134h.033a2.134,2.134,0,0,0,.234.067h.067c.1,0,.167.033.268.033h.033a.57.57,0,0,0,.234-.033h.067a2.134,2.134,0,0,0,.234-.067.033.033,0,0,0,.033-.033c.033-.033.067-.033.134-.067Z" transform="translate(-108.098 -91.335)"/><path class="a" d="M167.737,139.342a1.433,1.433,0,0,0,.536-.469,1.483,1.483,0,0,0,.033-1.573l-1.306.737Z" transform="translate(-111.092 -91.335)"/><path class="a" d="M167.97,130.478a1.433,1.433,0,0,1,.469.536l2.678-1.507v-.837h1.507l-1.507-.87-3.917,2.21Z" transform="translate(-111.225 -85.015)"/><path class="a" d="M179,131.137l1.507-.837H179Z" transform="translate(-119.075 -86.678)"/><path class="a" d="M165.57,134.3l-.77.435.737,1.306.77-1.306Z" transform="translate(-109.628 -89.339)"/><path class="a" d="M163.1,136.169l1.306.737-.737-1.306A1.547,1.547,0,0,0,163.1,136.169Z" transform="translate(-108.498 -90.204)"/><path class="a" d="M167.837,134.669l-.737,1.306,1.306-.737a1.433,1.433,0,0,0-.469-.536l-.77-.5-.067.033Z" transform="translate(-111.159 -89.273)"/><path class="a" d="M218.6,98.807H217.09v48.677l-2.477,1.306V102.757l4.72-2.645-.737-1.306h0L217.86,97.5l-5.49,3.08a1.52,1.52,0,0,0-.77,1.306v49.38a1.529,1.529,0,0,0,.737,1.306,1.452,1.452,0,0,0,1.473.033l5.49-2.913a1.5,1.5,0,0,0,.8-1.339V98.807a1.562,1.562,0,0,0-.737-1.306,1.513,1.513,0,0,0-1.507,0Z" transform="translate(-140.761 -64.726)"/></svg>