<svg xmlns="http://www.w3.org/2000/svg" viewBox="0 0 899 423"><defs><style>.a,.b,.c{fill:#007aff;}.c{stroke:#fafafa;stroke-width:3px;}.d,.e{stroke:none;}.e{fill:#fafafa;}.f{fill:none;}</style></defs><g transform="translate(-156 -7016)"><path class="a" d="M21.5,0,0,11.744V35.256L21.5,47,43,35.256V11.744ZM39.617,12.361,21.5,22.278,3.383,12.361,21.5,2.444ZM2.255,14.212l18.117,9.917V43.939L2.255,34.022ZM22.628,43.939V24.129l18.117-9.917V34.022Z" transform="translate(445 7063)"/><path class="a" d="M21.5,0,0,11.744V35.256L21.5,47,43,35.256V11.744ZM39.617,12.361,21.5,22.278,3.383,12.361,21.5,2.444ZM2.255,14.212l18.117,9.917V43.939L2.255,34.022ZM22.628,43.939V24.129l18.117-9.917V34.022Z" transform="translate(697 7063)"/><path class="a" d="M21.5,0,0,11.744V35.256L21.5,47,43,35.256V11.744ZM39.617,12.361,21.5,22.278,3.383,12.361,21.5,2.444ZM2.255,14.212l18.117,9.917V43.939L2.255,34.022ZM22.628,43.939V24.129l18.117-9.917V34.022Z" transform="translate(319 7063)"/><path class="a" d="M21.5,0,0,11.744V35.256L21.5,47,43,35.256V11.744ZM39.617,12.361,21.5,22.278,3.383,12.361,21.5,2.444ZM2.255,14.212l18.117,9.917V43.939L2.255,34.022ZM22.628,43.939V24.129l18.117-9.917V34.022Z" transform="translate(571 7063)"/><path class="a" d="M21.5,0,0,11.744V35.256L21.5,47,43,35.256V11.744ZM39.617,12.361,21.5,22.278,3.383,12.361,21.5,2.444ZM2.255,14.212l18.117,9.917V43.939L2.255,34.022ZM22.628,43.939V24.129l18.117-9.917V34.022Z" transform="translate(823 7063)"/><path class="a" d="M21.5,0,0,11.744V35.256L21.5,47,43,35.256V11.744ZM39.617,12.361,21.5,22.278,3.383,12.361,21.5,2.444ZM2.255,14.212l18.117,9.917V43.939L2.255,34.022ZM22.628,43.939V24.129l18.117-9.917V34.022Z" transform="translate(949 7063)"/><path class="a" d="M21.5,0,0,11.744V35.256L21.5,47,43,35.256V11.744ZM39.617,12.361,21.5,22.278,3.383,12.361,21.5,2.444ZM2.255,14.212l18.117,9.917V43.939L2.255,34.022ZM22.628,43.939V24.129l18.117-9.917V34.022Z" transform="translate(256 7063)"/><path class="a" d="M21.5,0,0,11.744V35.256L21.5,47,43,35.256V11.744ZM39.617,12.361,21.5,22.278,3.383,12.361,21.5,2.444ZM2.255,14.212l18.117,9.917V43.939L2.255,34.022ZM22.628,43.939V24.129l18.117-9.917V34.022Z" transform="translate(508 7063)"/><path class="a" d="M21.5,0,0,11.744V35.256L21.5,47,43,35.256V11.744ZM39.617,12.361,21.5,22.278,3.383,12.361,21.5,2.444ZM2.255,14.212l18.117,9.917V43.939L2.255,34.022ZM22.628,43.939V24.129l18.117-9.917V34.022Z" transform="translate(760 7063)"/><path class="a" d="M21.5,0,0,11.744V35.256L21.5,47,43,35.256V11.744ZM39.617,12.361,21.5,22.278,3.383,12.361,21.5,2.444ZM2.255,14.212l18.117,9.917V43.939L2.255,34.022ZM22.628,43.939V24.129l18.117-9.917V34.022Z" transform="translate(382 7063)"/><path class="a" d="M21.5,0,0,11.744V35.256L21.5,47,43,35.256V11.744ZM39.617,12.361,21.5,22.278,3.383,12.361,21.5,2.444ZM2.255,14.212l18.117,9.917V43.939L2.255,34.022ZM22.628,43.939V24.129l18.117-9.917V34.022Z" transform="translate(634 7063)"/><path class="a" d="M21.5,0,0,11.744V35.256L21.5,47,43,35.256V11.744ZM39.617,12.361,21.5,22.278,3.383,12.361,21.5,2.444ZM2.255,14.212l18.117,9.917V43.939L2.255,34.022ZM22.628,43.939V24.129l18.117-9.917V34.022Z" transform="translate(886 7063)"/><path class="a" d="M21.5,0,0,11.744V35.256L21.5,47,43,35.256V11.744ZM39.617,12.361,21.5,22.278,3.383,12.361,21.5,2.444ZM2.255,14.212l18.117,9.917V43.939L2.255,34.022ZM22.628,43.939V24.129l18.117-9.917V34.022Z" transform="translate(1012 7063)"/><path class="a" d="M21.5,0,0,11.744V35.256L21.5,47,43,35.256V11.744ZM39.617,12.361,21.5,22.278,3.383,12.361,21.5,2.444ZM2.255,14.212l18.117,9.917V43.939L2.255,34.022ZM22.628,43.939V24.129l18.117-9.917V34.022Z" transform="translate(193 7251)"/><path class="a" d="M21.5,0,0,11.744V35.256L21.5,47,43,35.256V11.744ZM39.617,12.361,21.5,22.278,3.383,12.361,21.5,2.444ZM2.255,14.212l18.117,9.917V43.939L2.255,34.022ZM22.628,43.939V24.129l18.117-9.917V34.022Z" transform="translate(445 7251)"/><path class="a" d="M21.5,0,0,11.744V35.256L21.5,47,43,35.256V11.744ZM39.617,12.361,21.5,22.278,3.383,12.361,21.5,2.444ZM2.255,14.212l18.117,9.917V43.939L2.255,34.022ZM22.628,43.939V24.129l18.117-9.917V34.022Z" transform="translate(256 7251)"/><path class="a" d="M21.5,0,0,11.744V35.256L21.5,47,43,35.256V11.744ZM39.617,12.361,21.5,22.278,3.383,12.361,21.5,2.444ZM2.255,14.212l18.117,9.917V43.939L2.255,34.022ZM22.628,43.939V24.129l18.117-9.917V34.022Z" transform="translate(193 7157)"/><path class="a" d="M21.5,0,0,11.744V35.256L21.5,47,43,35.256V11.744ZM39.617,12.361,21.5,22.278,3.383,12.361,21.5,2.444ZM2.255,14.212l18.117,9.917V43.939L2.255,34.022ZM22.628,43.939V24.129l18.117-9.917V34.022Z" transform="translate(445 7157)"/><path class="a" d="M21.5,0,0,11.744V35.256L21.5,47,43,35.256V11.744ZM39.617,12.361,21.5,22.278,3.383,12.361,21.5,2.444ZM2.255,14.212l18.117,9.917V43.939L2.255,34.022ZM22.628,43.939V24.129l18.117-9.917V34.022Z" transform="translate(256 7157)"/><path class="a" d="M21.5,0,0,11.744V35.256L21.5,47,43,35.256V11.744ZM39.617,12.361,21.5,22.278,3.383,12.361,21.5,2.444ZM2.255,14.212l18.117,9.917V43.939L2.255,34.022ZM22.628,43.939V24.129l18.117-9.917V34.022Z" transform="translate(445 7345)"/><path class="a" d="M21.5,0,0,11.744V35.256L21.5,47,43,35.256V11.744ZM39.617,12.361,21.5,22.278,3.383,12.361,21.5,2.444ZM2.255,14.212l18.117,9.917V43.939L2.255,34.022ZM22.628,43.939V24.129l18.117-9.917V34.022Z" transform="translate(477 7392)"/><path class="a" d="M21.5,0,0,11.744V35.256L21.5,47,43,35.256V11.744ZM39.617,12.361,21.5,22.278,3.383,12.361,21.5,2.444ZM2.255,14.212l18.117,9.917V43.939L2.255,34.022ZM22.628,43.939V24.129l18.117-9.917V34.022Z" transform="translate(477 7016)"/><path class="a" d="M21.5,0,0,11.744V35.256L21.5,47,43,35.256V11.744ZM39.617,12.361,21.5,22.278,3.383,12.361,21.5,2.444ZM2.255,14.212l18.117,9.917V43.939L2.255,34.022ZM22.628,43.939V24.129l18.117-9.917V34.022Z" transform="translate(823 7345)"/><path class="a" d="M21.5,0,0,11.744V35.256L21.5,47,43,35.256V11.744ZM39.617,12.361,21.5,22.278,3.383,12.361,21.5,2.444ZM2.255,14.212l18.117,9.917V43.939L2.255,34.022ZM22.628,43.939V24.129l18.117-9.917V34.022Z" transform="translate(855 7392)"/><path class="a" d="M21.5,0,0,11.744V35.256L21.5,47,43,35.256V11.744ZM39.617,12.361,21.5,22.278,3.383,12.361,21.5,2.444ZM2.255,14.212l18.117,9.917V43.939L2.255,34.022ZM22.628,43.939V24.129l18.117-9.917V34.022Z" transform="translate(855 7016)"/><path class="a" d="M21.5,0,0,11.744V35.256L21.5,47,43,35.256V11.744ZM39.617,12.361,21.5,22.278,3.383,12.361,21.5,2.444ZM2.255,14.212l18.117,9.917V43.939L2.255,34.022ZM22.628,43.939V24.129l18.117-9.917V34.022Z" transform="translate(319 7345)"/><path class="a" d="M21.5,0,0,11.744V35.256L21.5,47,43,35.256V11.744ZM39.617,12.361,21.5,22.278,3.383,12.361,21.5,2.444ZM2.255,14.212l18.117,9.917V43.939L2.255,34.022ZM22.628,43.939V24.129l18.117-9.917V34.022Z" transform="translate(351 7392)"/><path class="a" d="M21.5,0,0,11.744V35.256L21.5,47,43,35.256V11.744ZM39.617,12.361,21.5,22.278,3.383,12.361,21.5,2.444ZM2.255,14.212l18.117,9.917V43.939L2.255,34.022ZM22.628,43.939V24.129l18.117-9.917V34.022Z" transform="translate(351 7016)"/><path class="a" d="M21.5,0,0,11.744V35.256L21.5,47,43,35.256V11.744ZM39.617,12.361,21.5,22.278,3.383,12.361,21.5,2.444ZM2.255,14.212l18.117,9.917V43.939L2.255,34.022ZM22.628,43.939V24.129l18.117-9.917V34.022Z" transform="translate(697 7345)"/><path class="a" d="M21.5,0,0,11.744V35.256L21.5,47,43,35.256V11.744ZM39.617,12.361,21.5,22.278,3.383,12.361,21.5,2.444ZM2.255,14.212l18.117,9.917V43.939L2.255,34.022ZM22.628,43.939V24.129l18.117-9.917V34.022Z" transform="translate(729 7392)"/><path class="a" d="M21.5,0,0,11.744V35.256L21.5,47,43,35.256V11.744ZM39.617,12.361,21.5,22.278,3.383,12.361,21.5,2.444ZM2.255,14.212l18.117,9.917V43.939L2.255,34.022ZM22.628,43.939V24.129l18.117-9.917V34.022Z" transform="translate(729 7016)"/><path class="a" d="M21.5,0,0,11.744V35.256L21.5,47,43,35.256V11.744ZM39.617,12.361,21.5,22.278,3.383,12.361,21.5,2.444ZM2.255,14.212l18.117,9.917V43.939L2.255,34.022ZM22.628,43.939V24.129l18.117-9.917V34.022Z" transform="translate(571 7345)"/><path class="a" d="M21.5,0,0,11.744V35.256L21.5,47,43,35.256V11.744ZM39.617,12.361,21.5,22.278,3.383,12.361,21.5,2.444ZM2.255,14.212l18.117,9.917V43.939L2.255,34.022ZM22.628,43.939V24.129l18.117-9.917V34.022Z" transform="translate(603 7392)"/><path class="a" d="M21.5,0,0,11.744V35.256L21.5,47,43,35.256V11.744ZM39.617,12.361,21.5,22.278,3.383,12.361,21.5,2.444ZM2.255,14.212l18.117,9.917V43.939L2.255,34.022ZM22.628,43.939V24.129l18.117-9.917V34.022Z" transform="translate(603 7016)"/><path class="a" d="M21.5,0,0,11.744V35.256L21.5,47,43,35.256V11.744ZM39.617,12.361,21.5,22.278,3.383,12.361,21.5,2.444ZM2.255,14.212l18.117,9.917V43.939L2.255,34.022ZM22.628,43.939V24.129l18.117-9.917V34.022Z" transform="translate(949 7345)"/><path class="a" d="M21.5,0,0,11.744V35.256L21.5,47,43,35.256V11.744ZM39.617,12.361,21.5,22.278,3.383,12.361,21.5,2.444ZM2.255,14.212l18.117,9.917V43.939L2.255,34.022ZM22.628,43.939V24.129l18.117-9.917V34.022Z" transform="translate(981 7392)"/><path class="a" d="M21.5,0,0,11.744V35.256L21.5,47,43,35.256V11.744ZM39.617,12.361,21.5,22.278,3.383,12.361,21.5,2.444ZM2.255,14.212l18.117,9.917V43.939L2.255,34.022ZM22.628,43.939V24.129l18.117-9.917V34.022Z" transform="translate(981 7016)"/><path class="a" d="M21.5,0,0,11.744V35.256L21.5,47,43,35.256V11.744ZM39.617,12.361,21.5,22.278,3.383,12.361,21.5,2.444ZM2.255,14.212l18.117,9.917V43.939L2.255,34.022ZM22.628,43.939V24.129l18.117-9.917V34.022Z" transform="translate(256 7345)"/><path class="a" d="M21.5,0,0,11.744V35.256L21.5,47,43,35.256V11.744ZM39.617,12.361,21.5,22.278,3.383,12.361,21.5,2.444ZM2.255,14.212l18.117,9.917V43.939L2.255,34.022ZM22.628,43.939V24.129l18.117-9.917V34.022Z" transform="translate(288 7392)"/><path class="a" d="M21.5,0,0,11.744V35.256L21.5,47,43,35.256V11.744ZM39.617,12.361,21.5,22.278,3.383,12.361,21.5,2.444ZM2.255,14.212l18.117,9.917V43.939L2.255,34.022ZM22.628,43.939V24.129l18.117-9.917V34.022Z" transform="translate(288 7016)"/><path class="a" d="M21.5,0,0,11.744V35.256L21.5,47,43,35.256V11.744ZM39.617,12.361,21.5,22.278,3.383,12.361,21.5,2.444ZM2.255,14.212l18.117,9.917V43.939L2.255,34.022ZM22.628,43.939V24.129l18.117-9.917V34.022Z" transform="translate(508 7345)"/><path class="a" d="M21.5,0,0,11.744V35.256L21.5,47,43,35.256V11.744ZM39.617,12.361,21.5,22.278,3.383,12.361,21.5,2.444ZM2.255,14.212l18.117,9.917V43.939L2.255,34.022ZM22.628,43.939V24.129l18.117-9.917V34.022Z" transform="translate(540 7392)"/><path class="a" d="M21.5,0,0,11.744V35.256L21.5,47,43,35.256V11.744ZM39.617,12.361,21.5,22.278,3.383,12.361,21.5,2.444ZM2.255,14.212l18.117,9.917V43.939L2.255,34.022ZM22.628,43.939V24.129l18.117-9.917V34.022Z" transform="translate(540 7016)"/><path class="a" d="M21.5,0,0,11.744V35.256L21.5,47,43,35.256V11.744ZM39.617,12.361,21.5,22.278,3.383,12.361,21.5,2.444ZM2.255,14.212l18.117,9.917V43.939L2.255,34.022ZM22.628,43.939V24.129l18.117-9.917V34.022Z" transform="translate(886 7345)"/><path class="a" d="M21.5,0,0,11.744V35.256L21.5,47,43,35.256V11.744ZM39.617,12.361,21.5,22.278,3.383,12.361,21.5,2.444ZM2.255,14.212l18.117,9.917V43.939L2.255,34.022ZM22.628,43.939V24.129l18.117-9.917V34.022Z" transform="translate(918 7392)"/><path class="a" d="M21.5,0,0,11.744V35.256L21.5,47,43,35.256V11.744ZM39.617,12.361,21.5,22.278,3.383,12.361,21.5,2.444ZM2.255,14.212l18.117,9.917V43.939L2.255,34.022ZM22.628,43.939V24.129l18.117-9.917V34.022Z" transform="translate(918 7016)"/><path class="a" d="M21.5,0,0,11.744V35.256L21.5,47,43,35.256V11.744ZM39.617,12.361,21.5,22.278,3.383,12.361,21.5,2.444ZM2.255,14.212l18.117,9.917V43.939L2.255,34.022ZM22.628,43.939V24.129l18.117-9.917V34.022Z" transform="translate(382 7345)"/><path class="a" d="M21.5,0,0,11.744V35.256L21.5,47,43,35.256V11.744ZM39.617,12.361,21.5,22.278,3.383,12.361,21.5,2.444ZM2.255,14.212l18.117,9.917V43.939L2.255,34.022ZM22.628,43.939V24.129l18.117-9.917V34.022Z" transform="translate(414 7392)"/><path class="a" d="M21.5,0,0,11.744V35.256L21.5,47,43,35.256V11.744ZM39.617,12.361,21.5,22.278,3.383,12.361,21.5,2.444ZM2.255,14.212l18.117,9.917V43.939L2.255,34.022ZM22.628,43.939V24.129l18.117-9.917V34.022Z" transform="translate(414 7016)"/><path class="a" d="M21.5,0,0,11.744V35.256L21.5,47,43,35.256V11.744ZM39.617,12.361,21.5,22.278,3.383,12.361,21.5,2.444ZM2.255,14.212l18.117,9.917V43.939L2.255,34.022ZM22.628,43.939V24.129l18.117-9.917V34.022Z" transform="translate(760 7345)"/><path class="a" d="M21.5,0,0,11.744V35.256L21.5,47,43,35.256V11.744ZM39.617,12.361,21.5,22.278,3.383,12.361,21.5,2.444ZM2.255,14.212l18.117,9.917V43.939L2.255,34.022ZM22.628,43.939V24.129l18.117-9.917V34.022Z" transform="translate(792 7392)"/><path class="a" d="M21.5,0,0,11.744V35.256L21.5,47,43,35.256V11.744ZM39.617,12.361,21.5,22.278,3.383,12.361,21.5,2.444ZM2.255,14.212l18.117,9.917V43.939L2.255,34.022ZM22.628,43.939V24.129l18.117-9.917V34.022Z" transform="translate(792 7016)"/><path class="a" d="M21.5,0,0,11.744V35.256L21.5,47,43,35.256V11.744ZM39.617,12.361,21.5,22.278,3.383,12.361,21.5,2.444ZM2.255,14.212l18.117,9.917V43.939L2.255,34.022ZM22.628,43.939V24.129l18.117-9.917V34.022Z" transform="translate(634 7345)"/><path class="a" d="M21.5,0,0,11.744V35.256L21.5,47,43,35.256V11.744ZM39.617,12.361,21.5,22.278,3.383,12.361,21.5,2.444ZM2.255,14.212l18.117,9.917V43.939L2.255,34.022ZM22.628,43.939V24.129l18.117-9.917V34.022Z" transform="translate(666 7392)"/><path class="a" d="M21.5,0,0,11.744V35.256L21.5,47,43,35.256V11.744ZM39.617,12.361,21.5,22.278,3.383,12.361,21.5,2.444ZM2.255,14.212l18.117,9.917V43.939L2.255,34.022ZM22.628,43.939V24.129l18.117-9.917V34.022Z" transform="translate(666 7016)"/><path class="a" d="M21.5,0,0,11.744V35.256L21.5,47,43,35.256V11.744ZM39.617,12.361,21.5,22.278,3.383,12.361,21.5,2.444ZM2.255,14.212l18.117,9.917V43.939L2.255,34.022ZM22.628,43.939V24.129l18.117-9.917V34.022Z" transform="translate(1012 7345)"/><path class="a" d="M21.5,0,0,11.744V35.256L21.5,47,43,35.256V11.744ZM39.617,12.361,21.5,22.278,3.383,12.361,21.5,2.444ZM2.255,14.212l18.117,9.917V43.939L2.255,34.022ZM22.628,43.939V24.129l18.117-9.917V34.022Z" transform="translate(225 7110)"/><path class="a" d="M21.5,0,0,11.744V35.256L21.5,47,43,35.256V11.744ZM39.617,12.361,21.5,22.278,3.383,12.361,21.5,2.444ZM2.255,14.212l18.117,9.917V43.939L2.255,34.022ZM22.628,43.939V24.129l18.117-9.917V34.022Z" transform="translate(477 7110)"/><path class="a" d="M21.5,0,0,11.744V35.256L21.5,47,43,35.256V11.744ZM39.617,12.361,21.5,22.278,3.383,12.361,21.5,2.444ZM2.255,14.212l18.117,9.917V43.939L2.255,34.022ZM22.628,43.939V24.129l18.117-9.917V34.022Z" transform="translate(351 7110)"/><path class="a" d="M21.5,0,0,11.744V35.256L21.5,47,43,35.256V11.744ZM39.617,12.361,21.5,22.278,3.383,12.361,21.5,2.444ZM2.255,14.212l18.117,9.917V43.939L2.255,34.022ZM22.628,43.939V24.129l18.117-9.917V34.022Z" transform="translate(288 7110)"/><path class="a" d="M21.5,0,0,11.744V35.256L21.5,47,43,35.256V11.744ZM39.617,12.361,21.5,22.278,3.383,12.361,21.5,2.444ZM2.255,14.212l18.117,9.917V43.939L2.255,34.022ZM22.628,43.939V24.129l18.117-9.917V34.022Z" transform="translate(414 7110)"/><path class="a" d="M21.5,0,0,11.744V35.256L21.5,47,43,35.256V11.744ZM39.617,12.361,21.5,22.278,3.383,12.361,21.5,2.444ZM2.255,14.212l18.117,9.917V43.939L2.255,34.022ZM22.628,43.939V24.129l18.117-9.917V34.022Z" transform="translate(225 7298)"/><path class="a" d="M21.5,0,0,11.744V35.256L21.5,47,43,35.256V11.744ZM39.617,12.361,21.5,22.278,3.383,12.361,21.5,2.444ZM2.255,14.212l18.117,9.917V43.939L2.255,34.022ZM22.628,43.939V24.129l18.117-9.917V34.022Z" transform="translate(477 7298)"/><path class="a" d="M21.5,0,0,11.744V35.256L21.5,47,43,35.256V11.744ZM39.617,12.361,21.5,22.278,3.383,12.361,21.5,2.444ZM2.255,14.212l18.117,9.917V43.939L2.255,34.022ZM22.628,43.939V24.129l18.117-9.917V34.022Z" transform="translate(351 7298)"/><path class="a" d="M21.5,0,0,11.744V35.256L21.5,47,43,35.256V11.744ZM39.617,12.361,21.5,22.278,3.383,12.361,21.5,2.444ZM2.255,14.212l18.117,9.917V43.939L2.255,34.022ZM22.628,43.939V24.129l18.117-9.917V34.022Z" transform="translate(288 7298)"/><path class="a" d="M21.5,0,0,11.744V35.256L21.5,47,43,35.256V11.744ZM39.617,12.361,21.5,22.278,3.383,12.361,21.5,2.444ZM2.255,14.212l18.117,9.917V43.939L2.255,34.022ZM22.628,43.939V24.129l18.117-9.917V34.022Z" transform="translate(414 7298)"/><path class="a" d="M21.5,0,0,11.744V35.256L21.5,47,43,35.256V11.744ZM39.617,12.361,21.5,22.278,3.383,12.361,21.5,2.444ZM2.255,14.212l18.117,9.917V43.939L2.255,34.022ZM22.628,43.939V24.129l18.117-9.917V34.022Z" transform="translate(477 7204)"/><g transform="translate(2193.491 7461.719)"><rect class="a" width="7.21" height="36.05" transform="translate(-1805.601 -246.655)"/><rect class="a" width="7.09" height="36.05" transform="translate(-1805.481 -246.655)"/><circle class="a" cx="3.485" cy="3.485" r="3.485" transform="translate(-1843.333 -218.416)"/><circle class="a" cx="3.485" cy="3.485" r="3.485" transform="translate(-1805.481 -256.028)"/><path class="a" d="M48.723,3.1,3.3,29.416V81.929l45.543,26.316,45.423-26.2V29.416ZM86.815,77.6,48.723,99.593,10.75,77.6V33.742l37.973-21.99L86.7,33.742V77.6Z" transform="translate(-1869.826 -289.651)"/><circle class="a" cx="7.931" cy="7.931" r="7.931" transform="translate(-1828.673 -290.276)"/><circle class="a" cx="7.931" cy="7.931" r="7.931" transform="translate(-1786.976 -266.243)"/><circle class="a" cx="7.931" cy="7.931" r="7.931" transform="translate(-1870.491 -266.243)"/><circle class="a" cx="7.931" cy="7.931" r="7.931" transform="translate(-1786.976 -218.537)"/><circle class="a" cx="7.931" cy="7.931" r="7.931" transform="translate(-1870.491 -218.537)"/><circle class="a" cx="7.931" cy="7.931" r="7.931" transform="translate(-1828.673 -193.903)"/><path class="a" d="M58.049,50.912,43.869,72.061,29.69,50.912V63.89H22.6V27.6L43.869,59.324l14.18-21.269" transform="translate(-1865.933 -284.71)"/></g><g class="b" transform="translate(-1093 6572)"><path class="d" d="M 1405.5 554.4996337890625 L 1404 554.4996337890625 L 1401.000366210938 554.4996337890625 L 1399.500366210938 554.4996337890625 L 1399.500366210938 552.9996337890625 L 1399.500366210938 520.5003051757812 L 1385.000122070312 520.5003051757812 L 1383.500122070312 520.5003051757812 L 1383.500122070312 519.0003051757812 L 1383.500122070312 515.9996948242188 L 1383.500122070312 514.4996948242188 L 1385.000122070312 514.4996948242188 L 1420.000244140625 514.4996948242188 L 1421.500244140625 514.4996948242188 L 1421.500244140625 515.9996948242188 L 1421.500244140625 519.0003051757812 L 1421.500244140625 520.5003051757812 L 1420.000244140625 520.5003051757812 L 1405.5 520.5003051757812 L 1405.5 552.9996337890625 L 1405.5 554.4996337890625 Z"/><path class="e" d="M 1404 552.9996337890625 L 1404 519.0003051757812 L 1420.000244140625 519.0003051757812 L 1420.000244140625 515.9996948242188 L 1385.000122070312 515.9996948242188 L 1385.000122070312 519.0003051757812 L 1401.000366210938 519.0003051757812 L 1401.000366210938 552.9996337890625 L 1404 552.9996337890625 M 1407 555.9996337890625 L 1404 555.9996337890625 L 1401.000366210938 555.9996337890625 L 1398.000366210938 555.9996337890625 L 1398.000366210938 552.9996337890625 L 1398.000366210938 522.0003051757812 L 1385.000122070312 522.0003051757812 L 1382.000122070312 522.0003051757812 L 1382.000122070312 519.0003051757812 L 1382.000122070312 515.9996948242188 L 1382.000122070312 512.9996948242188 L 1385.000122070312 512.9996948242188 L 1420.000244140625 512.9996948242188 L 1423.000244140625 512.9996948242188 L 1423.000244140625 515.9996948242188 L 1423.000244140625 519.0003051757812 L 1423.000244140625 522.0003051757812 L 1420.000244140625 522.0003051757812 L 1407 522.0003051757812 L 1407 552.9996337890625 L 1407 555.9996337890625 Z"/></g><g class="b" transform="translate(-526 6853)"><path class="d" d="M 1405.5 554.4996337890625 L 1404 554.4996337890625 L 1401.000366210938 554.4996337890625 L 1399.500366210938 554.4996337890625 L 1399.500366210938 552.9996337890625 L 1399.500366210938 520.5003051757812 L 1385.000122070312 520.5003051757812 L 1383.500122070312 520.5003051757812 L 1383.500122070312 519.0003051757812 L 1383.500122070312 515.9996948242188 L 1383.500122070312 514.4996948242188 L 1385.000122070312 514.4996948242188 L 1420.000244140625 514.4996948242188 L 1421.500244140625 514.4996948242188 L 1421.500244140625 515.9996948242188 L 1421.500244140625 519.0003051757812 L 1421.500244140625 520.5003051757812 L 1420.000244140625 520.5003051757812 L 1405.5 520.5003051757812 L 1405.5 552.9996337890625 L 1405.5 554.4996337890625 Z"/><path class="e" d="M 1404 552.9996337890625 L 1404 519.0003051757812 L 1420.000244140625 519.0003051757812 L 1420.000244140625 515.9996948242188 L 1385.000122070312 515.9996948242188 L 1385.000122070312 519.0003051757812 L 1401.000366210938 519.0003051757812 L 1401.000366210938 552.9996337890625 L 1404 552.9996337890625 M 1407 555.9996337890625 L 1404 555.9996337890625 L 1401.000366210938 555.9996337890625 L 1398.000366210938 555.9996337890625 L 1398.000366210938 552.9996337890625 L 1398.000366210938 522.0003051757812 L 1385.000122070312 522.0003051757812 L 1382.000122070312 522.0003051757812 L 1382.000122070312 519.0003051757812 L 1382.000122070312 515.9996948242188 L 1382.000122070312 512.9996948242188 L 1385.000122070312 512.9996948242188 L 1420.000244140625 512.9996948242188 L 1423.000244140625 512.9996948242188 L 1423.000244140625 515.9996948242188 L 1423.000244140625 519.0003051757812 L 1423.000244140625 522.0003051757812 L 1420.000244140625 522.0003051757812 L 1407 522.0003051757812 L 1407 552.9996337890625 L 1407 555.9996337890625 Z"/></g><g class="b" transform="translate(-652 6853)"><path class="d" d="M 1405.5 554.4996337890625 L 1404 554.4996337890625 L 1401.000366210938 554.4996337890625 L 1399.500366210938 554.4996337890625 L 1399.500366210938 552.9996337890625 L 1399.500366210938 520.5003051757812 L 1385.000122070312 520.5003051757812 L 1383.500122070312 520.5003051757812 L 1383.500122070312 519.0003051757812 L 1383.500122070312 515.9996948242188 L 1383.500122070312 514.4996948242188 L 1385.000122070312 514.4996948242188 L 1420.000244140625 514.4996948242188 L 1421.500244140625 514.4996948242188 L 1421.500244140625 515.9996948242188 L 1421.500244140625 519.0003051757812 L 1421.500244140625 520.5003051757812 L 1420.000244140625 520.5003051757812 L 1405.5 520.5003051757812 L 1405.5 552.9996337890625 L 1405.5 554.4996337890625 Z"/><path class="e" d="M 1404 552.9996337890625 L 1404 519.0003051757812 L 1420.000244140625 519.0003051757812 L 1420.000244140625 515.9996948242188 L 1385.000122070312 515.9996948242188 L 1385.000122070312 519.0003051757812 L 1401.000366210938 519.0003051757812 L 1401.000366210938 552.9996337890625 L 1404 552.9996337890625 M 1407 555.9996337890625 L 1404 555.9996337890625 L 1401.000366210938 555.9996337890625 L 1398.000366210938 555.9996337890625 L 1398.000366210938 552.9996337890625 L 1398.000366210938 522.0003051757812 L 1385.000122070312 522.0003051757812 L 1382.000122070312 522.0003051757812 L 1382.000122070312 519.0003051757812 L 1382.000122070312 515.9996948242188 L 1382.000122070312 512.9996948242188 L 1385.000122070312 512.9996948242188 L 1420.000244140625 512.9996948242188 L 1423.000244140625 512.9996948242188 L 1423.000244140625 515.9996948242188 L 1423.000244140625 519.0003051757812 L 1423.000244140625 522.0003051757812 L 1420.000244140625 522.0003051757812 L 1407 522.0003051757812 L 1407 552.9996337890625 L 1407 555.9996337890625 Z"/></g><g class="b" transform="translate(-621 6525)"><path class="d" d="M 1405.5 554.4996337890625 L 1404 554.4996337890625 L 1401.000366210938 554.4996337890625 L 1399.500366210938 554.4996337890625 L 1399.500366210938 552.9996337890625 L 1399.500366210938 520.5003051757812 L 1385.000122070312 520.5003051757812 L 1383.500122070312 520.5003051757812 L 1383.500122070312 519.0003051757812 L 1383.500122070312 515.9996948242188 L 1383.500122070312 514.4996948242188 L 1385.000122070312 514.4996948242188 L 1420.000244140625 514.4996948242188 L 1421.500244140625 514.4996948242188 L 1421.500244140625 515.9996948242188 L 1421.500244140625 519.0003051757812 L 1421.500244140625 520.5003051757812 L 1420.000244140625 520.5003051757812 L 1405.5 520.5003051757812 L 1405.5 552.9996337890625 L 1405.5 554.4996337890625 Z"/><path class="e" d="M 1404 552.9996337890625 L 1404 519.0003051757812 L 1420.000244140625 519.0003051757812 L 1420.000244140625 515.9996948242188 L 1385.000122070312 515.9996948242188 L 1385.000122070312 519.0003051757812 L 1401.000366210938 519.0003051757812 L 1401.000366210938 552.9996337890625 L 1404 552.9996337890625 M 1407 555.9996337890625 L 1404 555.9996337890625 L 1401.000366210938 555.9996337890625 L 1398.000366210938 555.9996337890625 L 1398.000366210938 552.9996337890625 L 1398.000366210938 522.0003051757812 L 1385.000122070312 522.0003051757812 L 1382.000122070312 522.0003051757812 L 1382.000122070312 519.0003051757812 L 1382.000122070312 515.9996948242188 L 1382.000122070312 512.9996948242188 L 1385.000122070312 512.9996948242188 L 1420.000244140625 512.9996948242188 L 1423.000244140625 512.9996948242188 L 1423.000244140625 515.9996948242188 L 1423.000244140625 519.0003051757812 L 1423.000244140625 522.0003051757812 L 1420.000244140625 522.0003051757812 L 1407 522.0003051757812 L 1407 552.9996337890625 L 1407 555.9996337890625 Z"/></g><g class="b" transform="translate(-432 6525)"><path class="d" d="M 1405.5 554.4996337890625 L 1404 554.4996337890625 L 1401.000366210938 554.4996337890625 L 1399.500366210938 554.4996337890625 L 1399.500366210938 552.9996337890625 L 1399.500366210938 520.5003051757812 L 1385.000122070312 520.5003051757812 L 1383.500122070312 520.5003051757812 L 1383.500122070312 519.0003051757812 L 1383.500122070312 515.9996948242188 L 1383.500122070312 514.4996948242188 L 1385.000122070312 514.4996948242188 L 1420.000244140625 514.4996948242188 L 1421.500244140625 514.4996948242188 L 1421.500244140625 515.9996948242188 L 1421.500244140625 519.0003051757812 L 1421.500244140625 520.5003051757812 L 1420.000244140625 520.5003051757812 L 1405.5 520.5003051757812 L 1405.5 552.9996337890625 L 1405.5 554.4996337890625 Z"/><path class="e" d="M 1404 552.9996337890625 L 1404 519.0003051757812 L 1420.000244140625 519.0003051757812 L 1420.000244140625 515.9996948242188 L 1385.000122070312 515.9996948242188 L 1385.000122070312 519.0003051757812 L 1401.000366210938 519.0003051757812 L 1401.000366210938 552.9996337890625 L 1404 552.9996337890625 M 1407 555.9996337890625 L 1404 555.9996337890625 L 1401.000366210938 555.9996337890625 L 1398.000366210938 555.9996337890625 L 1398.000366210938 552.9996337890625 L 1398.000366210938 522.0003051757812 L 1385.000122070312 522.0003051757812 L 1382.000122070312 522.0003051757812 L 1382.000122070312 519.0003051757812 L 1382.000122070312 515.9996948242188 L 1382.000122070312 512.9996948242188 L 1385.000122070312 512.9996948242188 L 1420.000244140625 512.9996948242188 L 1423.000244140625 512.9996948242188 L 1423.000244140625 515.9996948242188 L 1423.000244140625 519.0003051757812 L 1423.000244140625 522.0003051757812 L 1420.000244140625 522.0003051757812 L 1407 522.0003051757812 L 1407 552.9996337890625 L 1407 555.9996337890625 Z"/></g><g class="b" transform="translate(-810 6525)"><path class="d" d="M 1405.5 554.4996337890625 L 1404 554.4996337890625 L 1401.000366210938 554.4996337890625 L 1399.500366210938 554.4996337890625 L 1399.500366210938 552.9996337890625 L 1399.500366210938 520.5003051757812 L 1385.000122070312 520.5003051757812 L 1383.500122070312 520.5003051757812 L 1383.500122070312 519.0003051757812 L 1383.500122070312 515.9996948242188 L 1383.500122070312 514.4996948242188 L 1385.000122070312 514.4996948242188 L 1420.000244140625 514.4996948242188 L 1421.500244140625 514.4996948242188 L 1421.500244140625 515.9996948242188 L 1421.500244140625 519.0003051757812 L 1421.500244140625 520.5003051757812 L 1420.000244140625 520.5003051757812 L 1405.5 520.5003051757812 L 1405.5 552.9996337890625 L 1405.5 554.4996337890625 Z"/><path class="e" d="M 1404 552.9996337890625 L 1404 519.0003051757812 L 1420.000244140625 519.0003051757812 L 1420.000244140625 515.9996948242188 L 1385.000122070312 515.9996948242188 L 1385.000122070312 519.0003051757812 L 1401.000366210938 519.0003051757812 L 1401.000366210938 552.9996337890625 L 1404 552.9996337890625 M 1407 555.9996337890625 L 1404 555.9996337890625 L 1401.000366210938 555.9996337890625 L 1398.000366210938 555.9996337890625 L 1398.000366210938 552.9996337890625 L 1398.000366210938 522.0003051757812 L 1385.000122070312 522.0003051757812 L 1382.000122070312 522.0003051757812 L 1382.000122070312 519.0003051757812 L 1382.000122070312 515.9996948242188 L 1382.000122070312 512.9996948242188 L 1385.000122070312 512.9996948242188 L 1420.000244140625 512.9996948242188 L 1423.000244140625 512.9996948242188 L 1423.000244140625 515.9996948242188 L 1423.000244140625 519.0003051757812 L 1423.000244140625 522.0003051757812 L 1420.000244140625 522.0003051757812 L 1407 522.0003051757812 L 1407 552.9996337890625 L 1407 555.9996337890625 Z"/></g><g class="b" transform="translate(-400 6853)"><path class="d" d="M 1405.5 554.4996337890625 L 1404 554.4996337890625 L 1401.000366210938 554.4996337890625 L 1399.500366210938 554.4996337890625 L 1399.500366210938 552.9996337890625 L 1399.500366210938 520.5003051757812 L 1385.000122070312 520.5003051757812 L 1383.500122070312 520.5003051757812 L 1383.500122070312 519.0003051757812 L 1383.500122070312 515.9996948242188 L 1383.500122070312 514.4996948242188 L 1385.000122070312 514.4996948242188 L 1420.000244140625 514.4996948242188 L 1421.500244140625 514.4996948242188 L 1421.500244140625 515.9996948242188 L 1421.500244140625 519.0003051757812 L 1421.500244140625 520.5003051757812 L 1420.000244140625 520.5003051757812 L 1405.5 520.5003051757812 L 1405.5 552.9996337890625 L 1405.5 554.4996337890625 Z"/><path class="e" d="M 1404 552.9996337890625 L 1404 519.0003051757812 L 1420.000244140625 519.0003051757812 L 1420.000244140625 515.9996948242188 L 1385.000122070312 515.9996948242188 L 1385.000122070312 519.0003051757812 L 1401.000366210938 519.0003051757812 L 1401.000366210938 552.9996337890625 L 1404 552.9996337890625 M 1407 555.9996337890625 L 1404 555.9996337890625 L 1401.000366210938 555.9996337890625 L 1398.000366210938 555.9996337890625 L 1398.000366210938 552.9996337890625 L 1398.000366210938 522.0003051757812 L 1385.000122070312 522.0003051757812 L 1382.000122070312 522.0003051757812 L 1382.000122070312 519.0003051757812 L 1382.000122070312 515.9996948242188 L 1382.000122070312 512.9996948242188 L 1385.000122070312 512.9996948242188 L 1420.000244140625 512.9996948242188 L 1423.000244140625 512.9996948242188 L 1423.000244140625 515.9996948242188 L 1423.000244140625 519.0003051757812 L 1423.000244140625 522.0003051757812 L 1420.000244140625 522.0003051757812 L 1407 522.0003051757812 L 1407 552.9996337890625 L 1407 555.9996337890625 Z"/></g><g class="b" transform="translate(-1062 6524)"><path class="d" d="M 1405.5 554.4996337890625 L 1404 554.4996337890625 L 1401.000366210938 554.4996337890625 L 1399.500366210938 554.4996337890625 L 1399.500366210938 552.9996337890625 L 1399.500366210938 520.5003051757812 L 1385.000122070312 520.5003051757812 L 1383.500122070312 520.5003051757812 L 1383.500122070312 519.0003051757812 L 1383.500122070312 515.9996948242188 L 1383.500122070312 514.4996948242188 L 1385.000122070312 514.4996948242188 L 1404 514.4996948242188 L 1405.5 514.4996948242188 L 1405.5 515.9996948242188 L 1405.5 518.0004272460938 L 1405.5 552.9996337890625 L 1405.5 554.4996337890625 Z"/><path class="e" d="M 1404 552.9996337890625 L 1404 518.0004272460938 L 1404 515.9996948242188 L 1385.000122070312 515.9996948242188 L 1385.000122070312 519.0003051757812 L 1401.000366210938 519.0003051757812 L 1401.000366210938 552.9996337890625 L 1404 552.9996337890625 M 1407 555.9996337890625 L 1404 555.9996337890625 L 1401.000366210938 555.9996337890625 L 1398.000366210938 555.9996337890625 L 1398.000366210938 552.9996337890625 L 1398.000366210938 522.0003051757812 L 1385.000122070312 522.0003051757812 L 1382.000122070312 522.0003051757812 L 1382.000122070312 519.0003051757812 L 1382.000122070312 515.9996948242188 L 1382.000122070312 512.9996948242188 L 1385.000122070312 512.9996948242188 L 1404 512.9996948242188 L 1407 512.9996948242188 L 1407 515.9996948242188 L 1407 518.0004272460938 L 1407 552.9996337890625 L 1407 555.9996337890625 Z"/></g><g class="b" transform="translate(-1030 6572)"><path class="d" d="M 1405.5 554.4996337890625 L 1404 554.4996337890625 L 1401.000366210938 554.4996337890625 L 1399.500366210938 554.4996337890625 L 1399.500366210938 552.9996337890625 L 1399.500366210938 520.5003051757812 L 1385.000122070312 520.5003051757812 L 1383.500122070312 520.5003051757812 L 1383.500122070312 519.0003051757812 L 1383.500122070312 515.9996948242188 L 1383.500122070312 514.4996948242188 L 1385.000122070312 514.4996948242188 L 1404 514.4996948242188 L 1405.5 514.4996948242188 L 1405.5 515.9996948242188 L 1405.5 518.0004272460938 L 1405.5 552.9996337890625 L 1405.5 554.4996337890625 Z"/><path class="e" d="M 1404 552.9996337890625 L 1404 518.0004272460938 L 1404 515.9996948242188 L 1385.000122070312 515.9996948242188 L 1385.000122070312 519.0003051757812 L 1401.000366210938 519.0003051757812 L 1401.000366210938 552.9996337890625 L 1404 552.9996337890625 M 1407 555.9996337890625 L 1404 555.9996337890625 L 1401.000366210938 555.9996337890625 L 1398.000366210938 555.9996337890625 L 1398.000366210938 552.9996337890625 L 1398.000366210938 522.0003051757812 L 1385.000122070312 522.0003051757812 L 1382.000122070312 522.0003051757812 L 1382.000122070312 519.0003051757812 L 1382.000122070312 515.9996948242188 L 1382.000122070312 512.9996948242188 L 1385.000122070312 512.9996948242188 L 1404 512.9996948242188 L 1407 512.9996948242188 L 1407 515.9996948242188 L 1407 518.0004272460938 L 1407 552.9996337890625 L 1407 555.9996337890625 Z"/></g><g class="b" transform="translate(-998 6806)"><path class="d" d="M 1405.5 554.4996337890625 L 1404 554.4996337890625 L 1401.000366210938 554.4996337890625 L 1399.500366210938 554.4996337890625 L 1399.500366210938 552.9996337890625 L 1399.500366210938 520.5003051757812 L 1385.000122070312 520.5003051757812 L 1383.500122070312 520.5003051757812 L 1383.500122070312 519.0003051757812 L 1383.500122070312 515.9996948242188 L 1383.500122070312 514.4996948242188 L 1385.000122070312 514.4996948242188 L 1404 514.4996948242188 L 1405.5 514.4996948242188 L 1405.5 515.9996948242188 L 1405.5 518.0004272460938 L 1405.5 552.9996337890625 L 1405.5 554.4996337890625 Z"/><path class="e" d="M 1404 552.9996337890625 L 1404 518.0004272460938 L 1404 515.9996948242188 L 1385.000122070312 515.9996948242188 L 1385.000122070312 519.0003051757812 L 1401.000366210938 519.0003051757812 L 1401.000366210938 552.9996337890625 L 1404 552.9996337890625 M 1407 555.9996337890625 L 1404 555.9996337890625 L 1401.000366210938 555.9996337890625 L 1398.000366210938 555.9996337890625 L 1398.000366210938 552.9996337890625 L 1398.000366210938 522.0003051757812 L 1385.000122070312 522.0003051757812 L 1382.000122070312 522.0003051757812 L 1382.000122070312 519.0003051757812 L 1382.000122070312 515.9996948242188 L 1382.000122070312 512.9996948242188 L 1385.000122070312 512.9996948242188 L 1404 512.9996948242188 L 1407 512.9996948242188 L 1407 515.9996948242188 L 1407 518.0004272460938 L 1407 552.9996337890625 L 1407 555.9996337890625 Z"/></g><g class="b" transform="translate(-841 6854)"><path class="d" d="M 1405.5 554.4996337890625 L 1404 554.4996337890625 L 1401.000366210938 554.4996337890625 L 1399.500366210938 554.4996337890625 L 1399.500366210938 552.9996337890625 L 1399.500366210938 520.5003051757812 L 1385.000122070312 520.5003051757812 L 1383.500122070312 520.5003051757812 L 1383.500122070312 519.0003051757812 L 1383.500122070312 515.9996948242188 L 1383.500122070312 514.4996948242188 L 1385.000122070312 514.4996948242188 L 1404 514.4996948242188 L 1405.5 514.4996948242188 L 1405.5 515.9996948242188 L 1405.5 518.0004272460938 L 1405.5 552.9996337890625 L 1405.5 554.4996337890625 Z"/><path class="e" d="M 1404 552.9996337890625 L 1404 518.0004272460938 L 1404 515.9996948242188 L 1385.000122070312 515.9996948242188 L 1385.000122070312 519.0003051757812 L 1401.000366210938 519.0003051757812 L 1401.000366210938 552.9996337890625 L 1404 552.9996337890625 M 1407 555.9996337890625 L 1404 555.9996337890625 L 1401.000366210938 555.9996337890625 L 1398.000366210938 555.9996337890625 L 1398.000366210938 552.9996337890625 L 1398.000366210938 522.0003051757812 L 1385.000122070312 522.0003051757812 L 1382.000122070312 522.0003051757812 L 1382.000122070312 519.0003051757812 L 1382.000122070312 515.9996948242188 L 1382.000122070312 512.9996948242188 L 1385.000122070312 512.9996948242188 L 1404 512.9996948242188 L 1407 512.9996948242188 L 1407 515.9996948242188 L 1407 518.0004272460938 L 1407 552.9996337890625 L 1407 555.9996337890625 Z"/></g><g class="b" transform="translate(-873 6526)"><path class="d" d="M 1405.5 554.4996337890625 L 1404 554.4996337890625 L 1401.000366210938 554.4996337890625 L 1399.500366210938 554.4996337890625 L 1399.500366210938 552.9996337890625 L 1399.500366210938 520.5003051757812 L 1385.000122070312 520.5003051757812 L 1383.500122070312 520.5003051757812 L 1383.500122070312 519.0003051757812 L 1383.500122070312 515.9996948242188 L 1383.500122070312 514.4996948242188 L 1385.000122070312 514.4996948242188 L 1404 514.4996948242188 L 1405.5 514.4996948242188 L 1405.5 515.9996948242188 L 1405.5 518.0004272460938 L 1405.5 552.9996337890625 L 1405.5 554.4996337890625 Z"/><path class="e" d="M 1404 552.9996337890625 L 1404 518.0004272460938 L 1404 515.9996948242188 L 1385.000122070312 515.9996948242188 L 1385.000122070312 519.0003051757812 L 1401.000366210938 519.0003051757812 L 1401.000366210938 552.9996337890625 L 1404 552.9996337890625 M 1407 555.9996337890625 L 1404 555.9996337890625 L 1401.000366210938 555.9996337890625 L 1398.000366210938 555.9996337890625 L 1398.000366210938 552.9996337890625 L 1398.000366210938 522.0003051757812 L 1385.000122070312 522.0003051757812 L 1382.000122070312 522.0003051757812 L 1382.000122070312 519.0003051757812 L 1382.000122070312 515.9996948242188 L 1382.000122070312 512.9996948242188 L 1385.000122070312 512.9996948242188 L 1404 512.9996948242188 L 1407 512.9996948242188 L 1407 515.9996948242188 L 1407 518.0004272460938 L 1407 552.9996337890625 L 1407 555.9996337890625 Z"/></g><g class="b" transform="translate(-684 6526)"><path class="d" d="M 1405.5 554.4996337890625 L 1404 554.4996337890625 L 1401.000366210938 554.4996337890625 L 1399.500366210938 554.4996337890625 L 1399.500366210938 552.9996337890625 L 1399.500366210938 520.5003051757812 L 1385.000122070312 520.5003051757812 L 1383.500122070312 520.5003051757812 L 1383.500122070312 519.0003051757812 L 1383.500122070312 515.9996948242188 L 1383.500122070312 514.4996948242188 L 1385.000122070312 514.4996948242188 L 1404 514.4996948242188 L 1405.5 514.4996948242188 L 1405.5 515.9996948242188 L 1405.5 518.0004272460938 L 1405.5 552.9996337890625 L 1405.5 554.4996337890625 Z"/><path class="e" d="M 1404 552.9996337890625 L 1404 518.0004272460938 L 1404 515.9996948242188 L 1385.000122070312 515.9996948242188 L 1385.000122070312 519.0003051757812 L 1401.000366210938 519.0003051757812 L 1401.000366210938 552.9996337890625 L 1404 552.9996337890625 M 1407 555.9996337890625 L 1404 555.9996337890625 L 1401.000366210938 555.9996337890625 L 1398.000366210938 555.9996337890625 L 1398.000366210938 552.9996337890625 L 1398.000366210938 522.0003051757812 L 1385.000122070312 522.0003051757812 L 1382.000122070312 522.0003051757812 L 1382.000122070312 519.0003051757812 L 1382.000122070312 515.9996948242188 L 1382.000122070312 512.9996948242188 L 1385.000122070312 512.9996948242188 L 1404 512.9996948242188 L 1407 512.9996948242188 L 1407 515.9996948242188 L 1407 518.0004272460938 L 1407 552.9996337890625 L 1407 555.9996337890625 Z"/></g><g class="b" transform="translate(-496 6526)"><path class="d" d="M 1405.5 554.4996337890625 L 1404 554.4996337890625 L 1401.000366210938 554.4996337890625 L 1399.500366210938 554.4996337890625 L 1399.500366210938 552.9996337890625 L 1399.500366210938 520.5003051757812 L 1385.000122070312 520.5003051757812 L 1383.500122070312 520.5003051757812 L 1383.500122070312 519.0003051757812 L 1383.500122070312 515.9996948242188 L 1383.500122070312 514.4996948242188 L 1385.000122070312 514.4996948242188 L 1404 514.4996948242188 L 1405.5 514.4996948242188 L 1405.5 515.9996948242188 L 1405.5 518.0004272460938 L 1405.5 552.9996337890625 L 1405.5 554.4996337890625 Z"/><path class="e" d="M 1404 552.9996337890625 L 1404 518.0004272460938 L 1404 515.9996948242188 L 1385.000122070312 515.9996948242188 L 1385.000122070312 519.0003051757812 L 1401.000366210938 519.0003051757812 L 1401.000366210938 552.9996337890625 L 1404 552.9996337890625 M 1407 555.9996337890625 L 1404 555.9996337890625 L 1401.000366210938 555.9996337890625 L 1398.000366210938 555.9996337890625 L 1398.000366210938 552.9996337890625 L 1398.000366210938 522.0003051757812 L 1385.000122070312 522.0003051757812 L 1382.000122070312 522.0003051757812 L 1382.000122070312 519.0003051757812 L 1382.000122070312 515.9996948242188 L 1382.000122070312 512.9996948242188 L 1385.000122070312 512.9996948242188 L 1404 512.9996948242188 L 1407 512.9996948242188 L 1407 515.9996948242188 L 1407 518.0004272460938 L 1407 552.9996337890625 L 1407 555.9996337890625 Z"/></g><g class="b" transform="translate(-370 6526)"><path class="d" d="M 1405.5 554.4996337890625 L 1404 554.4996337890625 L 1401.000366210938 554.4996337890625 L 1399.500366210938 554.4996337890625 L 1399.500366210938 552.9996337890625 L 1399.500366210938 520.5003051757812 L 1385.000122070312 520.5003051757812 L 1383.500122070312 520.5003051757812 L 1383.500122070312 519.0003051757812 L 1383.500122070312 515.9996948242188 L 1383.500122070312 514.4996948242188 L 1385.000122070312 514.4996948242188 L 1404 514.4996948242188 L 1405.5 514.4996948242188 L 1405.5 515.9996948242188 L 1405.5 518.0004272460938 L 1405.5 552.9996337890625 L 1405.5 554.4996337890625 Z"/><path class="e" d="M 1404 552.9996337890625 L 1404 518.0004272460938 L 1404 515.9996948242188 L 1385.000122070312 515.9996948242188 L 1385.000122070312 519.0003051757812 L 1401.000366210938 519.0003051757812 L 1401.000366210938 552.9996337890625 L 1404 552.9996337890625 M 1407 555.9996337890625 L 1404 555.9996337890625 L 1401.000366210938 555.9996337890625 L 1398.000366210938 555.9996337890625 L 1398.000366210938 552.9996337890625 L 1398.000366210938 522.0003051757812 L 1385.000122070312 522.0003051757812 L 1382.000122070312 522.0003051757812 L 1382.000122070312 519.0003051757812 L 1382.000122070312 515.9996948242188 L 1382.000122070312 512.9996948242188 L 1385.000122070312 512.9996948242188 L 1404 512.9996948242188 L 1407 512.9996948242188 L 1407 515.9996948242188 L 1407 518.0004272460938 L 1407 552.9996337890625 L 1407 555.9996337890625 Z"/></g><g class="b" transform="translate(-464 6854)"><path class="d" d="M 1405.5 554.4996337890625 L 1404 554.4996337890625 L 1401.000366210938 554.4996337890625 L 1399.500366210938 554.4996337890625 L 1399.500366210938 552.9996337890625 L 1399.500366210938 519.0003051757812 L 1399.500366210938 515.9996948242188 L 1399.500366210938 514.4996948242188 L 1401.000366210938 514.4996948242188 L 1420.000244140625 514.4996948242188 L 1421.500244140625 514.4996948242188 L 1421.500244140625 515.9996948242188 L 1421.500244140625 519.0003051757812 L 1421.500244140625 520.5003051757812 L 1420.000244140625 520.5003051757812 L 1405.5 520.5003051757812 L 1405.5 552.9996337890625 L 1405.5 554.4996337890625 Z"/><path class="e" d="M 1404 552.9996337890625 L 1404 519.0003051757812 L 1420.000244140625 519.0003051757812 L 1420.000244140625 515.9996948242188 L 1401.000366210938 515.9996948242188 L 1401.000366210938 519.0003051757812 L 1401.000366210938 552.9996337890625 L 1404 552.9996337890625 M 1407 555.9996337890625 L 1404 555.9996337890625 L 1401.000366210938 555.9996337890625 L 1398.000366210938 555.9996337890625 L 1398.000366210938 552.9996337890625 L 1398.000366210938 519.0003051757812 L 1398.000366210938 515.9996948242188 L 1398.000366210938 512.9996948242188 L 1401.000366210938 512.9996948242188 L 1420.000244140625 512.9996948242188 L 1423.000244140625 512.9996948242188 L 1423.000244140625 515.9996948242188 L 1423.000244140625 519.0003051757812 L 1423.000244140625 522.0003051757812 L 1420.000244140625 522.0003051757812 L 1407 522.0003051757812 L 1407 552.9996337890625 L 1407 555.9996337890625 Z"/></g><g class="b" transform="translate(-558 6525)"><path class="d" d="M 1405.5 554.4996337890625 L 1404 554.4996337890625 L 1401.000366210938 554.4996337890625 L 1399.500366210938 554.4996337890625 L 1399.500366210938 552.9996337890625 L 1399.500366210938 519.0003051757812 L 1399.500366210938 515.9996948242188 L 1399.500366210938 514.4996948242188 L 1401.000366210938 514.4996948242188 L 1420.000244140625 514.4996948242188 L 1421.500244140625 514.4996948242188 L 1421.500244140625 515.9996948242188 L 1421.500244140625 519.0003051757812 L 1421.500244140625 520.5003051757812 L 1420.000244140625 520.5003051757812 L 1405.5 520.5003051757812 L 1405.5 552.9996337890625 L 1405.5 554.4996337890625 Z"/><path class="e" d="M 1404 552.9996337890625 L 1404 519.0003051757812 L 1420.000244140625 519.0003051757812 L 1420.000244140625 515.9996948242188 L 1401.000366210938 515.9996948242188 L 1401.000366210938 519.0003051757812 L 1401.000366210938 552.9996337890625 L 1404 552.9996337890625 M 1407 555.9996337890625 L 1404 555.9996337890625 L 1401.000366210938 555.9996337890625 L 1398.000366210938 555.9996337890625 L 1398.000366210938 552.9996337890625 L 1398.000366210938 519.0003051757812 L 1398.000366210938 515.9996948242188 L 1398.000366210938 512.9996948242188 L 1401.000366210938 512.9996948242188 L 1420.000244140625 512.9996948242188 L 1423.000244140625 512.9996948242188 L 1423.000244140625 515.9996948242188 L 1423.000244140625 519.0003051757812 L 1423.000244140625 522.0003051757812 L 1420.000244140625 522.0003051757812 L 1407 522.0003051757812 L 1407 552.9996337890625 L 1407 555.9996337890625 Z"/></g><g class="b" transform="translate(-904 6572)"><path class="d" d="M 1405.5 554.4996337890625 L 1404 554.4996337890625 L 1401.000366210938 554.4996337890625 L 1399.500366210938 554.4996337890625 L 1399.500366210938 552.9996337890625 L 1399.500366210938 520.5003051757812 L 1385.000122070312 520.5003051757812 L 1383.500122070312 520.5003051757812 L 1383.500122070312 519.0003051757812 L 1383.500122070312 515.9996948242188 L 1383.500122070312 514.4996948242188 L 1385.000122070312 514.4996948242188 L 1404 514.4996948242188 L 1405.5 514.4996948242188 L 1405.5 515.9996948242188 L 1405.5 518.0004272460938 L 1405.5 552.9996337890625 L 1405.5 554.4996337890625 Z"/><path class="e" d="M 1404 552.9996337890625 L 1404 518.0004272460938 L 1404 515.9996948242188 L 1385.000122070312 515.9996948242188 L 1385.000122070312 519.0003051757812 L 1401.000366210938 519.0003051757812 L 1401.000366210938 552.9996337890625 L 1404 552.9996337890625 M 1407 555.9996337890625 L 1404 555.9996337890625 L 1401.000366210938 555.9996337890625 L 1398.000366210938 555.9996337890625 L 1398.000366210938 552.9996337890625 L 1398.000366210938 522.0003051757812 L 1385.000122070312 522.0003051757812 L 1382.000122070312 522.0003051757812 L 1382.000122070312 519.0003051757812 L 1382.000122070312 515.9996948242188 L 1382.000122070312 512.9996948242188 L 1385.000122070312 512.9996948242188 L 1404 512.9996948242188 L 1407 512.9996948242188 L 1407 515.9996948242188 L 1407 518.0004272460938 L 1407 552.9996337890625 L 1407 555.9996337890625 Z"/></g><g class="c" transform="translate(500 7254) rotate(90)"><rect class="d" width="56" height="3"/><rect class="f" x="-1.5" y="-1.5" width="59" height="6"/></g><g class="c" transform="translate(437 7348) rotate(90)"><rect class="d" width="56" height="3"/><rect class="f" x="-1.5" y="-1.5" width="59" height="6"/></g><g class="b" transform="translate(-1126 6786)"><path class="d" d="M 1407.499877929688 573.5004272460938 L 1405.999877929688 573.5004272460938 L 1403.000122070312 573.5004272460938 L 1401.500122070312 573.5004272460938 L 1401.500122070312 572.0004272460938 L 1401.500122070312 541.5 L 1385.000122070312 541.5 L 1383.500122070312 541.5 L 1383.500122070312 540 L 1383.500122070312 537.0003051757812 L 1383.500122070312 535.5003051757812 L 1385.000122070312 535.5003051757812 L 1401.500122070312 535.5003051757812 L 1401.500122070312 515.9996948242188 L 1401.500122070312 514.4996948242188 L 1403.000122070312 514.4996948242188 L 1405.999877929688 514.4996948242188 L 1407.499877929688 514.4996948242188 L 1407.499877929688 515.9996948242188 L 1407.499877929688 535.5003051757812 L 1425.999633789062 535.5003051757812 L 1427.499633789062 535.5003051757812 L 1427.499633789062 537.0003051757812 L 1427.499633789062 540 L 1427.499633789062 541.5 L 1425.999633789062 541.5 L 1407.499877929688 541.5 L 1407.499877929688 572.0004272460938 L 1407.499877929688 573.5004272460938 Z"/><path class="e" d="M 1405.999877929688 572.0004272460938 L 1405.999877929688 540 L 1425.999633789062 540 L 1425.999633789062 537.0003051757812 L 1405.999877929688 537.0003051757812 L 1405.999877929688 515.9996948242188 L 1403.000122070312 515.9996948242188 L 1403.000122070312 537.0003051757812 L 1385.000122070312 537.0003051757812 L 1385.000122070312 540 L 1403.000122070312 540 L 1403.000122070312 572.0004272460938 L 1405.999877929688 572.0004272460938 M 1408.999877929688 575.0004272460938 L 1405.999877929688 575.0004272460938 L 1403.000122070312 575.0004272460938 L 1400.000122070312 575.0004272460938 L 1400.000122070312 572.0004272460938 L 1400.000122070312 543 L 1385.000122070312 543 L 1382.000122070312 543 L 1382.000122070312 540 L 1382.000122070312 537.0003051757812 L 1382.000122070312 534.0003051757812 L 1385.000122070312 534.0003051757812 L 1400.000122070312 534.0003051757812 L 1400.000122070312 515.9996948242188 L 1400.000122070312 512.9996948242188 L 1403.000122070312 512.9996948242188 L 1405.999877929688 512.9996948242188 L 1408.999877929688 512.9996948242188 L 1408.999877929688 515.9996948242188 L 1408.999877929688 534.0003051757812 L 1425.999633789062 534.0003051757812 L 1428.999633789062 534.0003051757812 L 1428.999633789062 537.0003051757812 L 1428.999633789062 540 L 1428.999633789062 543 L 1425.999633789062 543 L 1408.999877929688 543 L 1408.999877929688 572.0004272460938 L 1408.999877929688 575.0004272460938 Z"/></g><g class="b" transform="translate(-939 6526)"><path class="d" d="M 1408.499755859375 552.4998168945312 L 1406.999755859375 552.4998168945312 L 1404 552.4998168945312 L 1402.5 552.4998168945312 L 1402.5 550.9998168945312 L 1402.5 521.5001831054688 L 1385.000122070312 521.5001831054688 L 1383.500122070312 521.5001831054688 L 1383.500122070312 520.0001831054688 L 1383.500122070312 516.9996337890625 L 1383.500122070312 515.4996337890625 L 1385.000122070312 515.4996337890625 L 1404 515.4996337890625 L 1406.999755859375 515.4996337890625 L 1425.999633789062 515.4996337890625 L 1427.499633789062 515.4996337890625 L 1427.499633789062 516.9996337890625 L 1427.499633789062 520.0001831054688 L 1427.499633789062 521.5001831054688 L 1425.999633789062 521.5001831054688 L 1408.499755859375 521.5001831054688 L 1408.499755859375 550.9998168945312 L 1408.499755859375 552.4998168945312 Z"/><path class="e" d="M 1406.999755859375 550.9998168945312 L 1406.999755859375 520.0001831054688 L 1425.999633789062 520.0001831054688 L 1425.999633789062 516.9996337890625 L 1406.999755859375 516.9996337890625 L 1404 516.9996337890625 L 1385.000122070312 516.9996337890625 L 1385.000122070312 520.0001831054688 L 1404 520.0001831054688 L 1404 550.9998168945312 L 1406.999755859375 550.9998168945312 M 1409.999755859375 553.9998168945312 L 1406.999755859375 553.9998168945312 L 1404 553.9998168945312 L 1401 553.9998168945312 L 1401 550.9998168945312 L 1401 523.0001831054688 L 1385.000122070312 523.0001831054688 L 1382.000122070312 523.0001831054688 L 1382.000122070312 520.0001831054688 L 1382.000122070312 516.9996337890625 L 1382.000122070312 513.9996337890625 L 1385.000122070312 513.9996337890625 L 1404 513.9996337890625 L 1406.999755859375 513.9996337890625 L 1425.999633789062 513.9996337890625 L 1428.999633789062 513.9996337890625 L 1428.999633789062 516.9996337890625 L 1428.999633789062 520.0001831054688 L 1428.999633789062 523.0001831054688 L 1425.999633789062 523.0001831054688 L 1409.999755859375 523.0001831054688 L 1409.999755859375 550.9998168945312 L 1409.999755859375 553.9998168945312 Z"/></g><g class="b" transform="translate(-939 6691)"><path class="d" d="M 1408.499755859375 573.5004272460938 L 1406.999755859375 573.5004272460938 L 1404 573.5004272460938 L 1402.5 573.5004272460938 L 1402.5 572.0004272460938 L 1402.5 515.9996948242188 L 1402.5 514.4996948242188 L 1404 514.4996948242188 L 1406.999755859375 514.4996948242188 L 1408.499755859375 514.4996948242188 L 1408.499755859375 515.9996948242188 L 1408.499755859375 537.5001220703125 L 1424.999755859375 537.5001220703125 L 1426.499755859375 537.5001220703125 L 1426.499755859375 539.0001220703125 L 1426.499755859375 541.9998168945312 L 1426.499755859375 543.4998168945312 L 1424.999755859375 543.4998168945312 L 1408.499755859375 543.4998168945312 L 1408.499755859375 572.0004272460938 L 1408.499755859375 573.5004272460938 Z"/><path class="e" d="M 1406.999755859375 572.0004272460938 L 1406.999755859375 541.9998168945312 L 1424.999755859375 541.9998168945312 L 1424.999755859375 539.0001220703125 L 1406.999755859375 539.0001220703125 L 1406.999755859375 515.9996948242188 L 1404 515.9996948242188 L 1404 572.0004272460938 L 1406.999755859375 572.0004272460938 M 1409.999755859375 575.0004272460938 L 1406.999755859375 575.0004272460938 L 1404 575.0004272460938 L 1401 575.0004272460938 L 1401 572.0004272460938 L 1401 515.9996948242188 L 1401 512.9996948242188 L 1404 512.9996948242188 L 1406.999755859375 512.9996948242188 L 1409.999755859375 512.9996948242188 L 1409.999755859375 515.9996948242188 L 1409.999755859375 536.0001220703125 L 1424.999755859375 536.0001220703125 L 1427.999755859375 536.0001220703125 L 1427.999755859375 539.0001220703125 L 1427.999755859375 541.9998168945312 L 1427.999755859375 544.9998168945312 L 1424.999755859375 544.9998168945312 L 1409.999755859375 544.9998168945312 L 1409.999755859375 572.0004272460938 L 1409.999755859375 575.0004272460938 Z"/></g><g class="c" transform="translate(264 7184) rotate(180)"><rect class="d" width="35" height="3"/><rect class="f" x="-1.5" y="-1.5" width="38" height="6"/></g><g class="c" transform="translate(484 7325) rotate(180)"><rect class="d" width="35" height="3"/><rect class="f" x="-1.5" y="-1.5" width="38" height="6"/></g><g class="b" transform="translate(-1158 6727)"><path class="d" d="M 1423.5 551.4999389648438 L 1422 551.4999389648438 L 1406.000732421875 551.4999389648438 L 1385.000122070312 551.4999389648438 L 1383.500122070312 551.4999389648438 L 1383.500122070312 549.9999389648438 L 1383.500122070312 547.0001831054688 L 1383.500122070312 545.5001831054688 L 1385.000122070312 545.5001831054688 L 1386.999877929688 545.5001831054688 L 1401.500122070312 545.5001831054688 L 1401.500122070312 515.9996948242188 L 1401.500122070312 514.4996948242188 L 1403.000122070312 514.4996948242188 L 1406.000732421875 514.4996948242188 L 1407.500732421875 514.4996948242188 L 1407.500732421875 515.9996948242188 L 1407.500732421875 545.5001831054688 L 1422 545.5001831054688 L 1423.5 545.5001831054688 L 1423.5 547.0001831054688 L 1423.5 549.9999389648438 L 1423.5 551.4999389648438 Z"/><path class="e" d="M 1422 549.9999389648438 L 1422 547.0001831054688 L 1406.000732421875 547.0001831054688 L 1406.000732421875 515.9996948242188 L 1403.000122070312 515.9996948242188 L 1403.000122070312 547.0001831054688 L 1386.999877929688 547.0001831054688 L 1385.000122070312 547.0001831054688 L 1385.000122070312 549.9999389648438 L 1406.000732421875 549.9999389648438 L 1422 549.9999389648438 M 1425 552.9999389648438 L 1422 552.9999389648438 L 1406.000732421875 552.9999389648438 L 1385.000122070312 552.9999389648438 L 1382.000122070312 552.9999389648438 L 1382.000122070312 549.9999389648438 L 1382.000122070312 547.0001831054688 L 1382.000122070312 544.0001831054688 L 1385.000122070312 544.0001831054688 L 1386.999877929688 544.0001831054688 L 1400.000122070312 544.0001831054688 L 1400.000122070312 515.9996948242188 L 1400.000122070312 512.9996948242188 L 1403.000122070312 512.9996948242188 L 1406.000732421875 512.9996948242188 L 1409.000732421875 512.9996948242188 L 1409.000732421875 515.9996948242188 L 1409.000732421875 544.0001831054688 L 1422 544.0001831054688 L 1425 544.0001831054688 L 1425 547.0001831054688 L 1425 549.9999389648438 L 1425 552.9999389648438 Z"/></g><g class="c" transform="translate(298 7138) rotate(180)"><rect class="d" width="41" height="3"/><rect class="f" x="-1.5" y="-1.5" width="44" height="6"/></g><g class="c" transform="translate(424 7138) rotate(180)"><rect class="d" width="41" height="3"/><rect class="f" x="-1.5" y="-1.5" width="44" height="6"/></g><g class="c" transform="translate(487 7138) rotate(180)"><rect class="d" width="41" height="3"/><rect class="f" x="-1.5" y="-1.5" width="44" height="6"/></g><g class="c" transform="translate(392 7373) rotate(180)"><rect class="d" width="41" height="3"/><rect class="f" x="-1.5" y="-1.5" width="44" height="6"/></g><g class="c" transform="translate(519 7373) rotate(180)"><rect class="d" width="41" height="3"/><rect class="f" x="-1.5" y="-1.5" width="44" height="6"/></g><g class="c" transform="translate(551 7420) rotate(180)"><rect class="d" width="41" height="3"/><rect class="f" x="-1.5" y="-1.5" width="44" height="6"/></g><g class="c" transform="translate(644 7373) rotate(180)"><rect class="d" width="41" height="3"/><rect class="f" x="-1.5" y="-1.5" width="44" height="6"/></g><g class="c" transform="translate(612 7420) rotate(180)"><rect class="d" width="41" height="3"/><rect class="f" x="-1.5" y="-1.5" width="44" height="6"/></g><g class="c" transform="translate(705 7373) rotate(180)"><rect class="d" width="41" height="3"/><rect class="f" x="-1.5" y="-1.5" width="44" height="6"/></g><g class="c" transform="translate(676 7044) rotate(180)"><rect class="d" width="41" height="3"/><rect class="f" x="-1.5" y="-1.5" width="44" height="6"/></g><g class="c" transform="translate(834 7373) rotate(180)"><rect class="d" width="41" height="3"/><rect class="f" x="-1.5" y="-1.5" width="44" height="6"/></g><g class="c" transform="translate(834 7091) rotate(180)"><rect class="d" width="41" height="3"/><rect class="f" x="-1.5" y="-1.5" width="44" height="6"/></g><g class="c" transform="translate(708 7091) rotate(180)"><rect class="d" width="41" height="3"/><rect class="f" x="-1.5" y="-1.5" width="44" height="6"/></g><g class="c" transform="translate(960 7091) rotate(180)"><rect class="d" width="41" height="3"/><rect class="f" x="-1.5" y="-1.5" width="44" height="6"/></g><g class="c" transform="translate(1023 7091) rotate(180)"><rect class="d" width="41" height="3"/><rect class="f" x="-1.5" y="-1.5" width="44" height="6"/></g><g class="c" transform="translate(361 7326) rotate(180)"><rect class="d" width="41" height="3"/><rect class="f" x="-1.5" y="-1.5" width="44" height="6"/></g><g class="c" transform="translate(455 7091) rotate(180)"><rect class="d" width="41" height="3"/><rect class="f" x="-1.5" y="-1.5" width="44" height="6"/></g><g class="c" transform="translate(424 7046) rotate(180)"><rect class="d" width="41" height="3"/><rect class="f" x="-1.5" y="-1.5" width="44" height="6"/></g><g class="b" transform="translate(-1186 6621)"><path class="d" d="M 1403.500244140625 549.5001220703125 L 1402.000244140625 549.5001220703125 L 1398.999633789062 549.5001220703125 L 1397.499633789062 549.5001220703125 L 1397.499633789062 548.0001220703125 L 1397.499633789062 516.9996337890625 L 1397.499633789062 513.9999389648438 L 1397.499633789062 512.4999389648438 L 1398.999633789062 512.4999389648438 L 1420.000244140625 512.4999389648438 L 1421.500244140625 512.4999389648438 L 1421.500244140625 513.9999389648438 L 1421.500244140625 516.9996337890625 L 1421.500244140625 518.4996337890625 L 1420.000244140625 518.4996337890625 L 1403.500244140625 518.4996337890625 L 1403.500244140625 548.0001220703125 L 1403.500244140625 549.5001220703125 Z"/><path class="e" d="M 1402.000244140625 548.0001220703125 L 1402.000244140625 516.9996337890625 L 1398.999633789062 516.9996337890625 L 1398.999633789062 548.0001220703125 L 1402.000244140625 548.0001220703125 M 1420.000244140625 516.9996337890625 L 1420.000244140625 513.9999389648438 L 1398.999633789062 513.9999389648438 L 1398.999633789062 516.9996337890625 L 1402.000244140625 516.9996337890625 L 1420.000244140625 516.9996337890625 M 1405.000244140625 551.0001220703125 L 1402.000244140625 551.0001220703125 L 1398.999633789062 551.0001220703125 L 1395.999633789062 551.0001220703125 L 1395.999633789062 548.0001220703125 L 1395.999633789062 516.9996337890625 L 1395.999633789062 513.9996337890625 L 1395.999633789062 510.9999389648438 L 1398.999633789062 510.9999389648438 L 1420.000244140625 510.9999389648438 L 1423.000244140625 510.9999389648438 L 1423.000244140625 513.9999389648438 L 1423.000244140625 516.9996337890625 L 1423.000244140625 519.9996337890625 L 1420.000244140625 519.9996337890625 L 1405.000244140625 519.9996337890625 L 1405.000244140625 548.0001220703125 L 1405.000244140625 551.0001220703125 Z"/></g><g class="b" transform="translate(225 7204)"><path class="d" d="M 21.5 48.70919036865234 L 20.78092956542969 48.31641006469727 L -0.7190700173377991 36.57234954833984 L -1.5 36.14577865600586 L -1.5 35.25593948364258 L -1.5 11.74407005310059 L -1.5 10.85422992706299 L -0.7190700173377991 10.42765998840332 L 20.78092956542969 -1.316409945487976 L 21.5 -1.709190011024475 L 22.21907043457031 -1.316409945487976 L 43.71907043457031 10.42765998840332 L 44.5 10.85422992706299 L 44.5 11.74407005310059 L 44.5 35.25593948364258 L 44.5 36.14577865600586 L 43.71907043457031 36.57234954833984 L 22.21907043457031 48.31641006469727 L 21.5 48.70919036865234 Z M 24.12763023376465 25.01766395568848 L 24.12763023376465 41.4083137512207 L 39.24475860595703 33.13327789306641 L 39.24475860595703 16.74262809753418 L 24.12763023376465 25.01766395568848 Z M 3.755249977111816 33.13327789306641 L 18.87237930297852 41.4083137512207 L 18.87237930297852 25.01766395568848 L 3.755249977111816 16.74262809753418 L 3.755249977111816 33.13327789306641 Z M 6.506807804107666 12.36093044281006 L 21.5 20.568115234375 L 36.49319076538086 12.36093044281006 L 21.5 4.153745174407959 L 6.506807804107666 12.36093044281006 Z"/><path class="e" d="M 21.5 0 L 0 11.74406814575195 L 0 35.25593948364258 L 21.5 47 L 43 35.25593948364258 L 43 11.74406814575195 L 21.5 0 M 21.5 22.27813911437988 L 3.382869720458984 12.36093139648438 L 21.5 2.443710327148438 L 39.61713027954102 12.36093139648438 L 21.5 22.27813911437988 M 20.37237930297852 43.93943023681641 L 2.255241394042969 34.02220153808594 L 2.255241394042969 14.21150970458984 L 20.37237930297852 24.12873077392578 L 20.37237930297852 43.93943023681641 M 22.62763023376465 43.93943023681641 L 22.62763023376465 24.12873077392578 L 40.74475860595703 14.21150970458984 L 40.74475860595703 34.02220153808594 L 22.62763023376465 43.93943023681641 M 21.5 -3.418388366699219 L 22.93814086914062 -2.632820129394531 L 44.43814086914062 9.111251831054688 L 46 9.964389801025391 L 46 11.74406814575195 L 46 35.25593948364258 L 46 37.03562164306641 L 44.43814086914062 37.88875961303711 L 22.93814086914062 49.63282012939453 L 21.5 50.41838836669922 L 20.06185913085938 49.63282012939453 L -1.438140869140625 37.88875961303711 L -3 37.03562164306641 L -3 35.25593948364258 L -3 11.74406814575195 L -3 9.964389801025391 L -1.438140869140625 9.111251831054688 L 20.06185913085938 -2.632820129394531 L 21.5 -3.418388366699219 Z M 33.36924743652344 12.36092758178711 L 21.5 5.863765716552734 L 9.630752563476562 12.36092758178711 L 21.5 18.85808372497559 L 33.36924743652344 12.36092758178711 Z M 17.37237930297852 25.90660285949707 L 5.255241394042969 19.27374839782715 L 5.255241394042969 32.24432754516602 L 17.37237930297852 38.87718963623047 L 17.37237930297852 25.90660285949707 Z M 37.74475860595703 32.24432754516602 L 37.74475860595703 19.27375030517578 L 25.62763023376465 25.90660285949707 L 25.62763023376465 38.8771858215332 L 37.74475860595703 32.24432754516602 Z"/></g><g class="b" transform="translate(159 7204)"><path class="d" d="M 21.5 48.70919036865234 L 20.78092956542969 48.31641006469727 L -0.7190700173377991 36.57234954833984 L -1.5 36.14577865600586 L -1.5 35.25593948364258 L -1.5 11.74407005310059 L -1.5 10.85422992706299 L -0.7190700173377991 10.42765998840332 L 20.78092956542969 -1.316409945487976 L 21.5 -1.709190011024475 L 22.21907043457031 -1.316409945487976 L 43.71907043457031 10.42765998840332 L 44.5 10.85422992706299 L 44.5 11.74407005310059 L 44.5 35.25593948364258 L 44.5 36.14577865600586 L 43.71907043457031 36.57234954833984 L 22.21907043457031 48.31641006469727 L 21.5 48.70919036865234 Z M 24.12763023376465 25.01766395568848 L 24.12763023376465 41.4083137512207 L 39.24475860595703 33.13327789306641 L 39.24475860595703 16.74262809753418 L 24.12763023376465 25.01766395568848 Z M 3.755249977111816 33.13327789306641 L 18.87237930297852 41.4083137512207 L 18.87237930297852 25.01766395568848 L 3.755249977111816 16.74262809753418 L 3.755249977111816 33.13327789306641 Z M 6.506807804107666 12.36093044281006 L 21.5 20.568115234375 L 36.49319076538086 12.36093044281006 L 21.5 4.153745174407959 L 6.506807804107666 12.36093044281006 Z"/><path class="e" d="M 21.5 0 L 0 11.74406814575195 L 0 35.25593948364258 L 21.5 47 L 43 35.25593948364258 L 43 11.74406814575195 L 21.5 0 M 21.5 22.27813911437988 L 3.382869720458984 12.36093139648438 L 21.5 2.443710327148438 L 39.61713027954102 12.36093139648438 L 21.5 22.27813911437988 M 20.37237930297852 43.93943023681641 L 2.255241394042969 34.02220153808594 L 2.255241394042969 14.21150970458984 L 20.37237930297852 24.12873077392578 L 20.37237930297852 43.93943023681641 M 22.62763023376465 43.93943023681641 L 22.62763023376465 24.12873077392578 L 40.74475860595703 14.21150970458984 L 40.74475860595703 34.02220153808594 L 22.62763023376465 43.93943023681641 M 21.5 -3.418388366699219 L 22.93814086914062 -2.632820129394531 L 44.43814086914062 9.111251831054688 L 46 9.964389801025391 L 46 11.74406814575195 L 46 35.25593948364258 L 46 37.03562164306641 L 44.43814086914062 37.88875961303711 L 22.93814086914062 49.63282012939453 L 21.5 50.41838836669922 L 20.06185913085938 49.63282012939453 L -1.438140869140625 37.88875961303711 L -3 37.03562164306641 L -3 35.25593948364258 L -3 11.74406814575195 L -3 9.964389801025391 L -1.438140869140625 9.111251831054688 L 20.06185913085938 -2.632820129394531 L 21.5 -3.418388366699219 Z M 33.36924743652344 12.36092758178711 L 21.5 5.863765716552734 L 9.630752563476562 12.36092758178711 L 21.5 18.85808372497559 L 33.36924743652344 12.36092758178711 Z M 17.37237930297852 25.90660285949707 L 5.255241394042969 19.27374839782715 L 5.255241394042969 32.24432754516602 L 17.37237930297852 38.87718963623047 L 17.37237930297852 25.90660285949707 Z M 37.74475860595703 32.24432754516602 L 37.74475860595703 19.27375030517578 L 25.62763023376465 25.90660285949707 L 25.62763023376465 38.8771858215332 L 37.74475860595703 32.24432754516602 Z"/></g><g class="b" transform="translate(1678 7745) rotate(180)"><path class="d" d="M 1403.500244140625 538.5003051757812 L 1402.000244140625 538.5003051757812 L 1398.999633789062 538.5003051757812 L 1397.499633789062 538.5003051757812 L 1397.499633789062 537.0003051757812 L 1397.499633789062 518.4996337890625 L 1353.999633789062 518.4996337890625 L 1352.499633789062 518.4996337890625 L 1352.499633789062 516.9996337890625 L 1352.499633789062 513.9999389648438 L 1352.499633789062 512.4999389648438 L 1353.999633789062 512.4999389648438 L 1420.000244140625 512.4999389648438 L 1421.500244140625 512.4999389648438 L 1421.500244140625 513.9999389648438 L 1421.500244140625 516.9996337890625 L 1421.500244140625 518.4996337890625 L 1420.000244140625 518.4996337890625 L 1403.500244140625 518.4996337890625 L 1403.500244140625 537.0003051757812 L 1403.500244140625 538.5003051757812 Z"/><path class="e" d="M 1402.000244140625 537.0003051757812 L 1402.000244140625 516.9996337890625 L 1398.999633789062 516.9996337890625 L 1398.999633789062 537.0003051757812 L 1402.000244140625 537.0003051757812 M 1420.000244140625 516.9996337890625 L 1420.000244140625 513.9999389648438 L 1353.999633789062 513.9999389648438 L 1353.999633789062 516.9996337890625 L 1398.999633789062 516.9996337890625 L 1402.000244140625 516.9996337890625 L 1420.000244140625 516.9996337890625 M 1405.000244140625 540.0003051757812 L 1402.000244140625 540.0003051757812 L 1398.999633789062 540.0003051757812 L 1395.999633789062 540.0003051757812 L 1395.999633789062 537.0003051757812 L 1395.999633789062 519.9996337890625 L 1353.999633789062 519.9996337890625 L 1350.999633789062 519.9996337890625 L 1350.999633789062 516.9996337890625 L 1350.999633789062 513.9999389648438 L 1350.999633789062 510.9999389648438 L 1353.999633789062 510.9999389648438 L 1420.000244140625 510.9999389648438 L 1423.000244140625 510.9999389648438 L 1423.000244140625 513.9999389648438 L 1423.000244140625 516.9996337890625 L 1423.000244140625 519.9996337890625 L 1420.000244140625 519.9996337890625 L 1405.000244140625 519.9996337890625 L 1405.000244140625 537.0003051757812 L 1405.000244140625 540.0003051757812 Z"/></g><g class="b" transform="translate(1710 7887) rotate(180)"><path class="d" d="M 1403.500244140625 538.5003051757812 L 1402.000244140625 538.5003051757812 L 1398.999633789062 538.5003051757812 L 1397.499633789062 538.5003051757812 L 1397.499633789062 537.0003051757812 L 1397.499633789062 516.9996337890625 L 1397.499633789062 513.9999389648438 L 1397.499633789062 512.4999389648438 L 1398.999633789062 512.4999389648438 L 1420.000244140625 512.4999389648438 L 1421.500244140625 512.4999389648438 L 1421.500244140625 513.9999389648438 L 1421.500244140625 516.9996337890625 L 1421.500244140625 518.4996337890625 L 1420.000244140625 518.4996337890625 L 1403.500244140625 518.4996337890625 L 1403.500244140625 537.0003051757812 L 1403.500244140625 538.5003051757812 Z"/><path class="e" d="M 1402.000244140625 537.0003051757812 L 1402.000244140625 516.9996337890625 L 1398.999633789062 516.9996337890625 L 1398.999633789062 537.0003051757812 L 1402.000244140625 537.0003051757812 M 1420.000244140625 516.9996337890625 L 1420.000244140625 513.9999389648438 L 1398.999633789062 513.9999389648438 L 1398.999633789062 516.9996337890625 L 1402.000244140625 516.9996337890625 L 1420.000244140625 516.9996337890625 M 1405.000244140625 540.0003051757812 L 1402.000244140625 540.0003051757812 L 1398.999633789062 540.0003051757812 L 1395.999633789062 540.0003051757812 L 1395.999633789062 537.0003051757812 L 1395.999633789062 516.9996337890625 L 1395.999633789062 513.9996337890625 L 1395.999633789062 510.9999389648438 L 1398.999633789062 510.9999389648438 L 1420.000244140625 510.9999389648438 L 1423.000244140625 510.9999389648438 L 1423.000244140625 513.9999389648438 L 1423.000244140625 516.9996337890625 L 1423.000244140625 519.9996337890625 L 1420.000244140625 519.9996337890625 L 1405.000244140625 519.9996337890625 L 1405.000244140625 537.0003051757812 L 1405.000244140625 540.0003051757812 Z"/></g><g class="b" transform="translate(1899 7700) rotate(180)"><path class="d" d="M 1403.500244140625 538.5003051757812 L 1402.000244140625 538.5003051757812 L 1398.999633789062 538.5003051757812 L 1397.499633789062 538.5003051757812 L 1397.499633789062 537.0003051757812 L 1397.499633789062 518.0004272460938 L 1397.499633789062 514.9998168945312 L 1397.499633789062 513.4998168945312 L 1398.999633789062 513.4998168945312 L 1420.000244140625 513.4998168945312 L 1421.500244140625 513.4998168945312 L 1421.500244140625 514.9998168945312 L 1421.500244140625 518.0004272460938 L 1421.500244140625 519.5004272460938 L 1420.000244140625 519.5004272460938 L 1403.500244140625 519.5004272460938 L 1403.500244140625 537.0003051757812 L 1403.500244140625 538.5003051757812 Z"/><path class="e" d="M 1402.000244140625 537.0003051757812 L 1402.000244140625 518.0004272460938 L 1420.000244140625 518.0004272460938 L 1420.000244140625 514.9998168945312 L 1398.999633789062 514.9998168945312 L 1398.999633789062 518.0004272460938 L 1398.999633789062 537.0003051757812 L 1402.000244140625 537.0003051757812 M 1405.000244140625 540.0003051757812 L 1402.000244140625 540.0003051757812 L 1398.999633789062 540.0003051757812 L 1395.999633789062 540.0003051757812 L 1395.999633789062 537.0003051757812 L 1395.999633789062 518.0004272460938 L 1395.999633789062 514.9998168945312 L 1395.999633789062 511.9998168945312 L 1398.999633789062 511.9998168945312 L 1420.000244140625 511.9998168945312 L 1423.000244140625 511.9998168945312 L 1423.000244140625 514.9998168945312 L 1423.000244140625 518.0004272460938 L 1423.000244140625 521.0004272460938 L 1420.000244140625 521.0004272460938 L 1405.000244140625 521.0004272460938 L 1405.000244140625 537.0003051757812 L 1405.000244140625 540.0003051757812 Z"/></g><g class="b" transform="translate(1867 7935) rotate(180)"><path class="d" d="M 1403.500244140625 538.5003051757812 L 1402.000244140625 538.5003051757812 L 1398.999633789062 538.5003051757812 L 1397.499633789062 538.5003051757812 L 1397.499633789062 537.0003051757812 L 1397.499633789062 519.5004272460938 L 1380.999633789062 519.5004272460938 L 1379.499633789062 519.5004272460938 L 1379.499633789062 518.0004272460938 L 1379.499633789062 514.9998168945312 L 1379.499633789062 513.4998168945312 L 1380.999633789062 513.4998168945312 L 1402.000244140625 513.4998168945312 L 1403.500244140625 513.4998168945312 L 1403.500244140625 514.9998168945312 L 1403.500244140625 516.9996337890625 L 1403.500244140625 537.0003051757812 L 1403.500244140625 538.5003051757812 Z"/><path class="e" d="M 1402.000244140625 537.0003051757812 L 1402.000244140625 516.9996337890625 L 1402.000244140625 514.9998168945312 L 1380.999633789062 514.9998168945312 L 1380.999633789062 518.0004272460938 L 1398.999633789062 518.0004272460938 L 1398.999633789062 537.0003051757812 L 1402.000244140625 537.0003051757812 M 1405.000244140625 540.0003051757812 L 1402.000244140625 540.0003051757812 L 1398.999633789062 540.0003051757812 L 1395.999633789062 540.0003051757812 L 1395.999633789062 537.0003051757812 L 1395.999633789062 521.0004272460938 L 1380.999633789062 521.0004272460938 L 1377.999633789062 521.0004272460938 L 1377.999633789062 518.0004272460938 L 1377.999633789062 514.9998168945312 L 1377.999633789062 511.9998168945312 L 1380.999633789062 511.9998168945312 L 1402.000244140625 511.9998168945312 L 1405.000244140625 511.9998168945312 L 1405.000244140625 514.9998168945312 L 1405.000244140625 516.9996337890625 L 1405.000244140625 537.0003051757812 L 1405.000244140625 540.0003051757812 Z"/></g><g class="b" transform="translate(2182 7935) rotate(180)"><path class="d" d="M 1403.500244140625 538.5003051757812 L 1402.000244140625 538.5003051757812 L 1398.999633789062 538.5003051757812 L 1397.499633789062 538.5003051757812 L 1397.499633789062 537.0003051757812 L 1397.499633789062 519.5004272460938 L 1380.999633789062 519.5004272460938 L 1379.499633789062 519.5004272460938 L 1379.499633789062 518.0004272460938 L 1379.499633789062 514.9998168945312 L 1379.499633789062 513.4998168945312 L 1380.999633789062 513.4998168945312 L 1402.000244140625 513.4998168945312 L 1403.500244140625 513.4998168945312 L 1403.500244140625 514.9998168945312 L 1403.500244140625 516.9996337890625 L 1403.500244140625 537.0003051757812 L 1403.500244140625 538.5003051757812 Z"/><path class="e" d="M 1402.000244140625 537.0003051757812 L 1402.000244140625 516.9996337890625 L 1402.000244140625 514.9998168945312 L 1380.999633789062 514.9998168945312 L 1380.999633789062 518.0004272460938 L 1398.999633789062 518.0004272460938 L 1398.999633789062 537.0003051757812 L 1402.000244140625 537.0003051757812 M 1405.000244140625 540.0003051757812 L 1402.000244140625 540.0003051757812 L 1398.999633789062 540.0003051757812 L 1395.999633789062 540.0003051757812 L 1395.999633789062 537.0003051757812 L 1395.999633789062 521.0004272460938 L 1380.999633789062 521.0004272460938 L 1377.999633789062 521.0004272460938 L 1377.999633789062 518.0004272460938 L 1377.999633789062 514.9998168945312 L 1377.999633789062 511.9998168945312 L 1380.999633789062 511.9998168945312 L 1402.000244140625 511.9998168945312 L 1405.000244140625 511.9998168945312 L 1405.000244140625 514.9998168945312 L 1405.000244140625 516.9996337890625 L 1405.000244140625 537.0003051757812 L 1405.000244140625 540.0003051757812 Z"/></g><g class="b" transform="translate(-560 6882)"><path class="d" d="M 1425.500732421875 539.5010986328125 L 1424.000732421875 539.5010986328125 L 1406.000732421875 539.5010986328125 L 1385.000122070312 539.5010986328125 L 1383.500122070312 539.5010986328125 L 1383.500122070312 538.0010986328125 L 1383.500122070312 534.9996337890625 L 1383.500122070312 533.4996337890625 L 1385.000122070312 533.4996337890625 L 1401.500122070312 533.4996337890625 L 1401.500122070312 516.0006103515625 L 1401.500122070312 514.5006103515625 L 1403.000122070312 514.5006103515625 L 1406.000732421875 514.5006103515625 L 1407.500732421875 514.5006103515625 L 1407.500732421875 516.0006103515625 L 1407.500732421875 533.4996337890625 L 1424.000732421875 533.4996337890625 L 1425.500732421875 533.4996337890625 L 1425.500732421875 534.9996337890625 L 1425.500732421875 538.0010986328125 L 1425.500732421875 539.5010986328125 Z"/><path class="e" d="M 1424.000732421875 538.0010986328125 L 1424.000732421875 534.9996337890625 L 1406.000732421875 534.9996337890625 L 1406.000732421875 516.0006103515625 L 1403.000122070312 516.0006103515625 L 1403.000122070312 534.9996337890625 L 1385.000122070312 534.9996337890625 L 1385.000122070312 538.0010986328125 L 1406.000732421875 538.0010986328125 L 1424.000732421875 538.0010986328125 M 1427.000732421875 541.0010986328125 L 1424.000732421875 541.0010986328125 L 1406.000732421875 541.0010986328125 L 1385.000122070312 541.0010986328125 L 1382.000122070312 541.0010986328125 L 1382.000122070312 538.0010986328125 L 1382.000122070312 534.9996337890625 L 1382.000122070312 531.9996337890625 L 1385.000122070312 531.9996337890625 L 1400.000122070312 531.9996337890625 L 1400.000122070312 516.0006103515625 L 1400.000122070312 513.0006103515625 L 1403.000122070312 513.0006103515625 L 1406.000732421875 513.0006103515625 L 1409.000732421875 513.0006103515625 L 1409.000732421875 516.0006103515625 L 1409.000732421875 531.9996337890625 L 1424.000732421875 531.9996337890625 L 1427.000732421875 531.9996337890625 L 1427.000732421875 534.9996337890625 L 1427.000732421875 538.0010986328125 L 1427.000732421875 541.0010986328125 Z"/></g><g class="b" transform="translate(-843 6553)"><path class="d" d="M 1425.500732421875 539.5010986328125 L 1424.000732421875 539.5010986328125 L 1406.000732421875 539.5010986328125 L 1385.000122070312 539.5010986328125 L 1383.500122070312 539.5010986328125 L 1383.500122070312 538.0010986328125 L 1383.500122070312 534.9996337890625 L 1383.500122070312 533.4996337890625 L 1385.000122070312 533.4996337890625 L 1401.500122070312 533.4996337890625 L 1401.500122070312 516.0006103515625 L 1401.500122070312 514.5006103515625 L 1403.000122070312 514.5006103515625 L 1406.000732421875 514.5006103515625 L 1407.500732421875 514.5006103515625 L 1407.500732421875 516.0006103515625 L 1407.500732421875 533.4996337890625 L 1424.000732421875 533.4996337890625 L 1425.500732421875 533.4996337890625 L 1425.500732421875 534.9996337890625 L 1425.500732421875 538.0010986328125 L 1425.500732421875 539.5010986328125 Z"/><path class="e" d="M 1424.000732421875 538.0010986328125 L 1424.000732421875 534.9996337890625 L 1406.000732421875 534.9996337890625 L 1406.000732421875 516.0006103515625 L 1403.000122070312 516.0006103515625 L 1403.000122070312 534.9996337890625 L 1385.000122070312 534.9996337890625 L 1385.000122070312 538.0010986328125 L 1406.000732421875 538.0010986328125 L 1424.000732421875 538.0010986328125 M 1427.000732421875 541.0010986328125 L 1424.000732421875 541.0010986328125 L 1406.000732421875 541.0010986328125 L 1385.000122070312 541.0010986328125 L 1382.000122070312 541.0010986328125 L 1382.000122070312 538.0010986328125 L 1382.000122070312 534.9996337890625 L 1382.000122070312 531.9996337890625 L 1385.000122070312 531.9996337890625 L 1400.000122070312 531.9996337890625 L 1400.000122070312 516.0006103515625 L 1400.000122070312 513.0006103515625 L 1403.000122070312 513.0006103515625 L 1406.000732421875 513.0006103515625 L 1409.000732421875 513.0006103515625 L 1409.000732421875 516.0006103515625 L 1409.000732421875 531.9996337890625 L 1424.000732421875 531.9996337890625 L 1427.000732421875 531.9996337890625 L 1427.000732421875 534.9996337890625 L 1427.000732421875 538.0010986328125 L 1427.000732421875 541.0010986328125 Z"/></g><g class="b" transform="translate(-654 6553)"><path class="d" d="M 1425.500732421875 539.5010986328125 L 1424.000732421875 539.5010986328125 L 1406.000732421875 539.5010986328125 L 1385.000122070312 539.5010986328125 L 1383.500122070312 539.5010986328125 L 1383.500122070312 538.0010986328125 L 1383.500122070312 534.9996337890625 L 1383.500122070312 533.4996337890625 L 1385.000122070312 533.4996337890625 L 1401.500122070312 533.4996337890625 L 1401.500122070312 516.0006103515625 L 1401.500122070312 514.5006103515625 L 1403.000122070312 514.5006103515625 L 1406.000732421875 514.5006103515625 L 1407.500732421875 514.5006103515625 L 1407.500732421875 516.0006103515625 L 1407.500732421875 533.4996337890625 L 1424.000732421875 533.4996337890625 L 1425.500732421875 533.4996337890625 L 1425.500732421875 534.9996337890625 L 1425.500732421875 538.0010986328125 L 1425.500732421875 539.5010986328125 Z"/><path class="e" d="M 1424.000732421875 538.0010986328125 L 1424.000732421875 534.9996337890625 L 1406.000732421875 534.9996337890625 L 1406.000732421875 516.0006103515625 L 1403.000122070312 516.0006103515625 L 1403.000122070312 534.9996337890625 L 1385.000122070312 534.9996337890625 L 1385.000122070312 538.0010986328125 L 1406.000732421875 538.0010986328125 L 1424.000732421875 538.0010986328125 M 1427.000732421875 541.0010986328125 L 1424.000732421875 541.0010986328125 L 1406.000732421875 541.0010986328125 L 1385.000122070312 541.0010986328125 L 1382.000122070312 541.0010986328125 L 1382.000122070312 538.0010986328125 L 1382.000122070312 534.9996337890625 L 1382.000122070312 531.9996337890625 L 1385.000122070312 531.9996337890625 L 1400.000122070312 531.9996337890625 L 1400.000122070312 516.0006103515625 L 1400.000122070312 513.0006103515625 L 1403.000122070312 513.0006103515625 L 1406.000732421875 513.0006103515625 L 1409.000732421875 513.0006103515625 L 1409.000732421875 516.0006103515625 L 1409.000732421875 531.9996337890625 L 1424.000732421875 531.9996337890625 L 1427.000732421875 531.9996337890625 L 1427.000732421875 534.9996337890625 L 1427.000732421875 538.0010986328125 L 1427.000732421875 541.0010986328125 Z"/></g><g class="b" transform="translate(-1064 6882)"><path class="d" d="M 1425.500732421875 539.5010986328125 L 1424.000732421875 539.5010986328125 L 1406.000732421875 539.5010986328125 L 1385.000122070312 539.5010986328125 L 1383.500122070312 539.5010986328125 L 1383.500122070312 538.0010986328125 L 1383.500122070312 534.9996337890625 L 1383.500122070312 533.4996337890625 L 1385.000122070312 533.4996337890625 L 1401.500122070312 533.4996337890625 L 1401.500122070312 516.0006103515625 L 1401.500122070312 514.5006103515625 L 1403.000122070312 514.5006103515625 L 1406.000732421875 514.5006103515625 L 1407.500732421875 514.5006103515625 L 1407.500732421875 516.0006103515625 L 1407.500732421875 533.4996337890625 L 1424.000732421875 533.4996337890625 L 1425.500732421875 533.4996337890625 L 1425.500732421875 534.9996337890625 L 1425.500732421875 538.0010986328125 L 1425.500732421875 539.5010986328125 Z"/><path class="e" d="M 1424.000732421875 538.0010986328125 L 1424.000732421875 534.9996337890625 L 1406.000732421875 534.9996337890625 L 1406.000732421875 516.0006103515625 L 1403.000122070312 516.0006103515625 L 1403.000122070312 534.9996337890625 L 1385.000122070312 534.9996337890625 L 1385.000122070312 538.0010986328125 L 1406.000732421875 538.0010986328125 L 1424.000732421875 538.0010986328125 M 1427.000732421875 541.0010986328125 L 1424.000732421875 541.0010986328125 L 1406.000732421875 541.0010986328125 L 1385.000122070312 541.0010986328125 L 1382.000122070312 541.0010986328125 L 1382.000122070312 538.0010986328125 L 1382.000122070312 534.9996337890625 L 1382.000122070312 531.9996337890625 L 1385.000122070312 531.9996337890625 L 1400.000122070312 531.9996337890625 L 1400.000122070312 516.0006103515625 L 1400.000122070312 513.0006103515625 L 1403.000122070312 513.0006103515625 L 1406.000732421875 513.0006103515625 L 1409.000732421875 513.0006103515625 L 1409.000732421875 516.0006103515625 L 1409.000732421875 531.9996337890625 L 1424.000732421875 531.9996337890625 L 1427.000732421875 531.9996337890625 L 1427.000732421875 534.9996337890625 L 1427.000732421875 538.0010986328125 L 1427.000732421875 541.0010986328125 Z"/></g><g class="b" transform="translate(-497 6882)"><path class="d" d="M 1425.500732421875 539.5010986328125 L 1424.000732421875 539.5010986328125 L 1406.000732421875 539.5010986328125 L 1385.000122070312 539.5010986328125 L 1383.500122070312 539.5010986328125 L 1383.500122070312 538.0010986328125 L 1383.500122070312 534.9996337890625 L 1383.500122070312 533.4996337890625 L 1385.000122070312 533.4996337890625 L 1401.500122070312 533.4996337890625 L 1401.500122070312 516.0006103515625 L 1401.500122070312 514.5006103515625 L 1403.000122070312 514.5006103515625 L 1406.000732421875 514.5006103515625 L 1407.500732421875 514.5006103515625 L 1407.500732421875 516.0006103515625 L 1407.500732421875 533.4996337890625 L 1424.000732421875 533.4996337890625 L 1425.500732421875 533.4996337890625 L 1425.500732421875 534.9996337890625 L 1425.500732421875 538.0010986328125 L 1425.500732421875 539.5010986328125 Z"/><path class="e" d="M 1424.000732421875 538.0010986328125 L 1424.000732421875 534.9996337890625 L 1406.000732421875 534.9996337890625 L 1406.000732421875 516.0006103515625 L 1403.000122070312 516.0006103515625 L 1403.000122070312 534.9996337890625 L 1385.000122070312 534.9996337890625 L 1385.000122070312 538.0010986328125 L 1406.000732421875 538.0010986328125 L 1424.000732421875 538.0010986328125 M 1427.000732421875 541.0010986328125 L 1424.000732421875 541.0010986328125 L 1406.000732421875 541.0010986328125 L 1385.000122070312 541.0010986328125 L 1382.000122070312 541.0010986328125 L 1382.000122070312 538.0010986328125 L 1382.000122070312 534.9996337890625 L 1382.000122070312 531.9996337890625 L 1385.000122070312 531.9996337890625 L 1400.000122070312 531.9996337890625 L 1400.000122070312 516.0006103515625 L 1400.000122070312 513.0006103515625 L 1403.000122070312 513.0006103515625 L 1406.000732421875 513.0006103515625 L 1409.000732421875 513.0006103515625 L 1409.000732421875 516.0006103515625 L 1409.000732421875 531.9996337890625 L 1424.000732421875 531.9996337890625 L 1427.000732421875 531.9996337890625 L 1427.000732421875 534.9996337890625 L 1427.000732421875 538.0010986328125 L 1427.000732421875 541.0010986328125 Z"/></g><g class="b" transform="translate(-528 6553)"><path class="d" d="M 1425.500732421875 539.5010986328125 L 1424.000732421875 539.5010986328125 L 1406.000732421875 539.5010986328125 L 1385.000122070312 539.5010986328125 L 1383.500122070312 539.5010986328125 L 1383.500122070312 538.0010986328125 L 1383.500122070312 534.9996337890625 L 1383.500122070312 533.4996337890625 L 1385.000122070312 533.4996337890625 L 1401.500122070312 533.4996337890625 L 1401.500122070312 516.0006103515625 L 1401.500122070312 514.5006103515625 L 1403.000122070312 514.5006103515625 L 1406.000732421875 514.5006103515625 L 1407.500732421875 514.5006103515625 L 1407.500732421875 516.0006103515625 L 1407.500732421875 533.4996337890625 L 1424.000732421875 533.4996337890625 L 1425.500732421875 533.4996337890625 L 1425.500732421875 534.9996337890625 L 1425.500732421875 538.0010986328125 L 1425.500732421875 539.5010986328125 Z"/><path class="e" d="M 1424.000732421875 538.0010986328125 L 1424.000732421875 534.9996337890625 L 1406.000732421875 534.9996337890625 L 1406.000732421875 516.0006103515625 L 1403.000122070312 516.0006103515625 L 1403.000122070312 534.9996337890625 L 1385.000122070312 534.9996337890625 L 1385.000122070312 538.0010986328125 L 1406.000732421875 538.0010986328125 L 1424.000732421875 538.0010986328125 M 1427.000732421875 541.0010986328125 L 1424.000732421875 541.0010986328125 L 1406.000732421875 541.0010986328125 L 1385.000122070312 541.0010986328125 L 1382.000122070312 541.0010986328125 L 1382.000122070312 538.0010986328125 L 1382.000122070312 534.9996337890625 L 1382.000122070312 531.9996337890625 L 1385.000122070312 531.9996337890625 L 1400.000122070312 531.9996337890625 L 1400.000122070312 516.0006103515625 L 1400.000122070312 513.0006103515625 L 1403.000122070312 513.0006103515625 L 1406.000732421875 513.0006103515625 L 1409.000732421875 513.0006103515625 L 1409.000732421875 516.0006103515625 L 1409.000732421875 531.9996337890625 L 1424.000732421875 531.9996337890625 L 1427.000732421875 531.9996337890625 L 1427.000732421875 534.9996337890625 L 1427.000732421875 538.0010986328125 L 1427.000732421875 541.0010986328125 Z"/></g><g class="b" transform="translate(1804 7935) rotate(180)"><path class="d" d="M 1403.500244140625 538.5003051757812 L 1402.000244140625 538.5003051757812 L 1398.999633789062 538.5003051757812 L 1397.499633789062 538.5003051757812 L 1397.499633789062 537.0003051757812 L 1397.499633789062 518.0004272460938 L 1397.499633789062 514.9998168945312 L 1397.499633789062 513.4998168945312 L 1398.999633789062 513.4998168945312 L 1420.000244140625 513.4998168945312 L 1421.500244140625 513.4998168945312 L 1421.500244140625 514.9998168945312 L 1421.500244140625 518.0004272460938 L 1421.500244140625 519.5004272460938 L 1420.000244140625 519.5004272460938 L 1403.500244140625 519.5004272460938 L 1403.500244140625 537.0003051757812 L 1403.500244140625 538.5003051757812 Z"/><path class="e" d="M 1402.000244140625 537.0003051757812 L 1402.000244140625 518.0004272460938 L 1420.000244140625 518.0004272460938 L 1420.000244140625 514.9998168945312 L 1398.999633789062 514.9998168945312 L 1398.999633789062 518.0004272460938 L 1398.999633789062 537.0003051757812 L 1402.000244140625 537.0003051757812 M 1405.000244140625 540.0003051757812 L 1402.000244140625 540.0003051757812 L 1398.999633789062 540.0003051757812 L 1395.999633789062 540.0003051757812 L 1395.999633789062 537.0003051757812 L 1395.999633789062 518.0004272460938 L 1395.999633789062 514.9998168945312 L 1395.999633789062 511.9998168945312 L 1398.999633789062 511.9998168945312 L 1420.000244140625 511.9998168945312 L 1423.000244140625 511.9998168945312 L 1423.000244140625 514.9998168945312 L 1423.000244140625 518.0004272460938 L 1423.000244140625 521.0004272460938 L 1420.000244140625 521.0004272460938 L 1405.000244140625 521.0004272460938 L 1405.000244140625 537.0003051757812 L 1405.000244140625 540.0003051757812 Z"/></g><g class="b" transform="translate(2056 7934) rotate(180)"><path class="d" d="M 1403.500244140625 538.5003051757812 L 1402.000244140625 538.5003051757812 L 1398.999633789062 538.5003051757812 L 1397.499633789062 538.5003051757812 L 1397.499633789062 537.0003051757812 L 1397.499633789062 518.0004272460938 L 1397.499633789062 514.9998168945312 L 1397.499633789062 513.4998168945312 L 1398.999633789062 513.4998168945312 L 1420.000244140625 513.4998168945312 L 1421.500244140625 513.4998168945312 L 1421.500244140625 514.9998168945312 L 1421.500244140625 518.0004272460938 L 1421.500244140625 519.5004272460938 L 1420.000244140625 519.5004272460938 L 1403.500244140625 519.5004272460938 L 1403.500244140625 537.0003051757812 L 1403.500244140625 538.5003051757812 Z"/><path class="e" d="M 1402.000244140625 537.0003051757812 L 1402.000244140625 518.0004272460938 L 1420.000244140625 518.0004272460938 L 1420.000244140625 514.9998168945312 L 1398.999633789062 514.9998168945312 L 1398.999633789062 518.0004272460938 L 1398.999633789062 537.0003051757812 L 1402.000244140625 537.0003051757812 M 1405.000244140625 540.0003051757812 L 1402.000244140625 540.0003051757812 L 1398.999633789062 540.0003051757812 L 1395.999633789062 540.0003051757812 L 1395.999633789062 537.0003051757812 L 1395.999633789062 518.0004272460938 L 1395.999633789062 514.9998168945312 L 1395.999633789062 511.9998168945312 L 1398.999633789062 511.9998168945312 L 1420.000244140625 511.9998168945312 L 1423.000244140625 511.9998168945312 L 1423.000244140625 514.9998168945312 L 1423.000244140625 518.0004272460938 L 1423.000244140625 521.0004272460938 L 1420.000244140625 521.0004272460938 L 1405.000244140625 521.0004272460938 L 1405.000244140625 537.0003051757812 L 1405.000244140625 540.0003051757812 Z"/></g><g class="b" transform="translate(2119 7934) rotate(180)"><path class="d" d="M 1403.500244140625 538.5003051757812 L 1402.000244140625 538.5003051757812 L 1398.999633789062 538.5003051757812 L 1397.499633789062 538.5003051757812 L 1397.499633789062 537.0003051757812 L 1397.499633789062 518.0004272460938 L 1397.499633789062 514.9998168945312 L 1397.499633789062 513.4998168945312 L 1398.999633789062 513.4998168945312 L 1420.000244140625 513.4998168945312 L 1421.500244140625 513.4998168945312 L 1421.500244140625 514.9998168945312 L 1421.500244140625 518.0004272460938 L 1421.500244140625 519.5004272460938 L 1420.000244140625 519.5004272460938 L 1403.500244140625 519.5004272460938 L 1403.500244140625 537.0003051757812 L 1403.500244140625 538.5003051757812 Z"/><path class="e" d="M 1402.000244140625 537.0003051757812 L 1402.000244140625 518.0004272460938 L 1420.000244140625 518.0004272460938 L 1420.000244140625 514.9998168945312 L 1398.999633789062 514.9998168945312 L 1398.999633789062 518.0004272460938 L 1398.999633789062 537.0003051757812 L 1402.000244140625 537.0003051757812 M 1405.000244140625 540.0003051757812 L 1402.000244140625 540.0003051757812 L 1398.999633789062 540.0003051757812 L 1395.999633789062 540.0003051757812 L 1395.999633789062 537.0003051757812 L 1395.999633789062 518.0004272460938 L 1395.999633789062 514.9998168945312 L 1395.999633789062 511.9998168945312 L 1398.999633789062 511.9998168945312 L 1420.000244140625 511.9998168945312 L 1423.000244140625 511.9998168945312 L 1423.000244140625 514.9998168945312 L 1423.000244140625 518.0004272460938 L 1423.000244140625 521.0004272460938 L 1420.000244140625 521.0004272460938 L 1405.000244140625 521.0004272460938 L 1405.000244140625 537.0003051757812 L 1405.000244140625 540.0003051757812 Z"/></g><g class="b" transform="translate(2025 7606) rotate(180)"><path class="d" d="M 1403.500244140625 538.5003051757812 L 1402.000244140625 538.5003051757812 L 1398.999633789062 538.5003051757812 L 1397.499633789062 538.5003051757812 L 1397.499633789062 537.0003051757812 L 1397.499633789062 518.0004272460938 L 1397.499633789062 514.9998168945312 L 1397.499633789062 513.4998168945312 L 1398.999633789062 513.4998168945312 L 1420.000244140625 513.4998168945312 L 1421.500244140625 513.4998168945312 L 1421.500244140625 514.9998168945312 L 1421.500244140625 518.0004272460938 L 1421.500244140625 519.5004272460938 L 1420.000244140625 519.5004272460938 L 1403.500244140625 519.5004272460938 L 1403.500244140625 537.0003051757812 L 1403.500244140625 538.5003051757812 Z"/><path class="e" d="M 1402.000244140625 537.0003051757812 L 1402.000244140625 518.0004272460938 L 1420.000244140625 518.0004272460938 L 1420.000244140625 514.9998168945312 L 1398.999633789062 514.9998168945312 L 1398.999633789062 518.0004272460938 L 1398.999633789062 537.0003051757812 L 1402.000244140625 537.0003051757812 M 1405.000244140625 540.0003051757812 L 1402.000244140625 540.0003051757812 L 1398.999633789062 540.0003051757812 L 1395.999633789062 540.0003051757812 L 1395.999633789062 537.0003051757812 L 1395.999633789062 518.0004272460938 L 1395.999633789062 514.9998168945312 L 1395.999633789062 511.9998168945312 L 1398.999633789062 511.9998168945312 L 1420.000244140625 511.9998168945312 L 1423.000244140625 511.9998168945312 L 1423.000244140625 514.9998168945312 L 1423.000244140625 518.0004272460938 L 1423.000244140625 521.0004272460938 L 1420.000244140625 521.0004272460938 L 1405.000244140625 521.0004272460938 L 1405.000244140625 537.0003051757812 L 1405.000244140625 540.0003051757812 Z"/></g><g class="b" transform="translate(1844 7744) rotate(180)"><path class="d" d="M 1411.500366210938 584.500244140625 L 1410.000366210938 584.500244140625 L 1406.999755859375 584.500244140625 L 1405.499755859375 584.500244140625 L 1405.499755859375 583.000244140625 L 1405.499755859375 515.9996948242188 L 1405.499755859375 513 L 1405.499755859375 511.5 L 1406.999755859375 511.5 L 1422 511.5 L 1423.5 511.5 L 1423.5 513 L 1423.5 515.9996948242188 L 1423.5 517.4996948242188 L 1422 517.4996948242188 L 1411.500366210938 517.4996948242188 L 1411.500366210938 583.000244140625 L 1411.500366210938 584.500244140625 Z"/><path class="e" d="M 1410.000366210938 583.000244140625 L 1410.000366210938 515.9996948242188 L 1406.999755859375 515.9996948242188 L 1406.999755859375 583.000244140625 L 1410.000366210938 583.000244140625 M 1422 515.9996948242188 L 1422 513 L 1406.999755859375 513 L 1406.999755859375 515.9996948242188 L 1410.000366210938 515.9996948242188 L 1422 515.9996948242188 M 1413.000366210938 586.000244140625 L 1410.000366210938 586.000244140625 L 1406.999755859375 586.000244140625 L 1403.999755859375 586.000244140625 L 1403.999755859375 583.000244140625 L 1403.999755859375 515.9996948242188 L 1403.999755859375 512.9996948242188 L 1403.999755859375 510 L 1406.999755859375 510 L 1422 510 L 1425 510 L 1425 513 L 1425 515.9996948242188 L 1425 518.9996948242188 L 1422 518.9996948242188 L 1413.000366210938 518.9996948242188 L 1413.000366210938 583.000244140625 L 1413.000366210938 586.000244140625 Z"/></g><g class="c" transform="translate(229 7231) rotate(180)"><rect class="d" width="35" height="3"/><rect class="f" x="-1.5" y="-1.5" width="38" height="6"/></g></g></svg>