<svg xmlns="http://www.w3.org/2000/svg" viewBox="0 0 299.105 299.106"><defs><style>.a{fill:#007aff;}.b{fill:#003d80;}.c{fill:#fff;}</style></defs><g transform="translate(31.763 -3.236)"><g transform="translate(-36 -1)"><path class="a" d="M148.831,0A148.831,148.831,0,1,1,0,148.831,148.831,148.831,0,0,1,148.831,0Z" transform="translate(303.342 301.899) rotate(179.722)"/><path class="b" d="M148.831,148.831A148.882,148.882,0,0,0,0,0V297.662A148.882,148.882,0,0,0,148.831,148.831Z" transform="translate(153.792 302.623) rotate(180)"/><path class="a" d="M114.069,0A114.069,114.069,0,1,1,0,114.069,114.069,114.069,0,0,1,114.069,0Z" transform="translate(39.167 40.273) rotate(-0.278)"/><path class="b" d="M177.569,130.469A114.109,114.109,0,0,0,63.5,16.4V244.539A114.109,114.109,0,0,0,177.569,130.469Z" transform="translate(90.288 23.318)"/><g transform="translate(53.039 53.039)"><path class="c" d="M122.649,223.4C67.189,223.4,21.9,178.11,21.9,122.649S67.189,21.9,122.649,21.9,223.4,67.189,223.4,122.649A100.672,100.672,0,0,1,122.649,223.4Z" transform="translate(-21.9 -21.9)"/></g></g></g></svg>