<svg xmlns="http://www.w3.org/2000/svg" viewBox="0 0 1247.411 684.257"><defs><style>.a{fill:#007aff;}</style></defs><path class="a" d="M113.519,149.48c2.273,0,2.728.909,5,0s8.183-5,10.456-5.455,3.637,0,.455,1.818-9.547,5.455-8.183,5c.909-.455,4.091-1.818,8.638-3.637,4.546-2.273,4.092-1.364,5.455-3.637a20.728,20.728,0,0,0,1.818-3.637l7.728,7.728c.455.455.909,0,1.364-.909s.909-2.273,2.273-1.818c.909.455,0,2.273.909,2.273.455.455,1.818,0,3.637-.455s.909-1.818.909-1.818l1.818-.455c2.273,0,9.092,2.273,10.911,3.182s8.183,1.364,10,1.818,2.273-.909,4.546.455,4.091,3.182,2.273,3.637c-1.818.909-6.365,1.364-4.091,2.273a48.1,48.1,0,0,0,9.092,1.364c3.182,0,9.092-1.364,10.911-1.364s2.728.909,4.546,4.092c1.818,2.728,3.182,4.092,3.637,4.092.455.455-.455-1.364-.455-2.728.455-1.364-.455-4.092-.909-5s0-1.364-.909-2.728-2.273-.909.455-2.273c2.273-1.364,4.092-2.728,6.819-2.728,2.728.455,3.637,4.092,6.365,4.546s3.182,1.364,7.274,1.818c4.546.455,2.728,0,7.274.455,5,.455,3.182-.455,4.092-3.182.909-2.273,2.273-3.182,3.182-2.728,1.364,0,5.455.455,5.455,1.364,0,.455-1.818,3.182-.909,4.546s4.546,3.637,4.546,3.637l-.909-3.182c0-.455-.455-2.728.455-3.182.455-.455,3.182.455,5-3.182s-1.364-3.182-1.364-3.182-.909,0-.455-1.364,3.637-2.273,3.637-2.273v-.455c-.455-1.364-2.728-.909-5-.909s-3.637-.455-4.092-2.273-.455-5.91-.455-8.638,2.273-1.818,2.728-3.182,0-9.092-.455-10.456.909-5,.909-7.274c.455-2.273,2.728-1.364,2.728-1.364-.455-.909.455-2.728,3.637-3.637s8.638,0,8.638,0-.455,0-1.818,1.818-.455,5-2.728,7.274-7.728,1.364-7.728,1.364,1.818,3.637.909,5a12.3,12.3,0,0,0-1.364,3.637s4.546,1.364,5,4.546,2.728,3.637,3.182,6.365-2.273,5-1.818,5.455.909.455,2.728.909a25.127,25.127,0,0,1,4.091.455,2.566,2.566,0,0,0,0,2.728c.909,1.364,0,2.273.455,4.091,0,1.818.909,3.182,1.364,2.728a29.3,29.3,0,0,0,2.728-6.365q.682-2.728,1.364-2.728c.455,0,3.637,2.273,3.637,3.182.455.909.455,2.273-.909,4.546s-1.364,3.637,0,4.546,1.364.455,3.637,1.818c2.273.909,1.818.909,3.182.455s-.455-4.092-.455-4.092,3.637-.455,2.728-2.273-1.364-2.728,0-3.637l2.728-1.818c-.455-1.364-.909-1.364-1.818-4.546s.909-2.273,5.455-1.818,4.546,1.818,6.819,3.182.909,1.818,1.818,3.637-1.818,2.273-1.818,2.273-1.818.455-1.364,1.818,1.364,3.182,2.273,5.455c1.364,2.273-.455,3.637-2.273,5.455s-4.091,2.273-6.819,2.273c-2.273,0-3.182.909-3.637.455,0-.455-1.364-1.364-2.728-.909s-4.092,1.364-3.182,1.818,3.637.455,2.728,2.273c-.909,2.273-2.273,2.273-4.092,1.818a27.963,27.963,0,0,0-5.91-.455c-1.364,0-8.183-.455-8.183-.455a52.174,52.174,0,0,0,8.638,4.092,15.433,15.433,0,0,0,7.728.455s-1.364,2.728-3.182,5.91-3.637,1.818-5,1.818-2.273,1.364-5.455,1.818c-2.728.455-8.638-.909-7.728-.455s1.364,1.364,2.728,1.364c1.818.455,2.728.455,4.091,1.818s-.909,1.364-2.728,1.818-2.273.455-3.182,1.818-4.092,5.91-5,7.274a17.068,17.068,0,0,0-2.273,6.365c-.455,2.728-2.728,5.91-1.818,6.819s5,.909,6.819,1.818,3.637,5.91,5,8.183c1.364,1.818,2.273,3.182,3.637,1.818s4.092-.909,6.819,0,8.183,4.546,9.547,6.365c1.818,1.818,4.546,1.364,7.728,1.818s3.637,1.818,3.637,1.818,3.637,0,1.818,1.818c-1.364,1.364-1.818,0-.455,2.273a10.773,10.773,0,0,1,.909,7.274c-.455,1.818,4.546.909,6.819,1.818,2.273,1.364,2.273,6.365,3.182,5.455a7.162,7.162,0,0,0,3.182-3.182,26.091,26.091,0,0,0-.455-5.455,23.924,23.924,0,0,0-1.818-8.183c-.909-1.818,1.818-2.273,1.364-3.182s-.455-2.273,1.818-2.728,2.273,0,3.637-.909,1.364-5,1.364-6.365a26.608,26.608,0,0,0-.909-5.91c-.455-1.364-2.728-5-3.182-5.91-.909-.909-1.818-.909.455-3.637s.909-2.273.455-2.728a28.247,28.247,0,0,1-1.364-4.546c-.455-1.818.909-3.637,0-6.365s-1.364-1.818-1.364-2.728c0-.455,5-.455,8.638,0s5-.455,5.91-.455,2.728.909,5,2.273c1.818,1.364,2.728.909,3.637,2.273s1.364,2.273,3.637,2.273a10.13,10.13,0,0,1,4.091.909s-1.364.909-1.364,3.637c.455,2.728-.455,5-.455,5.91a1.205,1.205,0,0,0,1.364,1.364c.909,0,3.637,2.273,6.365,3.182s3.182.455,4.092-1.364c.909-2.273.909-1.818,2.273-2.273.909,0,1.364.455,1.818-.455.455-.455-.909-1.364-.455-2.728a10.393,10.393,0,0,1,3.182-4.546c1.364-.909,2.273.909,3.182,3.182s4.546,8.638,5.91,10.911c.909,2.273,2.273,2.273,1.364,4.546-1.364,2.273-1.818,3.182,0,4.092s3.637,2.728,3.637,4.092-.455,1.818,0,1.818c.455.455,3.182-.909,4.546,0,1.818.909,3.637,1.364,5,2.728s.909,1.818-.455,2.273a11.651,11.651,0,0,0-4.091,1.818c-.909.455-2.273,1.364-2.273,2.273s-.455,2.273.909.909a27.154,27.154,0,0,1,5-2.728,10.314,10.314,0,0,0,1.818-.455c1.364,0,2.728.909,5,1.364,1.818.455,1.364,1.818.909,3.182s-.909,2.273,0,3.637-.455,2.273-2.273,4.092-3.182,1.818-5.91,2.273-4.091,2.273-6.365,4.092c-1.818,1.818-3.182,1.364-5.91,1.364s-1.818-1.364-2.728-.909a8.63,8.63,0,0,1-4.092,1.364,88.759,88.759,0,0,0-10.456.909c-2.273.909-1.818,2.273-2.273,3.637s-1.364.909-3.182,1.364-4.092,3.182-5.91,6.819a27.2,27.2,0,0,1-5,5.91,13.159,13.159,0,0,0,5-3.637c1.364-1.818,7.728-5.91,9.547-7.274s5.91-3.182,6.819-3.182c.909.455,3.182,2.273,3.182,3.182s-.909,1.818-2.273,3.182c-1.818,1.818-4.091,0-3.637.455a3.591,3.591,0,0,0,2.728,2.273c1.364.455,1.364,1.818,1.364,2.728s-.909,1.818,2.273,4.546,5,2.728,7.274,2.728.909.909,1.818.455c.909,0,.909-1.818,1.364-3.182s.909-2.728,1.818-3.182,1.364-1.818,1.818.455a6.493,6.493,0,0,1-2.273,5.91c-1.364.455-.909,1.364-.909,2.273,0,.455-1.364.909-4.546,2.273-3.182,1.818-4.091,2.273-4.546,1.818s-1.818.455-3.182,1.818-3.182,3.182-4.092,3.182-2.273-.455-.455-2.273c1.364-1.364,1.818-3.637,3.637-4.546s2.273-.455,3.637-.455.455-.909,1.818-1.364c.909-.909-.909-.455-2.273-.909-1.818-.455-.455-1.818-.455-1.818l-1.818.909a22.163,22.163,0,0,1-3.182,1.364c-.909,0-.455.455-.909.909,0,.455-2.728.455-2.728.455s-1.364,2.728-3.182,3.182-.455.455-1.818.909-1.364-.909-1.364-.455a5.115,5.115,0,0,1-2.273,1.818c-1.364,1.364-2.273,1.364-3.637,5.91a12.369,12.369,0,0,0,0,6.365c0,.455-1.818-.455-2.728,0-.455.455-1.818,2.273-3.637,2.728s-5,1.364-5.91,2.273-.909,1.818-1.364,3.637a39.373,39.373,0,0,1-2.273,5.455,2.786,2.786,0,0,0-.909-2.728A2.936,2.936,0,0,1,319,306.776a6.184,6.184,0,0,0,0,3.182c.455,1.818,1.364,3.182.909,5s-1.364,4.091-2.273,4.546.455-1.364.455-2.728-.909-1.364-1.364-2.273-.455-2.273.455-5c.909-2.273-.909-.909-1.818.455-.909,1.818-1.364,4.546,0,6.365s-.909,1.818,0,4.546-1.364,4.091-.909,4.546,1.364,0,1.818,1.364-.909.909-1.364.909c-.455.455-.455.909,0,1.818s.909.455.455.455a4.92,4.92,0,0,1-2.273,1.818c-1.364.455-1.364-.455-2.273.909-.909.909-1.364,1.818-2.273,2.728a6.056,6.056,0,0,1-2.273,1.364L304,339.053c-.909.909-3.637,2.273-5,4.092s-.909,2.273-1.818,5.455,1.818,8.183,3.182,13.184,2.273,3.637,1.818,5a8.077,8.077,0,0,1-1.818,4.546c-.909.909-1.818-.909-3.182-1.818s-.455-1.818-1.818-4.092A7.111,7.111,0,0,1,294,360.875a14,14,0,0,0-1.364-5.91c-.909-1.818-2.273-4.091-5-3.182-2.273.909-1.818.455-3.182,0s-5-1.818-6.365-.909c-1.818.909-7.274-.455-8.638,0a.89.89,0,0,0-.909.909c0,.909-.455.909,1.364,1.364,2.273.455,1.818,1.364,1.818,2.273s-1.818-.455-2.273-.909c-.909-.455-1.364.455-3.182.455-1.364,0-1.818-1.364-2.728-1.364a7.737,7.737,0,0,1-3.182-.455c-1.364-.455-2.728-1.364-4.091-1.364s-6.819,3.637-9.547,5.455-4.546,3.637-5,5.455c-.455,1.364-.455,1.818,1.364,4.092,2.273,2.273.909,1.818.909,3.182-.455,1.364-1.818,2.728-3.182,6.365-1.364,3.182-.455,5,1.364,8.183s3.182,5.455,4.546,6.819,2.273,2.728,3.637,3.182a3.09,3.09,0,0,1,1.818,1.364c.455.455.455.909,2.273.455s3.182-1.364,4.546-1.364,2.728,0,3.182.909c.909.909.909.455.909,0a4.8,4.8,0,0,1,.909-2.273c0-.455,1.818-3.182,2.273-4.546s.455-4.091,2.273-4.546c1.818,0,5.455-.909,9.092-.909,3.637.455,1.818,1.818.909,3.637a8.3,8.3,0,0,0-.909,4.092c0,1.364.455,1.364-.909,2.273-.909.909-.455-.455-.909.455s-2.273,1.818-1.818,1.818a5.593,5.593,0,0,1,.909,2.273v3.182c0,1.818-3.637,3.637-3.637,3.637a6.289,6.289,0,0,0,3.182.909,16.568,16.568,0,0,1,6.365.909c1.818.909,5.91-.909,8.638.455s1.818,2.273,1.818,3.637.455,5.91.455,6.819-1.364,4.091-2.273,5.91c-.909,2.273,1.818,3.637,4.546,5.455a20.392,20.392,0,0,0,5.91,2.728c1.364.455,3.637-1.818,8.183-1.818a7,7,0,0,1,5.91,4.091,15.923,15.923,0,0,1,2.728-5.455c1.818-3.182,2.273-4.092,5-5s3.637-1.364,8.183-2.728,3.637-.455,5.91,0a46.151,46.151,0,0,1,13.184,2.273c5.455,1.818,13.638,2.273,16.821,3.182,3.182,1.364,4.546,5,7.728,8.183a78.072,78.072,0,0,0,9.092,7.274c1.818,1.364,11.365,2.728,13.638,3.637s5,4.546,5.455,6.365c0,2.273,2.273,3.182,5.455,4.546,2.728,1.364,3.637,2.728,5.91,6.365,1.818,3.637,1.364,5,4.091,5.91s20.912,5.91,25.458,7.728,10.456,6.365,11.82,7.274c1.364.455,4.092-.455,5.455,0s-.909,4.092.909,6.819c1.364,2.728,1.818,2.728.909,4.546s-4.546,6.365-5.91,8.638-4.546,3.637-6.365,4.546-3.182,0-1.818,1.818,0,3.637-1.364,5c-1.364,1.818,0,1.364-.455,6.819s0,11.365-.455,13.638-4.092-2.273-8.183,3.182c-4.091,5-5,9.092-7.728,9.547-2.273.455-8.183,3.182-10,5a14.249,14.249,0,0,0-3.637,5c-1.364,2.728-2.273,8.183-3.637,11.365s-3.637,5-8.183,9.547c-5,4.546-6.819,9.092-10,12.274-3.182,3.637-2.273,2.728-3.182,3.182-1.819,1.818-8.638-2.728-6.819-.455,1.364,1.818-.909,0,.455,1.818.909,1.818,1.818,2.273-.455,5.455s-5,2.273-7.274,2.728c-1.818.455-5-1.818-5-.909a7.9,7.9,0,0,1-2.728,5c-1.364.909-5.455,1.818-5.455,2.273,1.818,9.092,5.91,10,1.818,9.547-11.365-.909-3.182-3.637-11.365,12.729-1.364,2.728-2.273,1.364-2.273,4.091,0,3.182,0,5.455,1.818,7.274s.455,1.818-2.273,4.546-2.728,2.273-5.455,5.91-5,3.637-4.092,6.365.909,7.274,2.728,11.365c1.364,4.546,4.546,3.637,9.547,6.365,5,3.182,5.455,1.364,8.183,2.273,2.273.909-1.818.909-5.91,1.818-4.546.909-7.274,1.818-10,.909-3.182-.455-10-5-12.729-6.365-2.273-1.818-6.365-5-7.728-8.183s-2.273-6.365-4.091-10.456-.455-6.819.455-16.366c.909-9.092,1.364-16.366,2.728-21.367s5.455-27.277,6.365-32.732c.909-5.91,6.365-29.1,6.819-32.732s.909-6.365,1.364-10c.909-3.637.455-10.911.455-11.365a28.91,28.91,0,0,1-1.364-4.091c-.909-3.637-2.728-5-5.455-6.365a41.2,41.2,0,0,1-7.274-5c-1.818-1.364-4.546-3.182-6.365-5.91a68.239,68.239,0,0,1-5-10,87.006,87.006,0,0,0-8.183-14.548c-3.637-5-3.637-5-5.455-10.456s1.364-5.455,2.273-8.638c.455-3.182,2.728-5.91,5-10.456,2.273-4.091,5-5.455,6.819-9.092s.455-3.637,0-7.274,0-3.182-.909-5-1.818-4.546-2.728-5-2.728-.909-3.637,0-2.728,4.092-3.637,4.092-1.364-.909-1.818-1.818c-.455-.455-3.637-.455-4.092-1.364-.455-.455-2.273-.909-3.182-1.364a41.5,41.5,0,0,1-5.91-3.637c-.909-.909-2.728-3.182-2.728-5.455s-2.273-3.182-6.819-6.819c-4.546-3.182-6.819-3.637-12.729-5.455-5.91-1.364-8.183-5.455-10-6.365s-1.818-2.273-5.91-1.818-9.547-1.818-12.729-3.182-9.092-2.273-11.365-3.637c-2.273-1.818-6.819-2.273-8.638-5.91s-1.364-2.273-.909-5.91c.909-3.182-4.092-6.365-7.274-9.547-2.728-3.182-5-3.637-6.819-7.728-1.364-4.092-3.637-3.637-6.819-6.365-2.728-2.728-3.182-6.365-4.092-9.547-1.364-3.182-9.092-7.728-9.092-7.728s2.273,5.455,3.182,7.728a117.668,117.668,0,0,0,5.455,11.365c2.273,3.637,4.546,5,6.819,8.638s0,6.365-.909,4.546c-.909-1.364-4.092-2.273-4.092-4.092s-.909-2.728-1.364-4.546c-.909-1.364-3.637-3.182-6.819-5.455s-5-3.637-3.182-3.637,4.546,1.818,4.092.455c-.455-.909-4.092-4.546-5.455-7.274-1.818-2.273-2.273-5-3.637-9.092-1.818-4.092-7.728-8.183-10.456-8.183-2.728-.455-3.637-1.818-4.546-4.546-.909-3.182-1.364-6.365-2.728-8.638s-6.819-10.456-7.274-13.184c0-3.182-1.818-11.82.455-16.821,1.818-5,1.364-15.911,1.364-18.184-.455-2.273-4.092-6.365-4.092-7.728,0-1.818,2.273-.455,3.637,0a45.286,45.286,0,0,1,5,1.818s-2.728-5-4.092-6.365c-1.818-1.818-6.365-3.637-8.638-4.546-2.273-.455-5-1.364-5.91-3.182a57.962,57.962,0,0,0-3.182-5.455c-.909-1.364-4.092-3.182-5-5s-.455-4.546-1.818-6.365c-.909-1.818-2.728-2.728-4.546-1.818-1.818.455-2.273-.909-3.637-3.182a8.764,8.764,0,0,0-5.455-3.637c-.909-.455-4.091-4.546-4.091-5.455s-5-6.365-6.819-7.728c-1.818-.909-17.275-6.365-17.73-6.365s-5,.455-6.365.455c-1.364-.455-5.455-4.092-7.274-4.546-2.273-.909-3.637.909-4.546,3.182s-5.91,6.365-8.638,8.183-5,1.818-4.546.909a10.922,10.922,0,0,1,.909-4.546c.909-2.273,1.364-2.728,4.092-4.546,2.728-1.364,2.728-1.364,1.818-1.364s-1.818,0,.455-1.364,3.182-1.364,3.182-2.728c0-.909-5,1.364-7.728,4.092a19.976,19.976,0,0,0-7.274,8.638c-2.728,4.546.455,2.728-1.818,5.455s-10,8.638-11.82,10.911c-5.91,1.364-15,6.365-18.639,7.274a18.208,18.208,0,0,0-7.274,3.182c-1.818,1.364-6.365,1.818-5,.909s4.546-3.182,6.365-4.546c1.818-.909,7.274-3.182,8.638-3.637a24.307,24.307,0,0,0,7.728-5.455c2.273-2.273,3.637-5,5-7.274s1.818-3.182-1.364-2.273a12.941,12.941,0,0,1-7.274,0c-1.364-.455-5.455,1.818-6.819.909s0-3.182-.909-4.092-4.092-.455-5.91-.909-5-1.818-5-5c0-2.728-1.818-5.455-.909-7.274.909-2.273,2.728-2.728,4.546-4.091s6.819-2.728,7.728-2.728a5.775,5.775,0,0,0,3.182-1.818c.909-.909-2.273-4.546-2.273-4.546a4.976,4.976,0,0,1,1.818-.909c1.364-.909.455-2.273-1.818-2.273-2.273.455-6.819,2.273-9.547,3.182s-6.819.455-6.365-.909c0-1.364.909-1.818-.455-2.728-.909-.909-1.818-1.818-.909-2.273s7.274-4.092,7.274-4.092a11.048,11.048,0,0,0,4.546,2.728c2.273.455,7.728-4.092,7.728-4.092-2.728-2.728-1.818-3.182-1.818-3.182s-5.455,0-6.365-.909a4.135,4.135,0,0,1-1.818-3.637c-.455-1.364-5.455-2.273-4.092-4.546s4.092-2.728,5.91-5,3.182-6.365,8.183-8.638,10.911-4.546,13.638-6.365,3.637,0,5,0c.909.455,7.274-.455,9.547-.455s2.728,2.728,3.637,3.182,22.276,1.364,22.276,1.364,18.184.455,21.821,1.364a90.571,90.571,0,0,1,10,3.637C111.246,154.026,110.792,149.48,113.519,149.48ZM356.282,40.373s-1.818,7.728-9.092,9.547c-7.274,2.273-20.458,7.728-21.367,8.183-.455.455.909,4.546,2.728,6.365,1.818,2.273,3.637,3.637,5,5.455,1.818,2.273,4.546,1.818,6.819,4.091s3.637,1.364,10,1.364c5.91,0,4.546.455,11.365.909s13.638.909,16.366,3.182c2.273,2.273,5.455,10,7.728,15s5.91,13.184,5.91,13.638c0,.909-2.273,6.819-2.273,7.728s1.364,2.728,2.273,3.637c.909,1.364.455,2.273.455,3.637a18.424,18.424,0,0,0,1.364,4.546c0,.455,3.182-3.182,5-3.637s6.819,3.182,6.819,5.91c0,6.365,1.818,4.092-8.183,11.365-1.364.909-2.728,8.183-1.818,11.82s3.637,7.728,5.455,12.729,7.728,12.275,9.547,15.457,2.273,7.728,6.365,8.638,7.728,2.273,10.911,3.182c2.728.455,5,1.818,6.365-.909s4.091-13.184,6.365-20.458c2.273-7.728,0-10,5.455-11.365,5.455-1.818,14.093-5,16.366-5.91s1.818-8.638,7.274-10.911c5-2.273,5.91-2.273,10.911-3.637a99,99,0,0,0,17.275-8.183c5-3.637,6.365-1.818,8.183-5s-1.818-8.183-2.273-13.184,1.818-5,2.728-9.547,1.364-7.274,5.455-10.456,5.91-4.546,5.455-7.728c-.909-2.728-2.728-7.274-2.728-10,0-3.182.909-1.364-.909-5.455-1.818-4.546-1.818-5,0-9.092,1.364-4.092,5.455-3.182,5.455-5-.455-1.818-6.365-4.546-6.365-9.547s.909-6.365,2.273-7.728c.909-1.364,11.365-9.547,11.82-10,.909-.909,0-2.728,5-5.455,5-2.273,6.819-4.092,8.638-5s5-.455-.909-2.273-7.274-2.273-10.911-1.818-5,2.728-11.82,3.182-14.548,3.637-14.548,3.637,2.273-2.273.455-4.092,5.455-8.638,6.365-9.092c1.364-.909-9.547-3.182-15-4.546C488.574,2.641,477.663-1,471.3-.087c-6.365.455-15.457.455-18.639,1.364s-2.728,5-6.365,5.455c-3.637,0-10-2.273-15-1.364A85.23,85.23,0,0,0,417.2,9.914c-.909,0,3.182,2.728,5.91,3.182s5.91,5.91,5.91,5.91-7.274-2.273-14.093-4.546c-7.274-1.818-15.457,0-18.639.909-5,1.818-9.092,3.637-15,3.637-5.91.455-12.729,5-15.911,7.274s-13.638,8.183-16.366,9.547-1.818,2.273,1.364,2.728A22.158,22.158,0,0,0,356.282,40.373ZM206.715,118.112c.909,3.637.909,8.183-.909,6.365-1.818-2.273-3.637-6.365-6.365-4.546-3.182,1.818-6.365,1.364-5.91.909s0-2.273-1.818-2.728c-1.364-.455-2.273.455-4.092,1.364s-6.819,2.273-4.546.455,1.364-2.728.455-4.546-5.91,1.364-9.092,3.182c-2.728,1.818-4.546,5-6.365,7.274s-.455,3.182,2.273,4.092,6.819,1.364,3.182,2.728-5.91,2.273-4.092,3.182a14.024,14.024,0,0,0,7.728.909c3.182-.455,5.455-1.364,10.456,0a32.916,32.916,0,0,0,7.728,1.364,31.8,31.8,0,0,1-5,1.818c-3.182.455-9.092,0-12.275.455s-7.728,1.364-6.819,2.728c1.364.909,2.273,2.728,6.365,4.092s5,0,7.274.909c2.273.455,1.364,3.637,1.818,4.092s5.455-.455,10-1.364,3.182-1.818,6.819-2.728,3.637-3.637,5.91-4.546c2.273-.455.455,1.364,3.182,2.273,2.728.455,1.364.909,4.092,1.364s2.273,1.364,5,1.364,5.91-1.818,5.455-2.273a1.806,1.806,0,0,1-.455-2.273c.455-1.364-2.728.455-3.637.909s-.909-1.818,1.364-2.728,4.092,0,5.455,0,0-4.092-2.273-4.546-3.637-2.273-7.274-4.092-1.818-2.728-2.728-5.455-3.182-10.456-5.455-11.82c-1.818-1.364-4.092-.909-6.365-2.273C206.26,112.657,205.806,114.475,206.715,118.112ZM150.8,112.657c.909,2.728.909.909-.909,3.637s-.909,3.637-1.818,5.91c-1.364,2.273-4.546,5-3.637,6.365s4.092,2.273,5.455,3.182,2.728,3.182,5,2.273a53.33,53.33,0,0,0,5-2.273c1.818-.909,3.182-1.818,3.182-4.092s0-3.182.455-3.182,1.818,1.364,2.273-.455a9.433,9.433,0,0,1,2.728-4.546c1.364-.909,4.546-2.273,5.91-3.637s4.092-2.728,5-4.092c.909-.909-1.364-1.818-2.728-2.728-1.364-.455-2.728-2.728-5.91-2.728s-4.546,2.273-4.546,1.364-1.818-1.364-3.182-1.818-2.273-.909-6.365-.909c-3.637.455-5.455.909-8.638,1.364C146.252,108.565,149.888,109.929,150.8,112.657Zm87.74,30c-.455.455-2.273.909-3.182,2.273s2.273.455,3.182.909,1.818,1.364,2.728,1.818,5.455.455,7.728-.455c1.818-.909,2.273-1.364,1.818-1.818,0-.455-4.091-4.092-6.819-5.91-2.728-1.364-2.728-1.364-3.637-1.364C239.9,139.024,238.992,142.206,238.538,142.661Zm-12.729-29.55c-1.818.909-3.182,1.818,0,3.637,3.182,1.364,4.092,2.728,6.365,4.092s3.182,5,7.274,3.182c4.546-1.818,5.91-3.637,6.819-5.455.455-1.818-.455-2.273-1.818-3.637-.909-1.818-1.364-2.273-3.637-2.273a19.021,19.021,0,0,1-3.182.455,12.334,12.334,0,0,1,4.092-3.182c2.273-1.364.455-1.818,1.364-3.182,1.364-.909-2.728-1.818-4.546-1.364s-1.818,0-4.546-.455c-2.728,0-7.274,2.728-7.274,3.637s2.273.455,4.546,1.818c1.818.909,2.728.909.455,4.092-1.818,3.182-3.182-.909-3.637-1.364C227.172,113.111,227.627,112.2,225.809,113.111Zm-13.184-5.455c-3.182.455-4.092,2.273-2.728,2.728s1.818-.455,3.637,1.818c1.818,1.818,3.637,3.182,4.092,0C218.535,108.565,217.626,107.2,212.625,107.656ZM163.981,83.107c-3.182,2.728-4.092,5-6.819,6.365-2.728,1.818-1.818,3.182-1.364,4.092.909.909,3.637,0,4.546-.909,1.364-.455,2.273-2.273,3.182-1.364s3.637-3.182,5-4.546,3.182-2.728,3.637-2.728-1.364,1.818-.455,2.728c.455,1.364,3.182,1.364,5-.909,2.273-2.273,0-4.546,1.818-5.91,1.818-1.818,3.182-1.364,0-3.182-3.182-1.364-5.455,0-5.91.909C172.164,79.47,170.8,78.106,163.981,83.107Zm20.912,4.546c-1.818,0-2.728.455-5.91,1.818s-4.546,5-5.455,6.819.455,1.818,3.182,3.182c2.728.909,6.819-.455,7.728-3.182s2.273.455,1.364,1.818c-.455,1.364,1.818,0,3.182-.455a40.528,40.528,0,0,1,5-.909c.455,0-3.182,2.273-5.91,3.637-3.182.909-5.91,1.818-6.819,1.818s.909,1.364,4.546,2.273,5.91-2.273,11.365-4.092,5-2.273,6.819-1.818,3.637-.909,5.91-1.364,3.182.455,4.092-2.728,2.728-6.365-.455-6.365-3.182,0-3.637,3.182c-.455,3.637-.455,1.364-.455,1.364a28.678,28.678,0,0,0-3.182-4.546c-1.364-1.364-2.273-4.091-3.637-5.455s-1.818.455-4.092,2.728-.455,3.182,1.818,4.092,3.637,3.637,2.728,4.091c-.909.909-2.273,0-5.91.455s-3.637-1.364-5-1.818c-.909-.455,1.818-1.364-2.273-3.182S186.257,87.653,184.894,87.653Zm-12.729,3.182c.455-.909-5,3.182-5.91,4.546s.909.909,2.728.909C170.346,96.291,170.8,93.108,172.164,90.835Zm10.911-8.183c-1.364.455-1.364.909.909,1.364s3.637-.909,3.182-1.818C186.257,81.288,183.984,81.743,183.075,82.652ZM194.44,70.378c-1.364.455-5.91,1.818-5.91,2.728-.455.909,0,2.273.909,3.637.455,1.364.909,1.364,4.546.455s6.365-2.728,5-3.182-1.818-.909-3.182-.909c-.909,0,.909-.909,3.637-1.364C201.714,70.378,202.623,69.014,194.44,70.378Zm-12.729,2.273c-.909.455-1.364.455.909,1.364s4.546.909,4.092,0A3.611,3.611,0,0,0,181.711,72.651Zm8.638-6.365a6.544,6.544,0,0,0-3.182,2.728c-.455.455,2.273-.455,3.637-.909s1.818.455,2.728-.455c1.364-.909,3.637,0,5.91-.455s2.728-1.818,2.273-3.182C201.714,62.649,196.259,64.013,190.349,66.286Zm22.731,5.91a2.029,2.029,0,0,0,0,2.273c.455,1.364.455.909,1.818,1.364a6.99,6.99,0,0,1,2.728,1.818c.455.455.455.455.909-.909.455-.909-.455-.909-1.364-2.273C215.807,72.651,214.9,71.287,213.079,72.2Zm7.728,9.547a3.015,3.015,0,0,0-3.182.909c-.455.455.455.909.909,2.273s0,1.818,2.728,1.818,3.182-.455,3.637-1.818C224.445,83.561,222.626,82.2,220.808,81.743Zm10,3.182c-1.364-1.364-2.273-2.273-4.092-1.364-1.818.455-.455,1.364-.455,1.818s1.818,0,1.818.909.455,1.364-1.818,1.818c-2.273,0-3.182,0-4.092.909s1.818,0,2.728.909,2.273,1.364,4.546.909,5.455-.909,5.455-.909a7.5,7.5,0,0,0-2.273,2.728c-.455.909-.909,2.728.455,3.637s1.364-.909,4.546-.909,4.092-1.818,4.092-1.818a9.91,9.91,0,0,1-.455-2.728V89.017a18.129,18.129,0,0,1,1.818,1.364,14.656,14.656,0,0,1-.909-2.728c-.455-1.818,0-1.818-.455-4.091s-.455-2.728-2.728-2.728-4.092.909-6.365.909c-1.818,0-2.728.455-1.364.909a6.06,6.06,0,0,1,2.273,2.728c.909.909.455,2.728.455,2.728C233.992,87.653,230.809,84.925,230.809,84.925Zm-12.275,8.638h0a2.159,2.159,0,0,0-1.364,2.273c0,.909,1.364.455,3.637-.455C222.626,94.927,221.717,92.654,218.535,93.563Zm31.823-4.092a17.8,17.8,0,0,0-4.546,3.637c-.909,1.364,0,1.364,2.728,2.728s5.91,1.818,7.274,0C256.722,94.472,254.9,86.744,250.358,89.471Zm12.729-10.911c-3.637.455-2.273.909-6.819-.455-4.092-1.364-9.547-1.364-10.911-1.364s-.909.455.909,3.182c1.364,2.273,1.818,3.182,5,2.273s5.455-1.364,7.728,1.818,3.182,4.091,1.364,5.455-.909,3.182,0,5.455S264,97.2,267.178,97.2s25-.455,28.186-.909,6.365-3.637,8.183-4.546c1.818-1.364,2.728-3.182.455-4.546a19.3,19.3,0,0,0-8.638-2.728c-2.728,0-5,1.364-9.092,1.818s-3.182,2.273-6.819,2.273-1.818,1.818-6.365,0-8.183-4.092-5.91-4.546,4.092-.455,2.728-1.818S266.724,78.106,263.087,78.561Zm-42.734-17.73c2.273.909,2.728,1.364.455,1.818s-4.546,2.273-1.818,2.273c2.273-.455,4.546.455,7.728.909s2.728,0,4.546,1.818c1.364,1.818,2.728,1.818,5,1.364s2.273-.455.909-2.273c-1.364-1.364-2.728-4.546-5-5.455-1.818-.909-3.637-2.728-5.455-2.728s-2.273.455-4.092-1.818-3.182-1.364-5.455-.455c-2.273.455-3.182,2.273-4.092,3.182C211.261,60.831,218.08,60.376,220.353,60.831Zm29.1-22.731c-2.728,3.182-4.546,5.91-1.818,6.365,3.182.455,4.092-.455,4.546.909,0,.909-.455,1.818-5,1.818s-3.182.909-.455,4.092c2.273,2.728,2.728,1.818,6.365,1.818s5-1.364,8.183-.455,4.091,1.818,1.364,2.273c-2.728.909-9.547,2.273-8.183,3.637s6.365,5,8.183,5c2.273.455,2.728-1.364,7.274-.909s3.637.909,4.092-.455,3.182-4.546,3.637-5.91,1.818-1.818,4.092-2.273c2.728-.455,3.182-1.364.909-2.273s-5-1.364-5-1.818c.455-.455,1.818-2.728.909-3.637s-2.728-.909-4.092-1.364-2.728-2.728-4.546-4.092c-1.818-.909-3.182-.909-5-2.728-1.818-1.364-5.455-5.455-9.092-5C253.54,33.1,252.176,34.918,249.448,38.1Zm-5,27.277c-.909.455-3.637.455-1.818,2.273,1.818,1.364,1.364,1.818,3.637.909s5.91-3.182,5.91-3.637c.455-.455-2.273-1.818-4.092-2.273s-3.182-1.818-6.819-3.182C235.81,57.649,245.357,64.922,244.448,65.377ZM368.1,16.734c-4.092-.909-19.094-4.092-24.094-2.728-5,.909-4.546-2.728-11.365-1.818s-17.275.455-20.458.909,1.818,1.818,3.182,3.182c1.818.909-8.183-1.364-15.911.909s-12.729,3.182-4.546,6.365S304,27.644,304,27.644s-10-2.273-14.548-4.092-1.818-1.818-10.456.909c-8.183,2.273-16.366,3.637-15.911,6.365s6.819,5.91,10.911,6.819,12.729-1.364,13.638-1.364l-3.182,3.182s4.092-.909,9.092-2.273,8.638-2.728,13.184-4.092c4.546-1.818,5.455-2.273,5.455-2.273s-7.728,6.365-13.638,8.183a51.465,51.465,0,0,1-15.911,3.637c-3.182,0-2.728,2.273.455,4.091s5.91,5.455,7.728,6.819a4.3,4.3,0,0,1,1.818,3.182s-5.455-4.092-10.911,0c-5.91,4.091-5,6.365-3.637,6.819s6.819.909,7.728,2.728,7.728-1.818,7.728-1.818-3.182,4.092-6.819,4.092c-3.182,0-3.182-2.728-7.728-2.273s-4.546,1.818-2.273,3.182c1.818,1.818,3.637,2.273,0,3.637-3.637,1.818-5,2.273-5.455,4.092,0,1.818,4.546,1.818,7.728,1.818s5.91-.455,11.365-.455,4.546-1.818,6.819-1.818,4.091.455,3.182,2.728c-.909,1.818.909.909,6.819-1.364s3.182-5.455,2.728-6.365-2.728-1.364-4.092-2.273c-1.364-.455,4.092-6.365,3.182-8.183s6.819-.455,10-4.546c3.182-4.546,2.273-7.728-.455-8.183-2.273-.909,4.546-.455,6.819-1.364s6.819-2.728,8.638-5,2.728-3.182-1.818-2.728,6.365-1.818,11.82-5.455,11.365-7.728,12.729-8.638,2.728-.455-3.637,0-14.093-.455-9.547-.909c4.092-.455,16.366-1.818,20-4.546C366.284,17.188,368.1,16.734,368.1,16.734Zm-75.466,86.831c-6.819-.455-16.366-2.273-18.639,3.637-1.818,5.91-5,18.639-5.455,20.912s8.183,5.91,14.093,6.365,15,.455,13.184-.909-.455-2.273,5-1.818,5.91-.909,5.91-2.273c0-.909.909,1.364,4.546,3.182s6.819,7.728,10.456,10.911c3.182,3.182,10.911,7.728,9.547,10-1.364,2.728,1.818,11.365-10,13.184-11.365,1.818-12.275.455-12.275,3.182s.455,3.637,5.455,3.637,10.911-3.637,13.184-.909,5,3.637,6.819,4.546c1.818.455-2.273,1.818-3.182,2.273s2.273.909,9.092,4.092,14.548,3.637,10.456,1.364-5.91-6.365-7.728-7.728,0-.455,3.182.455a18.2,18.2,0,0,1,7.274,4.546c1.364.909,1.818-.455,3.182-4.546.909-4.546-.455-4.546-5.455-7.728-5.455-3.637-6.819-6.365-7.274-8.638-.455-2.728,2.728-3.182,4.092-4.546,1.364-1.818,5,3.182,7.728,5.91s4.546,7.728,6.819,4.092c1.818-3.637,4.092-11.82,4.092-13.638s-1.818,0-10.456-4.092-13.184-5.91-14.093-5.91,2.273-1.818,5.91-3.637,5.455-1.818-2.728-9.092c-8.183-7.728-10.456-9.092-15.457-10-5.455-.455-6.819-5.91-10.456-7.728s-12.729,2.273-15,2.728c-2.728.455-1.818,1.818-5-3.182A67.966,67.966,0,0,1,292.637,103.564Zm5.91,0c-3.182.455,1.818,6.365,6.365,6.819,4.092.455,7.728-1.818,9.092-2.273C314.912,108.11,304,103.11,298.546,103.564Zm-15,62.282a55.451,55.451,0,0,0-2.273,7.728c0,2.728-.455,2.728-.909,4.546s1.818-.455,3.182,2.273c1.364,2.273.909,3.182,3.182.455,2.728-2.728,5.455-3.637,9.092-2.728s6.365,1.818,5-.455-2.728-1.818-5.455-5c-2.273-2.728-4.091-3.637-7.274-5S284.908,163.118,283.544,165.846ZM309,385.424c-.909-2.273-2.728-5.91-9.092-6.819-6.365-1.364-8.638,1.364-11.365,1.818-2.273.909,2.273,1.364,5.455,0s5.455-.455,5.91.455c.455.455-.909.909-1.364.455s-.455,1.364,2.728,2.728c3.637,1.364,4.546,1.818,4.546,3.182.455,1.364.455,2.273.909,3.637.909,1.364.909,1.819-.455,2.273s-.909.455,0,1.364a18.951,18.951,0,0,0,6.365,2.273c3.182.455,4.091.909,1.818-1.818C313.094,391.788,309,386.333,309,385.424Zm9.547,14.093a3.749,3.749,0,0,1,.909,4.546c0,.909-1.818,0-5.455-.455-3.182-.909-2.728-.455,0,.909s5,1.364,4.546,3.182c0,2.273,2.728,0,4.091-.909,1.364-1.364,1.364,0,6.365.455,5.455.909,6.365,1.818,5.455-.455s2.273-2.273-2.273-4.092C328.1,400.426,316.731,397.243,318.549,399.517ZM304,400.426c-1.818-2.273-4.546-2.273-4.546-.455s.455,1.818,2.273,2.273S304.911,401.79,304,400.426Zm37.733,9.547c-2.273-.909-2.728.909-1.364,2.273s3.637.909,5.91.909S345.371,411.336,341.735,409.973ZM317.185,147.662c-2.728,1.364-4.546,1.818-1.818,5.455,2.273,3.182,4.092,5.455,5,2.728C320.822,153.572,322.186,145.389,317.185,147.662Zm-22.731,34.551c-4.092.909-5.455.909-5,3.182s1.818,1.818,4.546.455C297.183,184.94,299,181.758,294.455,182.212Zm9.092,3.637c-.909,0-.909,1.818,0,3.182s2.728-.455,3.637-2.273C307.639,185.394,306.275,185.394,303.547,185.849ZM256.722,70.378c-4.092,0-10,1.364-6.819,1.818,3.182,0,5.91.909,11.365.455s5.91-.909,5.91-3.182C268.087,66.286,264,69.923,256.722,70.378Zm-25-22.276c-4.092,1.364-3.182,2.273,1.818,4.092,5,2.273,5,.909,4.546-2.728C237.174,45.374,233.992,47.647,231.719,48.1ZM519.488,153.117c-5,1.364-6.819.455-7.728,3.182s-3.182,1.364-4.092,1.364c-1.364.455-2.728,7.728-3.637,6.365-.909-.909-.909-1.818-2.273-4.092s.455-1.818-1.819-4.546-6.819-2.273-6.819-1.364c-.455.909,3.182,1.818,1.818,3.182s-4.091,2.728-5,3.637,1.818.455,4.092,0c1.818-.455,3.182,1.364,4.091,2.728s-.909,2.728-1.818,3.182,2.728.455,4.092.909,2.273,1.364,1.364,3.182,4.091.455,7.274,0c2.728,0,3.637,1.818,8.183.455s6.365-1.364,10.456-4.092c4.091-3.182,3.637-2.273,6.365-4.092s1.818-2.728,2.273-4.546c0-2.273,1.818.455.909-2.728-.455-3.182-4.092-2.273-6.365-2.728s-2.273-2.273-3.182-2.728C525.852,150.389,524.488,151.753,519.488,153.117Zm340.5,276.4c0,.909-.455,1.819-.455,3.182v5c0,1.818.455,2.728,1.364,3.182s1.364.909,3.182,0c1.364-.909,3.182-1.818,2.273-4.092-.909-1.818-2.273-4.546-3.182-5.91C862.265,429.976,860.446,428.157,859.992,429.521Zm-.909-2.273c0,.909.455.455.909.909s.909,0,.455-.455a1.408,1.408,0,0,1-.455-.909s-.909,0-.909.455M1004.1,527.262h0c-2.728,3.182-5.455,2.273-10,3.637-5,1.364-13.184,6.365-13.638,8.638s0,2.273-.455,2.273l-1.818-1.819a9.26,9.26,0,0,0-.909,5c.455,2.273,1.364,3.637,1.364,6.819s-1.364,5-.909,6.819c0,2.273,3.637,5.91,4.546,8.638.909,2.273,1.364,1.818,1.818,6.365s2.728,6.819.455,9.092-4.092,1.818-1.364,4.546c2.728,2.273,5,4.091,9.547,2.273s3.182-3.182,6.819-3.637c3.637-.909,4.091-1.364,7.274-1.818,3.182,0,5,0,6.365-2.273.909-2.273.455-2.273,3.182-3.637,3.182-1.364,2.728-1.818,4.546-2.273s3.182.909,5.91-.909c2.728-2.273.909-2.273,6.819-2.273s8.638.909,10.911,1.818,5.91,2.728,6.819,4.092,2.273,3.182,2.728,3.182.909,0,2.273-1.364a54.383,54.383,0,0,1,5.455-4.091s0,3.182-.909,4.091-.909,2.728-.909,3.182,2.273-1.818,2.728-1.818.455,4.091.909,4.546,1.364,0,2.273,1.364,2.273,2.273,3.182,4.546,4.546,4.546,7.274,5c2.273.455,4.546,0,6.365,0,1.818-.455,1.818-2.273,3.637-1.818,1.818.909,0,2.728,4.546,2.273a12.3,12.3,0,0,0,7.728-3.182c1.818-1.364,1.818,1.818,4.546-1.364,2.273-3.182,2.728-2.273,3.182-6.365.455-3.637.455-4.546,2.728-8.183s2.728-1.818,4.092-7.274,3.637-10.456,3.182-15c0-4.546,0-1.364-.909-6.365s-.455-4.546-3.637-6.365c-3.182-2.273-4.091-1.364-5-4.546-.909-2.728,0-3.637-1.364-3.637s-2.728.455-3.637-1.364-.909-2.728-2.728-4.546-3.182-1.364-6.365-2.728-1.364-1.818-1.364-4.091,0-5-2.273-6.365c-2.273-.909-.909.455-.909-3.182,0-4.091,0-3.637-1.818-4.091-1.818-.909-2.728-.455-4.091-3.182a41.311,41.311,0,0,1-3.637-8.183c-.454-1.818-1.364,0-2.273,1.364a11.765,11.765,0,0,0-1.818,6.365c0,2.273.909,3.637.909,7.274,0,3.182-2.273,6.365-3.637,8.183s-2.728,0-3.637-.455c-1.364-.455-1.364-2.273-4.091-3.637s-7.274-2.273-9.547-4.546c-2.273-1.819-.455-1.819,0-4.092a11.771,11.771,0,0,1,3.182-5c1.818-1.364,1.364-1.818-.909-2.728-1.818-.909-5-1.364-8.183-1.364-3.637,0-5.455-.455-5.455,1.818,0,1.818,2.273,2.728-.455,2.273s-5.455-.909-6.819.455-1.364,2.273-2.273,5,0,3.182-.909,3.182c-1.364,0-5.91-2.273-7.729-3.182s-2.273-.455-4.546.909a101.182,101.182,0,0,1-10.911,8.638C1006.831,519.534,1006.831,519.534,1004.1,527.262ZM914.545,442.25c-1.364,0-2.273-.455-.455,1.819a17.358,17.358,0,0,0,4.091,4.091c1.818,1.364,2.273-.909,3.637,1.818,1.364,3.182.909,3.182,2.273,4.092s2.273,1.364,2.728,2.728a12.6,12.6,0,0,0,2.273,4.092c1.364,1.364,1.364.909,2.273,3.637.909,2.273,2.273,4.092,2.728,6.365s4.546,4.091,6.365,6.365c1.818,2.728,5.455,6.365,5.91,5,.455-.909,1.818,0,3.182-.455.909-.455,1.364-1.818,1.818-5.455s-.455-5-1.364-5.91-2.728-.909-3.182-1.818a18.426,18.426,0,0,0-2.273-4.092c-1.364-.909-1.364,0-1.364-1.818s1.364-1.818-.454-2.728-1.818-1.818-2.273-2.728c-.455-.455-4.091-1.364-5-2.273s-5-2.728-6.819-4.546-4.091-3.182-4.546-4.546C922.728,444.523,920.455,443.159,914.545,442.25Zm39.1,40.46c-1.818,0-2.273-.909-3.637.909-.909,1.818-.909,1.818.909,1.818s1.364.909,1.364.909c0,.455-.909,0,2.728,1.364s5.91.909,6.819.455,1.364,1.364,5.91,1.818c4.546.909,7.274-.455,10.456.455s2.273-.455,0-1.818c-2.273-1.818-1.818-.909-4.091-2.273a13.689,13.689,0,0,0-6.365-1.818c-1.364-.455,1.364,1.364-3.182.909-4.092-.455-2.728.455-5-.909s-2.273-1.818-3.637-1.818C954.1,482.256,953.642,482.71,953.642,482.71Zm34.1,6.819c-1.364.455-3.637.909-2.728,1.364,1.364.455.455.909,3.637.455,3.637-.455,6.819-.909,7.274-1.364.455-.909-.455-.455-2.273-.909-1.364-.455-1.364.455-3.182.455C988.647,490.439,987.738,489.53,987.738,489.53Zm12.729,0q-3.41.682,0,1.364c1.818.455,3.637.909,5,.455a21.147,21.147,0,0,1,4.091-1.364,26.092,26.092,0,0,1,5.455-.455l2.273-.455s0-.455-1.818-.455h-3.637c-1.364,0-3.637,1.364-5,1.364-.909,0-3.182-.909-3.637-.455S1002.74,489.075,1000.467,489.53Zm13.184,3.182h0c-1.818,1.364-1.818,1.364-1.818,2.273v1.364a6.306,6.306,0,0,0,4.091-1.818,9.533,9.533,0,0,1,3.637-2.728,28.987,28.987,0,0,0,4.092-2.728,6.185,6.185,0,0,1-3.182,0,5.487,5.487,0,0,0-3.637,1.364C1016.833,490.894,1017.742,490.894,1013.65,492.712Zm-14.093.909c-1.818-1.364-3.637-.909-3.637-.455,0,.909-1.364.909.909,1.818s5,2.273,4.546.909C1001.831,494.53,1000.467,494.076,999.558,493.621Zm-15.911-52.28c-.909,1.364.909.909-.455,2.273s-2.728.909-4.091,2.728-3.637,3.182-4.546,4.091-4.091,1.364-5.455,3.182a1.684,1.684,0,0,0,.455,2.728s-.909.455-3.182-.455-2.273-1.818-2.273-1.818-1.364,0-2.273,2.273-1.364,2.728,0,4.092-.909,1.364-.909,2.273c.455.909.455,2.728,1.364,2.728s1.364-.909,2.273.455c1.364,1.364,0,5.455,1.818,5.91,1.364,0,2.728-.455,3.637,0a6.078,6.078,0,0,0,4.091.455,7.06,7.06,0,0,1,4.546.455,19.185,19.185,0,0,0,5.455,1.364c1.364,0,1.818.455,2.273-1.819s0-4.091,1.818-5.91,1.818-1.819,2.273-3.182a7.617,7.617,0,0,1,1.364-5c1.364-1.818,1.818.909,2.273-.455s1.364-1.364.909-1.818-2.273-.455-2.728-1.818,0-1.818-.455-4.091c-.909-2.273-1.364-1.364,0-2.728s2.273-1.818,2.273-2.728.455-.909,1.818-2.273c1.364-.909,0-.455-1.364-1.364s-3.637-4.546-5.455-4.546C987.738,435.885,984.555,439.977,983.646,441.341Zm199.12,133.2c-.455-.455-1.364,0,.455,1.818,1.364,1.818,1.818,1.364,2.728,1.364s1.818,3.637,2.273,4.546a8.483,8.483,0,0,0,1.364,1.818,20.55,20.55,0,0,1,0,5.455c-.455,1.818-1.364,2.273-1.818,4.091-.455,1.364,1.364.909,2.728,1.818,1.364.455.909.455.455,1.818s-1.818,1.818-1.818,2.273,2.728,1.818,4.091,0,3.637-4.091,4.091-5.91-.909-.909.909-2.273,1.818-.909,2.728-2.273c.909-1.818,2.273-3.182.909-4.091s-2.273.909-3.637,1.364c-.909.455-1.818.455-3.182-.455s-1.818-.909-2.273-1.818a3.149,3.149,0,0,0-1.364-1.818s-.455,2.273-1.364,1.364-.909-1.364-1.364-2.728a14.577,14.577,0,0,1-1.364-2.273c-.455-.909,0-2.728-2.273-2.728C1182.766,574.542,1183.221,574.542,1182.766,574.542Zm.455,22.731s-1.818,1.818-3.637,4.091a10.288,10.288,0,0,0-2.273,4.546c-.455,1.364-2.273,2.728-5.91,4.546-3.182,1.818-4.546,2.273-5.455,4.091-.909,1.364-5,6.365-5.455,6.819s1.818.909,4.092.909,5.91,2.273,8.183,0c1.818-2.273,4.091-7.274,5.455-9.092a21.432,21.432,0,0,1,4.546-4.546c1.818-1.818,5.455-5,5.455-6.365a13.24,13.24,0,0,0-.909-3.637,3.135,3.135,0,0,1-2.273,1.364A2.27,2.27,0,0,1,1183.221,597.273Zm-15.911,24.094c-2.273-1.364-2.728.909-3.182,3.637-.455,2.273.909.455,3.182-.909C1169.128,622.731,1168.219,621.822,1167.309,621.367ZM1087.3,604.546c-2.728-.909-2.273,1.818-1.818,3.637a22.17,22.17,0,0,0,1.818,5c.909,1.364,5,2.273,6.365,1.364s2.728-3.182,4.092-5c1.364-2.273,2.273-4.546,1.818-5.91s-2.273,1.364-3.182,1.818c-1.364.455-2.728,1.818-5,1.364C1088.661,605.91,1088.207,605,1087.3,604.546Zm-33.641-134.565c-2.273.455-3.182-1.364-5-5s-3.182-4.091-7.728-2.728c-4.546,1.818-3.637,1.364-.909,2.273a32.745,32.745,0,0,1,3.637,1.364c.455,0,4.546.455,3.637,1.364-.909.455-5,1.364-2.273,3.182s1.364.455,8.183,4.092c6.819,3.182,7.729.909,10,5.455s2.273,3.637.455,4.546-4.092,2.273-3.182,2.273,2.728.455,7.274.909.454,2.728,5.455,2.728,6.365-1.818,8.638-4.092c1.818-2.273,2.273-.909,6.819,0,4.091.909,5.91,4.546,11.365,6.365,5.455,1.364,7.728,3.637,4.091.455-3.182-3.182-4.546-5.455-9.092-9.092s-5-4.092-6.365-6.819-5.91-5.91-11.365-8.183-8.183-2.273-14.548-4.091C1056.839,463.162,1055.929,469.527,1053.656,469.981Zm-35.46-12.274c-1.818,1.364-2.273.455-3.637-.455s-.909,1.818-4.546.455c-3.182-1.364-4.546-2.273-8.183.455s-1.364,3.637-1.364,5.455-3.182,7.274-4.091,9.092a4.526,4.526,0,0,0-.455,4.092c.909,1.364,1.818.909,2.728,1.364.455.455,0,5.455-.455,7.274s1.364,1.819,3.637,1.364.455-.455.455-2.273.909-2.273.909-5.91v-4.546s.455-.455,1.364.909c.909.909,1.818,4.092,2.728,5.91.909,1.364,1.818,2.728,3.182,1.818a21.248,21.248,0,0,0,2.728-2.273s-2.728-.909-2.728-1.818,1.364-1.818-.909-5c-1.818-3.182-2.728-3.182-.455-3.637,2.273,0,2.273-2.728,3.637-3.182a5.723,5.723,0,0,1,3.637-.455,4.152,4.152,0,0,0-3.637-.909,22.506,22.506,0,0,0-5.91,1.818c-1.818.909-3.637,1.818-3.637-.455a15.549,15.549,0,0,1-.455-5c.455-2.728,3.182-.455,5.455-1.364,2.273-.455,2.273-.455,6.819,0,5,.455,5-.909,6.365-2.728a20.625,20.625,0,0,0,2.273-4.092Zm11.365-6.819c.455-.909-3.637,2.728-4.091,3.182-.909.909,0,1.818.455,2.728s.455,4.546.455,5c0,.909,2.273,1.364,2.273,1.364a10.237,10.237,0,0,1,.455-3.182c.909-.909,0-2.273,0-4.546C1029.107,453.615,1028.2,453.161,1029.562,450.888Zm-7.728,20.458c-3.182-1.364-4.091-.455-4.091,1.364s-.455,2.273,2.728,2.273S1027.289,473.618,1021.834,471.345Zm5.91-.909c-.909.455-1.364,2.728-.909,4.092s.909.455,2.728,0,1.364-1.819,3.637-1.819a34.164,34.164,0,0,1,6.819,1.364s.909-.909-2.728-3.182S1032.29,469.072,1027.744,470.436Zm-61.373-80.012h-3.637c-.455,0-1.364,1.364-2.273,1.818s-.909.909-.455,2.273,1.364,1.364,3.182,1.818c1.364.455.909-.455,2.273-.909a4.538,4.538,0,0,0,1.818-2.273,6.278,6.278,0,0,1,1.364-1.819c.455-.455-.909-1.364-.909-1.364Zm36.369,4.546c-1.364-.909-1.818,2.273-2.273,4.091s-.909,2.728,0,4.092l.455,1.364-1.818-1.364a9.911,9.911,0,0,0-.455,2.728c0,1.364-.455,1.818,1.364,2.728s2.728.455,3.182,1.818.455,2.273,1.818,2.273a9.137,9.137,0,0,1,3.637,1.818c.455.909.455-2.273,1.364-2.273s1.818,1.364,2.728,2.273c.455.909,1.818.909,1.818.909s-1.364-2.728-.909-2.728c.455-.455.909-.455-.909-1.818a8.991,8.991,0,0,0-4.546-.909c-1.364,0-1.364.909-2.273-1.818s0-4.092,0-5c0-.455.909.909,1.364-.909a9.789,9.789,0,0,0,.909-5c0-1.818,1.364-2.273,0-2.728C1006.377,395.425,1003.194,395.425,1002.74,394.97Zm15.911,33.641c0,1.364-1.364-.455-1.818.455s-.909.455-1.818.909a17.306,17.306,0,0,0-2.728,2.273v-1.364c0-.455-.455-1.819-1.364-.909a4.656,4.656,0,0,1-2.728,2.273c-1.364.909-2.273,1.818-2.273,3.182s.909,1.364.909,1.364a13.438,13.438,0,0,0,1.364-1.818c.909-1.364.909-1.364,2.728-1.818,1.818,0,1.364,0,2.273.909.455.909,0,2.273,0,3.182s0,2.273,1.818,2.728.909,0,2.728,0c1.364,0,1.364,0,1.364-.909s-.909-1.364-.909-2.273a1.452,1.452,0,0,1,1.364-1.364c.455,0,.455.909.909,2.273s.455.909.909.455c0-.909.909-3.182.455-4.092,0-.909-.455-1.818-.455-2.728s-.909-2.273-1.364-2.273l-1.818-1.818S1018.651,427.248,1018.651,428.612Zm-7.728-7.728s0-.909-1.364-2.273-1.364-1.818-3.637-2.273-4.546,0-3.637,2.728c.909,2.273,1.364,2.728,3.182,3.182a3.6,3.6,0,0,0,3.182-.909s0,.455-1.818,1.364a2.375,2.375,0,0,0-.455,4.091c1.364.909,1.364,2.273,2.273,1.364.909-.455,1.364-2.728,3.182-4.546,1.818-1.364,1.818-1.818,1.818-3.182V417.7Zm4.091-4.546s-1.364,0,0,.909c1.364,1.364,2.273,1.364,2.273,2.273s0,.909-.909.909-.909-.455-1.364-.455-.455.455,0,.909c0,.455,0,0,.909.909a4.1,4.1,0,0,1,.455,2.273c0,.909.455.455.455.455v-3.182c0-.455,0-1.818.455-1.364.909.455.455,1.818,1.364.455a4.98,4.98,0,0,0,0-3.637,2.5,2.5,0,0,0-2.273-1.364C1015.469,416.337,1015.014,416.337,1015.014,416.337Zm-17.73,4.546c-.455,0-.909.455-.909,2.273a7.173,7.173,0,0,1-2.273,3.637l-4.091,4.092c0,.455,0,0,1.818-.909,2.273-.909,3.637-2.273,4.091-3.637s-.455-.455,1.818-1.364c1.818-.909.909-1.364.909-2.728C998.648,421.338,998.194,420.429,997.285,420.883Zm111.38,50.917c0,1.818.455,2.273-.909,3.637a7.618,7.618,0,0,1-5,1.364c-1.818.455-.455-.455-2.728-.455s-2.728,0-1.818,1.364c.909.909.909,2.273,4.091,1.818,3.182,0,5.91-1.818,7.728-2.273s1.818-2.273,1.818-3.182C1112.3,473.618,1109.119,469.981,1108.664,471.8Zm9.092,4.091a27.818,27.818,0,0,0,1.818,2.728c.909,1.818,2.728,1.818,4.091,2.273s0-.455-.909-1.818a13.813,13.813,0,0,0-2.273-3.182C1118.666,474.527,1115.938,473.618,1117.757,475.891ZM1004.1,370.421c-4.091,2.728-6.365,2.728-4.546,5.91,1.818,3.637,2.728,5,3.182,5.455s.909-.455,2.273-3.182,1.364-6.365,1.818-7.274A1.659,1.659,0,0,0,1004.1,370.421Zm73.647-135.474c.455,1.818.909,4.546,0,5s-1.818,2.273-2.273,4.546-.909,4.546.455,6.365.455,1.818.455,3.182.455,5-.455,6.819c-.455,2.273-.909,2.728-.909,4.546v12.729c0,1.364.909-.455,1.364-.909a2.271,2.271,0,0,1,3.182.455l.909.909s1.818.909-.455-4.091c-2.273-4.546-2.728-3.637-1.818-8.183.454-4.546.909-4.546,3.182-5s3.637,2.728,3.637,3.182c.455.455,0-.909-.909-3.637a21.24,21.24,0,0,1-1.818-6.365c-.455-3.182-1.364-5.455-2.273-6.365-1.364-.909-.455-2.273,0-3.637a9.029,9.029,0,0,0,.455-5,38.981,38.981,0,0,0-1.364-5.91c-.455-.909-1.818.909-1.818.909Zm-1.818,48.189c0,1.364.455,2.728-.455,4.092s-.455,1.818-.909,4.091-3.182,0-3.182.455a9.425,9.425,0,0,1-.909,2.728c-.455.455-3.182.909-2.273,2.728a16.725,16.725,0,0,0,1.818,4.546s1.364-1.364,1.818-1.364a4.579,4.579,0,0,0,1.364-.455s0-.455-1.818-1.364a3.073,3.073,0,0,1-1.364-2.728c0-.455,2.273,0,3.182,0,1.364,0,2.273-.909,3.637.455a8.15,8.15,0,0,0,3.637,1.818s.455-1.818.909-3.182,2.728-.909,4.546-1.364,3.637-.909,2.728-1.818c-.455-.909-.455-2.728-.909-4.091s-1.818,0-2.728.455-2.273,0-3.637-.909-3.637-4.092-4.546-5.455C1076.842,282.227,1075.478,281.772,1075.932,283.136Zm-6.365,20.458a5.486,5.486,0,0,0-1.364,3.637c0,1.818,1.818,0-.455,5.455-1.818,5.455-3.182,6.819-5,8.183a4.607,4.607,0,0,1-4.546.909c-.909-.455,0-1.818.909-1.818.455-.455-1.818-.455-2.728-.455s0,1.364,0,2.273-1.818,3.182-1.818,4.546c0,.909,0,1.364-.909,1.818-1.364.455-1.818-.909-2.273-.909a35.106,35.106,0,0,1-4.546.455c-2.273.455-3.182.909-4.091,2.728s-3.182,1.818-5,2.728c-1.818.455-.909,3.182-2.728,4.092s-1.818,2.273-1.818,3.637,1.364.455,1.364.455,0-1.818,1.364-1.818,1.364.455.909,1.364c-.455,1.364-.909,1.818-1.364,3.182-.455.909,0,1.818.909,2.728s1.818-.455,3.637-2.273,2.273-2.273,1.818-5c0-2.273-.909-2.273-2.273-3.182-1.364-.455-1.818,0,0-1.818,1.364-1.818,2.273,0,3.182-.909s3.637-.909,5.91-1.364,5-1.364,5-.455.909,3.637.909,4.092,1.818-.909,3.182-1.364c1.818-.455,0-.909,0-1.818a3.175,3.175,0,0,1,.909-1.818s.909,1.818,3.637.455,2.728-1.818,3.637-1.818,1.364.909,2.273,0,1.364,0,.909.455c0,.455,3.182-.909,4.092-1.818.909-.455.455,0,0-1.818s-1.364-2.273-.909-4.546a18.827,18.827,0,0,0,.455-4.546c0-1.818.909-1.818,1.364-1.818s.455-2.273,1.364-3.182.455-1.818.455-4.092c0-2.728-1.364-2.273-1.364-4.092a17.2,17.2,0,0,1,.455-3.637s-2.728.909-3.182,1.818l-.455.455A4.975,4.975,0,0,1,1069.568,303.593Zm-18.639,28.186a59.054,59.054,0,0,0-6.819,1.364c-1.818.455-2.273,1.364-1.818,3.182a28.233,28.233,0,0,0,1.364,4.546c.455.909,1.364,0,2.728-.909,1.818-.909,1.364-3.637,3.182-3.637s.909,1.818,3.182-.909.455-2.728.455-4.092C1053.2,330.416,1050.929,331.779,1050.929,331.779Zm188.664-139.111c-3.182-.455-4.092-1.364-4.546,0s-.455,1.364,1.364,2.273,3.182-.455,5,.909a5.01,5.01,0,0,0,4.092,1.364,1.97,1.97,0,0,0,1.818-.909S1241.866,193.123,1239.593,192.668Zm-36.369-50.007c-1.364.455-2.273-.909-1.818,2.273.455,2.728.909,3.182,4.546,2.728s.909,0,5.91-.455,5.91-.909,5.91-.909a20.157,20.157,0,0,0-2.273-2.728c-1.818-1.364-4.091.909-7.729.455A30.869,30.869,0,0,0,1203.224,142.661ZM1089.571,99.927c0,.909,5,4.092,6.819,5s3.182.455,7.274,0c3.637-.455,4.091-2.273,4.546-3.182s-1.818-.455-4.546-.909-4.546.455-5.455,0,1.364-.909-.909-1.818-2.728.455-3.182,0-.455-1.364-1.818-1.364S1089.116,99.018,1089.571,99.927Zm-20,6.819c-1.818.909-1.818,1.364.455,3.182,1.818,1.818,1.364,1.364.455,2.273-.909,1.364,0,0,2.728,1.364s4.092,3.637,5.91,4.092a6.185,6.185,0,0,0,3.182,0,12,12,0,0,0-2.273-4.092c-1.818-2.273-5.455-2.728-5.91-5C1073.2,106.292,1071.841,105.383,1069.568,106.747Zm18.184-9.547a46.542,46.542,0,0,1-6.365-4.092c-4.091-2.273-5.455-3.182-6.819-3.182s-.909,1.364-1.818,2.728c-.455,1.364-.909.909-2.728,0s-4.092-2.273-5.91-3.182c-2.273-.455-3.182,1.364-5.91,3.637-2.273,2.273-.909,3.182,1.818,6.365,2.728,3.637,4.091,3.637,6.365,2.273s1.818-2.273,3.182-1.818c1.818.455,7.274-.455,7.728-.455,0,0-.455,3.182,2.273,2.273s5-1.364,5.91-2.728A16.4,16.4,0,0,0,1087.752,97.2ZM912.727,30.372c-.909.455-5,.455-7.274,3.637s-3.637.909-5,3.182a35.966,35.966,0,0,0-2.273,4.546S900,44.01,902.271,44.01a11.107,11.107,0,0,1,8.183,3.637c2.273,2.728,3.637,2.728,8.638,3.637s2.728,1.364,5.455,1.364c2.728-.455,6.365.455,5.455-.909a4.968,4.968,0,0,1-.909-4.546c.455-2.728,2.728-2.273,0-4.092s-4.546-.455-4.546-.455c0-.455,2.273-1.364,1.364-1.364s-5.455-.455-5.91-2.728c-.455-2.728,1.364-2.728,2.273-3.182.909,0,.909-.455-1.818-2.273s-6.365-4.092-6.365-4.092C912.272,29.463,913.636,29.463,912.727,30.372Zm25.458,18.639a7.986,7.986,0,0,0-4.546,4.091,59.4,59.4,0,0,1-5,5.455c-1.364.909-.909,1.364,1.364,2.273s6.365-1.364,7.274-1.364c1.364,0,1.818,1.818,5.455,1.364s9.092-.909,6.365-3.182c-2.728-1.818-1.818-.909-4.546-3.182a16.683,16.683,0,0,0-6.819-2.728s5.91-2.273,4.546-2.273A17.589,17.589,0,0,0,938.185,49.011ZM782.253,18.1c-3.637,1.364-2.273,1.818-4.546,3.637s-.909,2.273,4.091.909,5-1.818,8.183-3.182C793.618,18.552,787.708,16.279,782.253,18.1Zm7.728,9.092c-3.182,1.364-2.273,3.182-1.364,4.092.909,1.364,3.182-.909,4.092.455.455,1.364.909.909,4.091-1.364s1.818-1.364.909-3.637C796.346,24.917,795.892,24.462,789.982,27.19ZM771.8,26.28c-2.273.909-2.273.909,0,1.818,1.818.909,6.819,1.818,9.547,0s2.273-1.364-.909-1.818S774.07,24.917,771.8,26.28Zm-31.368,3.637a30.435,30.435,0,0,1,9.092,0c2.728.455,1.818,2.728-3.182,3.182s.455,1.364,4.091.909c3.637,0,1.364-3.182,4.091-4.092s4.546-.455,8.183-1.818-1.818-2.273-5.91-2.273-5.455.455-8.638,0-5.91,1.364-9.547,1.818C730.882,29.463,737.247,30.372,740.429,29.917Zm25.913.909c-2.728,0-10,1.818-4.091,2.273s5.455.909,7.728,0C772.706,32.19,769.524,30.826,766.342,30.826ZM786.8,32.19c-4.092-1.364-4.092-.909-7.274-.455-3.182,0-4.546,2.273-2.273,3.182s3.637.455,5,.455c1.818-.455,1.818-.909.455-1.364C781.8,33.1,789.072,33.1,786.8,32.19Zm17.275-5c-3.182.455-3.182.909-3.637,1.818s.455.909,3.637.455a17.152,17.152,0,0,0,7.274-2.273c2.273-1.364-.455-4.092-.455-4.546s-3.182,1.364-4.091,2.273S807.711,26.735,804.075,27.19ZM556.766,207.216c-1.364,4.546-4.091,6.365-.909,5s6.365-5,5.91-1.818c0,3.182-3.182,2.728-2.273,5.91s.455,2.728,5.455,4.092.909.909,2.273,3.637c1.364,3.182,2.273,4.092.909,5s-5.455-2.728-5.455-1.364c-.455,1.364.455,2.728,1.364,5s-.455,3.182-3.637,5c-3.182,1.364-.455,2.273,1.818,2.273s8.183-1.364,7.274.909c-.909,1.818-3.637-.455-5.91,3.182-1.818,3.182-9.092,6.365-5.455,5.91,3.637,0,3.182-1.364,14.548-2.728,11.365-1.818,3.637,0,10.911-2.273s5-2.728.909-2.273,2.728-4.092,1.818-8.638-3.637,0-5.455-3.182c-1.818-2.728-1.364-3.637,1.818-2.728s3.182-.455-3.637-5c-6.365-4.092-2.273-3.182-5.455-6.819-2.728-3.637-7.728-3.182-7.728-3.182a11.947,11.947,0,0,0,3.637-3.637,30.27,30.27,0,0,0,2.728-5.455c1.364-3.182-1.364-2.728-4.546-1.818-3.637.909-4.546.909-3.637-.455s1.364-1.818,2.728-3.637,1.818-2.728-.909-1.818a14.814,14.814,0,0,0-5.91,1.818C555.857,200.4,558.13,203.124,556.766,207.216Zm-8.183,10.456c-5,2.273-3.637,3.182-2.728,4.092s2.273-.455-2.273,2.273c-5,2.728-5,5.91-2.273,6.365s2.273-1.364-.455,3.637-4.546,8.638.909,7.274,6.819-4.091,9.547-4.546,3.182-2.273,3.182-5.455-1.818-3.182.455-5.91,2.273-5.455-1.818-6.819C548.583,217.217,551.765,216.308,548.583,217.672Zm65.464,70.919c-.455.909.455,2.728-1.818,4.091s.909,2.728,1.818,3.637c.909,1.364,1.364-4.092,1.364-6.819C614.956,286.773,614.956,286.318,614.047,288.591Zm-.909,10.456c-3.637,1.818-3.637,2.728-4.091,5.455s2.728.455,1.818,2.728,0,3.637,3.637,1.364,1.364-4.092,2.273-6.819C616.775,299.047,617.229,296.774,613.138,299.047Zm52.735,27.731c-3.182-.455-4.546,1.818.909,2.273,5,.455,7.274.455,9.547,0,1.818-.455.455,0-2.273-1.818S669.51,326.779,665.873,326.779Zm28.641,1.364c-4.092-.909-3.182,4.092,1.364,3.182,4.091-.909,2.728.455,4.546-2.728C702.242,325.869,698.6,329.052,694.513,328.142Zm-103.2-23.185c-3.182.455-3.637,1.364-.909,2.273s2.273,0,3.637-1.364C595.408,304.957,592.68,304.5,591.316,304.957ZM387.2,243.585c-2.273,1.818-4.546,4.092-7.274,9.092s-2.728,4.546-5.455,7.728c-2.728,2.728-1.364,2.273,7.274,4.092s8.183,3.182,10,2.273c1.819-.455,2.273.909,2.273,2.728s1.818.909,2.728-2.273c.909-2.728-.909-7.728-2.728-10.911-1.818-2.728-2.273-2.728-5-2.273-2.728.909-1.818-.455-2.728-2.728s-2.728-.455,0-3.637C388.56,244.494,389.469,241.766,387.2,243.585Zm-268.676-5.91c0,2.728,3.182,7.728,5,9.092s1.818.909.909-2.728c-.909-3.182,0-3.182-.455-5.455S118.52,236.311,118.52,237.675Zm14.548,15a20.053,20.053,0,0,0,5.455,5c3.182,2.273,4.091,2.273,7.274,3.182s4.546-.455,2.728-2.273c-2.273-1.818-.455-1.818-4.092-2.728s-4.546-.455-6.365-1.818C135.8,253.586,132.159,251.313,133.068,252.677Zm-81.83-30.914c-2.273-.455-3.182-.455-5,.455-1.818,1.364-2.273,2.273-1.364,4.092.909,1.364.455.455,2.273-.909,2.273-1.364.909-1.818,3.637-2.273s2.273-1.364,2.273-1.364Zm-.909-3.637c-1.818.909-2.273,1.818-.455,1.364s1.364-1.364,2.728-1.364c1.364.455,1.364-.455,1.364-.455A5.771,5.771,0,0,0,50.328,218.126ZM3.5,210.853c-2.273.909-4.546,0-3.182.455,1.364.909,3.182,1.818,4.546,1.364,1.364,0,2.273,0,1.818-.909l-.909-1.818C6.686,209.489,5.777,209.943,3.5,210.853ZM749.066,517.261c-2.728,5.455-7.728,2.728-12.274,6.819-4.091,4.092-3.637,2.728-.455,8.638s-2.728,5-4.091,11.82,1.818,5.455,3.637,11.365,2.728,4.092,5.91,3.182a25.1,25.1,0,0,0,5.455-2.273,65.532,65.532,0,0,1,2.728-12.274c2.273-7.274,3.637-12.729,4.092-17.73s.909-8.183,1.818-6.819,1.364,1.364,1.364-.909-1.364-9.092-3.182-10.456C749.976,505.9,751.34,511.806,749.066,517.261ZM752.7,131.75c-3.637.909-5,3.182-2.728,3.637,2.728.909,2.273.455,6.365-.909C760.886,132.659,756.34,130.841,752.7,131.75Zm65.919-64.1c-1.364-1.818-2.273.455-14.548,5.91s-12.274.909-23.64,10-9.092,8.183-9.547,13.638-3.182,3.182-4.546,8.183c-.909,5-6.819,5.455-4.091,9.547,3.182,4.092,6.819,6.365,13.184,8.183s7.728,0,6.819-.909c-1.364-.455-5.91-8.183-5-16.366s4.091-7.274,6.819-10.456,9.547-11.365,14.093-14.093,16.366-6.365,22.276-8.638h.455C824.987,67.2,819.986,69.468,818.622,67.65Zm-33.187,56.372c-1.364,0-2.273.455.455,2.728,2.728,2.728,5,4.546,4.091.909C789.072,124.476,786.8,123.567,785.435,124.022Zm44.1-25.458c-1.818-.909-3.182-1.818-3.637-.455s2.273,3.637,5,4.091S831.351,99.018,829.533,98.564ZM366.284,256.314c-3.182-1.364-5.91-2.728-7.728-2.728s.455,2.273,3.637,3.637C364.92,259.042,367.647,257.223,366.284,256.314Zm-7.274,12.275c0-2.273-1.818,2.728.455,4.092s3.182,1.364,5,0c1.364-1.364.455-.455-1.818-.909C360.828,271.771,359.01,270.861,359.01,268.588Zm881.947-86.376a15.837,15.837,0,0,1-6.365-.455,8.676,8.676,0,0,1-1.364,4.546,3.34,3.34,0,0,0-.455,2.728,31.708,31.708,0,0,0-5.91-2.273c-2.273-.909-4.091,0-5.455-3.182s-5-2.728-7.728-2.728-1.818-3.637-1.818-3.637h-1.818c-1.818,0-1.364,4.092-3.637,5.455s-9.092,2.273-9.092,2.273,4.546,3.182,5.455,5.91a18.462,18.462,0,0,0,2.728,5s-.455,1.364-5.91,0c-5.455-.909-5,.909-10.911,3.182a75.793,75.793,0,0,0-14.093,7.274c-1.818,1.364-1.818.455-6.819-.455-5-1.364-5.91,1.364-7.274,2.273-1.364.455-.909-3.182-.909-3.182a12.177,12.177,0,0,0-4.092.909c-23.185,11.82-7.274,10.911-7.728,13.638l-2.273,9.092c-3.182,10-5.91,5-8.638,12.729-9.092,25.458-14.547-4.091-14.547-10.456,0-4.092-.909-9.547,1.818-10.911,22.731-10.456,2.273-1.364,23.185-15.911,6.819-4.546,3.182-7.728,4.546-8.638a8.93,8.93,0,0,1,4.092-1.818l-3.637-.455c-3.637-.455-3.637.455-6.819,3.637-2.728,3.182-5.455,3.637-4.546,1.364.455-2.273.909-5-1.364-3.637s-3.182.909-7.274,1.818a19.474,19.474,0,0,0-12.275,7.728c-3.637,4.546-1.818,4.092-.455,5.455,1.364.909-5.91.909-9.547.455s-1.818-.909.455-1.818c1.818-.455-3.182-1.364-7.274-2.273-4.546-.909-2.728.909-5.455,1.818s-2.728-.909-3.637-1.364c-1.364-.455-7.274-.455-11.365-.909s-3.637.455-5,1.818c-.909,1.364-8.638,8.183-12.275,11.82-3.182,3.637-7.274,4.546-11.365,8.183-3.637,3.637-4.546,3.182-1.364,4.092,3.182.455,3.637.455,4.092,3.182s1.818,3.637,5,3.637,2.273.909,2.728-1.818c.455-2.273-.909-5.455,1.818-3.182s5,3.637,5.91,6.819,0,5.455-1.818,10.456c-1.364,5-1.818,12.729-3.637,16.366s-3.637,6.365-5.455,10.911c-2.273,4.092-12.275,14.548-14.548,15.457s-3.637.909-5-.909c-.909-2.273-1.818-1.818-4.546.455s-3.637,3.637-5,7.728c-.909,3.637-3.182,3.637-5.455,6.365s-2.728,2.273-1.364,5.455c1.818,3.182,4.546,6.365,5,9.547s-1.364,7.728-2.728,9.547c-.909,1.818-6.365,2.728-6.365,1.818V324.96c0-2.728-2.273-2.728-1.364-3.637s3.637-2.273,1.364-4.092-3.637-.455-4.546-2.728.455-4.092,0-5-1.818-1.818-5-2.273-3.637,2.728-4.546,0,.455-3.182-.909-4.091-2.728-.455-6.365,2.728-4.546,2.273-7.274,3.637c-3.182,1.364-3.182,2.273-2.273,3.182s3.182,5.455,5.455,5.91,3.637-.909,6.819-.909,3.637.455,3.182,1.818c-.909,1.364-3.182,2.273-6.819,6.365-4.091,4.092-2.728,3.182-1.364,5s3.182,3.637,4.546,6.819,0,4.092,0,5.91-.455,4.546,2.273,7.274.909,1.818.455,2.728-4.546,9.092-6.819,13.184c-1.818,4.092-1.818,4.546-8.638,9.092a30.689,30.689,0,0,1-13.184,5.91c-3.637.455-6.365,1.818-8.183,2.273-1.818.909-.909,2.273-1.364,3.182,0,.909-1.818,0-1.818-1.364a2.023,2.023,0,0,0-.909-2.728c-.909-.455-3.637-1.364-6.819,1.364-2.728,2.728-6.365,3.182-7.728,6.365-1.364,3.637-.909,2.273.455,3.637s7.728,7.728,9.092,10.911a21.67,21.67,0,0,1,1.818,9.092c0,3.637-7.274,10-10.456,12.274s-4.091,4.092-3.637.909-1.364-5.455-3.637-7.728c-2.273-2.728-9.547-4.546-10.911-5s.455-2.273-.455-2.273-3.182-.455-2.728,2.728-2.273,2.273-2.728,5.455-.909,6.819.909,6.365c2.273-.455,1.818,2.728,3.182,6.365,1.818,3.637.909,1.818,5,5s3.182,2.728,4.091,5.91.455,5,2.728,8.183c1.818,3.182,2.273,3.637-1.364,1.818-3.182-1.818-5.91-3.637-7.274-5.91s-2.273-7.274-2.728-10c-.909-2.728-6.365-5.91-8.183-7.728s-.909-3.182,0-7.728-.455-8.638-.909-10.911c-.455-2.728-2.273-10-3.637-12.729-.909-2.273-.455-2.273-2.273,0-1.364,2.273-2.728,3.637-4.091,3.637s-3.637-.455-3.637-1.364,1.818-4.546,1.364-6.365c-.455-1.364-1.818-5.91-4.091-7.728s-4.546-3.637-5.91-7.728c-1.364-3.637-1.818-2.728-4.546-.909s-8.638,2.273-11.365,2.273c-2.728.455-.455,1.819-1.364,3.182s-4.091,3.182-10.911,10.456-7.728,7.274-9.547,8.183-2.728.455-2.728,3.637c0,2.728.455,4.546,0,7.274a15.341,15.341,0,0,1-1.818,5.455,33.48,33.48,0,0,0-1.818,6.365,12.276,12.276,0,0,1-4.091,5c-2.273,1.818-2.273,1.364-3.182-.909s-6.365-11.365-10.456-20-3.182-10-3.637-12.275-.455-17.275-.455-18.184c0-.455-2.273,1.818-2.728,2.728-.455,1.364-.455,2.728-3.182,2.728-2.273,0-2.728.455-5-1.818s-3.182-3.637-2.728-3.637a26.166,26.166,0,0,0,4.546-.909c1.364-.909.909-1.364.909-1.364a17.033,17.033,0,0,0-3.637.455c-1.818,0-.909-.455-3.637-1.364s-3.182-.909-3.637-2.273a31.32,31.32,0,0,0-1.364-3.637l-.909-1.818c-.455-.909-1.818,0-4.546.455-2.728,0-2.273,0-5.455,1.364s-4.092.909-7.728.909-6.365-1.818-8.183-2.273-2.273-.455-5-.909-2.273-1.818-2.728-3.182c-.909-1.364-1.818-1.364-5.455-1.364-3.637.455-3.637,0-5.91-.455s-2.273-1.364-4.091-3.182-1.364-.455-2.273-1.364c-1.364-.909-2.273-2.273-3.182-4.546s-.909-3.182-1.818-4.092-.909-.909-4.091-.909-1.818,0-2.273.455c-.455,0-1.364,1.818-2.273,2.728s.909,2.728,2.273,4.091,0,1.364,2.273,3.637,1.364,2.273,2.728,5.455a33.521,33.521,0,0,0,2.728,5c.455.909.455-.455.909-1.364s0-4.092,0-4.092.455,1.364,1.364,3.637c.455,2.273,0,2.273.455,3.637s0,1.364,2.728,1.364a34.412,34.412,0,0,0,6.819-.455c2.728-.455,4.091-3.182,5.455-4.092s1.364-3.182,2.273-3.182c.909.455,0,3.182.909,5s.909,1.364,3.182,1.818a13.613,13.613,0,0,0,4.546,1.819c1.818.909.455.909,1.818,2.728.909,1.818.909.909,2.273,1.364.909.909.455,0,0,2.728a8.177,8.177,0,0,1-2.728,4.092c-1.818,1.818-1.818,1.364-1.818,1.364-.455,0-.909-1.364-.909-1.364a27.076,27.076,0,0,0-1.364,5c0,2.728.909,1.818-2.273,3.182s-5,1.818-6.365,2.728-1.364,2.273-1.818,3.182c-.909.909-1.818,0-3.637.909a7.328,7.328,0,0,0-3.182,1.818c-1.818,1.364,0,1.364-2.728,2.273-2.273.909-6.365,2.728-8.638,3.182-2.273,0-1.818.909-2.273,1.364-.455.909-.455,1.364-3.182,1.818s-5.91.909-7.728,1.818-4.091,2.728-5.91,2.273-1.364-.455-1.818-1.819a30.933,30.933,0,0,1-1.364-5.455,34.642,34.642,0,0,0-2.728-9.092c-1.364-2.273-1.364-2.728-3.182-5.455s-2.728-5-4.091-5.91-2.273-.909-2.728-1.818-.455-3.182-.909-5.455c-.909-2.273-1.364-4.546-2.273-5.455-.909-1.364-2.728-2.728-4.091-5.455s-1.364-2.728-3.637-6.819-2.728-4.546-4.091-7.274-.455-2.273-.909-3.637c-.455-1.818-1.818,2.728-2.728,3.637s-1.364.455-2.273-1.818-1.364-4.546-2.273-3.637a4.515,4.515,0,0,0-.455,4.546c.909,2.728,1.364,1.818,2.273,4.546,1.364,2.273,4.092,8.638,5.455,10.911,1.364,2.728.909,1.364,1.818,5,1.364,3.637,1.818,4.091,3.637,5.91,1.364,1.364,1.364.909,1.818,3.182.909,2.728.455,5.455.455,7.274,0,1.364.909,2.273,2.728,4.091,1.818,1.364.909.909,1.818,2.728a47.331,47.331,0,0,1,2.273,5.455c.455,1.818.909,2.728,2.728,3.637a9.627,9.627,0,0,0,3.182,1.364c1.364.455.909.909,1.818,2.273s3.182,2.273,4.092,4.092c1.364,1.818.455,1.364.455,3.637,0,1.818-.909.909,0,2.273a35.947,35.947,0,0,0,5,3.637c2.728,1.818.455.455,2.728.455s2.728-.455,5-1.364c2.273-.455,5.455-1.364,8.638-2.273s5.91-1.364,7.728-1.818c1.364-.455,1.364,1.364.455,3.637-1.364,2.728-1.818,5-2.728,6.819-.909,2.273-1.364,2.273-2.273,4.092s-5.91,8.638-6.819,10.911a25.775,25.775,0,0,1-3.637,5.91c-1.364,1.818-6.365,5-8.638,6.819s-1.818,1.818-3.182,4.092c-1.818,2.273-6.819,7.728-8.183,10s-2.273,2.728-3.182,5c-.909,1.818-3.637,5-4.091,6.365,0,1.364-1.818,1.818-.455,2.728,1.364,1.364,1.818,1.364,2.273,3.182s-1.364,3.637,0,6.365c1.364,3.182.455.909,2.273,3.182s1.818,4.091,1.818,7.274c0,3.637.455,6.819,0,9.092s-1.364,3.637-2.273,5.91c-.909,1.818-5,3.637-7.728,4.546-2.273.909-2.273.455-3.637,1.818s-4.546,4.092-5.455,6.365-1.818,1.818-1.364,3.182a29.9,29.9,0,0,0,2.728,5.455c1.364,2.728.455,2.273,0,4.546a14.014,14.014,0,0,0-.455,4.546c-.455,2.728-3.182,2.728-6.819,4.091s-2.273.909-2.728,2.728,0,5.455-.455,7.728c0,2.273-1.364,1.364-3.182,4.091s-2.728,4.091-4.546,7.274c-2.273,3.182-1.818,2.728-4.546,5s-4.546,2.728-5.91,5-2.273.909-8.183,2.728c-5.455,1.818-1.364.909-6.819,1.364a88.5,88.5,0,0,0-10,1.364c-2.728.455-2.273,0-4.091-1.818a14.5,14.5,0,0,1-2.728-3.182c-.909-1.364,0-1.818-.455-4.546a10.766,10.766,0,0,0-1.364-4.546c-.909-1.818-.909-1.818-2.273-5l-2.728-5.455c-1.364-1.818-1.818-1.364-2.728-2.728-1.364-1.364-1.364-2.273-1.364-4.091-.455-1.818-.455-5.91-1.364-10-.455-4.092,0-1.819-.909-3.637a24.292,24.292,0,0,0-2.728-6.365,42.255,42.255,0,0,1-2.273-4.546c-1.818-3.182-1.364-2.728-2.728-5-.909-2.728-1.364-1.364-1.364-2.273s.455-2.728.455-4.546a42.389,42.389,0,0,1,.909-6.365c.455-2.728-.455-2.728.455-4.546a33.912,33.912,0,0,0,3.182-5.455c.909-2.273.455-2.273.455-5s-.455-2.273-.909-4.546c-.909-2.273-.909-5-2.273-8.183-.909-3.637-.909-3.637-.909-5a40.34,40.34,0,0,0-1.364-6.365c-.455-1.818-.909-.909-2.273-2.273s-.455-.909-1.818-1.818c-1.364-1.364-.909-1.818-2.273-3.182a8.155,8.155,0,0,1-2.273-3.182c-.909-1.818-.455-.455-.455-3.637a109.9,109.9,0,0,1,1.364-11.365c.455-3.182.455-2.728-.455-4.092-1.364-1.364-1.818-3.182-2.728-3.637s-3.182.455-6.365.455-3.182-.909-4.546-2.273c-1.364-1.818-3.182-3.637-3.637-4.546-.455-.455-1.818-.455-7.274,0s-2.273.455-5.91.909-5,2.273-7.728,3.637c-2.728.909-3.637.909-8.638-.455-5-.909-7.274.909-10,2.273-2.273.909-3.637.455-5.455-.909a22.241,22.241,0,0,0-5.91-3.637c-2.728-1.364-2.273-2.273-5-3.637s-1.818-1.364-4.092-3.637-2.273-4.546-4.091-6.819c-1.364-2.273-2.728-5.455-5-7.728s-4.091-7.274-5.455-8.638c-.909-1.364-1.818-1.364-1.818-2.273s2.273-4.546,2.728-6.819c.909-2.273.909-1.819,1.364-3.182s-.455-5-1.364-7.274a60.565,60.565,0,0,1-2.273-8.638c-.455-1.818.455-2.273.909-3.182a54.125,54.125,0,0,0,4.546-7.274,51.341,51.341,0,0,1,4.091-6.819c.909-1.818,3.182-6.819,5-8.183a65.049,65.049,0,0,1,6.819-5c1.818-.909,3.182-1.364,3.182-2.273.455-.909.909-6.819,1.364-9.547s0-4.092,1.818-5,5-2.728,6.365-3.637,1.818-2.273,2.728-4.091,1.364-4.546,2.273-5c1.364-.909.909.455,2.273,1.364a14.954,14.954,0,0,0,2.728,1.364c.909,0,1.364-.455,3.182-.455s2.273,0,3.182.909c.909.455.455.455,3.637-1.364a50.971,50.971,0,0,1,10-4.546,84.127,84.127,0,0,1,9.092-2.728c1.818,0,.909,0,3.182.909s2.273,1.364,2.728.455c.455-.455,1.818-2.273,2.728-2.273a37.028,37.028,0,0,1,4.091.909,5.3,5.3,0,0,0,4.092-.455c.909-.455,2.273-1.364,2.273-1.364.455,0,2.273.909,3.637,1.364,1.818.455,1.818.909,1.364.909a4.762,4.762,0,0,0-1.364,2.728c-.909,1.818-.455.909.455,2.728s1.364,1.818.909,3.182-1.818,2.728-3.182,4.091c-.909,1.364-.909,1.364,1.818,3.182,2.728,1.364,2.273,1.364,5,2.728,3.182,1.364,3.182.909,6.819,1.818s3.182,1.364,4.546,2.728,1.364,2.728,3.637,3.637,4.546.909,5.91,1.364c1.364.909,2.273,1.818,4.092,2.273s1.818.455,2.273-.909a7.03,7.03,0,0,0,1.364-2.728c-.455-.455-1.364-1.818-.909-2.273a15.949,15.949,0,0,1,2.273-3.637c.455-.909,1.364-.909,4.091-.909s4.546-.455,5,.909.455.909,2.273,1.818a21.406,21.406,0,0,0,4.091,1.364c1.818.455.909,1.818,1.818,1.364a15.66,15.66,0,0,1,4.091.455c1.818.455,4.546,1.818,7.728,1.818a15.008,15.008,0,0,0,5-.909c.455,0,2.728-2.728,4.091-.909s3.182,1.818,6.365,1.818,3.182-.909,4.091-1.364a16.608,16.608,0,0,0,3.182-6.365c.455-2.273,2.273-6.819,2.728-9.092s0-3.637,0-5a10.008,10.008,0,0,1,.455-3.637c.455-1.364-1.364-.455-2.273-.455-.909.455-.909-.455-1.818-.455s-1.364-.455-2.273.909c-.455,1.364-.455,2.273-3.182,1.818-3.182,0-2.728-.455-3.637-1.364s-2.728-1.364-4.091-1.818-1.364-.455-1.818.455c0,.909,0,1.364-1.364,1.818-.909.455-3.182,0-5-.909a20.987,20.987,0,0,1-4.546-3.182c-1.818-1.818-1.818-1.818-2.273-4.546-.909-2.728-.909-5.455-.455-6.365s.909-.909-.455-.455-2.273.909-1.364-1.364a3.888,3.888,0,0,1,2.728-2.728c.909-.455,2.728-.455,4.546-.455a8.63,8.63,0,0,0,4.091-1.364c.455-.455,2.273-.909,1.364-.909s-2.728-.455-2.273-.909.455-.455,1.818-.909a17.054,17.054,0,0,0,4.546-.455c1.364,0,2.273,0,2.728-.909a13.819,13.819,0,0,1,2.273-3.182c1.364-.909,2.273-.455,5.455-.455s2.728.455,3.637,1.364,1.818.455,3.182.455c1.364.455.455.909,1.364,1.364a24.125,24.125,0,0,0,5,1.364c2.273.909.909.455,3.637.455a17.046,17.046,0,0,0,5-.455,10.658,10.658,0,0,0,4.546-2.273c1.364-.909.455-3.637,0-5.455s-3.182-3.182-4.092-4.091a49.769,49.769,0,0,0-5-4.546c-1.364-.909-2.728-1.364-4.092-2.273s-4.091-2.273-4.091-3.182c-.455-.909.455-.909,2.728-1.364s1.364-.909,1.818-1.818.455-.909,2.273-1.818c1.818-.455-1.818-1.818-2.273-2.728s1.364-.455,2.728-.909c1.818-.455,1.818-1.364,2.273-1.818.455-.909,0-.909-1.818-.909s-4.546.909-8.183,1.818c-3.182.909-1.818.909-4.091,2.728s-2.273.909-1.818,1.818.455,1.818,2.273,2.728c2.273.909,1.364.909,1.818,1.364.455,0,1.818.455,1.364.455s-1.364,1.364-2.273,1.364-1.364.909-3.182,1.818a18.709,18.709,0,0,1-3.637,1.364c-1.364,0-1.818,0-1.818-2.273,0-1.818-.455-.455-1.818-.909a4.976,4.976,0,0,1-1.818-.909,6.65,6.65,0,0,0,2.273-1.364,4.423,4.423,0,0,0,2.273-2.728c.455-1.364-1.364-.909-2.728-.909s-.909-.455-2.273-.455a2.027,2.027,0,0,1-1.818-1.364s.455.455,1.818,0c1.364,0,.909-.455,1.364-.909s.909-.455.455-.455h-5.91c-1.364,0-.909.909-1.818,1.364s-.909.909-1.364,1.818-.909.909-.909,1.364c-.455.455-.455,2.273-.455,3.182s-.455,1.364-.909,2.273-.455.455-1.818.909c-.909.455-.455.909-.455,1.818s-.455,1.364-.455,2.728-.455,1.364-1.364,2.273-1.364.909-1.364,1.818-.455,1.364,0,3.182.909,1.364,2.273,3.637c1.364,1.818,2.273,1.364,1.818,2.273s-.455.455-2.273.455-2.273,0-3.637,1.364l-2.273,2.273c-.909.455-.455-.909-.909-1.818-.455-.455-3.182-.909-5.455-1.364s-2.728-.909-3.182-.909a9.061,9.061,0,0,0-3.637.909c-2.273,1.364-1.818,1.818-1.364,3.637,0,1.818,1.818,1.818,1.364,5.91-.455,3.637,1.818,1.818,2.728,4.546.909,2.273,0,2.273-.455,2.273a11.65,11.65,0,0,0-1.818,4.091c-.455,1.818,0,2.273-.455,1.818-.455,0-1.364.455-2.273-1.364-.909-1.364-1.818,0-2.273-.909,0-.909-1.364-2.273-.909-4.546s1.364-2.273-.455-3.182-1.364-1.364-2.273-3.637-.909-2.728-2.728-4.546-1.364-1.364-.909-3.637c.455-1.818.909-4.546,0-5.91a29.686,29.686,0,0,0-8.638-7.274c-3.637-1.818-4.091-.455-5.455-3.182s-2.273-5.91-4.546-7.728c-2.728-1.818-1.364-1.818-3.637-.909s-2.273,1.364-2.273,1.818c0,.909.909,1.818.455,3.637s-.909,1.364,1.818,2.728,1.364,1.364,2.728,4.092a40.517,40.517,0,0,0,2.273,4.546c.909.909,1.364,2.273,4.091,2.728s2.273,0,2.728.455-1.818.909-1.364.909a13.772,13.772,0,0,0,3.182,2.273,28.611,28.611,0,0,1,5,3.637c.455.909,2.273,5-.455,2.273s-2.728-1.364-3.637.455.909,3.637.455,5c0,1.364-1.364.909-2.273,2.273s-1.364,2.728-2.273,3.182c-.909.909-.909-.909-1.364-.909s-.909.909-1.364,2.273c-.909,1.364,0,1.818.455,3.637s.909,1.818-1.364,1.818c-1.818,0-1.364-1.818-3.182-3.182s-2.728-.909-4.546-1.818c-1.364-.909.455-1.364,4.546-1.818,3.637-.455,4.092-.909,5.455-1.818s.909-.909,1.818-2.728c1.364-1.818,0-2.273-.909-4.546a6.452,6.452,0,0,0-3.182-3.637l-2.728-2.728c-.909-1.364-2.273-1.364-4.091-1.818s-1.364-2.273-2.728-2.728c-.909-.455-2.273-1.818-4.546-4.092s-1.364-4.091-2.728-5.91c-.909-1.818-2.273-3.637-4.546-3.637s-4.091,1.818-6.819,4.092c-2.273,2.273-1.818,3.637-4.546,1.818s-3.637-1.818-5.91,0c-1.818,1.818-2.273,3.182-2.273,6.819,0,3.182-2.273,1.818-4.546,2.728-1.818.909-3.637,3.182-6.365,8.638s0,2.728-.455,5c-.455,1.818,0,3.182-2.728,5.91-2.728,2.273-1.364-.455-3.182,1.818-1.818,1.818-3.637,3.637-7.728,3.182-3.637-.455-2.728.909-5,1.818-2.273.455-3.637,1.364-3.182-1.364s0-2.273-4.546-2.273-6.365,1.364-5.91.909.455-1.818.909-4.546,1.364-3.637.455-3.637-2.273.455-.909-4.546c.909-4.546,1.364-5.455.909-8.183s0-6.365-.455-8.183,1.364-3.182.455-4.092-1.819-1.818-.909-1.818a46.95,46.95,0,0,1,6.365.455c3.182.455,6.365-.455,8.638-.455,1.818,0,5.91.909,10,1.818,4.091.455,4.091-.455,3.637-6.365s.455-8.638-.909-10-2.728-.909-3.637-2.728c-1.364-1.818-.455-4.092-3.182-5s-5.91,0-4.546-.909c1.364-.455,2.273-.909.455-1.818-1.818-1.364-1.818-2.728-.909-2.728h4.546a1.465,1.465,0,0,0,2.273.909c1.818-.909,4.091-1.364,3.637-2.728s-1.364-2.728-.909-2.728.909,1.818,5,1.818c3.637,0,3.637-.455,3.182-2.273s2.728-1.364,4.546-2.728-.909-2.728-.455-4.092,2.728-1.818,6.365-2.273c4.091-.455,3.182-.909,2.728-1.364s0-2.273.455-5-.455-3.182,1.818-4.546c1.818-1.364,1.364-.909,5.455-.909,4.091-.455,1.818-1.364,2.273-1.364a33.485,33.485,0,0,0,6.365-1.818c.909-.455.909-.455,0-2.273s-1.818-2.728-2.728-10.911-.909-8.183,4.546-10c5-1.364,4.091-.909,3.637,3.637s-2.728,4.546-3.182,8.183c-.455,3.182,0,5.455,1.818,9.092,2.273,3.637,1.818,1.818,6.365,1.818s3.637.909,6.365,2.273c3.182.909,1.818-1.818,5-2.728,2.728-.909,2.273.455,9.092-.455a27.057,27.057,0,0,1,3.637-.455s-.909,0,0-.455c1.818-.909,1.818-2.728,4.546-2.728,2.273-.455,4.091.455,3.637-2.728,0-3.637-1.364-3.182-.909-5.91s.455-1.364.909-3.637c0-2.273-.455-2.728,2.728-3.182,2.728-.909.909,2.728,4.546,3.182,3.637.909,3.182,1.364,3.637-1.364s2.728-6.365.909-5.91c-1.818,0-2.273,0-3.637-2.728-1.818-2.728-2.728-3.182-1.818-3.182a82.435,82.435,0,0,1,10-.909c5.455,0,6.819.455,7.274,0s-.909-.909.909-2.273c1.818-.909,7.728.455,6.819-.455s-6.365-2.273-9.547-1.818c-3.637.455-12.275,1.818-13.638,1.364a8.077,8.077,0,0,1-4.546-1.818c-.455-.455-2.728-.909-2.728-4.092s.909-4.546-.909-7.274c-1.818-3.182,3.182-5.455,6.819-8.638s2.728-5.91,4.546-5.91c2.273,0,2.728-1.364,1.818-2.273s-4.546-4.546-6.365-5-4.546-2.273-7.274,2.273c-2.728,5,0,5.455.909,7.728.455,2.728-4.091,4.546-7.274,6.819s-4.546,1.818-5.455,7.728-1.818,6.365,1.818,8.183c3.637,2.273,4.546,3.182,2.728,5s-5.455,1.818-7.728,5.91-1.364,6.365-2.273,8.183-3.637,2.728-4.546,4.546-.909,5.455-4.091,5c-3.637-.455-1.364-5-3.182-7.728-1.364-2.273-2.728-4.546-4.546-7.274s-.455-5.91-2.273-7.274-2.273-4.546-2.273-4.546l-.455,1.364c-.455,1.364-.455,2.273-3.637,6.365-3.637,4.092-8.638,4.546-10.911,3.637-2.728-.909-2.273-3.637-2.273-6.365,0-3.182-.455-7.274,0-12.275s1.818-4.546,7.274-7.728,5.455-3.182,6.819-5c1.364-2.273,5-5,7.274-6.819s5.91-9.092,8.183-14.093c1.818-5,5.91-8.183,9.547-13.638s10-10.456,18.185-13.638c8.183-3.637,6.819-3.637,8.638-6.365s2.728-.909,5.91-1.818c3.182-.455,2.728,0-.455,3.182s-4.546,6.365-1.818,4.092c2.728-2.728,5-5.455,9.092-5.455s2.728,0,6.819,1.818,5,2.273,2.728,3.637-6.365.909-6.365.909a6.549,6.549,0,0,0,5,3.637c3.637.455,5.91-3.182,8.638-1.818s3.182,2.273,0,1.818c-3.637-.455-4.546,1.818,0,3.182,4.091,1.364,4.546,1.818,10,2.273,5.455.909,8.183,5,12.274,6.365,4.092,1.818,9.092.455,7.728,4.091s.909,7.728-6.365,9.547-7.274-.455-13.184-2.273a87.594,87.594,0,0,1-10.456-3.637s1.818,2.273,4.546,5,3.182,5,2.728,10-1.818,5.91,3.182,8.638c5,2.273,4.091,1.818,5.455,1.364s4.092-.909,3.637-1.818-.909-2.273-2.728-2.728c-1.818-.909-1.818-2.728,0-3.182,1.818-.909,3.182.909,6.819.455,3.637,0,0-1.364,1.818-3.182s1.818-5,5.91-6.365c4.091-1.818,8.638.909,9.547-.909s2.273-3.637,0-6.365-4.091-3.637-2.728-5,4.091-5,5.455-2.728c1.364,1.818,4.546,4.092.455,3.637s-1.364,6.365,2.728,5.91c3.637-.455,3.637-1.818,6.819-3.182s9.092-6.365,13.638-8.183c4.546-1.364,5.455-.909,6.819-.455,1.818.909,1.818,2.273,6.365,1.364s6.365-2.273,10.456-2.728c4.546-.909-.455,1.818,1.818,2.273,1.818.455,2.273,1.364,3.637,0,1.364-.909,6.365-2.728,4.091-4.546s-3.637-2.728-3.637-2.728a6.072,6.072,0,0,1,5.91-3.182c4.092.455,10.911,4.092,15,7.274,4.091,2.728,9.092,8.638,9.092,8.638s1.818-3.182.455-8.183-5.455-4.092-5.455-8.638c0-5-3.637-3.637-2.273-7.274s4.546-5,5.455-9.092c.909-4.546,1.818-8.183,5-8.183s10,.909,10,.909a26.41,26.41,0,0,1-2.728,10c-2.728,5.91,1.364,6.819.909,14.093s-.909,8.183.909,10,5,3.637,3.637,6.819-1.818,5-6.365,6.819-10.456.909-8.183,2.273a23.158,23.158,0,0,0,7.728,3.182c3.182.455,1.364,0,4.091-2.273s7.728-5.91,7.728-7.728-3.182-5-.909-6.365c1.818-1.364,2.728-3.637,5.91-1.818s6.365,8.638,6.365,8.183a17.346,17.346,0,0,0-4.546-10.456c-3.637-3.637-10,0-10-3.637,0-3.182,1.818-7.728,1.364-11.365s-1.818-7.274.455-10.456,2.273-5.455,2.273-5.455a12.369,12.369,0,0,1,0,6.365c-.909,3.637.455,5.91,2.273,5.91s9.547,0,5.455-.909c-4.092-1.364-5.455-2.273-1.364-4.546s4.091-.909,10,.455,7.274,2.273,9.547,2.273c1.818,0,1.818-.455.909-2.273a8.022,8.022,0,0,0-3.637-4.092c-1.818-1.364-3.182.455-3.637-1.818-.455-1.818-1.818-6.365-2.273-8.183s1.364-.455,4.546-.455,11.82-.455,18.639-.455,0-7.274-.455-12.275,12.729-5,19.094-5.91,13.638-.455,25.458-3.637c11.82-2.728,4.092-2.273,5.91-5.91,1.818-3.182,4.546-4.092,8.183-4.092s6.819.455,5.455.909-5.455,2.273.909,3.637,4.546,1.364,1.364,2.273-.455,3.182,5.91,3.182,2.728-.455,1.364-2.728c-.909-2.273.909-1.364,5.91-.455s7.274,1.818,10,4.546,3.182,1.818,4.546,5.455c.909,3.637,0,3.182-4.546,6.365s-6.819,3.182-13.184,7.274-4.546,5.91-8.183,8.638-2.728,1.818,4.546,0,11.365-3.182,15-2.728,5.455,1.818,8.183,1.818,0,.455,8.638.455c9.092,0,7.728,0,4.546,2.728s.455,3.182,4.546,3.182a106.756,106.756,0,0,0,12.274-.455c3.637-.455.455-3.182,5-3.637,4.546,0,5.91-.455,10.456-.455s3.182,1.818,5,3.637,3.637,2.728,2.273,6.365c-1.364,3.182-2.273,3.637-1.364,8.183s3.182,5.455,5.91,5.91c2.728.909,2.728-4.092,5.455-5.91s3.182,3.182,6.365,2.728a16.9,16.9,0,0,1,9.547.455,14.862,14.862,0,0,0,9.092.455c3.637-.909,2.728-2.273,1.364-4.546s-1.364-2.273.909-4.546,4.091-1.364,11.82.909,5.455,2.273,10,3.182c4.546,1.364,3.182.909,10,4.091s5.455,6.819,8.638,8.638,3.182,0,9.547-.455,6.365.909,13.184,2.728,5,4.092,5,5.91-1.818,3.637,2.273,4.546,5.91,1.818,9.547.909.454.909,8.637.909,5.455-.909,7.729.909,3.182,5,6.819,4.546c4.091-.455,3.637-.455,1.818-3.637-1.818-3.637-2.728-4.092-.455-4.092s7.274.909,15.911,2.728c8.638,1.364,9.092,3.182,16.366,7.728s9.092,5,14.548,9.092c1.818,1.364,2.273,1.818,2.273,2.273a7.036,7.036,0,0,1,2.728.909c5.455,2.728,4.546,1.818,9.547,4.092a51.286,51.286,0,0,1,9.092,5.455S1244.593,182.212,1240.956,182.212ZM769.979,278.135s-.455.909,2.273-1.364-1.364,0-2.728-.455c-1.818-.455-2.273-1.364-1.818-3.182.455-2.273,0-2.273-1.818-5,0,0-.909-.455-2.728.455s-3.182-.909-5.455-.455c-2.273.909-5,.455-6.365,4.092s-3.182,1.364-3.637,4.091-5,4.546-5,4.546l3.182,3.182c1.364,1.818.455.455,1.818,5.91s2.273,5,4.091,5.455c1.818.909,4.546,2.728,4.546,2.728s-1.818-.909-1.818,1.818-2.728,5-2.273,9.092-3.637,8.183-.455,8.183c3.182.455,2.273,1.818,5.91,2.728s5.455,1.818,10.911,1.818c5,0,2.273-1.818,1.818-5-.909-2.728-.909-5-1.364-8.183,0-3.182-1.364-2.273-2.273-4.546-.909-1.818.455-3.182,2.728-3.182s2.728,0,1.364-2.273-.455-3.182-2.273-4.091-2.273,3.182-2.273,3.182-.909-.909-.455-5,.909-2.273-.455-2.728c-1.364-.909-1.818,0-3.637-2.273s0-2.273-2.273-5.455c-1.818-3.182-.909-1.364,1.364-1.364s.909-.455,0-1.364-1.818-2.728.909-2.273c2.728,0,6.365.909,7.728.909C770.433,277.681,769.979,278.135,769.979,278.135ZM393.106,133.114c-.909,1.818,1.364,3.637,3.182,3.182s2.273,0,3.637-.909c.909-.909.909-1.818,0-3.182-1.364-1.364-.909-1.818-.909-1.818C396.743,128.568,394.015,131.3,393.106,133.114ZM892.269,29.463c-2.728,0-5.91,0-3.182.909s1.364,5,6.365,2.728,3.637-2.728,7.274-4.092c3.182-1.364,1.364-.909-2.728-1.818C897.27,26.735,895,29.463,892.269,29.463Z" transform="translate(0.091 0.232)"/></svg>