<svg xmlns="http://www.w3.org/2000/svg" viewBox="0 0 350 100.338"><defs><style>.a{fill:#003d80;}.b{fill:#007aff;}</style></defs><g transform="translate(98.941 26.105)"><path class="a" d="M127.444,71.568V47.612L113.371,68.668,99.19,47.612V71.568H92.1V24.3l21.163,31.584L134.427,24.3V71.461h-6.983Z" transform="translate(-92.1 -24.3)"/><path class="a" d="M153.351,69.593a23.558,23.558,0,0,1-7.2-4.834,20.736,20.736,0,0,1-4.834-7.2,21.692,21.692,0,0,1-1.719-8.7,24.715,24.715,0,0,1,1.719-8.809,24.929,24.929,0,0,1,4.834-7.2,22.331,22.331,0,0,1,7.2-4.834,21.692,21.692,0,0,1,8.7-1.719,24.715,24.715,0,0,1,8.809,1.719,22.942,22.942,0,0,1,7.2,4.834,24.929,24.929,0,0,1,4.834,7.2,22.583,22.583,0,0,1,1.719,8.809,23.7,23.7,0,0,1-1.719,8.7,20.262,20.262,0,0,1-4.834,7.2,22.942,22.942,0,0,1-7.2,4.834,22.583,22.583,0,0,1-8.809,1.719A20.319,20.319,0,0,1,153.351,69.593ZM151.2,37.9A15.47,15.47,0,0,0,162.16,64.329a15.533,15.533,0,0,0,10.958-4.512A15.47,15.47,0,0,0,162.16,33.39,14.918,14.918,0,0,0,151.2,37.9Z" transform="translate(-88.572 -24.151)"/><path class="a" d="M196.59,42.563V71.568H189.5V24.3l28.361,31.047v-28.9h7.09V73.609Z" transform="translate(-84.865 -24.3)"/><path class="b" d="M231.8,71.42V26.3h7.09V71.42Z" transform="translate(-81.723 -24.151)"/><path class="b" d="M280.914,67.66a23.752,23.752,0,0,1-3.653,1.934,22.583,22.583,0,0,1-8.809,1.719,22.269,22.269,0,0,1-15.9-6.553,20.736,20.736,0,0,1-4.834-7.2A24.143,24.143,0,0,1,246,48.86a24.715,24.715,0,0,1,1.719-8.809,23.559,23.559,0,0,1,4.834-7.2,20.736,20.736,0,0,1,7.2-4.834,21.692,21.692,0,0,1,8.7-1.719,22.583,22.583,0,0,1,8.809,1.719c.322.107.645.322.967.43v8.379a15.074,15.074,0,0,0-9.776-3.438A15.533,15.533,0,0,0,257.495,37.9,15.5,15.5,0,0,0,279.41,59.817a11.5,11.5,0,0,0,1.5-1.719Z" transform="translate(-80.669 -24.151)"/><path class="b" d="M297.651,69.593a23.559,23.559,0,0,1-7.2-4.834,20.736,20.736,0,0,1-4.834-7.2,24.141,24.141,0,0,1-1.719-8.7,24.714,24.714,0,0,1,1.719-8.809,24.928,24.928,0,0,1,4.834-7.2,22.332,22.332,0,0,1,7.2-4.834,21.692,21.692,0,0,1,8.7-1.719,24.716,24.716,0,0,1,8.809,1.719,22.942,22.942,0,0,1,7.2,4.834,24.929,24.929,0,0,1,4.834,7.2,22.582,22.582,0,0,1,1.719,8.809,23.7,23.7,0,0,1-1.719,8.7,20.261,20.261,0,0,1-4.834,7.2,22.942,22.942,0,0,1-7.2,4.834,22.583,22.583,0,0,1-8.809,1.719A20.007,20.007,0,0,1,297.651,69.593ZM295.5,37.9A15.47,15.47,0,0,0,306.46,64.329a15.533,15.533,0,0,0,10.958-4.512A15.47,15.47,0,0,0,306.46,33.39,14.918,14.918,0,0,0,295.5,37.9Z" transform="translate(-77.853 -24.151)"/></g><rect class="b" width="6.446" height="32.228" transform="translate(58.011 38.996)"/><rect class="b" width="6.338" height="32.228" transform="translate(58.118 38.996)"/><circle class="b" cx="3.115" cy="3.115" r="3.115" transform="translate(24.279 64.242)"/><circle class="a" cx="3.115" cy="3.115" r="3.115" transform="translate(58.118 30.617)"/><path class="a" d="M43.908,3.1,3.3,26.627V73.573L44.015,97.1,84.623,73.68V26.627ZM77.962,69.705,43.908,89.365,9.961,69.705V30.494L43.908,10.835,77.855,30.494V69.705Z" transform="translate(0.245 0.23)"/><circle class="b" cx="7.09" cy="7.09" r="7.09" transform="translate(37.385 0)"/><circle class="b" cx="7.09" cy="7.09" r="7.09" transform="translate(74.662 21.486)"/><circle class="b" cx="7.09" cy="7.09" r="7.09" transform="translate(0 21.486)"/><circle class="b" cx="7.09" cy="7.09" r="7.09" transform="translate(74.662 64.134)"/><circle class="b" cx="7.09" cy="7.09" r="7.09" transform="translate(0 64.134)"/><circle class="b" cx="7.09" cy="7.09" r="7.09" transform="translate(37.385 86.157)"/><circle class="a" cx="4.727" cy="4.727" r="4.727" transform="translate(247.621 16.114)"/><path class="a" d="M54.291,48.441,41.615,67.348,28.938,48.441v11.6H22.6V27.6L41.615,55.961,54.291,36.946" transform="translate(1.679 2.05)"/></svg>