<svg xmlns="http://www.w3.org/2000/svg" viewBox="0 0 325.83 93.44"><defs><style>.cls-1{fill:#fff;}.cls-2{fill:#e2e2e2;}</style></defs><title>monico-horizontal-white</title><g id="Layer_2" data-name="Layer 2"><g id="Layer_1-2" data-name="Layer 1"><path class="cls-1" d="M125,68.25V46L111.84,65.53,98.66,46V68.25H92.09V24.34l19.75,29.43,19.75-29.43V68.25Z"/><path class="cls-1" d="M152.41,66.61a21,21,0,0,1-12.85-19.35,21.33,21.33,0,0,1,1.65-8.2,22.09,22.09,0,0,1,4.52-6.68,20.52,20.52,0,0,1,6.68-4.47,20.85,20.85,0,0,1,8.15-1.64,21.36,21.36,0,0,1,8.2,1.64,21.76,21.76,0,0,1,6.68,4.47,22.12,22.12,0,0,1,4.47,6.68,21.51,21.51,0,0,1,1.64,8.2,21.07,21.07,0,0,1-1.64,8.15,20.8,20.8,0,0,1-4.47,6.67,22.12,22.12,0,0,1-6.68,4.53,21.54,21.54,0,0,1-8.2,1.64A21,21,0,0,1,152.41,66.61Zm-2-29.54a14.35,14.35,0,1,0,10.19-4.24A14.38,14.38,0,0,0,150.37,37.07Z"/><path class="cls-1" d="M196.09,41.26v27h-6.56v-44L215.89,53.2V26.27h6.62v43.9Z"/><path class="cls-2" d="M231.85,68.25v-42h6.56v42Z"/><path class="cls-2" d="M278.53,64.8a24.55,24.55,0,0,1-3.4,1.81,21.51,21.51,0,0,1-8.2,1.64,20.75,20.75,0,0,1-14.83-6.17,20.75,20.75,0,0,1-6.16-14.82,20.8,20.8,0,0,1,6.16-14.88,21,21,0,0,1,14.83-6.11,20.43,20.43,0,0,1,8.2,1.64c.29.11.62.28.91.4v7.75a14.41,14.41,0,0,0-19.3,1,14.4,14.4,0,1,0,20.37,20.37,17.77,17.77,0,0,0,1.42-1.58Z"/><path class="cls-2" d="M296.69,66.61a21,21,0,0,1-12.84-19.35,21.32,21.32,0,0,1,1.64-8.2A22.09,22.09,0,0,1,290,32.38a20.52,20.52,0,0,1,6.68-4.47,20.89,20.89,0,0,1,8.15-1.64,21.32,21.32,0,0,1,8.2,1.64,21.76,21.76,0,0,1,6.68,4.47,22.12,22.12,0,0,1,4.47,6.68,21.51,21.51,0,0,1,1.64,8.2,21.07,21.07,0,0,1-1.64,8.15,20.8,20.8,0,0,1-4.47,6.67A22.12,22.12,0,0,1,313,66.61a21.51,21.51,0,0,1-8.2,1.64A21.07,21.07,0,0,1,296.69,66.61Zm-2-29.54a14.35,14.35,0,1,0,10.19-4.24A14.38,14.38,0,0,0,294.65,37.07Z"/><rect class="cls-2" x="54.06" y="36.25" width="5.89" height="30"/><circle class="cls-2" cx="25.52" cy="62.65" r="2.94"/><circle class="cls-1" cx="57" cy="31.4" r="2.94"/><path class="cls-1" d="M41.12,3.15,3.25,25V68.75L41.12,90.62,79,68.75V25Zm31.63,62L41.12,83.4,9.5,65.14V28.62L41.12,10.37,72.75,28.62Z"/><circle class="cls-2" cx="41.38" cy="6.63" r="6.63"/><circle class="cls-2" cx="76.13" cy="26.63" r="6.63"/><circle class="cls-2" cx="6.63" cy="26.63" r="6.63"/><circle class="cls-2" cx="76.13" cy="66.25" r="6.63"/><circle class="cls-2" cx="6.63" cy="66.25" r="6.63"/><circle class="cls-2" cx="41.38" cy="86.82" r="6.63"/><circle class="cls-1" cx="234.92" cy="19.39" r="4.42"/><polyline class="cls-1" points="52.1 46.96 40.29 64.59 28.46 47.03 28.46 57.75 22.57 57.75 22.57 27.64 40.29 54.03 52.1 36.25"/></g></g></svg>