<svg xmlns="http://www.w3.org/2000/svg" viewBox="0 0 657 467.327"><defs><style>.a,.d,.f,.g,.i,.n{fill:none;}.a{stroke:#9054cc;}.a,.d,.g,.i,.n{stroke-miterlimit:10;}.a,.d,.g,.i{stroke-width:4px;}.b{fill:#9054cc;}.c{fill:#fff;}.d{stroke:#f0c125;}.e{fill:#f0c125;}.g{stroke:#c25e32;}.h{fill:#c25e32;}.i{stroke:#86c232;}.j{fill:#89c13a;}.k{fill:#86c232;}.l{fill:#007aff;}.m{fill:#003d80;}.n{stroke:#007aff;stroke-width:35px;opacity:0.3;}</style></defs><g transform="translate(-355 -6400.496)"><g transform="translate(11720 -286)"><path class="a" d="M.5,47.365V140.84l81,46.765,81-46.765V47.365L81.5.6Z" transform="translate(-11240.5 6688.206)"/><line class="a" x1="81" y2="46.765" transform="translate(-11159 6735.571)"/><line class="a" x2="81" y2="46.765" transform="translate(-11240 6735.571)"/><line class="a" y1="93.474" transform="translate(-11159 6782.336)"/><path class="b" d="M112.8,93.166,56.4,124.247,0,93.166V31.081L56.4,0l56.4,31.081Z" transform="translate(-11215 6718.827)"/><g transform="translate(-11137.733 6755.888)"><path class="c" d="M423.54,36.41l-2.9-3.867a1,1,0,0,0-1.547,0l-2.9,3.867a.966.966,0,0,0-.193.58V82.423a3.867,3.867,0,1,0,7.733,0V36.99A.966.966,0,0,0,423.54,36.41ZM421.8,82.423a1.933,1.933,0,0,1-3.867,0V80.49H421.8Zm0-3.867h-3.867V76.623H421.8Zm0-3.867h-3.867V39.89H421.8Zm0-36.733h-3.867v-.645l1.933-2.577,1.933,2.577Z" transform="translate(-416 -32.178)"/></g><g transform="translate(-11188 6752)"><path class="c" d="M47.371,0H4.833a.967.967,0,0,0-.967.967V17.5A4.842,4.842,0,0,0,0,22.233V53.167A4.839,4.839,0,0,0,4.833,58h34.8a.971.971,0,0,0,.683-.283l7.733-7.733a.966.966,0,0,0,.193-.283c.014-.03.021-.059.032-.09a.97.97,0,0,0,.05-.251c0-.02.012-.039.012-.059V.967A.967.967,0,0,0,47.371,0ZM29,53.167a2.9,2.9,0,0,1-2.9,2.9H4.833a2.9,2.9,0,0,1-2.9-2.9V22.233a2.9,2.9,0,0,1,2.9-2.9H26.1a2.9,2.9,0,0,1,2.9,2.9ZM16.433,11.6v5.8H9.667V11.6ZM9.667,9.667V5.8h6.767V9.667ZM25.133,11.6v5.8H18.367V11.6ZM18.367,9.667V5.8h6.767V9.667Zm8.7,7.83V11.6h6.767V25.133h-2.9v-2.9A4.842,4.842,0,0,0,27.067,17.5Zm0-7.83V5.8h6.767V9.667ZM40.6,54.7V50.267h4.433Zm5.8-6.366H39.633a.967.967,0,0,0-.967.967v6.767H29.942a4.783,4.783,0,0,0,.992-2.9v-26.1H43.5a.967.967,0,0,0,.967-.967V4.833a.967.967,0,0,0-.967-.967H8.7a.967.967,0,0,0-.967.967V17.4H5.8V1.933H46.4ZM42.533,11.6V25.133H35.767V11.6ZM35.767,9.667V5.8h6.767V9.667Z"/></g><g transform="translate(-11184.134 6774.233)"><path class="c" d="M54.233,184H32.967a.967.967,0,0,0-.967.967v5.8a.967.967,0,0,0,.967.967H54.233a.967.967,0,0,0,.967-.967v-5.8A.967.967,0,0,0,54.233,184Zm-.967,5.8H33.933v-3.867H53.267Z" transform="translate(-32 -184)"/></g><g transform="translate(-11167.7 6791.633)"><path class="c" d="M174.767,328h-5.8a.967.967,0,0,0-.967.967v11.6a.967.967,0,0,0,.967.967h5.8a.967.967,0,0,0,.967-.967v-11.6A.967.967,0,0,0,174.767,328Zm-.967,11.6h-3.867v-9.667H173.8Z" transform="translate(-168 -328)"/></g><g transform="translate(-11167.7 6783.9)"><path class="c" d="M174.767,264h-5.8a.967.967,0,0,0-.967.967v3.867a.967.967,0,0,0,.967.967h5.8a.967.967,0,0,0,.967-.967v-3.867A.967.967,0,0,0,174.767,264Zm-.967,3.867h-3.867v-1.933H173.8Z" transform="translate(-168 -264)"/></g><g transform="translate(-11176.4 6791.633)"><path class="c" d="M102.767,328h-5.8a.967.967,0,0,0-.967.967v3.867a.967.967,0,0,0,.967.967h5.8a.967.967,0,0,0,.967-.967v-3.867A.967.967,0,0,0,102.767,328Zm-.967,3.867H97.933v-1.933H101.8Z" transform="translate(-96 -328)"/></g><g transform="translate(-11176.4 6783.9)"><path class="c" d="M102.767,264h-5.8a.967.967,0,0,0-.967.967v3.867a.967.967,0,0,0,.967.967h5.8a.967.967,0,0,0,.967-.967v-3.867A.967.967,0,0,0,102.767,264Zm-.967,3.867H97.933v-1.933H101.8Z" transform="translate(-96 -264)"/></g><g transform="translate(-11176.4 6799.367)"><path class="c" d="M102.767,392h-5.8a.967.967,0,0,0-.967.967v3.867a.967.967,0,0,0,.967.967h5.8a.967.967,0,0,0,.967-.967v-3.867A.967.967,0,0,0,102.767,392Zm-.967,3.867H97.933v-1.933H101.8Z" transform="translate(-96 -392)"/></g></g><g transform="translate(11720 -286)"><path class="d" d="M.5,47.365V140.84l81,46.765,81-46.765V47.365L81.5.6Z" transform="translate(-11363.5 6891.206)"/><line class="d" x1="81" y2="46.765" transform="translate(-11282 6938.571)"/><line class="d" x2="81" y2="46.765" transform="translate(-11363 6938.571)"/><line class="d" y1="93.474" transform="translate(-11282 6985.336)"/><g transform="translate(-11339 6921.827)"><path class="e" d="M112.8,93.166,56.4,124.247,0,93.166V31.081L56.4,0l56.4,31.081Z"/></g><path class="c" d="M-3.751-25.512H52.912l.873,9.424H-4.624ZM16.468-45.6l.262,9.042.226,7.792H2.423A22.589,22.589,0,0,1,16.468-45.6m8.113-6.873a12.113,12.113,0,0,1,4.251.782c.3.113.555.224.773.325l-.041,1.4-.245,8.473-.369,12.726h-8.74l-.655-22.6c.242-.113.531-.237.872-.363a12.108,12.108,0,0,1,4.153-.746M46.739-28.765H32.2L32.693-45.6A22.59,22.59,0,0,1,46.739-28.765m10.45,14.153L55.877-28.765H50.039A25.828,25.828,0,0,0,32.792-49.02l.121-4.167-.762-.5a11.905,11.905,0,0,0-2.168-1.047,15.354,15.354,0,0,0-5.4-.992,15.351,15.351,0,0,0-5.4.992,11.905,11.905,0,0,0-2.168,1.047l-.763.5.12,4.167A25.828,25.828,0,0,0-.877-28.765h-5.84l-1.476,15.93H57.353Z" transform="translate(-11307.134 7014.938)"/><path class="f" d="M0-79.105H65.547v42.89H0Z" transform="translate(-11315.327 7038.318)"/></g><g transform="translate(11720 -286)"><line class="g" x2="81" y2="46.765" transform="translate(-10994 6735.571)"/><line class="g" y1="93.474" transform="translate(-10913 6782.336)"/><path class="g" d="M.5,47.365V140.84l81,46.765,81-46.765V47.365L81.5.6Z" transform="translate(-10994.5 6688.206)"/><line class="g" x1="81" y2="46.765" transform="translate(-10913 6735.571)"/><path class="h" d="M112.8,93.166,56.4,124.247,0,93.166V31.081L56.4,0l56.4,31.081Z" transform="translate(-10969 6717.827)"/><g transform="translate(-10915.1 6802.903)"><path class="c" d="M236.523,430.24a1.3,1.3,0,1,0,.381.92A1.311,1.311,0,0,0,236.523,430.24Z" transform="translate(-234.301 -429.859)"/></g><g transform="translate(-10945.593 6780.401)"><path class="c" d="M38.912,267.835v-9.576a1.3,1.3,0,0,0-1.788-1.207L14.7,266.084H7.476a7.475,7.475,0,0,0,0,14.95h.86v7.816a1.3,1.3,0,0,0,1.3,1.3h5.313a1.3,1.3,0,0,0,1.3-1.3v-7.188l20.873,8.4a1.3,1.3,0,0,0,1.787-1.207v-9.576a5.865,5.865,0,0,0,0-11.437ZM13.649,287.547h-2.71v-6.514h2.71v6.514Zm0-9.117H7.476a4.872,4.872,0,1,1,0-9.744H13.65Zm22.66,8.492h0l-20.057-8.067V268.264l14.241-5.736v12.916a1.3,1.3,0,0,0,2.6,0V261.48l3.212-1.294Zm2.6-10.377v-5.983a3.262,3.262,0,0,1,0,5.983Z" transform="translate(-0.001 -256.958)"/></g><g transform="translate(-10898.371 6795.734)"><path class="c" d="M371.505,374.775h-7.369a1.3,1.3,0,1,0,0,2.6h7.369a1.3,1.3,0,0,0,0-2.6Z" transform="translate(-362.835 -374.775)"/></g><g transform="translate(-10900.508 6785.816)"><path class="c" d="M351.182,298.951a1.3,1.3,0,0,0-1.841,0l-2.542,2.542a1.3,1.3,0,0,0,1.841,1.841l2.542-2.542A1.3,1.3,0,0,0,351.182,298.951Z" transform="translate(-346.418 -298.57)"/></g><g transform="translate(-10900.497 6802.904)"><path class="c" d="M351.348,432.872l-2.627-2.627a1.3,1.3,0,0,0-1.841,1.841l2.627,2.627a1.3,1.3,0,0,0,1.841-1.841Z" transform="translate(-346.499 -429.864)"/></g><g transform="translate(-10938.564 6746.959)"><path class="c" d="M108.4,0H84.195a5.212,5.212,0,0,0-5.206,5.206v.521H57.125A3.127,3.127,0,0,0,54,8.85V29.413a3.127,3.127,0,0,0,3.123,3.123h1.345v3.991a1.3,1.3,0,0,0,2.222.92L65.6,32.536H91.454a3.127,3.127,0,0,0,3.123-3.123v-3.9H108.4a5.212,5.212,0,0,0,5.206-5.206V5.206A5.212,5.212,0,0,0,108.4,0ZM91.975,29.413a.521.521,0,0,1-.521.521H65.063a1.3,1.3,0,0,0-.92.381l-3.071,3.071V31.235a1.3,1.3,0,0,0-1.3-1.3H57.125a.521.521,0,0,1-.521-.521V8.85a.521.521,0,0,1,.521-.521H78.989V20.3a5.212,5.212,0,0,0,5.206,5.206h7.78ZM111,20.3a2.606,2.606,0,0,1-2.6,2.6H84.195a2.606,2.606,0,0,1-2.6-2.6V5.206a2.606,2.606,0,0,1,2.6-2.6H108.4a2.606,2.606,0,0,1,2.6,2.6Z" transform="translate(-54.001)"/></g><g transform="translate(-10901.898 6753.269)"><path class="c" d="M346.6,53.8l-8.907-5.143a1.3,1.3,0,0,0-1.952,1.127V60.072a1.3,1.3,0,0,0,1.952,1.127l8.907-5.143a1.3,1.3,0,0,0,0-2.254Zm-8.256,4.015V52.041l5,2.888Z" transform="translate(-335.736 -48.486)"/></g><g transform="translate(-10931.991 6760.625)"><path class="c" d="M118.828,105H105.813a1.3,1.3,0,0,0,0,2.6h13.015a1.3,1.3,0,0,0,0-2.6Z" transform="translate(-104.512 -105)"/></g><g transform="translate(-10918.977 6767.913)"><path class="c" d="M206.733,161.381a1.3,1.3,0,1,0,.381.92A1.311,1.311,0,0,0,206.733,161.381Z" transform="translate(-204.511 -161)"/></g><g transform="translate(-10931.991 6767.913)"><path class="c" d="M113.946,161h-8.133a1.3,1.3,0,1,0,0,2.6h8.133a1.3,1.3,0,1,0,0-2.6Z" transform="translate(-104.512 -161)"/></g></g><g transform="translate(11720 -286)"><path class="i" d="M.5,47.365V140.84l81,46.765,81-46.765V47.365L81.5.6Z" transform="translate(-10872.5 6897.206)"/><line class="i" x1="81" y2="46.765" transform="translate(-10791 6944.571)"/><line class="i" x2="81" y2="46.765" transform="translate(-10872 6944.571)"/><line class="i" y1="93.474" transform="translate(-10791 6991.336)"/><path class="j" d="M112.8,93.166,56.4,124.247,0,93.166V31.081L56.4,0l56.4,31.081Z" transform="translate(-10847 6928.827)"/><path class="c" d="M24,22a1,1,0,1,0,2,0,4,4,0,0,0-8,0,1,1,0,1,0,2,0,2,2,0,0,1,4,0Z" transform="translate(-10820 6960)"/><path class="c" d="M38,18a4,4,0,0,0-4,4,1,1,0,1,0,2,0,2,2,0,0,1,4,0,1,1,0,1,0,2,0A4,4,0,0,0,38,18Z" transform="translate(-10820 6960)"/><path class="c" d="M53,14V0H7V14H6V60H54V14Zm-2.5,0L45.32,7.094,50.414,2H51V14ZM17,14V7c0-.024-.012-.046-.014-.07a1.1,1.1,0,0,0-.036-.187.868.868,0,0,0-.027-.125c-.009-.022-.027-.039-.037-.061a.946.946,0,0,0-.1-.152.978.978,0,0,0-.077-.113L12.414,2H47.586L43.294,6.292a1.122,1.122,0,0,0-.077.113.939.939,0,0,0-.1.152c-.011.022-.028.038-.038.061a.9.9,0,0,0-.027.125.922.922,0,0,0-.036.187c0,.024-.014.046-.014.07v7Zm-5,0,3-4v4Zm33-4,3,4H45ZM9,2h.586L14.68,7.094,9.5,14H9ZM52,58H8V16H52Z" transform="translate(-10820 6960)"/><path class="c" d="M38,21a1,1,0,0,0-1,1v6a7,7,0,1,1-14,0V22a1,1,0,0,0-2,0v6a9,9,0,1,0,18,0V22A1,1,0,0,0,38,21Z" transform="translate(-10820 6960)"/></g><g transform="translate(2 8)"><rect class="k" width="13.547" height="67.734" transform="translate(711.25 6675.08)"/><rect class="l" width="13.321" height="67.734" transform="translate(711.476 6675.08)"/><circle class="l" cx="6.548" cy="6.548" r="6.548" transform="translate(640.355 6728.138)"/><circle class="l" cx="6.548" cy="6.548" r="6.548" transform="translate(711.476 6657.469)"/><path class="m" d="M88.645,3.1,3.3,52.546v98.666l85.57,49.446,85.345-49.22V52.546Zm71.572,139.983L88.645,184.4,17.3,143.083V60.674L88.645,19.356l71.346,41.318v82.41Z" transform="translate(593.48 6597.021)"/><circle class="l" cx="14.901" cy="14.901" r="14.901" transform="translate(667.9 6593.122)"/><circle class="l" cx="14.901" cy="14.901" r="14.901" transform="translate(746.246 6638.278)"/><circle class="l" cx="14.901" cy="14.901" r="14.901" transform="translate(589.329 6638.278)"/><circle class="l" cx="14.901" cy="14.901" r="14.901" transform="translate(746.246 6727.913)"/><circle class="l" cx="14.901" cy="14.901" r="14.901" transform="translate(589.329 6727.913)"/><circle class="l" cx="14.901" cy="14.901" r="14.901" transform="translate(667.9 6774.197)"/><path class="m" d="M89.2,71.4,62.563,111.138,35.921,71.4V95.785H22.6V27.6L62.563,87.206,89.2,47.243" transform="translate(617.755 6627.837)"/><path class="n" d="M.5,71.275V212.541l122.413,70.675,65.044-37.553,5.737-3.312,51.633-29.81V71.275L122.913.6Z" transform="translate(560.087 6556.4)"/><path class="l" d="M79.985,66.063,39.993,88.1,0,66.063V22.039L39.993,0,79.985,22.039Z" transform="translate(767.407 6654.899)"/><path class="l" d="M79.985,66.063,39.993,88.1,0,66.063V22.039L39.993,0,79.985,22.039Z" transform="translate(705.407 6548.899)"/><path class="l" d="M79.985,66.063,39.993,88.1,0,66.063V22.039L39.993,0,79.985,22.039Z" transform="translate(580.407 6547.899)"/><path class="l" d="M79.985,66.063,39.993,88.1,0,66.063V22.039L39.993,0,79.985,22.039Z" transform="translate(517.407 6653.899)"/><g transform="translate(542.871 6690.265)"><path class="c" d="M0,.1H3.287V6.839L6.246.1H9.369L6.246,7.332l3.287,8.876H6.246L3.781,8.976,3.287,9.8v6.246H0Z" transform="translate(0 0.064)"/><path class="c" d="M9.123,9.8,6,.1H9.123l1.644,5.589L12.41.1h2.959L12.246,9.8v6.41H9.123Z" transform="translate(3.862 0.064)"/><path class="c" d="M13.286,14.958a7.011,7.011,0,0,1-.986-3.945V5.424a6.32,6.32,0,0,1,.986-3.945C13.944.493,15.094,0,16.9,0c1.644,0,2.794.329,3.452,1.151A5.393,5.393,0,0,1,21.34,4.6V5.917H18.217V3.287a.854.854,0,0,0-.329-.657,1.256,1.256,0,0,0-.822-.329c-.657,0-.986.164-1.151.493a4.124,4.124,0,0,0-.329,1.644V11.67a3.536,3.536,0,0,0,.329,1.644c.164.329.493.493,1.151.493.493,0,.986-.164.986-.493a4.58,4.58,0,0,0,.164-1.644V10.355H21.34V11.67a6.251,6.251,0,0,1-.986,3.616c-.657.986-1.808,1.151-3.452,1.151C15.094,16.437,13.944,15.944,13.286,14.958Z" transform="translate(7.917)"/></g><g transform="translate(604.871 6584.265)"><path class="c" d="M0,.1H3.287V6.839L6.246.1H9.369L6.246,7.332l3.287,8.876H6.246L3.781,8.976,3.287,9.8v6.246H0Z" transform="translate(0 0.064)"/><path class="c" d="M9.123,9.8,6,.1H9.123l1.644,5.589L12.41.1h2.959L12.246,9.8v6.41H9.123Z" transform="translate(3.862 0.064)"/><path class="c" d="M13.286,14.958a7.011,7.011,0,0,1-.986-3.945V5.424a6.32,6.32,0,0,1,.986-3.945C13.944.493,15.094,0,16.9,0c1.644,0,2.794.329,3.452,1.151A5.393,5.393,0,0,1,21.34,4.6V5.917H18.217V3.287a.854.854,0,0,0-.329-.657,1.256,1.256,0,0,0-.822-.329c-.657,0-.986.164-1.151.493a4.124,4.124,0,0,0-.329,1.644V11.67a3.536,3.536,0,0,0,.329,1.644c.164.329.493.493,1.151.493.493,0,.986-.164.986-.493a4.58,4.58,0,0,0,.164-1.644V10.355H21.34V11.67a6.251,6.251,0,0,1-.986,3.616c-.657.986-1.808,1.151-3.452,1.151C15.094,16.437,13.944,15.944,13.286,14.958Z" transform="translate(7.917)"/></g><g transform="translate(730.871 6585.265)"><path class="c" d="M0,.1H3.287V6.839L6.246.1H9.369L6.246,7.332l3.287,8.876H6.246L3.781,8.976,3.287,9.8v6.246H0Z" transform="translate(0 0.064)"/><path class="c" d="M9.123,9.8,6,.1H9.123l1.644,5.589L12.41.1h2.959L12.246,9.8v6.41H9.123Z" transform="translate(3.862 0.064)"/><path class="c" d="M13.286,14.958a7.011,7.011,0,0,1-.986-3.945V5.424a6.32,6.32,0,0,1,.986-3.945C13.944.493,15.094,0,16.9,0c1.644,0,2.794.329,3.452,1.151A5.393,5.393,0,0,1,21.34,4.6V5.917H18.217V3.287a.854.854,0,0,0-.329-.657,1.256,1.256,0,0,0-.822-.329c-.657,0-.986.164-1.151.493a4.124,4.124,0,0,0-.329,1.644V11.67a3.536,3.536,0,0,0,.329,1.644c.164.329.493.493,1.151.493.493,0,.986-.164.986-.493a4.58,4.58,0,0,0,.164-1.644V10.355H21.34V11.67a6.251,6.251,0,0,1-.986,3.616c-.657.986-1.808,1.151-3.452,1.151C15.094,16.437,13.944,15.944,13.286,14.958Z" transform="translate(7.917)"/></g><g transform="translate(792.871 6690.265)"><path class="c" d="M0,.1H3.287V6.839L6.246.1H9.369L6.246,7.332l3.287,8.876H6.246L3.781,8.976,3.287,9.8v6.246H0Z" transform="translate(0 0.064)"/><path class="c" d="M9.123,9.8,6,.1H9.123l1.644,5.589L12.41.1h2.959L12.246,9.8v6.41H9.123Z" transform="translate(3.862 0.064)"/><path class="c" d="M13.286,14.958a7.011,7.011,0,0,1-.986-3.945V5.424a6.32,6.32,0,0,1,.986-3.945C13.944.493,15.094,0,16.9,0c1.644,0,2.794.329,3.452,1.151A5.393,5.393,0,0,1,21.34,4.6V5.917H18.217V3.287a.854.854,0,0,0-.329-.657,1.256,1.256,0,0,0-.822-.329c-.657,0-.986.164-1.151.493a4.124,4.124,0,0,0-.329,1.644V11.67a3.536,3.536,0,0,0,.329,1.644c.164.329.493.493,1.151.493.493,0,.986-.164.986-.493a4.58,4.58,0,0,0,.164-1.644V10.355H21.34V11.67a6.251,6.251,0,0,1-.986,3.616c-.657.986-1.808,1.151-3.452,1.151C15.094,16.437,13.944,15.944,13.286,14.958Z" transform="translate(7.917)"/></g></g></g></svg>