<svg xmlns="http://www.w3.org/2000/svg" viewBox="0 0 381.2 451.208"><defs><style>.a{fill:#007aff;}.b{fill:#add3fb;}.c{fill:#fff;stroke:#007aff;stroke-width:4px;}.d{stroke:none;}.e{fill:none;}</style></defs><rect class="a" width="3.613" height="106.994" transform="translate(189.59 75.914)"/><rect class="a" width="3.613" height="37.607" transform="matrix(0.866, -0.5, 0.5, 0.866, 152.929, 154.897)"/><rect class="a" width="3.613" height="37.607" transform="matrix(-0.866, -0.5, 0.5, -0.866, 212.412, 187.457)"/><rect class="a" width="3.613" height="37.607" transform="matrix(-0.866, 0.5, -0.5, -0.866, 231.201, 296.082)"/><rect class="a" width="3.613" height="37.607" transform="matrix(0.866, 0.5, -0.5, 0.866, 171.718, 263.534)"/><rect class="a" width="3.613" height="38.501" transform="translate(109.091 227.411) rotate(-90)"/><rect class="a" width="3.613" height="38.501" transform="translate(232.638 227.414) rotate(-90)"/><rect class="a" width="3.613" height="108.509" transform="matrix(-0.5, -0.866, 0.866, -0.5, 229.013, 204.656)"/><rect class="a" width="3.613" height="108.509" transform="matrix(0.5, -0.866, 0.866, 0.5, 58.499, 150.386)"/><rect class="a" width="3.613" height="108.509" transform="matrix(0.5, 0.866, -0.866, 0.5, 152.479, 246.14)"/><rect class="a" width="3.613" height="108.509" transform="matrix(-0.5, 0.866, -0.866, -0.5, 322.993, 300.379)"/><rect class="a" width="3.613" height="106.994" transform="translate(189.59 269.699)"/><path class="b" d="M722.834,487.5,689.5,506.731v38.5l33.334,19.231,33.334-19.231v-38.5Zm28.089,20.28-28.089,16.239L694.745,507.78l28.089-16.24ZM693,510.81l28.089,16.239v32.44L693,543.25Zm31.585,48.641v-32.44l28.089-16.239V543.25Z" transform="translate(-421.627 -298.104)"/><path class="b" d="M144.634,492.7,111.3,511.931v38.5l33.334,19.231,33.334-19.231v-38.5Zm28.089,20.28-28.089,16.239L116.545,512.98l28.089-16.239Zm-57.965,3.03,28.089,16.239v32.44L114.758,548.45Zm31.624,48.641v-32.44l28.089-16.24v32.44Z" transform="translate(-68.06 -301.284)"/><path class="b" d="M303.234,734.4,269.9,753.631v38.5l33.334,19.231,33.334-19.231v-38.5Zm28.089,20.241-28.089,16.24-28.089-16.24L303.234,738.4Zm-57.926,3.03,28.089,16.239v32.44L273.4,790.112Zm31.585,48.68v-32.44l28.089-16.239v32.44Z" transform="translate(-165.043 -449.083)"/><path class="b" d="M573.134,734.4,539.8,753.631v38.5l33.334,19.231,33.334-19.231v-38.5Zm28.089,20.241-28.089,16.24-28.089-16.24L573.134,738.4Zm-57.926,3.03,28.089,16.239v32.44L543.3,790.112Zm31.585,48.68v-32.44l28.089-16.239v32.44Z" transform="translate(-330.086 -449.083)"/><path class="b" d="M303.234,229.5,269.9,248.731v38.5l33.334,19.231,33.334-19.231v-38.5Zm28.089,20.241-28.089,16.239-28.089-16.239L303.234,233.5Zm-57.926,3.03,28.089,16.239v32.44L273.4,285.25Zm31.585,48.68v-32.44l28.089-16.239V285.25Z" transform="translate(-165.043 -140.338)"/><path class="b" d="M573.134,229.5,539.8,248.731v38.5l33.334,19.231,33.334-19.231v-38.5Zm28.089,20.241-28.089,16.239-28.089-16.239L573.134,233.5Zm-57.926,3.03,28.089,16.239v32.44L543.3,285.25Zm31.585,48.68v-32.44l28.089-16.239V285.25Z" transform="translate(-329.086 -140.338)"/><path class="b" d="M440.134,0,406.8,19.231v38.5l33.334,19.231,33.334-19.231v-38.5Zm28.128,20.241L440.173,36.481,412.084,20.241,440.173,4ZM410.3,23.271l28.089,16.239v32.44L410.3,55.711Zm31.585,48.68V39.511l28.089-16.239v32.44Z" transform="translate(-248.757)"/><path class="b" d="M440.134,963.3,406.8,982.531v38.5l33.334,19.231,33.334-19.231v-38.5Zm28.128,20.241-28.089,16.24-28.089-16.24L440.173,967.3Zm-57.965,3.03,28.089,16.24v32.44l-28.089-16.24Zm31.585,48.68v-32.44l28.089-16.24v32.44Z" transform="translate(-248.757 -589.054)"/><path class="b" d="M33.334,229.5,0,248.77v38.5L33.334,306.5l33.334-19.231v-38.5Zm28.089,20.241L33.334,265.981,5.245,249.741,33.334,233.5ZM3.5,252.771l28.089,16.239v32.44L3.5,285.25Zm31.585,48.68v-32.44l28.089-16.239V285.25Z" transform="translate(0 -140.338)"/><path class="b" d="M842.934,229.5,809.6,248.731v38.5l33.334,19.231,33.334-19.231v-38.5Zm28.128,20.241-28.089,16.239-28.089-16.239L842.973,233.5Zm-57.965,3.03,28.089,16.239v32.44L813.1,285.25Zm31.585,48.68v-32.44l28.089-16.239V285.25Z" transform="translate(-495.067 -140.338)"/><path class="b" d="M33.334,734.4,0,753.631v38.5l33.334,19.231,33.334-19.231v-38.5Zm28.089,20.241-28.089,16.24L5.245,754.641,33.334,738.4ZM3.5,757.671l28.089,16.239v32.44L3.5,790.112Zm31.585,48.68v-32.44l28.089-16.239v32.44Z" transform="translate(0 -449.083)"/><path class="b" d="M842.934,734.4,809.6,753.631v38.5l33.334,19.231,33.334-19.231v-38.5Zm28.128,20.241-28.089,16.24-28.089-16.24L842.973,738.4Zm-57.965,3.03,28.089,16.239v32.44L813.1,790.112Zm31.585,48.68v-32.44l28.089-16.239v32.44Z" transform="translate(-495.067 -449.083)"/><g transform="translate(146.621 180.849)"><path class="a" d="M422.156,555.011a44.756,44.756,0,1,1,44.756-44.756A44.817,44.817,0,0,1,422.156,555.011Zm0-85.626a40.871,40.871,0,1,0,40.871,40.871A40.921,40.921,0,0,0,422.156,469.385Z" transform="translate(-377.4 -465.5)"/></g><g class="c" transform="translate(162 196.904)"><circle class="d" cx="29" cy="29" r="29"/><circle class="e" cx="29" cy="29" r="27"/></g><g class="c" transform="translate(175 209.904)"><circle class="d" cx="16" cy="16" r="16"/><circle class="e" cx="16" cy="16" r="14"/></g></svg>