<svg xmlns="http://www.w3.org/2000/svg" viewBox="0 0 31.928 127.067"><defs><style>.a{fill:#007aff;}</style></defs><g transform="translate(-667.836 -932.266)"><g transform="translate(667.836 952.266)"><path class="a" d="M81.3-20V31.322l.837.484.837-.484V-20" transform="translate(-66.173)"/><g transform="translate(0 23.079)"><path class="a" d="M18.476,151v1.935l10.94,6.326-13.452,7.777L2.512,159.261l10.94-6.326V151L0,158.759V177.2l15.964,9.21,15.964-9.21V158.759Zm-3.349,33.007L1.675,176.23V160.694l13.452,7.777Zm15.127-7.777L16.8,184.007V168.471l13.452-7.777Z" transform="translate(0 -151)"/></g><path class="a" d="M82.975,397.694V350.9l-.837.484L81.3,350.9v46.794" transform="translate(-66.173 -290.627)"/></g></g></svg>