<svg xmlns="http://www.w3.org/2000/svg" viewBox="0 0 331.813 355.108"><defs><style>.a{opacity:0.3;}.b{fill:#007aff;}.c{fill:none;}</style></defs><g class="a" transform="translate(123.595 223.988)"><path class="b" d="M421.2,854.4l-26.933,15.457-.063,31.071,26.87,15.614L448,901.085l.063-31.071Zm22.637,16.429L421.1,883.841,398.464,870.7l22.7-13.043Zm-46.779,2.32,22.637,13.137-.063,26.18L396.99,899.329Zm25.4,39.348.063-26.18,22.7-13.043-.063,26.18Z" transform="translate(-394.2 -810.505)"/><path class="b" d="M584.2,854.4l-26.9,15.551v31.071l26.9,15.52,26.9-15.52V869.951Zm22.7,16.366-22.668,13.106-22.668-13.106,22.668-13.106Zm-46.779,2.446,22.668,13.106V912.5l-22.668-13.106Zm25.49,39.254v-26.18l22.668-13.106v26.18Z" transform="translate(-506.163 -810.505)"/><g transform="translate(25.647)"><path class="c" d="M588.968,850.212V846.7L566.3,860.088v3.2Z" transform="translate(-537.988 -805.22)"/><path class="c" d="M507.668,863.286v-3.2L485,846.7v3.512Z" transform="translate(-482.178 -805.22)"/><path class="c" d="M507.668,787.474,485,774.4v22.668l22.668,13.388Z" transform="translate(-482.178 -755.588)"/><path class="c" d="M588.968,774.4,566.3,787.474v22.982l22.668-13.388Z" transform="translate(-537.988 -755.588)"/><path class="c" d="M489.5,737.906l22.668,13.074,22.668-13.074L512.168,724.8Z" transform="translate(-485.267 -721.539)"/><path class="b" d="M502.9,714.4,476,729.951v24.267l2.822,1.662V733.212l22.668,13.106v22.951l1.411.847,1.411-.847V746.286l22.668-13.106v22.668l2.822-1.662V729.951Zm0,29.441-22.668-13.106L502.9,717.629l22.668,13.106Z" transform="translate(-476 -714.4)"/></g><path class="c" d="M512.168,944.8,489.5,957.906l18.812,10.848,3.856-2.257,3.919,2.226,18.749-10.817Z" transform="translate(-459.62 -872.562)"/><path class="c" d="M549.5,1016.257l3.856,2.226,3.919-2.257L553.356,1014Z" transform="translate(-500.808 -920.065)"/><path class="c" d="M485,1014.592l17.4-10.127L485,994.4Z" transform="translate(-456.531 -906.611)"/><path class="c" d="M583.4,1004.4l17.307,9.814V994.4Z" transform="translate(-524.079 -906.611)"/><path class="c" d="M566.3,1029.373v26.18l22.668-13.074v-6.365l-17.307-9.814Z" transform="translate(-512.341 -928.509)"/><path class="c" d="M485,1042.616l22.668,13.074v-26.18l-5.267-3.01L485,1036.627Z" transform="translate(-456.531 -928.646)"/><path class="b" d="M526.981,1032.544v6.365l-22.668,13.074V1025.8l5.361-3.073-2.853-1.63-3.919,2.257-3.856-2.226-2.822,1.662,5.267,3.01v26.18l-22.668-13.074v-5.989L476,1034.582v5.957l26.9,15.52,26.9-15.52v-6.4Z" transform="translate(-450.353 -924.939)"/></g><g transform="translate(92.712)"><g transform="translate(12.855 5.644)"><path class="b" d="M409.6,67.632h-3.135V48.57L379.027,21.135H336.7V18h43.644L409.6,47.284Z" transform="translate(-336.7 -18)"/></g><g transform="translate(82.616 5.644)"><path class="b" d="M562.335,67.632H559.2V47.284L588.484,18h43.644v3.135H589.8L562.335,48.57Z" transform="translate(-559.2 -18)"/></g><path class="b" d="M302.911,14.423a7.211,7.211,0,1,1,7.211-7.211A7.212,7.212,0,0,1,302.911,14.423Zm0-11.287a4.076,4.076,0,1,0,4.076,4.076A4.068,4.068,0,0,0,302.911,3.135Z" transform="translate(-295.7)"/><g transform="translate(153.976)"><path class="b" d="M794.011,14.423a7.211,7.211,0,1,1,7.211-7.211A7.212,7.212,0,0,1,794.011,14.423Zm0-11.287a4.076,4.076,0,1,0,4.076,4.076A4.068,4.068,0,0,0,794.011,3.135Z" transform="translate(-786.8)"/></g><g transform="translate(0 115.474)"><path class="b" d="M302.911,382.723a7.211,7.211,0,1,1,7.211-7.211A7.212,7.212,0,0,1,302.911,382.723Zm0-11.287a4.076,4.076,0,1,0,4.076,4.076A4.068,4.068,0,0,0,302.911,371.435Z" transform="translate(-295.7 -368.3)"/></g><g transform="translate(153.976 115.474)"><path class="b" d="M794.011,382.723a7.211,7.211,0,1,1,7.211-7.211A7.212,7.212,0,0,1,794.011,382.723Zm0-11.287a4.076,4.076,0,1,0,4.076,4.076A4.068,4.068,0,0,0,794.011,371.435Z" transform="translate(-786.8 -368.3)"/></g><g transform="translate(57.283 41.543)"><g transform="translate(25.365)"><path class="b" d="M559.3,136.67l1.536-.909,1.568.909v-3.261l-1.568-.909-1.536.909Z" transform="translate(-559.3 -132.5)"/></g><g transform="translate(0 2.728)"><path class="b" d="M510,141.2v3.261l17.965,10.378L505.3,167.944l-22.668-13.106L500.6,144.461V141.2l-22.2,12.824v31.071l26.9,15.52,26.9-15.52V154.023Zm-6.114,55.339-22.668-13.074v-26.18L503.89,170.39Zm25.522-13.074L506.743,196.57V170.39l22.668-13.106Z" transform="translate(-478.4 -141.2)"/></g></g><g transform="translate(12.855 101.742)"><path class="b" d="M398.4,324.5l-19.376,19.376H336.7v3.135h43.644l20.85-20.881Z" transform="translate(-336.7 -324.5)"/></g><g transform="translate(91.019 101.742)"><path class="b" d="M608.2,343.876,588.79,324.5,586,326.1l20.881,20.913h43.644v-3.135Z" transform="translate(-586 -324.5)"/></g></g><g transform="translate(232.767 181.787)"><path class="b" d="M770.869,626.516h-3.135V582.935H742.4V579.8h28.469Z" transform="translate(-742.4 -579.8)"/></g><g transform="translate(232.767 212.231)"><path class="b" d="M824.768,676.9l-1.568.909v3.261l1.568-.909,1.568.909v-3.261Z" transform="translate(-797.867 -676.9)"/><path class="b" d="M774,685.6v3.261l17.966,10.378L769.3,712.344l-22.668-13.106L764.6,688.861V685.6l-22.2,12.823v31.071l26.9,15.52,26.9-15.52V698.423Zm-6.114,55.339-22.668-13.106v-26.18l22.668,13.106Zm25.522-13.074L770.743,740.97V714.79l22.668-13.106Z" transform="translate(-742.4 -682.872)"/></g><g transform="translate(193.45 147.768)"><path class="b" d="M667.981,511.589v4.672l-22.668,13.106v-26.18l22.668-13.106v12.134H670.8V486.82L643.9,471.3,617,486.82v31.071l26.9,15.52,26.9-15.52v-6.3h-2.822Zm-25.522,17.746L619.79,516.229v-26.18l22.668,13.106Zm-21.258-41.7,22.668-13.106,22.668,13.106L643.87,500.741Z" transform="translate(-617 -471.3)"/><rect class="b" width="2.822" height="3.104" transform="translate(50.981 34.05)"/></g><g transform="translate(211.698 223.455)"><path class="b" d="M682.411,727.123a7.211,7.211,0,1,1,7.211-7.211A7.212,7.212,0,0,1,682.411,727.123Zm0-11.287a4.076,4.076,0,1,0,4.076,4.076A4.068,4.068,0,0,0,682.411,715.835Z" transform="translate(-675.2 -712.7)"/></g><g class="a"><g transform="translate(168.932 131.684)"><path class="b" d="M546.011,434.423a7.211,7.211,0,1,1,7.211-7.211A7.212,7.212,0,0,1,546.011,434.423Zm0-11.287a4.076,4.076,0,1,0,4.076,4.076A4.068,4.068,0,0,0,546.011,423.135Z" transform="translate(-538.8 -420)"/></g><g transform="translate(120.648 249.635)"><path class="b" d="M392.011,810.623a7.211,7.211,0,1,1,7.211-7.211A7.212,7.212,0,0,1,392.011,810.623Zm0-11.287a4.076,4.076,0,1,0,4.076,4.076A4.068,4.068,0,0,0,392.011,799.335Z" transform="translate(-384.8 -796.2)"/></g><g transform="translate(94.781 208.312)"><path class="b" d="M309.511,678.823a7.211,7.211,0,1,1,7.211-7.211A7.212,7.212,0,0,1,309.511,678.823Zm0-11.287a4.076,4.076,0,1,0,4.076,4.076A4.068,4.068,0,0,0,309.511,667.535Z" transform="translate(-302.3 -664.4)"/></g></g><g class="a"><g transform="translate(43.895 47.438)"><path class="b" d="M208.131,199.459H140v-3.135h65V154.435H166.87V151.3h41.261Z" transform="translate(-140 -151.3)"/></g><g transform="translate(29.723 11.569)"><rect class="b" width="2.822" height="3.135" transform="translate(51.012 35.868)"/><path class="b" d="M145.812,79.07v2.79L123.143,94.966V68.786l22.668-13.106V69.633h2.822V52.42l-26.9-15.52L94.8,52.42V83.491l26.9,15.52,26.9-15.52V79.07Zm-25.522,15.9L97.622,81.861V55.681L120.29,68.786ZM99.033,53.235,121.7,40.129l22.7,13.106L121.733,66.341Z" transform="translate(-94.8 -36.9)"/></g><g transform="translate(4.233 55.589)"><path class="b" d="M64.481,220.442v1.85L41.812,235.4V209.186l22.668-13.106V211H67.3V192.82L40.4,177.3,13.5,192.82v31.1l26.9,15.52,26.9-15.52v-3.48ZM38.99,235.366,16.322,222.261v-26.18L38.99,209.186Zm-21.258-41.7L40.4,180.561,63.07,193.666,40.4,206.772Z" transform="translate(-13.5 -177.3)"/><rect class="b" width="2.822" height="3.135" transform="translate(50.981 36.872)"/></g></g><g class="a"><g transform="translate(252.332 26.337)"><path class="b" d="M807.935,114.758H804.8V84h54.116v28.939h-3.135v-25.8H807.935Z" transform="translate(-804.8 -84)"/></g><g transform="translate(303.312 107.417)"><rect class="b" width="3.135" height="53.207"/></g><g transform="translate(226.998 40.728)"><path class="b" d="M805.3,133.976l1.411-.815,1.442.847v-3.261l-1.442-.847-1.411.815Z" transform="translate(-779.81 -129.9)"/><path class="b" d="M755.479,138.331v3.261l18.091,10.441L750.9,165.138l-22.668-13.106,18.122-10.472V138.3L724,151.218v31.071l26.9,15.52,26.9-15.52V151.218Zm-5.988,55.4-22.669-13.074v-26.18l22.669,13.106Zm25.49-13.074-22.669,13.106v-26.18l22.669-13.106Z" transform="translate(-724 -135.666)"/></g><g transform="translate(278.01 144.288)"><path class="b" d="M918.147,468.6v3.261l18.122,10.472L913.6,495.438l-22.669-13.106,18.122-10.472V468.6L886.7,481.518v31.071l26.9,15.52,26.9-15.52V481.518Zm-5.988,55.433-22.668-13.106v-26.18l22.668,13.106Zm25.522-13.106-22.668,13.106v-26.18l22.668-13.106Z" transform="translate(-886.7 -465.966)"/><path class="b" d="M967.9,464.276l1.411-.815,1.442.815v-3.261l-1.442-.815-1.411.815Z" transform="translate(-942.441 -460.2)"/></g><g transform="translate(278.01 41.292)"><path class="b" d="M967.9,135.776l1.411-.815,1.442.815v-3.261l-1.442-.815-1.411.815Z" transform="translate(-942.441 -131.7)"/><path class="b" d="M918.147,140.1v3.261l18.122,10.472L913.6,166.938l-22.669-13.106,18.122-10.472V140.1L886.7,153.018v31.071l26.9,15.52,26.9-15.52V153.018Zm-5.988,55.433-22.668-13.106v-26.18l22.668,13.106Zm25.522-13.106-22.668,13.106v-26.18l22.668-13.106Z" transform="translate(-886.7 -137.466)"/></g></g><g transform="translate(40.603 181.912)"><path class="b" d="M209.765,580.2H129.5v3.135h38.565v55.182H171.2V583.335h38.565Z" transform="translate(-129.5 -580.2)"/></g><g transform="translate(73.524 146.326)"><path class="b" d="M241.711,481.123a7.211,7.211,0,1,1,7.211-7.211A7.212,7.212,0,0,1,241.711,481.123Zm0-11.287a4.076,4.076,0,1,0,4.076,4.076A4.068,4.068,0,0,0,241.711,469.835Z" transform="translate(-234.5 -466.7)"/></g><g transform="translate(79.167 160.749)"><rect class="b" width="3.135" height="22.292"/></g><g transform="translate(107.636 145.918)"><path class="b" d="M370.2,465.4l-26.9,15.52v17.307h2.822V484.181l22.668,13.106v26.18l-22.668-13.106V507.7H343.3v4.3l26.9,15.52,26.9-15.52V480.92Zm-22.668,16.335L370.2,468.629l22.668,13.106L370.2,494.841Zm46.748,28.626-22.668,13.106v-26.18l22.668-13.106Z" transform="translate(-343.3 -465.4)"/></g><g transform="translate(0 145.918)"><path class="b" d="M50.981,507.6v2.759L28.312,523.466v-26.18l22.668-13.106v14.046H53.8V480.92L26.9,465.4,0,480.92v31.071l26.9,15.52,26.9-15.52V507.6ZM25.49,523.466,2.822,510.361v-26.18L25.49,497.286ZM4.233,481.735,26.9,468.629,49.57,481.735,26.9,494.841Z" transform="translate(0 -465.4)"/></g><g transform="translate(53.834 230.134)"><path class="b" d="M203.3,734v3.261l17.965,10.378L198.6,760.744l-22.668-13.106L193.9,737.261V734l-22.2,12.824v31.071l26.9,15.52,26.9-15.52V746.824Zm-6.114,55.339-22.668-13.106v-26.18l22.668,13.106Zm25.49-13.074-22.668,13.074v-26.18l22.668-13.106Z" transform="translate(-171.7 -734)"/></g></svg>