<svg xmlns="http://www.w3.org/2000/svg" viewBox="0 0 335.298 374.979"><defs><style>.a{fill:#007aff;}.b{opacity:0.3;}</style></defs><g transform="translate(-217.087 -1075.341)"><g transform="translate(241.795 1679.788)"><g transform="translate(0 -604.447)"><g transform="translate(76.164 227.357)"><path class="a" d="M-166.685-5.457h-138.82V-10h138.82Z" transform="translate(305.505 10.002)"/></g><g transform="translate(55.824 76.138)"><path class="a" d="M-4.725-147.451l-3.935-2.272L60.928-270.254l3.936,2.272Z" transform="translate(8.66 270.254)"/></g><g transform="translate(161.803 76.138)"><path class="a" d="M-83.556-147.452l-69.589-120.531,3.936-2.272,69.588,120.531Z" transform="translate(153.145 270.255)"/></g><g transform="translate(106.579 0)"><path class="a" d="M-4.91-78.266v-37.946l27.981,16.156,4.88,2.817v37.946l-9.506-5.488L6.64-71.6ZM30-138.727l32.863,18.973L34.6-103.44,30-100.781l-4.6-2.659L-2.866-119.754ZM64.9-78.266,53.353-71.6,41.547-64.782l-9.506,5.488V-97.239l4.881-2.818L64.9-116.212ZM30-53.391l13.6-7.849L55.4-68.056l13.6-7.85v-45.028L30-143.449-9-120.934v45.028l13.6,7.85L16.4-61.24Z" transform="translate(9 143.449)"/></g><g transform="translate(213.158 184.6)"><path class="a" d="M-88.737-78.266-121.6-59.293V-97.239l4.618-2.666,28.244-16.306Zm-69.814,0v-37.946l19.011,10.976,13.851,8v37.946ZM-147-125.242l11.806-6.816,11.55-6.669,32.862,18.973L-118.764-103.6l-4.881,2.818-13.85-8-19.012-10.977Zm23.356-18.207-13.6,7.849-11.806,6.816-13.6,7.85v45.028l39,22.515,39-22.515v-45.028Z" transform="translate(162.641 143.449)"/></g><g transform="translate(0 184.6)"><path class="a" d="M-88.737-78.266-121.6-59.293V-97.239l13.851-8,19.012-10.976v37.946Zm-69.814,0v-37.946L-130.295-99.9l4.605,2.659v37.946Zm34.907-60.461,11.551,6.669,11.806,6.815,9.506,5.488-19.012,10.976-13.85,8-4.88-2.817-27.982-16.156Zm39,17.793-13.6-7.85-11.805-6.816-13.6-7.849-39,22.515v45.028l39,22.515,39-22.515v-45.028Z" transform="translate(162.641 143.449)"/></g><path class="a" d="M89.327,71.636H73.471L70.4,0H92.469Z" transform="translate(64.029 108.661)"/><ellipse class="a" cx="9.571" cy="9.571" rx="9.571" ry="9.571" transform="translate(135.857 190.654)"/></g></g><g class="b" transform="translate(474.087 1098.181)"><path class="a" d="M49.233,77.9,49,82.508,72.138,95.878,39.149,114.95,6.16,95.878,29.293,82.508,29.111,77.9,0,94.691v45.218l39.149,22.586L78.3,139.909V94.691ZM37.1,156.609,4.107,137.536v-38.1L37.1,118.509Zm37.1-19.073L41.2,156.609v-38.1L74.192,99.437Z" transform="translate(0 -42.356)"/><path class="a" d="M82.492,45.765H72.362L70.4,0H84.5Z" transform="translate(-38.278)"/><circle class="a" cx="5.837" cy="5.837" r="5.837" transform="translate(33.313 51.104)"/></g><g class="b" transform="translate(217.087 1098.181)"><path class="a" d="M49.233,77.9,49,82.508,72.138,95.878,39.149,114.95,6.16,95.878,29.293,82.508,29.111,77.9,0,94.691v45.218l39.149,22.586L78.3,139.909V94.691ZM37.1,156.609,4.107,137.536v-38.1L37.1,118.509Zm37.1-19.073L41.2,156.609v-38.1L74.192,99.437Z" transform="translate(0 -42.356)"/><path class="a" d="M82.492,45.765H72.362L70.4,0H84.5Z" transform="translate(-38.278)"/><circle class="a" cx="5.837" cy="5.837" r="5.837" transform="translate(33.313 51.104)"/></g><g class="b" transform="translate(348.087 1330.181)"><path class="a" d="M49.233,77.9,49,82.508,72.138,95.878,39.149,114.95,6.16,95.878,29.293,82.508,29.111,77.9,0,94.691v45.218l39.149,22.586L78.3,139.909V94.691ZM37.1,156.609,4.107,137.536v-38.1L37.1,118.509Zm37.1-19.073L41.2,156.609v-38.1L74.192,99.437Z" transform="translate(0 -42.356)"/><path class="a" d="M82.492,45.765H72.362L70.4,0H84.5Z" transform="translate(-38.278)"/><circle class="a" cx="5.837" cy="5.837" r="5.837" transform="translate(33.313 51.104)"/></g></g></svg>