<svg xmlns="http://www.w3.org/2000/svg" viewBox="0 0 55.675 104.97"><defs><style>.a{fill:#007aff;}</style></defs><path class="a" d="M13.066,0,0,7.538V22.63l13.066,7.538L26.132,22.63V7.538Zm11.01,7.934L13.066,14.3,2.056,7.934l11.01-6.366ZM1.371,9.122l11.01,6.366V28.2l-11.01-6.35ZM13.751,28.2V15.487l11.01-6.366V21.838Z"/><path class="a" d="M207.066,491.2,194,498.738V513.83l13.066,7.538,13.066-7.538V498.738Zm11.01,7.934-11.01,6.365-11.01-6.365,11.01-6.366Zm-22.706,1.188,11.01,6.365V519.4l-11.01-6.365ZM207.751,519.4V506.687l11.01-6.365v12.716Z" transform="translate(-164.457 -416.398)"/><path class="a" d="M81.3,203.6v58.889H97.092v-1.371H82.671V203.6l-.685.4Z" transform="translate(-68.919 -172.595)"/><path class="a" d="M180.6,92.5v1.371h14.421v58.371l.685-.4.685.4V92.5Z" transform="translate(-153.097 -78.414)"/><line transform="translate(12.381 28.203)"/></svg>