<svg xmlns="http://www.w3.org/2000/svg" viewBox="0 0 26.464 84.282"><defs><style>.a{fill:#007aff;}</style></defs><path class="a" d="M13.232,0,0,7.634V22.917l13.232,7.634,13.232-7.634V7.634Zm11.15,8.035-11.15,6.446L2.082,8.035l11.15-6.446ZM1.388,9.238l11.15,6.446V28.562L1.388,22.131ZM13.926,28.562V15.684l11.15-6.446V22.115Z"/><path class="a" d="M81.3,209.1v29.518l.694.4.694-.4V209.1l-.694.4Z" transform="translate(-68.762 -176.852)"/><g transform="translate(0 54.934)"><path class="a" d="M15.314,356.2v1.6l9.068,5.244-11.15,6.446-11.15-6.446L11.15,357.8v-1.6L0,362.646v15.268l13.232,7.634,13.232-7.634V362.646Zm-2.776,27.359-11.15-6.431V364.25l11.15,6.446Zm12.538-6.431-11.15,6.446V370.7l11.15-6.446Z" transform="translate(0 -356.2)"/></g></svg>