<svg xmlns="http://www.w3.org/2000/svg" viewBox="0 0 64.688 72.244"><defs><style>.a,.d,.g{fill:#fafafa;}.a,.c{stroke:#a7d0fd;}.b{fill:#a7d0fd;}.c,.f,.i{fill:none;}.d,.f{stroke:#007aff;}.e{fill:#007aff;}.g,.i{stroke:#a8a8a8;}.h{fill:#a8a8a8;}</style></defs><g transform="translate(4016.582 -9644.756)"><g transform="translate(-14581 4292)"><path class="a" d="M-17736.812-6768.817l-9.844-5.682-9.844,5.682v11.435l9.844,5.648,9.844-5.648Z" transform="translate(28321.418 12127.832)"/><circle class="b" cx="5.5" cy="5.5" r="5.5" transform="translate(10569 5359)"/></g><circle class="b" cx="2.5" cy="2.5" r="2.5" transform="translate(-4009 9712)"/><line class="c" y2="44" transform="translate(-4006.5 9668.5)"/><g transform="translate(-14559 4292)"><path class="d" d="M-17736.812-6768.817l-9.844-5.682-9.844,5.682v11.435l9.844,5.648,9.844-5.648Z" transform="translate(28321.418 12127.832)"/><circle class="e" cx="5.5" cy="5.5" r="5.5" transform="translate(10569 5359)"/></g><circle class="e" cx="2.5" cy="2.5" r="2.5" transform="translate(-3987 9712)"/><line class="f" y2="44" transform="translate(-3984.5 9668.5)"/><g transform="translate(-14537 4292)"><path class="g" d="M-17736.812-6768.817l-9.844-5.682-9.844,5.682v11.435l9.844,5.648,9.844-5.648Z" transform="translate(28321.418 12127.832)"/><circle class="h" cx="5.5" cy="5.5" r="5.5" transform="translate(10569 5359)"/></g><circle class="h" cx="2.5" cy="2.5" r="2.5" transform="translate(-3965 9712)"/><line class="i" y2="44" transform="translate(-3962.5 9668.5)"/></g></svg>